<svg width="125" height="168" viewBox="0 0 125 168" fill="none" xmlns="http://www.w3.org/2000/svg">
<rect width="125" height="168" fill="#FFCB74"/>
<path opacity="0.8" d="M49.8553 115.831C21.6717 124.299 62.2232 133.554 93.7372 125.638C125.235 117.722 78.8087 107.128 49.8553 115.831Z" fill="#A1498E"/>
<path opacity="0.8" d="M36.249 126.776C25.2701 130.073 41.069 133.671 53.3365 130.592C65.5873 127.512 47.5124 123.395 36.249 126.776Z" fill="#A1498E"/>
<path fill-rule="evenodd" clip-rule="evenodd" d="M113.988 90.7432C113.988 90.7432 112.03 103.011 103.26 113.203C97.0341 120.433 87.3774 126.625 72.5325 126.625C68.3485 126.625 64.5996 126.106 61.2692 125.203C36.0981 118.374 33.6212 89.2537 33.6212 89.2537L113.988 90.7432Z" fill="url(#paint0_linear_925_4022)"/>
<path d="M35.044 84.6179C22.5589 105.504 94.7583 118.659 112.599 93.4545C118.273 85.438 105.955 75.6474 89.3861 72.3336C69.6542 68.4006 43.479 70.5094 35.044 84.6179Z" fill="url(#paint1_linear_925_4022)"/>
<path d="M38.642 84.7852C28.9686 104.249 93.5196 114.977 109.235 92.7683C114.088 85.9065 105.302 77.9736 89.2017 74.3586C71.7125 70.4591 44.7674 72.4172 38.642 84.7852Z" fill="url(#paint2_linear_925_4022)"/>
<path opacity="0.3" d="M88.9843 75.0281C73.972 72.501 70.4072 98.8101 71.3947 102.726C72.3821 106.643 97.2017 103.965 105.486 96.7683C113.787 89.555 109.837 78.5427 88.9843 75.0281Z" fill="#B35EA2"/>
<path opacity="0.3" d="M38.2237 86.8772C41.5709 78.8774 52.2987 75.0783 62.0391 75.4465C71.7963 75.8314 64.65 96.2327 54.5748 97.99C44.4997 99.7473 36.0982 93.8897 38.2237 86.8772Z" fill="#F6F6F6"/>
<path opacity="0.8" d="M107.394 83.4295C104.097 80.1995 100.616 95.4125 96.733 99.7472C92.8502 104.082 75.1769 105.153 75.1769 105.153C75.1769 105.153 96.3648 104.617 104.8 97.3037C113.586 89.6888 110.457 86.4253 107.394 83.4295Z" fill="#A1498E"/>
<path d="M41.3534 82.9779C39.7802 85.7059 43.3115 85.6557 45.4035 82.3754C47.5122 79.1119 43.3952 79.4633 41.3534 82.9779Z" fill="#F6F6F6"/>
<path d="M45.2361 84.3836C44.3826 84.1159 46.1566 83.1117 46.4579 83.4632C46.6754 83.7142 45.9056 84.6012 45.2361 84.3836Z" fill="#F6F6F6"/>
<path opacity="0.5" fill-rule="evenodd" clip-rule="evenodd" d="M79.3777 106.994C74.8757 106.743 93.6871 103.546 97.6703 102.007C101.637 100.484 96.1975 107.647 79.3777 106.994Z" fill="#F6F6F6"/>
<path opacity="0.5" fill-rule="evenodd" clip-rule="evenodd" d="M36.0647 95.396C35.5961 92.3667 42.6253 98.2244 51.8301 101.454C61.035 104.701 52.533 104.216 52.533 104.216C52.533 104.216 41.1358 101.371 36.0647 95.396Z" fill="#F6F6F6"/>
<path opacity="0.2" fill-rule="evenodd" clip-rule="evenodd" d="M39.8135 103.73C38.1232 99.9313 65.085 107.663 78.4069 111.228C91.7288 114.793 85.6703 124.148 74.8756 124.567C64.0808 124.985 47.9138 122.006 39.8135 103.73Z" fill="#DD5359"/>
<path opacity="0.5" fill-rule="evenodd" clip-rule="evenodd" d="M109.436 100.082C107.595 98.5926 94.4402 106.91 87.4613 107.948C80.4656 108.986 86.3065 113.304 84.9174 118.81C83.545 124.316 106.256 117.437 109.436 100.082Z" fill="#EFC5B1"/>
<path d="M93.7707 104.634C92.7833 104.3 96.9506 102.191 98.0217 102.124C99.076 102.057 99.076 103.195 98.4066 103.563C95.8794 104.869 93.7707 104.634 93.7707 104.634Z" fill="#F6F6F6"/>
<path opacity="0.8" fill-rule="evenodd" clip-rule="evenodd" d="M103.243 113.22C97.0175 120.45 87.3608 126.642 72.5159 126.642C68.3319 126.642 64.583 126.123 61.2525 125.219C63.8801 125.604 68.3151 126.374 78.6915 124.701C92.7331 122.441 102.992 113.488 103.243 113.22Z" fill="#E48A7C"/>
<path fill-rule="evenodd" clip-rule="evenodd" d="M39.7466 108.115C39.7466 108.115 49.6209 120.852 60.3989 123.73C71.1602 126.609 79.6956 124.483 79.6956 124.483C79.6956 124.483 68.5159 126.693 60.3989 124.969C52.282 123.228 43.7298 115.011 39.7466 108.115Z" fill="#FFFFD3"/>
<path d="M97.7037 106.241C97.051 105.22 94.4736 106.308 94.6912 108.601C94.9255 110.91 98.4234 107.362 97.7037 106.241Z" fill="#F6F6F6"/>
<path d="M89.3355 72.7353C85.6703 72.8692 92.6492 75.229 97.0173 76.2833C101.385 77.321 94.1053 72.5679 89.3355 72.7353Z" fill="#F6F6F6"/>
<path opacity="0.3" d="M44.8846 105.755C44.8846 100.668 68.0306 109.253 77.7208 114.375C87.411 119.496 72.9343 123.479 60.8341 119.412C48.7339 115.345 44.8846 105.755 44.8846 105.755Z" fill="#E9B6CE"/>
<path fill-rule="evenodd" clip-rule="evenodd" d="M36.9016 96.283C36.9016 96.283 39.5291 100.132 50.8929 104.517C62.2567 108.902 79.6957 107.262 79.6957 107.262C79.6957 107.262 52.3991 109.371 36.9016 96.283Z" fill="#FFFFD3"/>
<path d="M55.1941 122.609C53.1021 120.935 57.8217 122.96 61.5873 124.031C65.3362 125.103 58.4075 125.186 55.1941 122.609Z" fill="#F6F6F6"/>
<path fill-rule="evenodd" clip-rule="evenodd" d="M40.9685 95.4295C37.9393 89.8899 46.1232 80.5177 71.9805 80.0156C98.8753 79.4968 108.934 89.8731 107.762 94.6094C107.762 94.6094 98.8586 105.689 74.3402 104.986C49.3533 104.266 40.9685 95.4295 40.9685 95.4295Z" fill="url(#paint3_linear_925_4022)"/>
<path opacity="0.6" fill-rule="evenodd" clip-rule="evenodd" d="M55.6292 89.2539C58.943 86.8941 65.9554 89.8396 75.8966 88.5342C85.8378 87.2288 77.0849 85.7058 78.0555 85.1201C79.0262 84.5176 57.8886 88.0991 57.8886 88.0991L55.6292 89.2539Z" fill="#A1498E"/>
<path opacity="0.8" fill-rule="evenodd" clip-rule="evenodd" d="M72.3986 100.417C69.2355 101.12 70.5409 102.358 81.6369 101.421C92.7497 100.484 96.2475 98.1406 96.2475 98.1406C96.2475 98.1406 79.7458 100.233 76.3818 100.4C73.0179 100.584 72.3986 100.417 72.3986 100.417Z" fill="#A1498E"/>
<path d="M76.3818 82.5426C73.8212 81.4715 69.6205 83.212 65.3862 84.417C61.152 85.622 59.8801 84.2664 58.6751 84.7015C57.4701 85.1367 57.5538 86.2747 55.1103 87.3793C52.6668 88.4839 53.0685 91.9817 53.4869 92.0654C53.8886 92.1491 53.5706 89.1533 58.2901 88.3333C63.0097 87.5132 67.0933 88.8186 72.8673 87.9985C78.6579 87.1785 78.7416 86.2412 77.8379 84.7183C76.9509 83.1785 76.3818 82.5426 76.3818 82.5426Z" fill="url(#paint4_linear_925_4022)"/>
<path opacity="0.3" fill-rule="evenodd" clip-rule="evenodd" d="M73.202 98.8436C80.6663 96.5173 75.7292 95.647 70.1393 94.6763C64.5495 93.7056 67.4448 93.3709 68.1645 93.2705C68.8841 93.1701 67.1603 93.3542 62.2064 92.8019C57.2693 92.2496 64.834 90.4923 63.7629 89.7057C62.6918 88.9191 56.1815 89.2036 54.6585 90.8605C53.1355 92.5174 58.2902 92.6178 61.0182 93.2203C63.7294 93.8228 54.8258 93.237 49.169 92.8019C43.5123 92.3668 46.0227 90.5425 55.6292 88.0991C65.2357 85.6556 68.7502 86.8941 77.4195 85.0531C86.1056 83.2121 86.8252 84.6514 84.2646 85.6723C81.7039 86.6932 85.2353 87.2957 91.3105 86.6765C97.3857 86.0405 90.323 88.6513 83.729 88.8689C77.135 89.0865 82.842 87.9317 80.2312 88.0991C77.6204 88.2664 71.8631 91.3291 79.4781 91.5132C87.0762 91.6973 85.503 95.396 81.386 96.5006C77.2522 97.6051 83.478 96.7516 88.8001 97.1533C94.1221 97.5549 86.9256 99.9649 79.863 100.417C72.8004 100.869 73.202 98.8436 73.202 98.8436Z" fill="#DD5359"/>
<path d="M71.8966 101.27C71.4113 99.3121 73.5535 97.7891 78.6747 98.2242C83.796 98.6594 86.39 97.2703 87.7791 96.6343C89.1682 95.9816 92.8334 97.8393 95.8459 97.6385C98.8584 97.4544 93.5698 98.5924 85.5867 100.534C77.6036 102.492 71.8966 101.27 71.8966 101.27Z" fill="url(#paint5_linear_925_4022)"/>
<path fill-rule="evenodd" clip-rule="evenodd" d="M77.0178 83.3961C78.7082 84.9358 81.8043 81.8062 83.0595 81.5216C84.3147 81.2371 85.3022 82.0739 85.1348 82.6764C84.9675 83.2789 84.1139 81.7727 82.8085 82.2078C81.5031 82.6597 78.9759 84.1325 78.4069 84.417C77.8379 84.7015 78.0555 85.1199 78.0555 85.1199L77.0178 83.3961Z" fill="#98611F"/>
<path fill-rule="evenodd" clip-rule="evenodd" d="M72.3987 99.4126C70.7585 100.467 65.7042 99.513 63.9804 99.8979C62.2733 100.3 65.5536 101.622 66.3737 101.404C67.1938 101.187 68.5494 100.534 69.9887 100.618C71.428 100.701 71.8966 101.27 71.8966 101.27C71.8966 101.27 71.8296 100.149 72.3987 99.4126Z" fill="#98611F"/>
<path opacity="0.6" fill-rule="evenodd" clip-rule="evenodd" d="M83.7291 100.936C86.2227 100.618 87.8294 97.6721 88.7833 97.1533C89.7373 96.6177 92.0636 97.806 94.005 97.8897C95.9631 97.9734 87.1432 100.434 83.7291 100.936Z" fill="#A1498E"/>
<path opacity="0.6" fill-rule="evenodd" clip-rule="evenodd" d="M72.9007 101.438C73.5199 101.505 72.6664 99.6971 77.1851 99.6135C81.7039 99.5298 83.2938 101.036 83.2938 101.036C83.2938 101.036 77.955 101.923 72.9007 101.438Z" fill="#A1498E"/>
<path opacity="0.6" fill-rule="evenodd" clip-rule="evenodd" d="M64.7503 88.1326C64.7503 88.1326 60.7337 86.3585 59.3446 85.5217C57.9555 84.6849 58.3906 87.0112 58.9094 87.4966C59.4283 87.9819 57.3363 87.3125 55.5957 87.7142C53.8552 88.1158 53.6209 90.4756 53.7715 90.8103C53.9221 91.1451 55.0769 88.5342 58.6919 88.1995C62.3069 87.8815 64.7503 88.1326 64.7503 88.1326Z" fill="#A1498E"/>
<path opacity="0.6" fill-rule="evenodd" clip-rule="evenodd" d="M69.5035 88.2664C72.7837 88.3166 76.0975 86.074 76.8841 85.5552C77.6707 85.0364 78.1058 86.1242 78.0221 86.4589C77.9217 86.7936 74.9092 88.4003 69.5035 88.2664Z" fill="#A1498E"/>
<path opacity="0.8" fill-rule="evenodd" clip-rule="evenodd" d="M67.3109 83.8981C64.9176 85.1533 68.1811 87.3792 72.0137 87.1282C75.8463 86.8771 76.9341 85.488 77.0178 84.9692C77.1182 84.4504 76.6831 82.3918 74.6413 82.3918C72.5827 82.3918 67.3109 83.8981 67.3109 83.8981Z" fill="#EFC5B1"/>
<path opacity="0.8" fill-rule="evenodd" clip-rule="evenodd" d="M74.8924 98.3079C71.9302 98.877 75.2439 99.6301 78.6748 99.5129C82.1057 99.3958 78.5576 97.6218 74.8924 98.3079Z" fill="#EFC5B1"/>
<path opacity="0.8" fill-rule="evenodd" clip-rule="evenodd" d="M88.3315 96.5005C88.0135 96.5507 86.273 97.1197 84.9843 98.1574C83.6956 99.195 85.637 99.6803 86.4738 99.1615C87.3106 98.6427 88.0302 97.2201 88.7834 97.036C89.5365 96.8352 88.3315 96.5005 88.3315 96.5005Z" fill="#EFC5B1"/>
<path opacity="0.8" fill-rule="evenodd" clip-rule="evenodd" d="M57.0016 86.1576C56.3489 86.8773 58.1731 87.3626 58.4409 87.4463C58.7087 87.53 57.989 86.074 58.558 85.4715C59.1271 84.869 58.9262 84.7853 58.5246 84.9024C58.1229 85.0196 57.3363 85.8229 57.2526 85.9066C57.1857 85.9736 57.0016 86.1576 57.0016 86.1576Z" fill="#EFC5B1"/>
<path fill-rule="evenodd" clip-rule="evenodd" d="M86.0387 85.1201C84.8504 85.8063 84.6663 86.1243 89.0344 86.4423C93.4025 86.7602 90.8084 82.3252 86.0387 85.1201Z" fill="#E06F1A"/>
<path fill-rule="evenodd" clip-rule="evenodd" d="M65.3025 89.8897C61.8716 91.7808 68.2648 92.1825 72.4153 92.4837C76.5324 92.8017 71.1601 86.6763 65.3025 89.8897Z" fill="#E06F1A"/>
<path fill-rule="evenodd" clip-rule="evenodd" d="M74.7753 94.9775C75.8798 93.237 78.2062 91.9483 79.8128 93.9399C81.4195 95.9482 74.7753 94.9775 74.7753 94.9775Z" fill="#E06F1A"/>
<path opacity="0.5" fill-rule="evenodd" clip-rule="evenodd" d="M75.3107 95.0446C76.1809 95.1283 78.4738 94.191 79.1432 94.0739C79.8127 93.9567 80.2311 95.0613 80.2311 95.0613C80.2311 95.0613 79.5282 95.4463 75.3107 95.0446Z" fill="#A1498E"/>
<path opacity="0.5" fill-rule="evenodd" clip-rule="evenodd" d="M86.5407 86.141C88.549 86.0406 91.0427 85.2874 91.2435 85.3209C91.4611 85.3544 91.2101 85.8565 90.7247 86.459C90.2226 87.0615 86.5407 86.141 86.5407 86.141Z" fill="#A1498E"/>
<path opacity="0.5" fill-rule="evenodd" clip-rule="evenodd" d="M64.5159 91.212C64.5159 91.212 66.2732 90.8103 68.7167 90.8438C71.1601 90.8773 71.5952 92.3835 72.7166 92.5007C73.8379 92.6178 69.2689 92.986 65.7209 92.6513C62.1728 92.3333 64.5159 91.212 64.5159 91.212Z" fill="#A1498E"/>
<path opacity="0.8" fill-rule="evenodd" clip-rule="evenodd" d="M69.6875 89.0028C71.177 89.5885 70.7586 90.3249 67.1269 90.8437C63.4952 91.3626 65.8717 89.4714 67.5286 89.0865C69.1854 88.7015 69.6875 89.0028 69.6875 89.0028Z" fill="#EFC5B1"/>
<path opacity="0.8" fill-rule="evenodd" clip-rule="evenodd" d="M76.2312 93.4713C74.9258 94.9943 77.6705 94.3583 78.6747 94.0738C79.6621 93.7725 78.0052 92.8688 77.5701 92.9525C77.1349 93.0529 76.2312 93.4713 76.2312 93.4713Z" fill="#EFC5B1"/>
<path opacity="0.8" fill-rule="evenodd" clip-rule="evenodd" d="M87.0261 84.7684C85.7374 85.4713 87.796 85.9902 89.3692 85.4044C90.9256 84.8186 89.3357 83.5132 87.0261 84.7684Z" fill="#EFC5B1"/>
<path fill-rule="evenodd" clip-rule="evenodd" d="M93.0511 94.7265C88.3985 96.7348 95.3607 96.8352 98.3397 95.7474C101.319 94.6595 96.2142 93.3709 93.0511 94.7265Z" fill="#F4DA54"/>
<path fill-rule="evenodd" clip-rule="evenodd" d="M101.001 94.6764C99.9966 94.9274 100.9 95.5634 102.072 95.145C103.243 94.7266 101.603 94.5425 101.001 94.6764Z" fill="#F4DA54"/>
<path fill-rule="evenodd" clip-rule="evenodd" d="M70.0557 102.743C69.2189 102.944 69.9721 103.479 70.9427 103.128C71.8967 102.776 70.5578 102.626 70.0557 102.743Z" fill="#F4DA54"/>
<path fill-rule="evenodd" clip-rule="evenodd" d="M84.4486 89.3541C79.8462 90.2076 81.4863 91.6971 86.4904 91.2955C91.4945 90.8938 87.6117 88.7683 84.4486 89.3541Z" fill="#F4DA54"/>
<path fill-rule="evenodd" clip-rule="evenodd" d="M104.565 91.4629C103.812 91.4629 104.281 92.1156 104.766 91.9482C105.252 91.7809 105.084 91.4629 104.565 91.4629Z" fill="#F4DA54"/>
<path fill-rule="evenodd" clip-rule="evenodd" d="M50.0894 96.7683C49.3363 96.7683 49.8049 97.421 50.2902 97.2537C50.7756 97.0696 50.6082 96.7683 50.0894 96.7683Z" fill="#F4DA54"/>
<path fill-rule="evenodd" clip-rule="evenodd" d="M78.5073 101.923C77.8713 101.923 78.2729 102.475 78.6746 102.325C79.0763 102.191 78.9257 101.923 78.5073 101.923Z" fill="#F4DA54"/>
<path fill-rule="evenodd" clip-rule="evenodd" d="M49.5373 88.3834C48.1649 88.7683 49.7381 89.3708 50.8929 88.8018C52.0477 88.2328 50.2067 88.1826 49.5373 88.3834Z" fill="#F4DA54"/>
<path fill-rule="evenodd" clip-rule="evenodd" d="M70.0222 95.8311C64.9345 96.9524 70.5578 99.4628 74.8589 97.6721C79.1769 95.8813 72.4824 95.2955 70.0222 95.8311Z" fill="#F4DA54"/>
<path fill-rule="evenodd" clip-rule="evenodd" d="M89.0677 93.9901C87.1431 94.693 88.7497 95.4127 91.4944 94.9608C94.2224 94.4922 91.0928 93.237 89.0677 93.9901Z" fill="#F4DA54"/>
<path opacity="0.3" fill-rule="evenodd" clip-rule="evenodd" d="M92.549 82.7936C88.8503 82.1744 94.6912 82.576 100.566 86.4588C106.44 90.3416 103.863 95.8143 103.628 97.0193C103.394 98.2243 106.406 96.8519 107.042 93.7055C107.712 90.5591 100.381 84.1325 92.549 82.7936Z" fill="#DD5359"/>
<path d="M63.7628 80.5009C63.7628 80.5009 72.5994 79.0616 84.4486 80.3168C96.2977 81.572 103.277 87.1451 103.277 87.1451C103.277 87.1451 95.6952 82.2749 84.3314 80.936C71.7626 79.4633 63.7628 80.5009 63.7628 80.5009Z" fill="#F6F6F6"/>
<path opacity="0.8" d="M43.144 87.7309C43.144 87.7309 44.5666 85.7728 49.0017 83.6808C53.4367 81.5888 59.7964 81.0532 59.7964 81.0532C59.7964 81.0532 49.805 82.2582 43.144 87.7309Z" fill="#A1498E"/>
<path d="M76.2814 85.4045C75.3441 84.7183 74.7918 85.8061 74.4739 86.4588C74.1726 87.0948 76.2814 85.4045 76.2814 85.4045Z" fill="#F6F6F6"/>
<path d="M88.4653 97.4043C88.4988 97.3709 87.2771 98.9106 86.3231 99.5298L88.4653 97.4043Z" fill="#F6F6F6"/>
<path d="M86.0386 100.936C84.8336 101.069 88.1306 101.605 91.277 100.718C94.4067 99.8142 94.9757 98.8435 94.9757 98.8435C94.9757 98.8435 90.6745 100.433 86.0386 100.936Z" fill="#F6F6F6"/>
<path d="M57.5036 88.5675C55.0434 89.672 56.2818 88.9189 59.947 88.6679C63.6122 88.4001 65.3695 88.852 66.8256 88.9022C68.2816 88.9524 64.5327 88.4001 61.4533 88.3834C58.3738 88.3499 57.7881 88.4336 57.5036 88.5675Z" fill="#F6F6F6"/>
<path d="M74.1059 88.7518C71.1268 88.9192 75.2272 89.0698 77.1183 88.6849C78.9928 88.3167 78.9091 87.9987 78.407 88.0991C77.9049 88.2162 75.9133 88.6514 74.1059 88.7518Z" fill="#F6F6F6"/>
<path d="M62.5245 103.915C61.3864 102.877 80.2312 101.839 87.1265 101.923C94.0218 102.007 80.1308 103.981 75.8798 104.517C71.6456 105.069 83.4613 104.551 86.7248 104.099C90.8419 103.53 94.4569 102.459 94.4569 102.459C94.4569 102.459 82.0889 106.961 62.5245 103.915Z" fill="#F6F6F6"/>
<path d="M56.5162 93.7055C51.3113 94.5925 57.1187 95.7473 59.8132 94.9607C62.5244 94.1741 58.6249 93.3373 56.5162 93.7055Z" fill="#F6F6F6"/>
<path fill-rule="evenodd" clip-rule="evenodd" d="M98.3565 98.9775C95.2603 99.5632 97.9883 101.069 99.9464 99.5297C101.905 97.99 100.582 98.559 98.3565 98.9775Z" fill="#98611F"/>
<path fill-rule="evenodd" clip-rule="evenodd" d="M93.938 91.7475C90.7916 91.781 93.2183 93.7558 95.4107 92.5676C97.6032 91.3793 96.1806 91.7308 93.938 91.7475Z" fill="#98611F"/>
<path fill-rule="evenodd" clip-rule="evenodd" d="M92.8669 90.8436C92.1138 90.9775 93.5364 91.7975 94.2895 91.4628C95.0594 91.1448 94.1389 90.5925 92.8669 90.8436Z" fill="#98611F"/>
<path fill-rule="evenodd" clip-rule="evenodd" d="M99.4609 89.6889C98.055 90.1575 100.649 90.5926 102.239 90.8437C103.812 91.078 103.21 89.3374 99.4609 89.6889Z" fill="#98611F"/>
<path fill-rule="evenodd" clip-rule="evenodd" d="M45.9894 92.7851C44.868 93.0194 48.0144 94.6763 50.1399 94.4587C52.2654 94.2411 46.6755 92.6345 45.9894 92.7851Z" fill="#98611F"/>
<path fill-rule="evenodd" clip-rule="evenodd" d="M53.7379 83.0615C52.6836 83.7477 53.3363 84.3 55.4115 83.4799C57.4701 82.6599 54.7923 82.3753 53.7379 83.0615Z" fill="#98611F"/>
<path fill-rule="evenodd" clip-rule="evenodd" d="M56.6668 83.3963C56.1647 83.5469 57.3028 83.8147 57.5873 83.6976C57.8551 83.5971 58.24 82.8942 56.6668 83.3963Z" fill="#98611F"/>
<path fill-rule="evenodd" clip-rule="evenodd" d="M73.7543 80.7853C71.3275 81.6891 72.7166 81.9066 75.3609 81.5719C78.0052 81.2539 74.9927 80.3335 73.7543 80.7853Z" fill="#98611F"/>
<path fill-rule="evenodd" clip-rule="evenodd" d="M51.4786 100.199C51.1272 100.266 51.7129 101.187 52.7003 100.936C53.671 100.701 52.4326 100.032 51.4786 100.199Z" fill="#98611F"/>
<path fill-rule="evenodd" clip-rule="evenodd" d="M64.0474 96.7682C63.4783 96.9356 63.5788 97.1866 64.3151 96.9691C65.0515 96.7682 64.6666 96.5674 64.0474 96.7682Z" fill="#98611F"/>
<path fill-rule="evenodd" clip-rule="evenodd" d="M62.2735 115.563C61.9221 117.153 61.3865 118.693 60.6501 120.132C60.6501 120.149 60.6334 120.149 60.6334 120.165C57.6711 126.04 51.7298 130.324 44.2822 129.839C38.4079 129.454 33.3703 126.073 30.5921 121.755C30.5754 121.739 30.5754 121.739 30.5754 121.739C28.952 119.228 28.0985 116.4 28.2826 113.655L62.2735 115.563Z" fill="url(#paint6_linear_925_4022)"/>
<path d="M29.0525 111.546C22.7932 119.295 51.5792 126.943 61.3698 117.236C64.2317 114.408 60.2485 109.454 52.2989 107.781C44.0312 106.023 32.7679 106.944 29.0525 111.546Z" fill="url(#paint7_linear_925_4022)"/>
<path d="M29.5209 111.613C23.4457 119.128 51.3949 126.558 60.9178 117.153C63.6959 114.391 59.8299 109.588 52.0979 107.965C44.0813 106.258 33.1192 107.161 29.5209 111.613Z" fill="url(#paint8_linear_925_4022)"/>
<path d="M32.0816 112.082C27.9645 119.161 51.9808 124.784 58.4409 116.818C60.4325 114.358 58.7087 110.86 52.7339 109.119C46.257 107.228 34.6924 107.597 32.0816 112.082Z" fill="url(#paint9_linear_925_4022)"/>
<path opacity="0.2" d="M32.2658 123.144C29.839 120.45 39.4957 120.801 46.5751 122.475C53.6545 124.149 50.3574 128.801 46.3575 129.437C42.3576 130.073 37.9226 129.387 32.2658 123.144Z" fill="#DD5359"/>
<path opacity="0.5" d="M47.529 121.789C47.0938 121.989 49.3197 123.027 51.6628 124.851C54.0058 126.676 57.1188 124.684 58.5915 122.943C60.0643 121.186 60.5831 119.312 60.3321 119.094C60.081 118.877 57.3865 120.149 54.0393 121.203C50.6921 122.257 47.529 121.789 47.529 121.789Z" fill="#F5DBA6"/>
<path opacity="0.5" d="M31.4958 118.057C27.4959 115.245 32.4163 116.651 34.5585 117.772C36.7007 118.877 39.3116 120.45 39.663 120.768C39.9977 121.102 34.1903 119.964 31.4958 118.057Z" fill="#F6F6F6"/>
<path opacity="0.5" d="M56.1147 109.99C55.5958 110.074 58.0393 111.128 59.0267 113.22C60.0142 115.312 58.8259 116.182 58.9096 116.801C58.9933 117.437 61.4535 116.584 61.989 115.011C62.558 113.421 59.3113 109.438 56.1147 109.99Z" fill="#F6F6F6"/>
<path opacity="0.2" d="M55.6125 110.944C50.4913 109.839 45.939 118.358 45.5039 119.78C45.0688 121.186 51.5122 121.454 55.9974 118.86C60.4827 116.232 59.5957 111.797 55.6125 110.944Z" fill="#CA5E5A"/>
<path opacity="0.3" d="M47.3281 120.718C50.9765 120.45 57.1689 114.324 58.0224 113.621C58.876 112.902 60.0475 114.626 58.4408 116.835C56.8342 119.027 52.8677 120.533 47.3281 120.718Z" fill="#A82B58"/>
<path opacity="0.6" fill-rule="evenodd" clip-rule="evenodd" d="M58.4409 116.835C59.3614 115.396 57.2024 112.333 48.9013 111.145C40.6002 109.956 34.1401 112.383 32.7678 113.538C31.3787 114.693 32.5837 116.266 32.5837 116.266C32.5837 116.266 36.048 120.048 45.0688 120.634C54.056 121.203 58.4409 116.835 58.4409 116.835Z" fill="#BE5059"/>
<path d="M33.4371 119.111C33.4371 119.111 35.5793 120.55 42.0561 121.538C48.533 122.525 54.5245 120.902 54.5245 120.902C54.5245 120.902 42.4411 123.245 33.4371 119.111Z" fill="#F0C855"/>
<path d="M32.6171 111.847C32.2321 112.985 33.8723 113.086 35.4287 111.295C37.0019 109.504 33.1694 110.207 32.6171 111.847Z" fill="#F6F6F6"/>
<path opacity="0.6" d="M60.6332 120.165C57.6709 126.04 51.7296 130.324 44.2821 129.839C38.4077 129.454 33.3702 126.073 30.592 121.755C30.8932 122.174 36.1484 129.253 45.8888 129.102C55.9137 128.952 60.1981 120.935 60.6332 120.165Z" fill="#BE5059"/>
<path fill-rule="evenodd" clip-rule="evenodd" d="M55.0769 121.153C52.9179 121.538 53.102 123.881 54.7756 123.228C56.4492 122.575 57.9555 120.634 55.0769 121.153Z" fill="#F6F6F6"/>
<path fill-rule="evenodd" clip-rule="evenodd" d="M53.487 124.985C52.8343 125.504 52.9347 126.207 53.7548 125.889C54.5749 125.588 53.8887 124.667 53.487 124.985Z" fill="#F6F6F6"/>
<path fill-rule="evenodd" clip-rule="evenodd" d="M49.6713 121.337C47.8638 121.22 53.621 119.831 55.077 119.613C56.5163 119.379 53.8051 121.588 49.6713 121.337Z" fill="#F6F6F6"/>
<path opacity="0.3" d="M31.797 113.571C31.7468 112.065 34.5919 109.722 41.4872 109.956C48.3991 110.191 44.9683 117.906 44.918 119.262C44.8678 120.617 31.9978 119.429 31.797 113.571Z" fill="#F6F6F6"/>
<path fill-rule="evenodd" clip-rule="evenodd" d="M32.2992 122.86C31.931 122.709 32.2322 123.429 32.8013 123.73C33.387 124.031 33.0858 123.178 32.2992 122.86Z" fill="#F6F6F6"/>
<path opacity="0.3" fill-rule="evenodd" clip-rule="evenodd" d="M30.5085 118.324C28.6341 117.454 30.5922 120.584 31.6298 121.17C32.6675 121.755 35.7804 121.069 37.0188 121.036C38.274 120.985 33.203 119.58 30.5085 118.324Z" fill="#F5DBA6"/>
<path opacity="0.2" fill-rule="evenodd" clip-rule="evenodd" d="M34.0731 124.985C32.7509 123.127 40.5667 123.646 45.0352 126.508C49.5037 129.37 43.7465 129.655 40.5332 128.433C37.3199 127.194 34.0731 124.985 34.0731 124.985Z" fill="#DD5359"/>
<path d="M32.567 116.249C30.7093 112.801 38.6589 110.86 47.7466 111.881C57.2527 112.952 59.1606 115.663 58.4577 116.818C58.4577 116.818 55.2611 120.801 45.6379 120.667C36.8012 120.534 32.567 116.249 32.567 116.249Z" fill="url(#paint10_linear_925_4022)"/>
<path fill-rule="evenodd" clip-rule="evenodd" d="M42.9265 111.63C42.9265 111.63 44.0646 111.312 49.5707 111.73C55.0602 112.149 57.6542 114.843 57.6542 114.843C57.6542 114.843 54.2401 112.818 49.6377 112.115C45.0185 111.396 42.9265 111.63 42.9265 111.63Z" fill="#F6F6F6"/>
<path fill-rule="evenodd" clip-rule="evenodd" d="M34.6086 112.885C34.6086 112.885 35.3282 112.534 36.7341 112.032C38.1399 111.53 40.4495 111.697 40.4495 111.697C40.4495 111.697 37.9056 111.898 34.6086 112.885Z" fill="#F6F6F6"/>
<path fill-rule="evenodd" clip-rule="evenodd" d="M34.9266 114.442C32.5668 116.249 37.4705 118.96 45.8553 118.91C54.24 118.86 47.8469 116.032 42.6922 115.078C37.5374 114.107 44.4829 112.082 49.3866 112.701C54.2903 113.32 50.3907 113.12 47.1105 113.705C43.8469 114.291 50.3405 114.776 53.9723 115.094C57.5872 115.396 54.2902 111.781 45.9892 111.948C37.7048 112.132 34.9266 114.442 34.9266 114.442Z" fill="#CA4559"/>
<path opacity="0.8" fill-rule="evenodd" clip-rule="evenodd" d="M41.9727 113.822C40.0983 114.676 46.1902 115.63 48.3659 116.801C50.5415 117.956 53.7214 116.751 54.8595 115.814C55.9975 114.894 48.7508 115.898 46.3241 114.408C43.8973 112.902 42.5919 113.538 41.9727 113.822Z" fill="#F5DBA6"/>
<path opacity="0.5" fill-rule="evenodd" clip-rule="evenodd" d="M41.7047 114.843C40.2821 114.977 44.6 116.902 46.3406 117.772C48.0811 118.642 48.9514 117.069 49.2694 117.303C49.5874 117.538 47.4284 116.5 44.9515 115.931C42.4913 115.362 41.7047 114.843 41.7047 114.843Z" fill="#A82B58"/>
<path opacity="0.8" fill-rule="evenodd" clip-rule="evenodd" d="M38.6754 118.157C34.3575 117.605 39.9307 120.667 45.6377 120.667C51.3279 120.667 53.0517 119.111 53.286 117.839C53.5203 116.584 50.2066 118.977 45.1188 118.91C40.0311 118.86 38.6754 118.157 38.6754 118.157Z" fill="#F5DBA6"/>
<path opacity="0.8" fill-rule="evenodd" clip-rule="evenodd" d="M33.3033 113.672C32.5502 115.278 37.3702 112.902 40.4161 112.5C43.4454 112.099 45.2696 111.981 45.2696 111.981C45.2696 111.981 42.4579 111.479 38.7593 112.099C35.0439 112.701 33.3033 113.672 33.3033 113.672Z" fill="#F5DBA6"/>
<path d="M42.0731 114.86C41.3534 114.274 42.2739 114.258 43.3952 114.576C44.5165 114.894 44.1316 115.228 43.2279 115.178C42.3241 115.128 42.0731 114.86 42.0731 114.86Z" fill="#F6F6F6"/>
<path d="M44.299 115.178C43.981 115.245 45.3031 115.864 45.688 115.797C46.073 115.73 44.7843 115.078 44.299 115.178Z" fill="#F6F6F6"/>
<path d="M42.4579 118.793C37.3199 118.257 41.4872 121.002 46.3908 120.333C51.3112 119.646 46.4578 119.211 42.4579 118.793Z" fill="#F6F6F6"/>
<path opacity="0.5" d="M45.939 115.831C45.4871 115.713 47.3281 116.149 48.4829 116.617C49.6377 117.103 50.8259 116.885 51.7799 116.6C52.7338 116.316 52.9849 116.467 53.3363 116.701C53.6878 116.935 51.2945 117.337 49.8218 117.153C48.3825 116.985 48.4829 116.467 45.939 115.831Z" fill="url(#paint11_linear_925_4022)"/>
<path d="M37.1025 112.919C36.3494 113.555 37.8221 112.935 39.9643 112.467C42.0898 111.998 38.6757 111.596 37.1025 112.919Z" fill="#F6F6F6"/>
<path d="M48.0478 113.153C47.1776 112.785 49.0353 112.885 49.2194 113.153C49.4202 113.404 49.3198 113.705 48.0478 113.153Z" fill="#F6F6F6"/>
<path d="M49.3867 112.985C49.1859 113.036 49.5708 113.17 49.7883 113.103C49.9892 113.036 49.5708 112.935 49.3867 112.985Z" fill="#F6F6F6"/>
<path d="M37.387 118.425C35.6632 117.822 36.4498 118.709 38.1067 119.044C39.7468 119.345 38.0063 118.625 37.387 118.425Z" fill="#F6F6F6"/>
<path opacity="0.8" d="M40.115 114.107C37.0857 114.475 36.9686 116.45 41.7551 117.304C46.5416 118.157 41.3367 116.132 39.3116 115.379C37.2698 114.626 40.115 114.107 40.115 114.107Z" fill="#F5DBA6"/>
<path opacity="0.8" d="M33.3368 115.262C32.2992 115.345 32.9016 117.22 35.479 117.939C38.0564 118.659 34.8765 117.002 34.3577 115.596C33.8389 114.207 33.3368 115.262 33.3368 115.262Z" fill="#F5DBA6"/>
<path d="M34.9267 116.232C34.5417 116.182 35.3451 116.986 35.8304 117.103C36.0815 117.186 35.7133 116.333 34.9267 116.232Z" fill="#F6F6F6"/>
<path fill-rule="evenodd" clip-rule="evenodd" d="M45.9724 113.053C46.2235 112.584 45.5373 112.684 45.4034 112.45C45.2695 112.199 44.7842 112.383 44.7172 112.45C44.6503 112.534 44.8846 112.818 44.9013 112.852C44.9348 112.885 44.4327 112.785 43.9139 112.617C43.395 112.45 43.2277 112.818 42.9264 112.919C42.6085 113.019 43.2444 113.471 43.7632 113.638C44.2821 113.806 44.2988 113.521 44.6837 113.471C45.0687 113.421 44.6837 113.488 44.5164 113.722C44.349 113.956 44.3155 113.856 45.4871 113.688C46.6586 113.521 46.0561 113.153 46.0226 113.103C45.9724 113.053 45.9724 113.053 45.9724 113.053Z" fill="#686818"/>
<path fill-rule="evenodd" clip-rule="evenodd" d="M48.617 114.475C48.3827 114.241 49.0354 114.257 49.3032 114.04C49.5709 113.839 50.391 114.442 49.9224 114.559C49.4538 114.659 48.9684 114.91 48.8513 115.011C48.7341 115.111 49.253 114.877 49.4705 114.977C49.6881 115.078 49.0689 115.144 48.55 115.245C48.048 115.362 48.617 114.475 48.617 114.475Z" fill="#686818"/>
<path fill-rule="evenodd" clip-rule="evenodd" d="M45.5039 115.178C45.0855 115.379 45.7717 115.513 46.2236 115.881C46.6755 116.249 46.5248 115.479 46.3575 115.044C46.1901 114.592 46.5416 114.81 46.9265 114.542C47.3114 114.291 47.4286 114.224 46.1566 114.358C44.8847 114.492 45.3366 114.826 45.4872 114.893C45.6378 114.96 45.5039 115.178 45.5039 115.178Z" fill="#686818"/>
<path fill-rule="evenodd" clip-rule="evenodd" d="M49.7883 116.55C49.4201 116.734 49.5038 117.086 49.9724 117.069C50.441 117.052 50.3573 117.27 50.1565 116.701C49.9222 116.149 49.7883 116.55 49.7883 116.55Z" fill="#786F1A"/>
<path fill-rule="evenodd" clip-rule="evenodd" d="M43.3617 113.906C42.709 114.174 42.5081 114.726 43.3951 114.425C44.2822 114.124 44.2822 114.257 43.9642 114.073C43.6462 113.889 43.5123 113.722 43.4453 113.806C43.3617 113.906 43.3617 113.906 43.3617 113.906Z" fill="#786F1A"/>
<path fill-rule="evenodd" clip-rule="evenodd" d="M47.6629 114.157C47.2445 114.324 47.1273 114.676 47.6796 114.492C48.2486 114.308 48.2319 114.391 48.0311 114.274C47.8302 114.157 47.7466 114.057 47.6963 114.107C47.6629 114.157 47.6629 114.157 47.6629 114.157Z" fill="#786F1A"/>
<path fill-rule="evenodd" clip-rule="evenodd" d="M54.5581 114.542C54.1899 114.559 54.5581 115.161 54.9598 115.513C55.3614 115.864 55.4117 115.061 55.1439 114.81C54.8761 114.559 54.5581 114.542 54.5581 114.542Z" fill="#686818"/>
<path fill-rule="evenodd" clip-rule="evenodd" d="M52.7338 118.86C52.5497 119.044 53.0351 119.362 53.2694 118.76C53.5037 118.174 52.7338 118.86 52.7338 118.86Z" fill="#686818"/>
<path fill-rule="evenodd" clip-rule="evenodd" d="M50.8428 115.111C49.7382 115.513 51.3448 115.63 52.0478 115.429C52.7674 115.211 51.5959 114.843 50.8428 115.111Z" fill="#E79B33"/>
<path fill-rule="evenodd" clip-rule="evenodd" d="M52.165 115.663C51.7131 115.747 52.098 116.048 52.6168 115.898C53.1356 115.73 52.4327 115.613 52.165 115.663Z" fill="#E79B33"/>
<path fill-rule="evenodd" clip-rule="evenodd" d="M41.2196 115.948C40.7677 116.031 41.1526 116.333 41.6715 116.182C42.1735 116.031 41.4874 115.898 41.2196 115.948Z" fill="#E79B33"/>
<path fill-rule="evenodd" clip-rule="evenodd" d="M51.713 114.341C50.4913 114.525 50.8929 115.027 52.2151 114.994C53.5205 114.944 52.5498 114.207 51.713 114.341Z" fill="#E79B33"/>
<path fill-rule="evenodd" clip-rule="evenodd" d="M53.8218 114.358C53.4871 114.341 53.6712 114.642 53.8888 114.575C54.1063 114.508 54.0394 114.375 53.8218 114.358Z" fill="#E79B33"/>
<path fill-rule="evenodd" clip-rule="evenodd" d="M52.6002 117.421C51.8638 117.571 52.6671 117.939 53.3031 117.688C53.9056 117.421 52.9516 117.337 52.6002 117.421Z" fill="#E79B33"/>
<path fill-rule="evenodd" clip-rule="evenodd" d="M49.0186 117.789C48.1651 118.04 48.8513 118.391 50.0395 118.274C51.2445 118.157 49.9224 117.521 49.0186 117.789Z" fill="#E79B33"/>
<path fill-rule="evenodd" clip-rule="evenodd" d="M23.4457 67.5639C22.7261 67.8317 22.9269 68.8861 23.6968 68.9865C24.4834 69.1036 24.4834 67.179 23.4457 67.5639Z" fill="#EAA96C"/>
<path fill-rule="evenodd" clip-rule="evenodd" d="M23.5462 77.3042C23.4626 77.572 23.8977 77.7896 24.0483 77.6055C24.2157 77.4381 23.7303 76.752 23.5462 77.3042Z" fill="#E27B30"/>
<path fill-rule="evenodd" clip-rule="evenodd" d="M31.2445 72.8692C31.1608 73.137 31.5959 73.3545 31.7466 73.1704C31.9139 73.0031 31.4286 72.3169 31.2445 72.8692Z" fill="#E27B30"/>
<path fill-rule="evenodd" clip-rule="evenodd" d="M98.7747 123.814C98.6911 124.081 99.1262 124.299 99.2768 124.115C99.4275 123.931 98.9588 123.261 98.7747 123.814Z" fill="#E27B30"/>
<path fill-rule="evenodd" clip-rule="evenodd" d="M65.0013 131.579C64.9176 131.847 65.3528 132.065 65.5034 131.881C65.654 131.696 65.1854 131.027 65.0013 131.579Z" fill="#E27B30"/>
<path fill-rule="evenodd" clip-rule="evenodd" d="M75.3443 59.9155C74.1058 59.7649 74.3569 61.0536 75.1435 61.154C75.9133 61.2377 76.315 60.0327 75.3443 59.9155Z" fill="#EAA96C"/>
<path fill-rule="evenodd" clip-rule="evenodd" d="M81.503 58.0075C80.9674 58.0745 81.2519 58.8946 81.8712 58.7272C82.4737 58.5598 82.2059 57.9239 81.503 58.0075Z" fill="#E27B30"/>
<defs>
<linearGradient id="paint0_linear_925_4022" x1="33.5992" y1="107.942" x2="113.987" y2="107.942" gradientUnits="userSpaceOnUse">
<stop offset="0.011173" stop-color="#DD6317"/>
<stop offset="1" stop-color="#E59323"/>
</linearGradient>
<linearGradient id="paint1_linear_925_4022" x1="33.598" y1="88.9222" x2="113.992" y2="88.9222" gradientUnits="userSpaceOnUse">
<stop stop-color="#C93314"/>
<stop offset="1" stop-color="#C81906"/>
</linearGradient>
<linearGradient id="paint2_linear_925_4022" x1="37.6536" y1="88.8569" x2="110.559" y2="88.8569" gradientUnits="userSpaceOnUse">
<stop stop-color="#9D0211"/>
<stop offset="1" stop-color="#7C0100"/>
</linearGradient>
<linearGradient id="paint3_linear_925_4022" x1="74.1089" y1="105.009" x2="74.1089" y2="79.983" gradientUnits="userSpaceOnUse">
<stop stop-color="#F2CF32"/>
<stop offset="0.2652" stop-color="#F0C830"/>
<stop offset="0.6533" stop-color="#ECB42B"/>
<stop offset="1" stop-color="#E79D25"/>
</linearGradient>
<linearGradient id="paint4_linear_925_4022" x1="53.1753" y1="87.1349" x2="78.2633" y2="87.1349" gradientUnits="userSpaceOnUse">
<stop stop-color="#9D0211"/>
<stop offset="1" stop-color="#C81906"/>
</linearGradient>
<linearGradient id="paint5_linear_925_4022" x1="71.8288" y1="99.0669" x2="96.7071" y2="99.0669" gradientUnits="userSpaceOnUse">
<stop stop-color="#9D0211"/>
<stop offset="1" stop-color="#C81906"/>
</linearGradient>
<linearGradient id="paint6_linear_925_4022" x1="27.8004" y1="121.035" x2="61.7673" y2="123.254" gradientUnits="userSpaceOnUse">
<stop offset="0.011173" stop-color="#DD6317"/>
<stop offset="1" stop-color="#E59323"/>
</linearGradient>
<linearGradient id="paint7_linear_925_4022" x1="44.7642" y1="121.711" x2="45.7278" y2="106.963" gradientUnits="userSpaceOnUse">
<stop offset="0.011173" stop-color="#E38E21"/>
<stop offset="1" stop-color="#EDBB2C"/>
</linearGradient>
<linearGradient id="paint8_linear_925_4022" x1="44.7779" y1="121.498" x2="45.7137" y2="107.175" gradientUnits="userSpaceOnUse">
<stop offset="0.00558659" stop-color="#F0D2C0"/>
<stop offset="0.1814" stop-color="#F4DDD3"/>
<stop offset="0.4058" stop-color="#F7E6E3"/>
<stop offset="0.6592" stop-color="#F8EBEC"/>
<stop offset="1" stop-color="#F9EDEF"/>
</linearGradient>
<linearGradient id="paint9_linear_925_4022" x1="31.6246" y1="113.447" x2="59.206" y2="115.249" gradientUnits="userSpaceOnUse">
<stop offset="0.00558659" stop-color="#F1D1C7"/>
<stop offset="0.39" stop-color="#EBB4B0"/>
<stop offset="0.7567" stop-color="#E7A09F"/>
<stop offset="1" stop-color="#E69899"/>
</linearGradient>
<linearGradient id="paint10_linear_925_4022" x1="45.1187" y1="120.672" x2="45.704" y2="111.714" gradientUnits="userSpaceOnUse">
<stop stop-color="#9D0D1E"/>
<stop offset="0.2601" stop-color="#A1101D"/>
<stop offset="0.5069" stop-color="#AC1B1B"/>
<stop offset="0.7483" stop-color="#BF2C16"/>
<stop offset="0.9851" stop-color="#DA4310"/>
<stop offset="1" stop-color="#DC4510"/>
</linearGradient>
<linearGradient id="paint11_linear_925_4022" x1="45.8415" y1="116.364" x2="53.3846" y2="116.857" gradientUnits="userSpaceOnUse">
<stop stop-color="#F0C7FC"/>
<stop offset="0.327" stop-color="#987EA0"/>
<stop offset="0.6539" stop-color="#473B4A"/>
<stop offset="0.8832" stop-color="#141015"/>
<stop offset="0.9944"/>
</linearGradient>
</defs>
</svg>
