<svg width="125" height="168" viewBox="0 0 125 168" fill="none" xmlns="http://www.w3.org/2000/svg">
<rect width="125" height="168" fill="#FFCB74"/>
<path opacity="0.8" d="M36.8984 123.072C10.121 132.132 48.2952 143.371 78.1992 135.013C108.103 126.635 64.4155 113.766 36.8984 123.072Z" fill="#A1498E"/>
<path fill-rule="evenodd" clip-rule="evenodd" d="M75.2809 69.7984C75.6675 77.0005 63.3799 85.9084 48.8565 90.9499C30.7023 97.2612 9.13581 97.6403 10.0267 86.2496C10.0771 85.6999 10.1612 85.1124 10.3125 84.5059C14.5148 67.6757 53.227 49.4619 72.3897 64.738C74.2724 66.2732 75.1969 67.9789 75.2809 69.7984Z" fill="url(#paint0_linear_903_3597)"/>
<path opacity="0.5" fill-rule="evenodd" clip-rule="evenodd" d="M75.2809 69.7982C75.6675 77.0004 63.3799 85.9082 48.8565 90.9497C30.7023 97.261 9.13581 97.6401 10.0267 86.2494L10.2116 85.9082C9.89224 91.1013 23.9785 92.9587 34.6021 91.9921C45.2425 91.0255 43.4943 88.5427 43.2085 88.1826C42.9228 87.8414 45.108 88.4669 46.4191 88.6753C47.7303 88.8838 61.867 83.0463 65.6323 80.0139C69.3976 76.9814 67.3301 77.3605 66.7754 76.8298C66.2206 76.2991 67.9184 76.5644 68.9606 76.2233C70.0028 75.8632 72.1712 73.5699 73.1461 70.9165C74.1379 68.3199 74.8607 68.4336 75.2809 69.7982Z" fill="#AF5059"/>
<path opacity="0.6" fill-rule="evenodd" clip-rule="evenodd" d="M44.0659 92.0301C43.4271 92.049 43.8474 89.2251 43.4271 88.5996C43.0069 87.9742 44.9904 88.5617 46.2847 88.7323C47.579 88.9029 45.5787 91.9922 44.0659 92.0301Z" fill="#AF5059"/>
<path opacity="0.6" fill-rule="evenodd" clip-rule="evenodd" d="M67.6999 77.3227C67.6999 77.3227 68.2714 77.7965 68.5908 79.3506C68.8934 80.9048 69.3809 78.3272 69.28 77.2469C69.1791 76.1666 66.9099 76.5267 66.7082 76.7541C66.4896 77.0005 67.6999 77.3227 67.6999 77.3227Z" fill="#AF5059"/>
<path opacity="0.8" fill-rule="evenodd" clip-rule="evenodd" d="M25.6427 80.791C22.3817 85.7946 31.3747 85.1312 39.4265 80.8858C47.4782 76.6403 41.2419 74.1196 34.972 75.6927C28.6852 77.2658 26.9707 78.7441 25.6427 80.791Z" fill="#F4D8C6"/>
<path opacity="0.6" fill-rule="evenodd" clip-rule="evenodd" d="M40.351 70.0069C35.0224 73.8164 38.8886 75.3895 44.318 72.3191C49.7475 69.2487 43.4776 67.7894 40.351 70.0069Z" fill="#AF5059"/>
<path opacity="0.8" fill-rule="evenodd" clip-rule="evenodd" d="M48.6548 61.516C44.0826 64.4916 49.8651 68.5665 58.69 64.5485C67.5318 60.5115 51.5964 59.6207 48.6548 61.516Z" fill="#F4D8C6"/>
<path opacity="0.6" fill-rule="evenodd" clip-rule="evenodd" d="M43.8641 81.0564C42.6034 80.412 45.7132 78.7631 47.3101 79.2558C48.9069 79.7486 45.4274 81.8713 43.8641 81.0564Z" fill="#AF5059"/>
<path opacity="0.6" fill-rule="evenodd" clip-rule="evenodd" d="M62.3209 74.347C60.018 73.0772 65.0272 69.4003 67.868 70.3101C70.7088 71.2388 65.1449 75.9201 62.3209 74.347Z" fill="#AF5059"/>
<path opacity="0.6" fill-rule="evenodd" clip-rule="evenodd" d="M19.9947 90.2294C18.0616 88.5995 29.0718 85.0363 33.728 88.0119C38.3843 91.0065 21.6421 91.613 19.9947 90.2294Z" fill="#AF5059"/>
<path opacity="0.6" fill-rule="evenodd" clip-rule="evenodd" d="M22.886 71.7316C18.7173 77.6638 31.1226 74.7451 37.796 68.3769C44.4861 62.0087 29.8283 61.8192 22.886 71.7316Z" fill="#AF5059"/>
<path opacity="0.8" fill-rule="evenodd" clip-rule="evenodd" d="M33.7617 69.9499C39.2584 67.0312 38.7373 65.875 38.4179 64.6052C38.0986 63.3353 31.6942 64.9842 29.8451 66.6711C27.9961 68.3579 31.1899 68.2631 32.2321 68.32C33.2743 68.3768 32.854 67.5998 33.4423 66.69C34.0307 65.7803 32.5851 65.9508 34.972 65.3633C37.3589 64.7758 33.9298 67.8082 31.7278 68.9833C29.5089 70.1584 32.501 70.6133 33.7617 69.9499Z" fill="#985059"/>
<path opacity="0.8" fill-rule="evenodd" clip-rule="evenodd" d="M26.9034 71.5988C23.2557 74.3091 26.1469 74.4607 30.198 72.8118C34.2659 71.1439 29.761 69.4761 26.9034 71.5988Z" fill="#985059"/>
<path opacity="0.8" fill-rule="evenodd" clip-rule="evenodd" d="M42.368 69.533C38.3338 71.7505 42.1327 72.9824 44.7214 71.3714C47.3268 69.7604 43.8809 68.6991 42.368 69.533Z" fill="#985059"/>
<path opacity="0.8" fill-rule="evenodd" clip-rule="evenodd" d="M22.0455 88.9976C20.6503 90.5328 24.8359 91.253 29.3408 90.3433C33.8625 89.4335 29.3576 86.5717 26.231 87.3298C23.1045 88.0689 22.0455 88.9976 22.0455 88.9976Z" fill="#985059"/>
<path opacity="0.8" fill-rule="evenodd" clip-rule="evenodd" d="M62.9597 72.3761C60.7913 76.1667 67.4142 74.1008 67.868 71.6369C68.3219 69.173 63.901 70.7272 62.9597 72.3761Z" fill="#985059"/>
<path opacity="0.5" fill-rule="evenodd" clip-rule="evenodd" d="M46.8898 88.2963C39.6954 85.7187 45.7636 83.3685 49.4785 80.6393C53.1933 77.929 45.9317 77.6258 43.7801 79.1989C41.6453 80.753 42.8219 81.4922 44.402 81.7575C45.9821 82.0229 42.3344 84.4678 37.2748 85.8893C32.2152 87.3297 29.9123 86.5526 29.9123 85.8134C29.9123 85.0743 37.0395 82.9136 41.494 80.0518C45.9485 77.1899 43.9986 75.1429 39.4768 74.9155C34.9551 74.6881 44.8054 73.0392 47.663 70.5374C50.5206 68.0356 45.5955 66.9742 40.7207 68.68C35.846 70.3858 35.3417 72.6033 36.2326 73.494C37.1235 74.3848 30.0468 77.1141 26.937 77.2088C23.8273 77.3036 39.0734 69.3813 41.225 66.0835C43.3766 62.7856 40.5695 63.6575 38.8045 63.3353C37.0395 63.0131 41.9815 61.421 45.7804 60.8524C49.5793 60.2839 43.9145 63.5627 48.6884 66.4436C53.4623 69.3054 59.5305 65.2685 62.3209 63.5248C65.1112 61.7622 70.7088 63.6575 72.104 66.8795C73.4991 70.1204 70.4398 66.3298 62.9932 70.291C55.5467 74.2522 61.9511 76.6023 64.5733 76.0906C67.2124 75.5789 66.1366 78.2891 59.6482 82.4209C53.1765 86.5526 46.8898 88.2963 46.8898 88.2963Z" fill="#FFFFC9"/>
<path opacity="0.5" fill-rule="evenodd" clip-rule="evenodd" d="M19.1375 73.6078C22.9364 71.8262 20.062 74.9534 22.3817 75.7684C24.7014 76.5834 20.9529 82.5536 22.3649 84.4109C23.7769 86.2683 20.062 89.1113 14.2123 87.9362C8.34585 86.7801 14.0443 76.0148 19.1375 73.6078Z" fill="#FFFFC9"/>
<path opacity="0.8" fill-rule="evenodd" clip-rule="evenodd" d="M59.4465 75.7495C57.7824 76.6024 58.085 76.6213 60.0012 76.5455C61.9175 76.4697 60.371 75.2757 59.4465 75.7495Z" fill="#985059"/>
<path opacity="0.8" fill-rule="evenodd" clip-rule="evenodd" d="M62.6403 60.9094C61.0602 61.478 62.7075 62.5204 63.5648 62.2551C64.4221 62.0087 63.7497 60.5114 62.6403 60.9094Z" fill="#985059"/>
<path opacity="0.8" fill-rule="evenodd" clip-rule="evenodd" d="M45.1081 62.6532C44.2676 63.127 44.9568 63.3734 45.5619 62.8806C46.1503 62.3879 45.3602 62.5205 45.1081 62.6532Z" fill="#985059"/>
<path opacity="0.8" fill-rule="evenodd" clip-rule="evenodd" d="M46.9067 71.6938C46.6377 73.1342 48.0329 72.2055 48.3187 71.6558C48.5876 71.1252 47.0243 71.1252 46.9067 71.6938Z" fill="#985059"/>
<path opacity="0.6" fill-rule="evenodd" clip-rule="evenodd" d="M66.4224 66.5572C66.1535 67.9976 67.5487 67.0689 67.8344 66.5193C68.1034 65.9697 66.5233 65.9886 66.4224 66.5572Z" fill="#AF5059"/>
<path opacity="0.8" fill-rule="evenodd" clip-rule="evenodd" d="M17.1036 82.1746C16.7001 83.2928 17.6919 83.217 17.8936 82.4399C18.0953 81.6629 17.2044 81.8524 17.1036 82.1746Z" fill="#985059"/>
<path opacity="0.3" fill-rule="evenodd" clip-rule="evenodd" d="M65.397 76.6592C64.3548 76.9245 62.7579 80.6203 56.2359 83.5959C49.7138 86.5716 45.6123 86.2304 43.2254 86.8369C40.8384 87.4623 42.1327 87.614 39.9139 88.9028C37.6951 90.1916 30.8368 90.5896 30.1476 90.9118C29.4584 91.234 33.3582 91.1582 37.7791 90.3432C42.2 89.5093 42.2 87.9172 43.0573 87.5192C43.9314 87.1212 50.403 86.5716 56.3199 84.373C62.2536 82.1745 67.3637 78.5545 67.1452 77.9859C66.9435 77.3794 65.397 76.6592 65.397 76.6592Z" fill="#AF5059"/>
<path opacity="0.6" fill-rule="evenodd" clip-rule="evenodd" d="M66.4391 62.4257C61.8502 64.2262 65.0944 65.4392 69.1118 65.2307C73.1293 65.0033 68.8597 61.4591 66.4391 62.4257Z" fill="#AF5059"/>
<path opacity="0.8" fill-rule="evenodd" clip-rule="evenodd" d="M64.8591 63.6955C64.3044 64.3968 65.1953 65.1928 67.2965 64.5484C69.4145 63.904 66.8594 61.1558 64.8591 63.6955Z" fill="#985059"/>
<path opacity="0.6" fill-rule="evenodd" clip-rule="evenodd" d="M11.1698 90.7792C10.8 88.5618 13.7753 85.7188 14.3132 83.0275C14.8679 80.3362 12.212 81.0185 10.6991 83.8046C9.1863 86.5907 11.1698 90.7792 11.1698 90.7792Z" fill="#AF5059"/>
<path opacity="0.8" fill-rule="evenodd" clip-rule="evenodd" d="M11.3042 82.9518C9.90905 85.0745 12.6322 85.7757 13.7752 83.5962C14.9015 81.4166 12.5649 81.0186 11.3042 82.9518Z" fill="#985059"/>
<path d="M13.3487 101.314C13.3487 112.288 32.9821 133.326 56.7506 133.326C80.5192 133.326 98.9255 114.923 100.186 100.158L13.3487 101.314Z" fill="url(#paint1_linear_903_3597)"/>
<path d="M100.186 100.158C100.153 102.963 99.2449 105.522 97.6312 107.834C91.4117 116.666 74.9384 121.708 58.3139 121.764C36.5793 121.821 14.1892 113.558 13.3487 101.314C12.3738 87.327 32.9821 78.2675 54.6999 77.7747C54.868 77.7747 55.0361 77.7747 55.2042 77.7747H55.221C77.5103 77.3957 100.304 86.0003 100.186 100.158Z" fill="#C8240C"/>
<path d="M95.446 100.12C95.4292 102.622 94.6055 104.896 93.1599 106.962C87.6296 114.847 72.9382 119.338 58.1291 119.376C38.7478 119.433 18.8118 112.061 18.0554 101.144C17.1981 88.6916 35.554 80.5987 54.9017 80.1628C55.0529 80.1628 55.2042 80.1628 55.3555 80.1628H55.3723C75.2579 79.8216 95.5637 87.4975 95.446 100.12Z" fill="url(#paint2_linear_903_3597)"/>
<path opacity="0.5" d="M27.6199 121.764C24.7791 118.94 43.7233 119.414 58.1122 124.607C72.5011 129.8 57.5575 133.932 50.2286 132.795C42.8997 131.677 29.1327 123.262 27.6199 121.764Z" fill="#A82B58"/>
<path opacity="0.5" d="M58.5997 121.764C54.2796 123.356 64.1804 128.095 71.3412 128.796C78.502 129.497 90.3695 118.296 92.8909 114.354C95.3955 110.431 87.5959 117.235 76.0983 119.793C64.5838 122.352 58.5997 121.764 58.5997 121.764Z" fill="#EBFFA8"/>
<path opacity="0.5" d="M21.2491 116.742C21.2491 116.742 38.4452 130.786 53.3047 132.226C68.5173 133.705 74.6023 128.455 74.6023 128.455C74.6023 128.455 66.5001 134.994 50.2454 132.814C33.9739 130.615 21.2491 116.742 21.2491 116.742Z" fill="url(#paint3_linear_903_3597)"/>
<path opacity="0.3" d="M78.8382 83.6502C65.8277 80.485 53.0525 107.228 55.5907 115.908C58.1122 124.588 86.3352 115.965 93.1598 106.943C100.001 97.9407 89.7811 86.3225 78.8382 83.6502Z" fill="#E9B6CE"/>
<path opacity="0.3" d="M18.0721 99.5896C18.6605 89.2413 31.4693 85.0906 42.782 84.4083C54.0948 83.726 51.6238 114.126 53.9603 116.723C56.2968 119.357 22.4426 119.604 18.0721 99.5896Z" fill="white"/>
<path d="M20.0389 93.354C18.2066 96.0833 22.4258 95.7042 24.9976 91.762C27.5527 87.8198 23.1486 88.7106 20.0389 93.354Z" fill="white"/>
<path d="M23.7537 94.3584C23.4511 95.7989 24.8631 95.5714 24.8295 94.3584C24.8127 93.1454 23.9554 93.4108 23.7537 94.3584Z" fill="white"/>
<path d="M69.7443 121.006C67.1892 121.158 78.6028 116.06 82.6371 114.752C86.6714 113.444 92.0336 113.179 92.0336 113.179C92.0336 113.179 82.1328 120.248 69.7443 121.006Z" fill="white"/>
<path d="M25.7541 85.8107C22.8797 88.8621 34.5118 82.9109 41.3533 81.7737C48.2115 80.6176 32.4106 78.7602 25.7541 85.8107Z" fill="white"/>
<path d="M25.317 114.903C25.317 114.903 32.2088 120.324 47.9256 121.385C47.9088 121.385 38.1089 120.532 25.317 114.903Z" fill="white"/>
<path opacity="0.8" d="M46.3793 131.961C46.3793 131.961 57.9442 134.956 79.5947 127.299C79.5947 127.299 63.9956 136.927 46.3793 131.961Z" fill="#985059"/>
<path opacity="0.5" fill-rule="evenodd" clip-rule="evenodd" d="M93.1599 106.962C93.1599 106.962 94.4374 104.385 94.7063 102.338C94.9753 100.291 88.9575 95.7612 85.8814 92.3307C82.8052 88.9002 76.6698 90.3596 73.5264 89.5257C70.3831 88.6917 72.9717 86.55 63.4744 85.7161C53.9771 84.9011 52.128 88.1231 49.2872 88.995C46.4296 89.8668 45.3538 87.0997 38.3275 88.4643C31.3011 89.8289 26.0566 94.0744 24.0227 97.3532C21.9887 100.632 22.7115 101.693 21.787 103.38C20.8625 105.067 19.6522 102.774 19.6018 103.589C19.5513 104.404 23.6865 115.074 48.4636 118.808C73.2407 122.523 92.9749 107.398 92.9749 107.398L93.1599 106.962Z" fill="#A82B58"/>
<path opacity="0.5" d="M95.446 100.12C93.3112 93.9226 83.797 111.283 74.2829 115.377C64.7688 119.471 50.9514 119.054 50.9514 119.054C50.9514 119.054 70.921 122.011 84.772 113.728C96.2024 106.905 95.446 100.12 95.446 100.12Z" fill="#E9B6CE"/>
<path d="M18.0721 101.144C18.0721 101.144 18.0553 107 26.2247 111.871C26.2247 111.871 20.3918 108.005 18.0721 101.144Z" fill="white"/>
<path fill-rule="evenodd" clip-rule="evenodd" d="M25.317 110.677C15.534 104.764 29.1496 87.1754 66.517 89.5634C99.7492 91.6862 96.942 108.706 83.7466 114.335C71.896 119.376 46.3793 123.413 25.317 110.677Z" fill="url(#paint4_linear_903_3597)"/>
<path fill-rule="evenodd" clip-rule="evenodd" d="M21.2491 116.742C21.2491 116.742 35.0833 127.621 60.0453 125.707C85.0073 123.792 95.1938 113.179 95.1938 113.179L92.0505 117.273C92.0505 117.273 81.6286 126.522 58.2299 127.318C35.8565 128.057 24.8464 120.153 24.8464 120.153L21.2491 116.742Z" fill="url(#paint5_linear_903_3597)"/>
<path d="M81.326 120.893C79.7291 121.158 79.0231 123.432 79.8132 123.906C80.5864 124.38 83.8138 120.476 81.326 120.893Z" fill="white"/>
<path d="M27.1492 121.764C26.0902 120.684 28.8301 122.162 29.9227 122.845C31.0153 123.527 29.3512 124.02 27.1492 121.764Z" fill="white"/>
<path opacity="0.5" fill-rule="evenodd" clip-rule="evenodd" d="M38.9494 125.631C36.9155 124.664 39.8571 124.797 50.1781 125.82C60.4991 126.844 66.5505 124.816 68.534 125.005C69.0551 125.062 69.8788 125.915 69.1055 126.199C66.9035 127.014 59.1207 127.735 51.5565 127.355C41.3195 126.825 38.9494 125.631 38.9494 125.631Z" fill="#A82B58"/>
<path fill-rule="evenodd" clip-rule="evenodd" d="M45.9758 93.278C53.6914 89.4306 47.3206 88.464 57.608 86.6635C67.8953 84.8629 71.7951 88.6346 75.3251 91.7618C78.8551 94.889 69.9629 95.4197 58.2131 96.4621C46.4633 97.5045 45.4715 93.5244 45.9758 93.278Z" fill="url(#paint6_linear_903_3597)"/>
<path fill-rule="evenodd" clip-rule="evenodd" d="M86.6042 118.903C84.8056 119.737 83.2423 121.765 83.2423 121.765C83.2423 121.765 86.6546 120.646 88.9575 119.566C91.2604 118.486 92.7396 115.529 92.7396 115.529C92.7396 115.529 89.6971 117.481 86.6042 118.903Z" fill="#FFFF5B"/>
<path fill-rule="evenodd" clip-rule="evenodd" d="M26.2248 101.144C21.9888 98.7935 27.8553 92.3305 36.613 89.336C45.3539 86.3225 48.43 90.2078 50.5648 93.2782C52.6996 96.3675 42.0088 98.4713 36.0751 101.144C30.1245 103.816 26.2248 101.144 26.2248 101.144Z" fill="url(#paint7_linear_903_3597)"/>
<path fill-rule="evenodd" clip-rule="evenodd" d="M62.9869 111.606C58.8182 108.611 71.6102 103.001 77.9473 95.7989C84.2845 88.5968 92.3362 98.6798 93.6473 102.793C94.9584 106.905 87.68 109.862 82.2673 112.572C76.8547 115.283 73.4088 112.648 68.803 112.193C64.1804 111.719 62.9869 111.606 62.9869 111.606Z" fill="url(#paint8_linear_903_3597)"/>
<path fill-rule="evenodd" clip-rule="evenodd" d="M43.8914 98.2248C43.5888 93.5813 57.4734 94.3773 68.1138 93.9604C78.7542 93.5434 65.4411 105.218 62.1464 108.137C58.8854 111.075 44.4461 106.829 43.8914 98.2248Z" fill="url(#paint9_linear_903_3597)"/>
<path fill-rule="evenodd" clip-rule="evenodd" d="M25.5186 106.507C27.5694 101.636 29.8218 98.6039 41.2186 99.7601C52.6154 100.916 55.2041 109.597 54.9183 111.871C54.6326 114.164 47.539 117.159 39.773 116.022C32.0071 114.866 25.5186 106.507 25.5186 106.507Z" fill="url(#paint10_linear_903_3597)"/>
<path fill-rule="evenodd" clip-rule="evenodd" d="M47.1861 112.515C50.7833 107.986 53.456 112.743 62.0456 114.145C70.652 115.548 67.0044 119.585 52.1953 118.22C37.4198 116.875 45.4379 114.733 47.1861 112.515Z" fill="url(#paint11_linear_903_3597)"/>
<path fill-rule="evenodd" clip-rule="evenodd" d="M62.987 113.558C61.6086 112.307 70.5176 106.602 76.1152 107.891C81.7127 109.199 84.335 112.193 83.2592 113.027C82.1834 113.861 77.2582 115.965 72.1986 116.192C67.1053 116.439 62.987 113.558 62.987 113.558Z" fill="url(#paint12_linear_903_3597)"/>
<path opacity="0.5" fill-rule="evenodd" clip-rule="evenodd" d="M73.7618 99.76C68.6518 102.925 71.6775 99.343 71.4253 98.2438C71.1564 97.1445 65.3739 103.153 59.1712 105.598C52.9854 108.042 49.0856 100.139 47.1861 98.7934C45.2698 97.4288 44.2781 100.158 44.2781 100.158C44.2781 100.158 48.0098 101.314 50.8674 103.683C53.7082 106.052 54.7167 109.028 54.9689 109.767C55.221 110.506 60.1966 109.653 62.012 109.085C63.8274 108.516 67.223 104.005 70.0806 102.376C72.9213 100.727 73.7618 99.76 73.7618 99.76Z" fill="#E3856E"/>
<path opacity="0.5" fill-rule="evenodd" clip-rule="evenodd" d="M29.2336 110.393C30.881 111.776 30.8305 107.379 36.8987 105.162C42.967 102.925 50.9682 110.62 50.9682 110.62C50.9682 110.62 48.8166 110.696 45.8918 113.804C42.967 116.913 42.0592 117.311 36.6298 115.548C31.1835 113.766 29.2336 110.393 29.2336 110.393Z" fill="#E3856E"/>
<path opacity="0.5" fill-rule="evenodd" clip-rule="evenodd" d="M48.4467 117.803C52.8339 118.296 53.7752 115.832 58.7845 115.529C63.7937 115.226 66.4832 116.742 66.4832 116.742C66.4832 116.742 67.5758 119.035 59.2719 119.054C50.9513 119.054 48.4467 117.803 48.4467 117.803Z" fill="#E3856E"/>
<path opacity="0.5" fill-rule="evenodd" clip-rule="evenodd" d="M76.4849 107.985C72.1817 107.303 84.3853 109.369 85.7133 110.051C87.0244 110.734 86.1167 97.9973 87.4278 96.6327C88.739 95.2681 93.3111 102.015 93.765 104.252C94.2189 106.488 90.2014 110.127 87.6296 111.435C85.0577 112.743 84.6543 113.254 83.2591 111.814C81.8471 110.374 79.3425 108.44 76.4849 107.985Z" fill="#E3856E"/>
<path opacity="0.5" fill-rule="evenodd" clip-rule="evenodd" d="M66.5336 115.282C68.1137 115.756 70.9209 112.06 74.6022 110.393C78.2666 108.725 83.259 113.027 83.259 113.027C83.259 113.027 80.1157 115.851 74.3332 116.742C68.5171 117.633 66.5336 115.282 66.5336 115.282Z" fill="#E3856E"/>
<path opacity="0.5" fill-rule="evenodd" clip-rule="evenodd" d="M24.9472 99.7411C24.8464 94.3585 36.5626 98.3765 38.109 98.7745C39.6387 99.1726 43.9083 98.2249 43.9083 98.2249C43.9083 98.2249 44.1772 99.817 44.5302 100.31C44.8832 100.803 37.2181 98.3197 32.1921 99.9686C27.1661 101.599 26.5105 104.366 26.2416 104.934C25.9726 105.503 23.7033 105.389 22.9133 104.745C22.1065 104.081 24.9472 99.7411 24.9472 99.7411Z" fill="#E3856E"/>
<path opacity="0.5" fill-rule="evenodd" clip-rule="evenodd" d="M51.5901 94.5479C51.5901 94.5479 60.9025 92.6527 66.9203 91.9514C72.9381 91.2501 75.1233 92.5579 76.0982 92.8232C77.0732 93.0886 73.6777 90.3025 73.6777 90.3025C73.6777 90.3025 78.7373 91.5534 81.1075 92.1788C83.4944 92.8232 80.4015 91.5344 76.8547 94.5479C73.2911 97.5425 72.9549 97.1824 72.0976 95.3629C71.2403 93.5434 67.4078 93.6003 62.18 93.733C56.9355 93.8846 51.5901 94.5479 51.5901 94.5479Z" fill="#E3856E"/>
<path opacity="0.8" fill-rule="evenodd" clip-rule="evenodd" d="M71.1395 101.883C69.7611 103.437 77.1572 107 81.9311 108.27C86.6882 109.54 86.7554 98.3574 87.2093 96.9549C87.6799 95.5524 85.646 92.9179 82.2505 93.5434C78.855 94.1499 75.9806 98.3953 74.5854 99.5136C73.1902 100.632 71.1395 101.883 71.1395 101.883Z" fill="#F0C79F"/>
<path opacity="0.8" fill-rule="evenodd" clip-rule="evenodd" d="M30.9649 100.158C26.8802 102.414 32.7131 103.323 41.7566 105.105C50.8 106.867 51.8927 110.165 53.3047 110.014C54.7166 109.862 52.5819 102.186 43.4543 100.253C34.3268 98.3197 30.9649 100.158 30.9649 100.158Z" fill="#F0C79F"/>
<path opacity="0.8" fill-rule="evenodd" clip-rule="evenodd" d="M47.3711 95.799C45.791 97.5616 48.1275 99.5138 50.8506 102.338C53.5738 105.143 60.7346 104.479 66.5338 100.916C72.3331 97.3532 71.4086 94.4534 63.2392 94.4534C55.0698 94.4534 47.7409 95.3631 47.3711 95.799Z" fill="#F0C79F"/>
<path opacity="0.8" fill-rule="evenodd" clip-rule="evenodd" d="M51.859 88.2365C47.4886 89.9613 54.683 93.2401 61.2555 92.7663C67.8448 92.2925 70.3998 91.1363 70.9713 89.26C71.5429 87.4026 62.4994 84.029 51.859 88.2365Z" fill="#F0C79F"/>
<path opacity="0.8" fill-rule="evenodd" clip-rule="evenodd" d="M26.9139 95.0978C25.9221 96.2729 32.7972 97.3532 34.1756 97.7133C35.5707 98.0734 46.6145 93.5058 47.9089 91.421C49.2032 89.3361 43.8578 87.9526 38.9831 88.6538C34.1251 89.3361 26.9139 95.0978 26.9139 95.0978Z" fill="#F0C79F"/>
<path opacity="0.8" fill-rule="evenodd" clip-rule="evenodd" d="M63.9451 111.7C63.1215 112.553 67.1221 113.103 68.3156 113.463C69.5259 113.842 73.7786 110.468 75.5604 109.994C77.3591 109.521 76.3001 107.322 72.2826 107.872C68.2652 108.44 63.9451 111.7 63.9451 111.7Z" fill="#F0C79F"/>
<path opacity="0.8" fill-rule="evenodd" clip-rule="evenodd" d="M49.1864 111.189C47.287 112.004 45.7405 114.676 46.0935 115.529C46.4465 116.363 49.8756 117.292 52.0608 116.95C54.2461 116.609 56.717 115.794 58.7846 115.529C60.8522 115.283 55.1033 112.212 52.6828 111.416C50.2622 110.62 49.1864 111.189 49.1864 111.189Z" fill="#F0C79F"/>
<path opacity="0.8" fill-rule="evenodd" clip-rule="evenodd" d="M65.2226 106.507C63.8779 107.512 65.458 105.218 67.7777 102.944C70.0974 100.67 71.6606 101.163 73.3248 100.158C75.0057 99.1346 65.2226 106.507 65.2226 106.507Z" fill="#AA5059"/>
<path opacity="0.8" fill-rule="evenodd" clip-rule="evenodd" d="M69.4249 93.9038C71.5597 93.8849 71.5597 93.8849 72.6691 94.4535C73.7618 95.0221 75.9806 93.449 75.9806 93.449C75.9806 93.449 76.9892 94.245 74.6022 96.6331C72.2153 99.0211 70.4167 99.874 70.2654 100.064C70.1141 100.253 72.2825 97.467 72.3834 95.9129C72.4674 94.3587 69.4249 93.9038 69.4249 93.9038Z" fill="#AA5059"/>
<path opacity="0.8" fill-rule="evenodd" clip-rule="evenodd" d="M29.7548 110.658C26.5274 107.284 25.855 108.024 25.3171 108.459C24.7792 108.914 26.9812 111.909 31.7551 114.013C36.529 116.116 37.5207 115.775 36.613 115.169C35.7053 114.543 31.6374 112.629 29.7548 110.658Z" fill="#AA5059"/>
<path opacity="0.8" fill-rule="evenodd" clip-rule="evenodd" d="M67.2565 115.529C65.7773 115.264 66.5505 116.609 66.3656 117.519C66.1807 118.429 57.0364 119.376 57.0364 119.376C57.0364 119.376 60.5832 119.282 67.8617 118.486C75.1401 117.69 80.0653 115.605 80.0653 115.605C80.0653 115.605 75.325 116.856 71.5093 116.761C67.6936 116.628 67.2565 115.529 67.2565 115.529Z" fill="#AA5059"/>
<path opacity="0.8" fill-rule="evenodd" clip-rule="evenodd" d="M36.0751 99.5136C36.0751 99.5136 39.9581 98.6796 41.6726 98.6417C43.3704 98.6038 44.0427 97.334 44.0427 97.334C44.0427 97.334 43.3199 99.5894 45.2026 100.518C45.1858 100.518 41.723 99.3619 36.0751 99.5136Z" fill="#AA5059"/>
<path opacity="0.5" fill-rule="evenodd" clip-rule="evenodd" d="M53.6072 106.886C53.6072 106.886 55.0529 109.237 54.9352 111.871C54.9352 111.871 57.0196 112.857 58.0449 113.16C58.0449 113.16 55.6412 111.473 55.4899 110.658C55.3554 109.824 55.8765 110.071 58.566 110.658C61.2555 111.246 64.1636 107.531 64.1636 107.531C64.1636 107.531 62.5499 108.839 59.0199 109.161C55.4899 109.502 53.6072 106.886 53.6072 106.886Z" fill="#AA5059"/>
<path opacity="0.5" fill-rule="evenodd" clip-rule="evenodd" d="M64.5503 106.886C62.6844 108.744 62.634 111.208 63.9451 111.701C63.9451 111.701 62.7853 112.459 62.987 113.539C63.1887 114.619 58.5661 113.349 56.4145 112.534C54.2629 111.719 55.0866 111.018 54.8344 109.426C54.5823 107.834 56.4649 109.275 59.2217 109.161C61.9952 109.066 64.5503 106.886 64.5503 106.886Z" fill="#E3856E"/>
<path opacity="0.5" fill-rule="evenodd" clip-rule="evenodd" d="M82.2506 92.3684C78.3844 90.7385 77.2918 96.159 76.0647 97.7131C76.0647 97.7131 78.0314 95.1734 80.1662 93.9605C82.301 92.7475 84.6711 93.4487 84.6711 93.4487L82.2506 92.3684Z" fill="#AA5059"/>
<path opacity="0.5" fill-rule="evenodd" clip-rule="evenodd" d="M24.9472 99.741C24.9472 99.741 23.7369 101.2 23.468 102.319C23.199 103.437 23.9554 102.281 25.9221 102.129C27.8888 101.977 27.0484 103.342 27.0484 103.342C27.0484 103.342 27.9057 102.281 28.3763 101.94C28.3595 101.958 25.9894 101.2 24.9472 99.741Z" fill="#AA5059"/>
<path opacity="0.5" fill-rule="evenodd" clip-rule="evenodd" d="M51.5902 94.548C50.2454 93.5435 49.7747 90.6816 49.7747 90.6816C49.7747 90.6816 49.3713 91.0797 49.1024 91.326C48.7494 91.6482 50.2286 91.4966 50.2454 93.4488C50.2454 94.6617 49.6571 93.0318 47.5055 93.9415C45.3539 94.8513 45.2026 96.0832 45.2026 96.0832C45.2026 96.0832 47.371 94.4154 51.5902 94.548Z" fill="#E3856E"/>
<path opacity="0.5" fill-rule="evenodd" clip-rule="evenodd" d="M46.5641 107.266C43.9922 105.768 44.5974 112.061 43.8914 114.562C43.2022 117.064 45.3874 114.468 47.186 112.515C48.9847 110.563 50.7664 110.431 50.7664 110.431C50.7664 110.431 47.6231 107.891 46.5641 107.266Z" fill="#E3856E"/>
<path opacity="0.5" fill-rule="evenodd" clip-rule="evenodd" d="M87.9825 96.7653C86.974 96.9359 86.3184 101.788 86.6714 105.313C87.0244 108.838 90.2518 105.294 91.4621 103.001C92.6724 100.708 89.092 96.5758 87.9825 96.7653Z" fill="#E3856E"/>
<g opacity="0.8">
<path fill-rule="evenodd" clip-rule="evenodd" d="M84.9064 105.787C84.7552 107.721 85.209 107.569 85.6124 105.484C86.0327 103.399 84.9737 105.048 84.9064 105.787Z" fill="#934B59"/>
<path fill-rule="evenodd" clip-rule="evenodd" d="M87.7809 108.194C87.6464 109.218 88.1507 109.18 88.6382 108.365C89.1257 107.569 87.8313 107.834 87.7809 108.194Z" fill="#934B59"/>
<path fill-rule="evenodd" clip-rule="evenodd" d="M66.332 107.455C65.9622 108.782 67.3238 107.948 67.7104 107.152C68.1138 106.337 66.6346 106.375 66.332 107.455Z" fill="#934B59"/>
<path fill-rule="evenodd" clip-rule="evenodd" d="M77.1405 113.785C76.7371 113.274 78.2835 112.61 79.124 113.463C79.9813 114.335 77.5439 114.297 77.1405 113.785Z" fill="#934B59"/>
<path fill-rule="evenodd" clip-rule="evenodd" d="M75.325 112.876C75.1065 113.672 75.6276 113.501 75.8629 112.876C76.0814 112.25 75.4091 112.572 75.325 112.876Z" fill="#934B59"/>
<path fill-rule="evenodd" clip-rule="evenodd" d="M58.129 116.42C57.6415 116.893 58.3812 116.912 59.0031 116.742C59.6419 116.571 58.6165 115.946 58.129 116.42Z" fill="#934B59"/>
<path fill-rule="evenodd" clip-rule="evenodd" d="M70.6521 96.9739C70.484 98.0163 70.921 98.0542 71.1395 97.353C71.3749 96.6517 70.7193 96.5001 70.6521 96.9739Z" fill="#934B59"/>
<path fill-rule="evenodd" clip-rule="evenodd" d="M61.2388 105.825C61.1043 106.242 62.0121 105.977 62.1633 105.598C62.3146 105.238 61.4237 105.2 61.2388 105.825Z" fill="#934B59"/>
<path fill-rule="evenodd" clip-rule="evenodd" d="M49.3881 96.974C48.9006 97.5236 50.0941 97.9595 50.6992 97.353C51.3212 96.7276 49.5898 96.7465 49.3881 96.974Z" fill="#934B59"/>
<path fill-rule="evenodd" clip-rule="evenodd" d="M51.1364 95.7611C51.0019 96.1402 51.3717 96.1023 51.5902 95.8559C51.7919 95.5905 51.2036 95.5905 51.1364 95.7611Z" fill="#934B59"/>
<path fill-rule="evenodd" clip-rule="evenodd" d="M29.906 95.6283C29.7715 96.0073 30.1413 95.9694 30.3599 95.7231C30.5784 95.4577 29.9733 95.4577 29.906 95.6283Z" fill="#934B59"/>
<path fill-rule="evenodd" clip-rule="evenodd" d="M46.5473 102.925C46.228 103.02 47.4887 103.949 48.1106 104.252C48.7494 104.555 47.7912 102.508 46.5473 102.925Z" fill="#934B59"/>
<path fill-rule="evenodd" clip-rule="evenodd" d="M41.5381 110.052C41.8911 111.435 42.4626 111.284 42.429 110.241C42.3954 109.199 41.4036 109.521 41.5381 110.052Z" fill="#934B59"/>
<path fill-rule="evenodd" clip-rule="evenodd" d="M55.3555 87.0997C54.1285 87.4219 57.7593 88.0663 58.5661 87.4787C59.3562 86.8912 57.4903 86.55 55.3555 87.0997Z" fill="#934B59"/>
<path fill-rule="evenodd" clip-rule="evenodd" d="M71.7447 90.3027C70.7529 90.8713 70.7193 91.1177 71.7447 91.2314C72.7533 91.3451 72.1986 90.0374 71.7447 90.3027Z" fill="#934B59"/>
<path fill-rule="evenodd" clip-rule="evenodd" d="M30.1582 96.3865C30.091 97.012 30.5952 96.4813 30.9482 96.1022C31.3012 95.7232 30.2254 95.7611 30.1582 96.3865Z" fill="#934B59"/>
<path fill-rule="evenodd" clip-rule="evenodd" d="M39.0168 96.974C38.8319 97.4857 39.0841 97.751 39.7396 96.974C40.412 96.1969 39.4539 95.8178 39.0168 96.974Z" fill="#934B59"/>
<path fill-rule="evenodd" clip-rule="evenodd" d="M44.2613 95.6473C43.4208 96.2917 44.2277 96.8982 44.732 96.2349C45.2363 95.5715 44.7488 95.2683 44.2613 95.6473Z" fill="#934B59"/>
<path fill-rule="evenodd" clip-rule="evenodd" d="M47.6568 92.577C47.1357 92.8613 47.7913 93.1835 48.5141 93.0888C49.2369 92.994 49.052 91.8 47.6568 92.577Z" fill="#934B59"/>
</g>
<path fill-rule="evenodd" clip-rule="evenodd" d="M88.2515 96.2347C87.2598 96.2915 87.0917 97.5424 86.5706 98.0921C86.0663 98.6417 82.7549 96.9928 79.8973 96.4432C77.0397 95.8935 80.6201 93.2401 84.15 93.5244C87.68 93.8277 88.2515 96.2347 88.2515 96.2347Z" fill="#F0C79F"/>
<path fill-rule="evenodd" clip-rule="evenodd" d="M73.207 107.891C71.1562 108.251 72.9044 111.132 73.3247 110.999C73.7281 110.867 76.2495 109.578 76.4176 109.445C76.5689 109.312 76.115 107.379 73.207 107.891Z" fill="#F0C79F"/>
<path fill-rule="evenodd" clip-rule="evenodd" d="M67.0379 94.908C64.7687 95.0786 67.4077 98.5091 67.4918 99.3809C67.5758 100.253 70.2149 98.3954 70.2485 96.6517C70.299 94.8701 67.0379 94.908 67.0379 94.908Z" fill="#F0C79F"/>
<path fill-rule="evenodd" clip-rule="evenodd" d="M53.6073 91.2312C51.2371 89.9803 58.9359 88.9379 62.1801 90.2646C65.4075 91.6102 61.9111 92.7663 58.8686 92.7095C55.8429 92.6526 53.6073 91.2312 53.6073 91.2312Z" fill="#F0C79F"/>
<path fill-rule="evenodd" clip-rule="evenodd" d="M32.3433 99.9874C28.1914 100.518 31.402 103.039 35.8565 103.93C40.311 104.82 41.5717 104.707 42.429 104.688C43.2863 104.669 43.0846 98.6228 32.3433 99.9874Z" fill="#F0C79F"/>
<path fill-rule="evenodd" clip-rule="evenodd" d="M56.1959 114.145C54.246 113.937 54.0611 116.477 53.9602 116.742C53.8594 117.007 56.3472 115.491 57.9609 115.491C59.5914 115.491 57.9441 114.335 56.1959 114.145Z" fill="#F0C79F"/>
<path fill-rule="evenodd" clip-rule="evenodd" d="M31.9736 97.2393C30.9818 96.6139 34.5286 93.6951 37.4535 93.733C40.3783 93.7899 38.9663 95.9884 37.8233 96.8224C36.6802 97.6563 35.0329 97.9595 34.1756 97.6942C33.3183 97.4478 31.9736 97.2393 31.9736 97.2393Z" fill="#F0C79F"/>
<path d="M76.4346 109.18C75.7286 109.085 75.2411 109.862 75.2747 110.014C75.3083 110.165 76.6027 110.033 77.0901 110.014C77.5608 109.976 76.7876 109.236 76.4346 109.18Z" fill="white"/>
<path d="M72.8037 111.378C72.4002 111.246 73.4256 110.696 73.8963 110.601C74.3501 110.525 72.8037 111.378 72.8037 111.378Z" fill="white"/>
<path d="M54.683 116.495C55.0024 116.022 54.0779 116.003 53.4223 116.287C52.7667 116.571 52.3801 117.235 52.4305 117.272C52.481 117.31 54.683 116.495 54.683 116.495Z" fill="white"/>
<path d="M68.3491 99.3621C67.9961 99.1346 66.9708 100.31 67.1221 100.537C67.2397 100.784 68.9375 99.7222 68.3491 99.3621Z" fill="white"/>
<path d="M40.6303 104.252C40.0084 104.896 42.1095 105.503 43.3366 105.446C44.5637 105.37 42.8828 101.94 40.6303 104.252Z" fill="white"/>
<path d="M33.8899 97.6375C33.4528 97.41 34.9825 96.9362 35.5708 97.5048C35.9238 97.8459 34.7808 98.1113 33.8899 97.6375Z" fill="white"/>
<path d="M57.3389 92.3116C56.7002 92.4064 57.5406 93.1645 60.0116 92.8044C62.4826 92.4443 58.0617 92.2168 57.3389 92.3116Z" fill="white"/>
<path d="M71.6438 99.1156C70.4504 100.461 73.1567 100.177 74.5855 99.1156C76.0143 98.0542 74.4342 97.1255 75.4428 95.9883C76.4513 94.8511 76.6026 94.7374 76.9052 94.112C77.2078 93.4865 76.5186 93.0885 76.2496 93.2591C75.9639 93.4297 76.2832 94.7753 74.5855 96.9549C72.8877 99.1345 71.6438 99.1156 71.6438 99.1156Z" fill="white"/>
<path d="M57.608 110.43C56.549 110.393 58.2972 111.245 59.2217 111.321C60.1462 111.397 61.0035 110.336 61.1044 110.165C61.222 109.995 61.0035 110.393 59.6756 110.62C58.3476 110.81 57.608 110.43 57.608 110.43Z" fill="white"/>
<path d="M23.4007 105.692C22.1736 105.995 23.9723 106.943 24.8295 106.507C25.7036 106.09 24.3589 105.446 23.4007 105.692Z" fill="white"/>
<path d="M84.587 111.378C83.8306 111.985 84.6543 112.004 85.9654 111.947C87.2765 111.89 87.5287 111.17 87.7472 110.601C87.9825 110.033 85.3603 110.772 84.587 111.378Z" fill="white"/>
<path d="M86.8395 97.7322C86.0158 97.7511 86.268 100.007 86.5705 100.348C86.8899 100.67 86.8395 97.7322 86.8395 97.7322Z" fill="white"/>
<path d="M66.1134 92.0462C65.6091 92.0083 67.3909 91.5723 68.4667 90.7384C69.5425 89.9045 68.9542 87.7059 65.5251 87.5354C62.0959 87.3648 62.6675 86.4361 65.8949 86.6446C69.1223 86.8531 68.0633 88.6915 69.6434 89.4875C71.2235 90.3025 70.3662 91.1554 68.971 91.5155C67.5758 91.8945 66.1134 92.0462 66.1134 92.0462Z" fill="white"/>
<path d="M41.0675 103.456C39.8236 103.645 38.0586 102.774 34.7303 102.243C31.4021 101.712 33.2511 99.5895 36.9156 99.6275C40.58 99.6654 41.8743 102.527 42.1265 103.001C42.3954 103.475 41.0675 103.456 41.0675 103.456Z" fill="white"/>
<path opacity="0.8" fill-rule="evenodd" clip-rule="evenodd" d="M51.2707 99.9684C50.7833 100.821 52.6995 100.139 54.0611 99.6462C55.4395 99.1345 52.481 97.8457 51.2707 99.9684Z" fill="#AA5059"/>
<path opacity="0.8" fill-rule="evenodd" clip-rule="evenodd" d="M58.3139 100.31C57.4902 100.329 57.9777 100.708 58.3979 101.087C58.8182 101.466 57.3053 101.826 57.0196 102.489C56.7338 103.153 59.3897 103.418 60.331 103.759C61.2723 104.1 59.8099 101.068 59.6754 100.31C59.5242 99.5517 58.3139 100.31 58.3139 100.31Z" fill="#AA5059"/>
<path d="M79.9813 94.9082C77.5103 95.4389 82.6372 96.8224 84.1836 97.5616C85.7301 98.3008 85.9654 98.0733 85.9822 97.7322C85.9991 97.3721 85.0745 93.8089 79.9813 94.9082Z" fill="white"/>
<path d="M53.6912 104.745C52.9012 104.081 54.414 104.309 56.2967 104.745C58.1625 105.181 56.1286 106.792 53.6912 104.745Z" fill="white"/>
<path d="M44.0428 93.9983C43.3704 94.0931 44.2445 92.9938 45.6733 92.7853C46.4465 92.6716 45.0345 93.8467 44.0428 93.9983Z" fill="white"/>
<path fill-rule="evenodd" clip-rule="evenodd" d="M37.5878 110.601C35.5539 110.525 37.0668 112.383 39.4705 112.97C41.8743 113.539 40.6976 110.734 37.5878 110.601Z" fill="#F0C79F"/>
<path fill-rule="evenodd" clip-rule="evenodd" d="M36.9154 109.066C35.5875 110.658 37.3525 110.279 38.6973 109.161C40.0252 108.043 37.7895 108.024 36.9154 109.066Z" fill="#F0C79F"/>
<path fill-rule="evenodd" clip-rule="evenodd" d="M64.9704 103.001C64.3989 104.043 65.0208 103.968 65.8781 103.001C66.7354 102.034 65.273 102.451 64.9704 103.001Z" fill="#F0C79F"/>
<path fill-rule="evenodd" clip-rule="evenodd" d="M65.6933 104.328C65.6765 105.029 66.3321 104.025 66.6346 103.57C66.9372 103.115 65.7269 103.608 65.6933 104.328Z" fill="#F0C79F"/>
<path fill-rule="evenodd" clip-rule="evenodd" d="M62.5162 100.916C60.768 101.011 63.592 98.7936 65.088 99.2674C66.5841 99.7412 63.6592 100.859 62.5162 100.916Z" fill="#F0C79F"/>
<path fill-rule="evenodd" clip-rule="evenodd" d="M61.7935 101.693C61.2724 102.091 62.0289 102.565 62.9534 102.035C63.8779 101.523 62.4659 101.163 61.7935 101.693Z" fill="#F0C79F"/>
<path fill-rule="evenodd" clip-rule="evenodd" d="M70.9042 105.446C69.593 105.389 72.1481 107.133 73.3415 106.602C74.535 106.052 71.5597 105.465 70.9042 105.446Z" fill="#F0C79F"/>
<path fill-rule="evenodd" clip-rule="evenodd" d="M81.7798 109.407C80.5359 109.616 81.4941 110.45 83.2423 110.317C84.9736 110.165 82.6035 109.275 81.7798 109.407Z" fill="#F0C79F"/>
<path fill-rule="evenodd" clip-rule="evenodd" d="M72.8037 113.501C71.459 114.43 72.8373 115.738 74.1653 114.563C75.51 113.387 73.9972 112.686 72.8037 113.501Z" fill="#F0C79F"/>
<path fill-rule="evenodd" clip-rule="evenodd" d="M74.8879 114.695C74.1819 115.207 75.409 115.624 76.115 114.695C76.8042 113.766 75.2913 114.392 74.8879 114.695Z" fill="#F0C79F"/>
<path fill-rule="evenodd" clip-rule="evenodd" d="M31.4189 105.048C29.7884 106.128 31.7719 106.697 33.8058 105.313C35.8566 103.93 31.4189 105.048 31.4189 105.048Z" fill="#F0C79F"/>
<path fill-rule="evenodd" clip-rule="evenodd" d="M61.6254 117.633C60.0957 119.035 63.4576 118.789 65.0377 117.633C66.601 116.477 62.0792 117.216 61.6254 117.633Z" fill="#F0C79F"/>
<path fill-rule="evenodd" clip-rule="evenodd" d="M61.6926 116.098C60.3647 116.799 61.6926 117.045 62.7012 116.287C63.7434 115.51 62.4322 115.7 61.6926 116.098Z" fill="#F0C79F"/>
<path fill-rule="evenodd" clip-rule="evenodd" d="M46.0431 116.837C44.2781 116.818 46.1103 117.898 48.3964 117.595C50.6656 117.292 46.0431 116.837 46.0431 116.837Z" fill="#F0C79F"/>
<path fill-rule="evenodd" clip-rule="evenodd" d="M57.5407 106.697C54.2965 107.607 57.3222 108.668 59.4401 107.891C61.5581 107.114 59.5578 106.128 57.5407 106.697Z" fill="#F0C79F"/>
<path fill-rule="evenodd" clip-rule="evenodd" d="M52.9012 92.5959C50.9681 92.7855 54.0443 93.9606 55.6748 93.4488C57.2885 92.9561 52.9012 92.5959 52.9012 92.5959Z" fill="#F0C79F"/>
<path fill-rule="evenodd" clip-rule="evenodd" d="M68.1811 92.1981C65.4411 93.1457 67.7945 93.7333 69.9461 93.1078C72.0977 92.5013 70.3663 91.44 68.1811 92.1981Z" fill="#F0C79F"/>
<path fill-rule="evenodd" clip-rule="evenodd" d="M90.6217 105.048C90.0166 107.114 90.4032 107.929 92.0337 105.446C93.681 102.963 91.0251 103.627 90.6217 105.048Z" fill="#F0C79F"/>
<path fill-rule="evenodd" clip-rule="evenodd" d="M88.2516 99.1915C87.4279 99.8927 87.1926 100.082 87.5119 102.47C87.8145 104.877 88.7558 102.432 89.1425 101.125C89.5291 99.8359 88.5037 98.983 88.2516 99.1915Z" fill="#F0C79F"/>
<path fill-rule="evenodd" clip-rule="evenodd" d="M88.655 103.191C88.4196 103.57 87.8481 105.2 88.4197 104.461C88.9744 103.74 88.8063 102.925 88.655 103.191Z" fill="#F0C79F"/>
<path fill-rule="evenodd" clip-rule="evenodd" d="M75.1569 106.697C73.9298 106.886 74.5181 107.948 76.5353 107.701C78.5692 107.455 76.8378 106.432 75.1569 106.697Z" fill="#F0C79F"/>
<path opacity="0.8" fill-rule="evenodd" clip-rule="evenodd" d="M52.1616 96.7655C51.3715 96.936 52.6323 97.5994 53.9602 97.7321C55.2881 97.8647 54.9015 97.8647 54.8175 98.2248C54.7334 98.6039 55.4394 98.2817 58.8854 97.353C62.3313 96.4243 61.1546 96.3864 61.0033 95.4956C60.8521 94.6048 61.7598 95.2682 61.8438 93.6003C61.9279 91.9325 63.1886 92.8233 61.0033 91.4397C58.8181 90.0561 55.5403 91.4018 56.1454 92.7475C56.7338 94.0931 56.1454 96.6518 54.6326 96.6518C53.1029 96.6328 52.1616 96.7655 52.1616 96.7655Z" fill="#AA5059"/>
<path d="M26.2247 101.144C25.401 100.518 26.3088 102.376 26.813 102.868C27.3173 103.361 28.1746 102.167 27.9729 101.997C27.7712 101.845 27.1492 101.845 26.2247 101.144Z" fill="white"/>
<path fill-rule="evenodd" clip-rule="evenodd" d="M59.2216 95.2872C59.8267 93.8468 58.0113 94.2827 57.6079 93.5815C57.2044 92.8802 55.9437 93.4867 55.7756 93.7331C55.6075 93.9795 56.2631 94.8134 56.3472 94.8892C56.4312 94.9651 55.1033 94.7755 53.6913 94.3775C52.2793 93.9795 51.9263 95.1356 51.1026 95.4768C50.279 95.8179 52.0439 97.0688 53.4727 97.4479C54.9015 97.8269 54.8511 97.012 55.8933 96.7656C56.9187 96.5192 55.8933 96.8224 55.4731 97.5426C55.0528 98.2629 54.952 97.9786 58.0281 97.2204C61.1042 96.4813 59.4569 95.4957 59.3392 95.382C59.2216 95.2872 59.2216 95.2872 59.2216 95.2872Z" fill="#686818"/>
<path fill-rule="evenodd" clip-rule="evenodd" d="M49.5898 113.008C48.9174 112.364 50.6488 112.25 51.338 111.587C52.0272 110.923 54.2964 112.591 53.0862 113.008C51.8759 113.425 50.632 114.278 50.3462 114.581C50.0605 114.885 51.3884 114.107 51.9936 114.354C52.5987 114.6 50.9682 114.922 49.6234 115.32C48.2282 115.737 49.5898 113.008 49.5898 113.008Z" fill="#686818"/>
<path fill-rule="evenodd" clip-rule="evenodd" d="M58.314 101.788C57.2382 102.451 59.0872 102.717 60.3479 103.759C61.5918 104.783 61.0707 102.508 60.5496 101.2C60.0286 99.8927 60.9699 100.442 61.9784 99.5895C62.9702 98.7366 63.256 98.566 59.9109 99.1914C56.5658 99.8169 57.7929 100.765 58.2299 100.916C58.6502 101.068 58.314 101.788 58.314 101.788Z" fill="#686818"/>
<path fill-rule="evenodd" clip-rule="evenodd" d="M51.6238 102.868C51.7079 103.759 50.5144 103.873 49.4722 104.252C48.4132 104.631 48.5141 105.351 51.1028 105.048C53.6914 104.745 53.1031 103.854 52.3635 103.361C51.6238 102.868 51.6238 102.868 51.6238 102.868Z" fill="#89841F"/>
<path fill-rule="evenodd" clip-rule="evenodd" d="M69.946 105.048C68.9879 105.673 69.2737 106.716 70.5176 106.583C71.7446 106.45 71.5765 107.095 70.921 105.427C70.2486 103.797 69.946 105.048 69.946 105.048Z" fill="#786F1A"/>
<path fill-rule="evenodd" clip-rule="evenodd" d="M56.5657 90.1131C54.1283 90.5869 55.658 93.354 56.8178 93.9795C57.9777 94.6049 57.154 93.6193 57.507 93.3919C57.86 93.1645 58.5492 94.6807 59.7931 94.9271C61.0538 95.1924 61.0202 94.3396 61.1546 92.0463C61.2891 89.7719 60.9193 90.7954 60.4655 90.7385C60.0116 90.7006 60.0452 89.2412 59.5409 88.3315C59.0535 87.4217 57.2549 89.3739 56.2295 89.3739C55.1705 89.4118 56.5657 90.1131 56.5657 90.1131Z" fill="#89841F"/>
<path fill-rule="evenodd" clip-rule="evenodd" d="M52.4306 98.3954C50.7496 99.3241 50.3126 101.049 52.6323 99.9685C54.9352 98.8882 54.952 99.3051 54.0779 98.7934C53.2038 98.2817 52.834 97.8268 52.6323 98.1111C52.4306 98.3954 52.4306 98.3954 52.4306 98.3954Z" fill="#786F1A"/>
<path fill-rule="evenodd" clip-rule="evenodd" d="M38.5629 89.0708C37.5039 89.6583 37.2182 90.7386 38.6806 90.0563C40.143 89.374 40.143 89.6393 39.5883 89.3171C39.0336 88.9949 38.7982 88.7107 38.6806 88.8812C38.5629 89.0708 38.5629 89.0708 38.5629 89.0708Z" fill="#786F1A"/>
<path fill-rule="evenodd" clip-rule="evenodd" d="M82.2505 98.1111C81.2923 98.2438 82.3681 99.9496 83.4776 100.916C84.587 101.883 84.587 99.4757 83.8642 98.7934C83.1414 98.0922 82.2505 98.1111 82.2505 98.1111Z" fill="#686818"/>
<path fill-rule="evenodd" clip-rule="evenodd" d="M78.1994 111.378C77.7455 111.985 79.0903 112.819 79.5946 110.98C80.0989 109.161 78.1994 111.378 78.1994 111.378Z" fill="#686818"/>
<path fill-rule="evenodd" clip-rule="evenodd" d="M100.24 45.1558C100.24 45.1558 101.534 47.07 102.156 47.07C102.778 47.07 101.652 47.5628 101.316 48.7758C100.979 49.9888 100.24 45.1558 100.24 45.1558Z" fill="url(#paint13_linear_903_3597)"/>
<path fill-rule="evenodd" clip-rule="evenodd" d="M115.267 28.3256C112.343 25.2363 107.586 20.7634 101.635 21.0098C95.7013 21.2561 97.7184 22.6776 96.0039 24.0612C95.9702 24.0801 95.9366 24.118 95.903 24.137C95.3819 24.535 94.6087 24.9899 93.6842 25.5395C91.4317 26.9041 88.3556 28.9131 86.204 32.5142C83.1278 37.6694 84.17 41.9527 84.17 46.0655V46.0845C84.17 50.1593 84.17 50.4057 84.8424 52.6232C85.5148 54.8597 86.6242 56.2053 86.6242 56.2053C86.641 56.2243 86.6578 56.2622 86.6746 56.2811C86.7251 56.338 86.7587 56.4138 86.7923 56.4707C87.5992 57.8163 87.6496 59.0862 89.0111 60.7351C90.4567 62.4977 89.8516 61.967 91.6502 62.7251C93.4488 63.4832 97.2646 65.7197 101.45 65.9471C105.636 66.1746 113.502 62.4408 117.352 58.5934C121.201 54.7459 122.21 48.0745 122.025 43.867C121.84 39.6594 118.192 31.4149 115.267 28.3256ZM101.148 40.3228C103.887 39.7921 103.787 36.1152 105.232 40.0953C106.678 44.0755 107.636 45.4211 106.745 45.876C106.527 45.9897 106.09 46.0087 105.568 46.0466C105.484 46.0466 105.384 46.0466 105.299 46.0655C103.787 46.1603 101.702 46.4256 101.164 48.8705C101.232 48.3778 101.232 47.2216 100.391 45.4969C99.2481 43.1468 98.4076 40.8535 101.148 40.3228Z" fill="url(#paint14_linear_903_3597)"/>
<path fill-rule="evenodd" clip-rule="evenodd" d="M115.604 29.1785C110.981 23.322 104.005 19.702 95.9198 24.137C95.1802 24.535 94.4406 25.0088 93.7009 25.5395C92.1545 26.6577 90.5576 28.0603 88.9439 29.8229C84.9096 34.2199 84.3717 40.9482 84.1868 46.0466V46.0655C84.1532 47.0511 84.1196 47.9798 84.0859 48.8137C84.0691 49.2117 84.1028 49.6666 84.17 50.1404L84.2372 50.5384C84.3717 51.1828 84.5734 51.8651 84.8424 52.5853C85.2626 53.7225 85.8678 54.9544 86.6242 56.1674C86.641 56.1864 86.6578 56.2243 86.6746 56.2432C86.7082 56.3001 86.7587 56.3759 86.7923 56.4328C89.9861 61.4553 95.8357 66.3262 103.366 65.3217C115.721 63.6728 122.428 53.0781 121.47 43.1278C121.067 38.8066 118.949 33.405 115.604 29.1785ZM106.258 45.9897C106.056 46.0087 105.837 46.0276 105.568 46.0466C105.484 46.0466 105.384 46.0466 105.299 46.0655C103.787 46.1603 101.702 46.4256 101.164 48.8706C101.232 48.3778 101.232 47.2596 100.442 45.5917C100.425 45.5538 100.408 45.5348 100.391 45.4969C99.9877 44.663 99.6179 43.8291 99.433 43.071C99.4162 43.0141 99.3993 42.9572 99.3993 42.9004C99.1304 41.6305 99.4666 40.645 101.148 40.3038C103.887 39.7732 103.787 36.0963 105.232 40.0764C106.678 44.0565 107.636 45.4022 106.745 45.857C106.644 45.9329 106.476 45.9708 106.258 45.9897C106.274 45.9897 106.274 45.9897 106.258 45.9897Z" fill="url(#paint15_linear_903_3597)"/>
<path fill-rule="evenodd" clip-rule="evenodd" d="M101.164 48.8706C101.148 49.0222 101.114 49.117 101.114 49.1359C101.131 49.0412 101.148 48.9464 101.164 48.8706Z" fill="url(#paint16_linear_903_3597)"/>
<path fill-rule="evenodd" clip-rule="evenodd" d="M101.164 48.8705C101.702 46.4255 103.787 46.1412 105.299 46.0654C103.703 46.1602 102.038 46.7477 101.164 48.8705Z" fill="url(#paint17_linear_903_3597)"/>
<path fill-rule="evenodd" clip-rule="evenodd" d="M111.721 45.7624C111.704 47.5629 107.502 46.0088 105.753 46.0467C105.686 46.0467 105.636 46.0467 105.568 46.0467C106.09 46.0088 106.527 45.9898 106.745 45.8761C107.636 45.4212 106.695 44.0756 105.232 40.0954C103.787 36.1153 103.888 39.7922 101.148 40.3229C98.4077 40.8536 99.2481 43.1658 100.391 45.497C101.232 47.2217 101.232 48.3779 101.164 48.8707C100.593 50.2542 98.2228 51.543 95.466 50.0836C92.7093 48.6243 95.0962 48.4916 96.9452 44.2651C98.7943 40.0196 94.2389 36.6081 96.2729 32.7038C98.3236 28.7995 101.686 32.3437 105.4 34.0495C109.132 35.7363 111.721 43.9618 111.721 45.7624Z" fill="#F4D8C6"/>
<path fill-rule="evenodd" clip-rule="evenodd" d="M121.47 43.1658C122.428 53.1161 115.721 63.7108 103.35 65.3597C92.6756 66.8001 85.3971 56.376 84.2204 50.5575L84.1532 50.1594C86.0695 43.1848 97.4326 60.7162 105.854 61.2659C116.209 61.9292 120.041 48.321 120.025 42.7488C120.008 37.2715 115.721 29.4629 115.57 29.1975C118.949 33.4051 121.067 38.8066 121.47 43.1658Z" fill="#EBB3AF"/>
<path opacity="0.5" fill-rule="evenodd" clip-rule="evenodd" d="M99.618 43.6774C98.7102 41.5926 99.265 40.228 100.206 39.5457C101.148 38.8634 101.77 39.3372 103.249 37.7262C104.728 36.1152 102.593 32.8363 101.349 31.6802C100.105 30.5051 103.484 33.5186 105.468 34.3147C107.451 35.1107 105.165 37.0249 104.173 38.0674C103.165 39.1098 103.736 39.8489 101.618 40.0953C99.5003 40.3227 98.8279 41.839 99.618 43.6774Z" fill="#AF5059"/>
<path opacity="0.5" fill-rule="evenodd" clip-rule="evenodd" d="M106.258 46.0464C106.258 46.0464 106.745 45.8758 108.594 46.3686C110.443 46.8614 110.578 46.198 109.182 44.2838C107.804 42.3696 107.098 44.0943 107.081 45.0798C107.081 46.0654 106.93 46.0654 106.258 46.0464Z" fill="#AF5059"/>
<path opacity="0.5" fill-rule="evenodd" clip-rule="evenodd" d="M84.5062 45.1746C84.2708 46.8993 90.8937 45.8569 94.9784 44.4923C99.0631 43.1466 94.5582 37.2712 95.7012 32.9879C96.8443 28.7045 101.669 30.126 106.728 31.9644C111.788 33.8218 113.906 30.1828 114.091 28.2496C114.292 26.3164 105.669 18.2804 94.3229 25.5583C82.9597 32.8363 84.5062 45.1746 84.5062 45.1746Z" fill="#FFFFC9"/>
<path opacity="0.5" fill-rule="evenodd" clip-rule="evenodd" d="M106.157 64.8289C102.459 65.0564 110.796 64.0708 116.074 56.0537C121.352 48.0366 120.041 39.7163 120.041 39.7163C120.041 39.7163 123.42 44.4545 120.361 51.9409C117.301 59.4084 112.326 63.2748 106.157 64.8289Z" fill="#AF5059"/>
<path fill-rule="evenodd" clip-rule="evenodd" d="M106.258 46.0466C107.064 45.5159 113.082 47.2975 116.142 48.2262C119.201 49.1549 118.797 54.8786 118.226 56.0916C117.654 57.3046 119.554 55.2766 119.419 53.0023C119.285 50.7279 118.209 48.9464 115.52 47.5628C112.83 46.1792 109.166 44.4924 108.056 44.5114C106.964 44.5303 107.501 46.0276 106.258 46.0466Z" fill="#F4D8C6"/>
<path opacity="0.3" fill-rule="evenodd" clip-rule="evenodd" d="M100.845 49.4201C98.3236 52.8884 99.164 57.4561 103.619 60.0526C108.056 62.6492 113.771 59.1998 115.688 53.7792C117.604 48.3397 109.619 47.0509 106.678 46.2928C103.719 45.5347 102.694 46.8804 100.845 49.4201Z" fill="#FFFFC9"/>
<path opacity="0.3" fill-rule="evenodd" clip-rule="evenodd" d="M111.838 44.4545C111.855 45.7622 116.646 46.7667 118.024 47.4301C119.403 48.0934 119.369 41.4788 117.822 37.7641C116.276 34.0304 111.166 36.3616 109.939 36.5511C108.695 36.7217 111.805 41.1187 111.838 44.4545Z" fill="#FFFFC9"/>
<path opacity="0.5" fill-rule="evenodd" clip-rule="evenodd" d="M98.643 65.246C102.644 65.4545 98.7102 62.8579 95.0626 60.413C91.4318 57.9491 94.3566 62.2894 95.7182 63.1422C97.0797 63.9951 91.9192 64.2415 89.7172 59.0105C87.5152 53.7795 95.6845 60.7921 99.3322 62.0619C102.98 63.3128 97.3319 60.034 96.794 58.3472C96.2561 56.6414 104.51 63.3128 109.451 62.1567C114.393 61.0195 117.016 55.4853 117.823 54.4997C118.629 53.5142 118.327 59.2569 110.292 62.9148C102.24 66.5727 98.643 65.246 98.643 65.246Z" fill="#AF5059"/>
<path opacity="0.4" fill-rule="evenodd" clip-rule="evenodd" d="M99.3153 41.8959C99.164 41.3083 100.005 39.8679 100.189 39.5457C100.374 39.2046 97.6008 37.7073 96.5586 36.4564C95.5164 35.2055 97.668 39.4889 97.3654 42.673C97.046 45.876 98.105 44.1323 98.5253 42.9193C98.9455 41.6874 99.3658 43.1468 99.3658 43.1468L99.3153 41.8959Z" fill="#AF5059"/>
<path opacity="0.5" fill-rule="evenodd" clip-rule="evenodd" d="M99.3657 31.4149C96.5585 31.6044 99.9036 35.7172 100.593 37.385C101.282 39.0529 103.4 38.3327 103.148 35.8499C102.879 33.386 101.635 31.2633 99.3657 31.4149Z" fill="#FFFFC9"/>
<path opacity="0.5" fill-rule="evenodd" clip-rule="evenodd" d="M106.258 46.0466C106.258 46.0466 108.964 46.1224 110.023 46.1035C111.065 46.0845 111.435 43.6586 110.762 40.4934C110.073 37.3283 107.77 36.1153 105.434 34.7507C103.097 33.3861 104.072 35.831 103.4 37.2525C102.728 38.655 102.156 39.2425 100.912 39.5079C99.6682 39.7543 99.2648 41.081 99.2144 41.5358C99.164 41.9907 99.2648 40.7967 100.576 40.3797C101.887 39.9627 102.122 39.9059 102.845 39.3183C103.736 38.5981 103.434 37.6126 104.745 38.2001C106.997 39.2236 107.434 44.4167 107.35 45.0421C107.283 45.6865 106.258 46.0466 106.258 46.0466Z" fill="#AF5059"/>
<path opacity="0.5" fill-rule="evenodd" clip-rule="evenodd" d="M100.996 47.0699C101.181 48.0365 100.576 50.1023 98.1891 50.8984C95.7853 51.6944 96.7266 51.2585 97.836 53.3812C98.9455 55.5229 99.3153 52.1682 100.038 50.4245C100.744 48.6809 101.601 48.4913 101.736 47.5437C101.854 46.615 100.996 47.0699 100.996 47.0699Z" fill="#AF5059"/>
<path opacity="0.5" fill-rule="evenodd" clip-rule="evenodd" d="M85.3298 39.4508C85.1281 40.8154 85.6492 39.8299 86.3215 37.9535C86.9939 36.0772 87.3974 35.9256 87.5486 36.6837C87.6999 37.4418 88.5068 34.7316 90.2886 30.9599C92.0704 27.1883 88.9606 29.9933 87.8176 33.1016C86.6745 36.2288 88.0865 34.2198 88.7925 33.1585C89.4985 32.0971 87.868 35.2812 87.6831 35.8877C87.4982 36.4942 87.3133 35.6982 86.7754 36.3615C86.2375 37.0249 86.0526 36.4373 86.2207 34.9969C86.3888 33.5565 85.1281 37.1196 84.9432 38.56C84.7415 40.0005 85.3298 39.4508 85.3298 39.4508Z" fill="#CC5915"/>
<path opacity="0.5" fill-rule="evenodd" clip-rule="evenodd" d="M94.5919 29.9365C93.701 32.0213 93.9195 30.922 96.1048 29.33C98.29 27.719 94.9785 29.0268 94.5919 29.9365Z" fill="#CC5915"/>
<path opacity="0.5" fill-rule="evenodd" clip-rule="evenodd" d="M104.493 21.7109C101.551 22.2985 104.846 23.2082 108.527 24.6297C112.225 26.0701 107.064 21.1992 104.493 21.7109Z" fill="#CC5915"/>
<path fill-rule="evenodd" clip-rule="evenodd" d="M108.863 51.9598C108.476 51.9029 108.829 52.1872 109.636 53.2296C110.443 54.291 110.897 53.2675 111.233 52.6611C111.569 52.0546 110.763 51.9598 110.073 51.3912C109.384 50.8416 108.863 51.9598 108.863 51.9598Z" fill="#923019"/>
<path fill-rule="evenodd" clip-rule="evenodd" d="M109.973 48.6999C110.191 48.4914 110.83 47.9797 111.452 48.3398C112.074 48.6999 109.973 48.6999 109.973 48.6999Z" fill="#955026"/>
<path fill-rule="evenodd" clip-rule="evenodd" d="M105.467 28.1738C105.047 29.3679 107.081 30.1639 107.266 27.5105C107.434 24.8571 106.089 25.9184 105.451 25.691C104.812 25.4636 105.753 27.3399 105.467 28.1738Z" fill="#923019"/>
<path fill-rule="evenodd" clip-rule="evenodd" d="M108.897 31.1117C108.409 31.6423 109.267 32.173 109.737 31.3391C110.191 30.5052 108.897 31.1117 108.897 31.1117Z" fill="#98611F"/>
<path fill-rule="evenodd" clip-rule="evenodd" d="M92.7932 53.552C91.1963 54.8218 92.4738 55.0113 93.9867 53.5141C95.4995 52.0168 94.0035 51.5998 93.7009 51.6188C93.3815 51.6377 93.9531 52.6233 92.7932 53.552Z" fill="#923019"/>
<path fill-rule="evenodd" clip-rule="evenodd" d="M89.9356 39.1288C88.927 39.0908 89.6498 39.8869 90.4063 39.7732C91.1963 39.6405 90.6416 39.1477 89.9356 39.1288Z" fill="#955026"/>
<path fill-rule="evenodd" clip-rule="evenodd" d="M94.222 25.8808C93.8186 25.8808 95.281 26.8095 96.2728 25.6155C97.2646 24.4214 96.6258 24.5162 95.9534 24.5541C95.281 24.592 94.222 25.8808 94.222 25.8808Z" fill="#923019"/>
<path fill-rule="evenodd" clip-rule="evenodd" d="M105.669 64.2224C104.039 64.393 107.283 62.1566 107.737 61.6638C108.174 61.171 110.527 60.4698 110.157 61.5501C109.771 62.6114 106.426 64.1466 105.669 64.2224Z" fill="#923019"/>
<path fill-rule="evenodd" clip-rule="evenodd" d="M119.907 45.933C120.109 44.1893 120.512 46.1604 120.512 46.1604C120.512 46.1604 120.966 45.9898 120.193 47.1649C119.419 48.34 119.907 45.933 119.907 45.933Z" fill="#923019"/>
<path fill-rule="evenodd" clip-rule="evenodd" d="M92.2048 34.4286C91.9022 35.1109 92.625 35.073 92.6755 34.3717C92.7427 33.6515 92.4401 33.8979 92.2048 34.4286Z" fill="#FFFFC9"/>
<path fill-rule="evenodd" clip-rule="evenodd" d="M91.8016 43.886C91.3982 44.5494 90.8098 43.5828 91.3309 42.3698C91.8352 41.1568 92.1378 43.3174 91.8016 43.886Z" fill="#FFFFC9"/>
<path fill-rule="evenodd" clip-rule="evenodd" d="M111.704 45.0801C111.704 45.8193 112.359 46.1036 112.259 45.0043C112.175 43.905 111.721 44.341 111.704 45.0801Z" fill="#FFFFC9"/>
<path opacity="0.5" fill-rule="evenodd" clip-rule="evenodd" d="M110.83 43.431C111.351 46.255 109.788 46.8804 107.434 46.2171C107.064 46.1223 106.678 46.0465 106.274 45.9707C106.476 45.9517 106.644 45.9138 106.762 45.857C107.653 45.4021 106.695 44.0564 105.249 40.0763C103.803 36.0962 103.904 39.7731 101.164 40.3038C99.4834 40.626 99.1472 41.6305 99.4161 42.9003L99.3657 42.8434C99.3825 42.9193 99.4161 42.9951 99.4498 43.0709C99.7355 43.7721 100.206 44.6629 100.458 45.5727C100.677 46.4066 100.71 47.2405 100.206 48.0176C99.08 49.7234 96.4913 47.5817 96.4913 46.4066C96.4913 45.2315 98.3403 43.412 96.9788 39.5646C95.6004 35.7171 95.1465 32.7226 98.2899 31.2632C101.45 29.8038 104.005 33.0827 107.182 34.7695C110.342 36.4374 110.309 40.626 110.83 43.431Z" fill="#AF5059"/>
<path fill-rule="evenodd" clip-rule="evenodd" d="M115.805 29.5764C114.998 29.7849 115.755 33.1206 116.175 33.9735C116.595 34.8264 117.049 32.8553 116.864 31.8318C116.679 30.7894 115.805 29.5764 115.805 29.5764Z" fill="#923019"/>
<path fill-rule="evenodd" clip-rule="evenodd" d="M92.5075 55.1628C91.8351 55.3334 92.0368 55.2766 92.6083 55.6746C93.1799 56.0536 92.995 55.0491 92.5075 55.1628Z" fill="#923019"/>
<path fill-rule="evenodd" clip-rule="evenodd" d="M85.8174 51.7703C86.1031 52.3199 86.8091 52.5474 86.4897 51.3723C86.1535 50.1972 85.4307 51.0311 85.8174 51.7703Z" fill="#923019"/>
<path opacity="0.5" fill-rule="evenodd" clip-rule="evenodd" d="M103.366 52.7369C103.703 55.7315 106.224 53.2297 106.56 51.505C106.896 49.7803 102.997 49.4202 103.366 52.7369Z" fill="#FFFFC9"/>
<path fill-rule="evenodd" clip-rule="evenodd" d="M108.04 33.1775C105.821 33.9546 110.729 34.6558 113.721 34.5421C116.713 34.4284 114.898 32.4762 114.494 30.3535C114.091 28.2308 113.57 30.8652 111.721 31.8887C109.872 32.9311 108.04 33.1775 108.04 33.1775Z" fill="#F4D8C6"/>
<path fill-rule="evenodd" clip-rule="evenodd" d="M86.5905 47.0321C88.0193 48.0935 89.3641 46.7857 89.0111 44.0754C88.6581 41.3841 88.137 41.8769 87.3133 41.839C86.5065 41.8011 86.0358 44.8715 86.1535 45.6864C86.2879 46.5014 86.5905 47.0321 86.5905 47.0321Z" fill="#98611F"/>
<path fill-rule="evenodd" clip-rule="evenodd" d="M88.7926 47.6577C88.49 48.321 89.5154 48.1694 89.6162 47.5439C89.7339 46.9185 89.1456 46.8806 88.7926 47.6577Z" fill="#98611F"/>
<path fill-rule="evenodd" clip-rule="evenodd" d="M118.108 39.9627C116.797 40.0764 117.671 41.6874 118.495 42.5782C119.318 43.469 119.403 39.7542 119.117 39.2046C118.814 38.6739 118.108 39.9627 118.108 39.9627Z" fill="#98611F"/>
<path fill-rule="evenodd" clip-rule="evenodd" d="M89.818 32.0025C89.5995 34.1632 91.936 32.7606 92.642 30.9601C93.3312 29.1406 90.1878 28.4015 89.818 32.0025Z" fill="#FFFFC9"/>
<path fill-rule="evenodd" clip-rule="evenodd" d="M88.1706 30.7705C87.4814 32.6469 89.4649 30.5999 89.8684 29.7281C90.2718 28.8563 88.7253 29.2164 88.1706 30.7705Z" fill="#FFFFC9"/>
<path fill-rule="evenodd" clip-rule="evenodd" d="M111.754 46.3689C109.603 47.0322 110.578 47.5061 112.225 47.544C113.872 47.5629 111.754 46.3689 111.754 46.3689Z" fill="#FFFFC9"/>
<defs>
<linearGradient id="paint0_linear_903_3597" x1="45.2249" y1="92.2536" x2="37.8681" y2="61.6007" gradientUnits="userSpaceOnUse">
<stop stop-color="#E8A03A"/>
<stop offset="0.2543" stop-color="#EAAB57"/>
<stop offset="0.5085" stop-color="#ECB36B"/>
<stop offset="0.7587" stop-color="#EDB778"/>
<stop offset="1" stop-color="#EDB97C"/>
</linearGradient>
<linearGradient id="paint1_linear_903_3597" x1="13.351" y1="116.739" x2="100.18" y2="116.739" gradientUnits="userSpaceOnUse">
<stop stop-color="#72012B"/>
<stop offset="1" stop-color="#AE2428"/>
</linearGradient>
<linearGradient id="paint2_linear_903_3597" x1="18.0466" y1="99.7553" x2="95.452" y2="99.7553" gradientUnits="userSpaceOnUse">
<stop offset="0.00558659" stop-color="#F1D1C7"/>
<stop offset="0.0321492" stop-color="#F0CBC2"/>
<stop offset="0.1869" stop-color="#EBAEA9"/>
<stop offset="0.3519" stop-color="#E79896"/>
<stop offset="0.53" stop-color="#E48788"/>
<stop offset="0.7304" stop-color="#E37E80"/>
<stop offset="1" stop-color="#E27B7D"/>
</linearGradient>
<linearGradient id="paint3_linear_903_3597" x1="21.2437" y1="124.993" x2="74.5892" y2="124.993" gradientUnits="userSpaceOnUse">
<stop stop-color="#F0C7FC"/>
<stop offset="0.327" stop-color="#987EA0"/>
<stop offset="0.6539" stop-color="#473B4A"/>
<stop offset="0.8832" stop-color="#141015"/>
<stop offset="0.9944"/>
</linearGradient>
<linearGradient id="paint4_linear_903_3597" x1="57.61" y1="119.176" x2="57.61" y2="89.3273" gradientUnits="userSpaceOnUse">
<stop stop-color="#E48920"/>
<stop offset="0.0343026" stop-color="#E48620"/>
<stop offset="0.4348" stop-color="#E0661B"/>
<stop offset="0.7709" stop-color="#DE5218"/>
<stop offset="1" stop-color="#DD4B17"/>
</linearGradient>
<linearGradient id="paint5_linear_903_3597" x1="21.2437" y1="120.26" x2="95.1877" y2="120.26" gradientUnits="userSpaceOnUse">
<stop stop-color="#EBB15B"/>
<stop offset="0.0544852" stop-color="#EAAA56"/>
<stop offset="0.1345" stop-color="#E79648"/>
<stop offset="0.2301" stop-color="#E27631"/>
<stop offset="0.3372" stop-color="#DC4911"/>
<stop offset="0.338" stop-color="#DC4911"/>
<stop offset="0.457" stop-color="#DE591B"/>
<stop offset="0.6887" stop-color="#E58236"/>
<stop offset="1" stop-color="#EFC25F"/>
</linearGradient>
<linearGradient id="paint6_linear_903_3597" x1="60.9904" y1="96.634" x2="60.9904" y2="86.2012" gradientUnits="userSpaceOnUse">
<stop stop-color="#E27B1D"/>
<stop offset="0.9888" stop-color="#E27E1E"/>
</linearGradient>
<linearGradient id="paint7_linear_903_3597" x1="37.8313" y1="102.328" x2="37.8313" y2="88.2425" gradientUnits="userSpaceOnUse">
<stop stop-color="#E27B1D"/>
<stop offset="0.9888" stop-color="#E27E1E"/>
</linearGradient>
<linearGradient id="paint8_linear_903_3597" x1="77.9755" y1="113.789" x2="77.9755" y2="93.2764" gradientUnits="userSpaceOnUse">
<stop offset="0.011173" stop-color="#E48720"/>
<stop offset="1" stop-color="#E79A24"/>
</linearGradient>
<linearGradient id="paint9_linear_903_3597" x1="58.0311" y1="109.073" x2="58.0311" y2="93.9681" gradientUnits="userSpaceOnUse">
<stop offset="0.011173" stop-color="#E48720"/>
<stop offset="1" stop-color="#E79A24"/>
</linearGradient>
<linearGradient id="paint10_linear_903_3597" x1="40.2333" y1="116.272" x2="40.2333" y2="99.5094" gradientUnits="userSpaceOnUse">
<stop stop-color="#E79A24"/>
<stop offset="0.9888" stop-color="#E9A627"/>
</linearGradient>
<linearGradient id="paint11_linear_903_3597" x1="55.0415" y1="118.511" x2="55.0415" y2="110.61" gradientUnits="userSpaceOnUse">
<stop offset="0.011173" stop-color="#E48720"/>
<stop offset="1" stop-color="#EBB12A"/>
</linearGradient>
<linearGradient id="paint12_linear_903_3597" x1="73.1598" y1="116.206" x2="73.1598" y2="107.7" gradientUnits="userSpaceOnUse">
<stop stop-color="#E79A24"/>
<stop offset="0.9888" stop-color="#E9A627"/>
</linearGradient>
<linearGradient id="paint13_linear_903_3597" x1="100.325" y1="47.3027" x2="102.027" y2="46.5001" gradientUnits="userSpaceOnUse">
<stop offset="0.011173" stop-color="#621104"/>
<stop offset="0.8478" stop-color="#BB6D1F"/>
<stop offset="1" stop-color="#CC7E24"/>
</linearGradient>
<linearGradient id="paint14_linear_903_3597" x1="111.111" y1="63.0639" x2="89.3325" y2="26.7289" gradientUnits="userSpaceOnUse">
<stop offset="0.011173" stop-color="#621104"/>
<stop offset="0.8478" stop-color="#BB6D1F"/>
<stop offset="1" stop-color="#CC7E24"/>
</linearGradient>
<linearGradient id="paint15_linear_903_3597" x1="110.981" y1="62.942" x2="89.8812" y2="27.7389" gradientUnits="userSpaceOnUse">
<stop stop-color="#E27E24"/>
<stop offset="0.0442061" stop-color="#E28027"/>
<stop offset="0.6549" stop-color="#E89E46"/>
<stop offset="0.9944" stop-color="#EAA952"/>
</linearGradient>
<linearGradient id="paint16_linear_903_3597" x1="101.187" y1="49.0954" x2="101.083" y2="48.9208" gradientUnits="userSpaceOnUse">
<stop stop-color="#E27E24"/>
<stop offset="0.2039" stop-color="#E69239"/>
<stop offset="0.4747" stop-color="#E9A64D"/>
<stop offset="0.7421" stop-color="#EBB25A"/>
<stop offset="1" stop-color="#ECB65E"/>
</linearGradient>
<linearGradient id="paint17_linear_903_3597" x1="103.299" y1="47.5915" x2="102.735" y2="46.6498" gradientUnits="userSpaceOnUse">
<stop stop-color="#E27E24"/>
<stop offset="0.2039" stop-color="#E69239"/>
<stop offset="0.4747" stop-color="#E9A64D"/>
<stop offset="0.7421" stop-color="#EBB25A"/>
<stop offset="1" stop-color="#ECB65E"/>
</linearGradient>
</defs>
</svg>
