<svg width="125" height="168" viewBox="0 0 125 168" fill="none" xmlns="http://www.w3.org/2000/svg">
<g clip-path="url(#clip0_925_3597)">
<rect width="125" height="168" fill="#FFCB74"/>
<path fill-rule="evenodd" clip-rule="evenodd" d="M59.5909 66.1031C56.6725 73.6194 64.792 84.2661 76.3355 91.0976C90.7811 99.6411 110.444 102.315 113.689 90.2824C113.852 89.6954 113.966 89.0759 114.047 88.4237C116.183 70.2933 87.08 47.0923 64.042 61.114C61.7594 62.4999 60.3083 64.1955 59.5909 66.1031Z" fill="url(#paint0_linear_925_3597)"/>
<path opacity="0.5" fill-rule="evenodd" clip-rule="evenodd" d="M59.5909 66.1032C59.0365 67.5054 58.8898 69.0217 59.0691 70.6195C59.8517 77.4836 66.9604 85.5543 76.3517 91.0977C90.7973 99.6412 110.46 102.315 113.705 90.2825L113.656 89.9075C112.107 95.3858 98.5093 95.8423 89.0691 93.7227C79.6452 91.5869 82.1234 89.1575 82.5147 88.8314C82.906 88.5054 80.656 88.9293 79.3843 88.9945C78.1126 89.076 67.1887 81.4619 64.8082 77.875C62.4278 74.288 64.1887 74.9076 64.8898 74.4184C65.5909 73.9293 63.9278 74.0108 63.0963 73.538C62.2648 73.0652 61.1072 70.4076 61.1398 67.538C61.1724 64.6685 60.455 64.7174 59.5909 66.1032Z" fill="#AF5059"/>
<path opacity="0.6" fill-rule="evenodd" clip-rule="evenodd" d="M80.3626 92.7119C80.9333 92.7934 81.5692 89.7934 82.1724 89.1739C82.7757 88.5543 80.7376 88.9782 79.4985 89.0108C78.2594 89.0434 78.9768 92.5163 80.3626 92.7119Z" fill="#AF5059"/>
<path opacity="0.6" fill-rule="evenodd" clip-rule="evenodd" d="M63.8789 74.7934C63.8789 74.7934 63.1778 75.2337 62.3463 76.8315C61.5148 78.4293 61.9876 75.6739 62.4767 74.5489C62.9659 73.4239 64.9061 74.0434 65.0202 74.3043C65.1017 74.5652 63.8789 74.7934 63.8789 74.7934Z" fill="#AF5059"/>
<path opacity="0.8" fill-rule="evenodd" clip-rule="evenodd" d="M101.297 82.8639C102.52 88.4563 94.482 86.8095 88.5962 81.5106C82.7103 76.1954 89.3299 74.2226 94.5309 76.5378C99.732 78.853 100.792 80.5976 101.297 82.8639Z" fill="#F4D8C6"/>
<path opacity="0.6" fill-rule="evenodd" clip-rule="evenodd" d="M91.5963 69.9999C95.1343 74.5488 91.0256 75.8205 87.1289 72.0053C83.2485 68.2064 89.542 67.3423 91.5963 69.9999Z" fill="#AF5059"/>
<path opacity="0.8" fill-rule="evenodd" clip-rule="evenodd" d="M86.9983 60.2174C90.1451 63.8206 83.3788 67.4891 76.694 62.337C70.0256 57.1685 84.9766 57.9022 86.9983 60.2174Z" fill="#F4D8C6"/>
<path opacity="0.6" fill-rule="evenodd" clip-rule="evenodd" d="M84.4385 81.2337C85.8244 80.6794 83.5581 78.6251 81.9114 78.9674C80.2646 79.3098 82.7103 81.9022 84.4385 81.2337Z" fill="#AF5059"/>
<path opacity="0.6" fill-rule="evenodd" clip-rule="evenodd" d="M69.8788 72.2337C72.4385 71.1413 69.1451 66.7554 66.2103 67.4239C63.2755 68.0761 66.7157 73.587 69.8788 72.2337Z" fill="#AF5059"/>
<path opacity="0.6" fill-rule="evenodd" clip-rule="evenodd" d="M103.107 93.3639C105.455 91.8639 96.6179 86.9563 91.2701 89.5976C85.9385 92.2389 101.118 94.6357 103.107 93.3639Z" fill="#AF5059"/>
<path opacity="0.6" fill-rule="evenodd" clip-rule="evenodd" d="M107.036 73.6521C108.748 80.3205 98.395 75.951 94.5308 68.5488C90.6667 61.163 104.199 62.5325 107.036 73.6521Z" fill="#AF5059"/>
<path opacity="0.8" fill-rule="evenodd" clip-rule="evenodd" d="M97.694 70.6358C93.6832 66.9999 94.5799 65.826 95.3299 64.5379C96.0799 63.2336 101.362 65.6466 102.471 67.6032C103.58 69.5597 100.661 69.1358 99.6831 69.0868C98.7049 69.0379 99.3734 68.2716 99.1451 67.2608C98.9168 66.2499 100.189 66.576 98.2157 65.7119C96.2429 64.8477 98.3136 68.4021 99.9114 69.8695C101.509 71.3042 98.6071 71.451 97.694 70.6358Z" fill="#985059"/>
<path opacity="0.8" fill-rule="evenodd" clip-rule="evenodd" d="M103.401 73.0815C105.781 76.3261 103.074 76.1794 99.944 73.9946C96.7973 71.8261 101.542 70.5544 103.401 73.0815Z" fill="#985059"/>
<path opacity="0.8" fill-rule="evenodd" clip-rule="evenodd" d="M89.9331 69.2824C92.8516 72.0378 88.9222 72.9182 87.1124 70.9617C85.2864 69.0052 88.8407 68.2552 89.9331 69.2824Z" fill="#985059"/>
<path opacity="0.8" fill-rule="evenodd" clip-rule="evenodd" d="M101.672 91.8476C102.406 93.5921 98.3135 93.9182 94.4983 92.4834C90.6831 91.0487 95.8352 88.5215 98.4276 89.6465C101.02 90.7715 101.672 91.8476 101.672 91.8476Z" fill="#985059"/>
<path opacity="0.8" fill-rule="evenodd" clip-rule="evenodd" d="M69.9929 70.0977C70.6288 74.3042 65.2973 71.4346 65.7538 68.7933C66.2103 66.1683 69.7157 68.2716 69.9929 70.0977Z" fill="#985059"/>
<path opacity="0.5" fill-rule="evenodd" clip-rule="evenodd" d="M79.0907 88.5054C86.6233 86.5489 81.8787 83.451 79.4331 80.2065C76.9875 76.9619 83.77 77.4347 85.1885 79.2934C86.607 81.1521 85.2537 81.788 83.7048 81.9184C82.1559 82.0326 84.6342 84.9836 88.7755 87.0217C92.9168 89.0597 95.3135 88.5054 95.5744 87.7228C95.8352 86.9402 90.0635 83.9402 86.982 80.4673C83.9005 76.9945 86.4276 75.0543 90.6668 75.2826C94.9059 75.5108 86.4439 72.7391 84.7157 69.8206C82.9711 66.8859 87.895 66.2989 91.7591 68.6141C95.6233 70.9293 95.3135 73.3098 94.1722 74.1413C93.0309 74.9891 98.558 78.6087 101.379 79.0326C104.199 79.4565 93.0146 69.5435 92.2157 65.8587C91.4168 62.1739 93.6831 63.3804 95.4276 63.2337C97.1722 63.0707 93.1939 60.8859 89.9005 59.875C86.607 58.8641 90.6505 62.9239 85.2374 65.4185C79.8244 67.9293 75.6831 63.038 73.7592 60.9022C71.819 58.7663 66.0146 60.1522 63.569 63.3967C61.1234 66.6413 65.281 63.0054 70.7266 67.9456C76.1559 72.8858 69.4386 74.6793 67.2049 73.8641C64.9712 73.0489 64.9875 76 69.4712 81.0217C73.9222 85.9945 79.0907 88.5054 79.0907 88.5054Z" fill="#FFFFC9"/>
<path opacity="0.5" fill-rule="evenodd" clip-rule="evenodd" d="M109.824 76.0324C106.971 73.7498 108.487 77.3531 106.074 77.9726C103.661 78.5922 104.982 85.2443 103.009 87.0378C101.036 88.8313 103.449 92.2226 109.237 91.603C115.042 90.9835 113.639 79.0813 109.824 76.0324Z" fill="#FFFFC9"/>
<path opacity="0.8" fill-rule="evenodd" clip-rule="evenodd" d="M72.0145 74.0108C73.2373 75.0706 72.9438 75.0706 71.2156 74.7934C69.4873 74.4999 71.3297 73.4238 72.0145 74.0108Z" fill="#985059"/>
<path opacity="0.8" fill-rule="evenodd" clip-rule="evenodd" d="M74.3623 58.1143C75.6177 58.8806 73.7264 59.8099 73.0254 59.4349C72.3406 59.0599 73.4819 57.5762 74.3623 58.1143Z" fill="#985059"/>
<path opacity="0.8" fill-rule="evenodd" clip-rule="evenodd" d="M89.8516 61.7827C90.4548 62.3533 89.7374 62.549 89.3624 61.962C88.9874 61.3914 89.6722 61.6196 89.8516 61.7827Z" fill="#985059"/>
<path opacity="0.8" fill-rule="evenodd" clip-rule="evenodd" d="M84.9765 71.0759C84.7156 72.6085 83.7536 71.4835 83.7047 70.8965C83.6395 70.3096 85.0906 70.4726 84.9765 71.0759Z" fill="#985059"/>
<path opacity="0.6" fill-rule="evenodd" clip-rule="evenodd" d="M68.8842 63.625C68.6234 65.1576 67.6614 64.0326 67.6125 63.4456C67.5473 62.8424 68.9821 63.0217 68.8842 63.625Z" fill="#AF5059"/>
<path opacity="0.8" fill-rule="evenodd" clip-rule="evenodd" d="M108.65 85.2118C108.618 86.4183 107.737 86.239 107.835 85.4075C107.917 84.576 108.65 84.8857 108.65 85.2118Z" fill="#985059"/>
<path opacity="0.3" fill-rule="evenodd" clip-rule="evenodd" d="M66.2266 74.3206C67.0907 74.7119 67.2537 78.7553 72.1776 82.5705C77.1015 86.3857 80.9983 86.451 82.9711 87.3477C84.9439 88.2444 83.6885 88.277 85.27 89.8749C86.8515 91.4727 93.0145 92.5977 93.5363 93.0053C94.058 93.4129 90.4874 92.9401 86.7211 91.6031C82.9548 90.2662 83.5254 88.5868 82.8733 88.0651C82.2211 87.5433 76.4657 86.2879 71.8026 83.3531C67.1396 80.4184 63.732 76.0814 64.1233 75.4945C64.5146 74.9075 66.2266 74.3206 66.2266 74.3206Z" fill="#AF5059"/>
<path opacity="0.6" fill-rule="evenodd" clip-rule="evenodd" d="M70.3352 59.2881C73.9059 61.6686 70.4983 62.5816 66.8787 61.9457C63.2592 61.2936 68.4602 58.0327 70.3352 59.2881Z" fill="#AF5059"/>
<path opacity="0.8" fill-rule="evenodd" clip-rule="evenodd" d="M71.3299 60.8042C71.5908 61.5868 70.4821 62.3368 68.7865 61.44C67.0908 60.527 70.4006 57.9183 71.3299 60.8042Z" fill="#985059"/>
<path opacity="0.6" fill-rule="evenodd" clip-rule="evenodd" d="M111.015 94.8804C112.14 92.5978 110.428 89.288 110.884 86.4021C111.341 83.5163 113.525 84.5108 113.933 87.5923C114.341 90.6901 111.015 94.8804 111.015 94.8804Z" fill="#AF5059"/>
<path opacity="0.8" fill-rule="evenodd" clip-rule="evenodd" d="M113.705 86.6465C114.227 89.027 111.487 89.4672 111.21 87.0541C110.933 84.6411 113.232 84.4944 113.705 86.6465Z" fill="#985059"/>
<path opacity="0.6" fill-rule="evenodd" clip-rule="evenodd" d="M86.7702 95.5163C86.9169 94.6033 88.7104 93.8859 89.8843 94C91.0582 94.1141 89.5093 93.6739 88.6452 94.9619C87.7811 96.25 86.7702 95.5163 86.7702 95.5163Z" fill="#AF5059"/>
<path opacity="0.6" fill-rule="evenodd" clip-rule="evenodd" d="M103.368 97.7823C105.813 96.2334 105.797 94.4399 105.797 94.4399C105.797 94.4399 106.726 94.5378 106.172 96.3802C105.618 98.2225 103.368 97.7823 103.368 97.7823Z" fill="#AF5059"/>
<path opacity="0.8" d="M43.3518 117.022C16.841 122.679 52.9551 135.315 82.4496 130.505C111.944 125.695 70.5963 111.201 43.3518 117.022Z" fill="#A1498E"/>
<path fill-rule="evenodd" clip-rule="evenodd" d="M103.759 95.2556C103.759 95.2556 101.884 106.978 93.5038 116.728C87.5528 123.641 78.3245 129.544 64.1235 129.544C60.1289 129.544 56.542 129.054 53.3463 128.19C29.2812 121.669 26.9333 93.8208 26.9333 93.8208L103.759 95.2556Z" fill="url(#paint1_linear_925_3597)"/>
<path d="M28.3191 89.4022C16.3681 109.375 85.3842 121.946 102.422 97.8478C107.852 90.1848 96.0635 80.8261 80.232 77.6631C61.3843 73.8968 36.3735 75.9185 28.3191 89.4022Z" fill="#C92A0F"/>
<path d="M31.7432 89.5651C22.4986 108.168 84.1941 118.424 99.2104 97.1955C103.857 90.6412 95.4441 83.0434 80.0528 79.6032C63.3572 75.8695 37.6127 77.7445 31.7432 89.5651Z" fill="url(#paint2_linear_925_3597)"/>
<path opacity="0.3" d="M79.857 80.2393C65.5092 77.8262 62.1016 102.967 63.0473 106.701C63.9929 110.435 87.7157 107.875 95.6396 100.995C103.563 94.1305 99.8135 83.598 79.857 80.2393Z" fill="#C81C08"/>
<path opacity="0.3" d="M31.3519 91.5708C34.5476 83.9241 44.803 80.2883 54.1127 80.647C63.4225 81.0057 56.6073 100.522 46.9878 102.185C37.3519 103.864 29.3139 98.2719 31.3519 91.5708Z" fill="white"/>
<path opacity="0.5" d="M97.4659 88.2611C94.3191 85.1632 90.9931 99.7067 87.2757 103.864C83.5583 108.006 66.6833 109.033 66.6833 109.033C66.6833 109.033 86.9333 108.527 94.9876 101.533C103.384 94.261 100.384 91.1306 97.4659 88.2611Z" fill="#BA3958"/>
<path d="M34.3516 87.837C32.8516 90.4457 36.2266 90.3967 38.232 87.2663C40.2211 84.1359 36.2918 84.4783 34.3516 87.837Z" fill="white"/>
<path d="M38.069 89.1739C37.2538 88.913 38.9494 87.9673 39.2429 88.2934C39.4223 88.538 38.7049 89.3858 38.069 89.1739Z" fill="white"/>
<path opacity="0.5" fill-rule="evenodd" clip-rule="evenodd" d="M70.6778 110.777C66.3734 110.532 84.3571 107.484 88.156 106.016C91.9712 104.565 86.7538 111.413 70.6778 110.777Z" fill="white"/>
<path opacity="0.5" fill-rule="evenodd" clip-rule="evenodd" d="M29.2976 99.7065C28.8573 96.8206 35.5747 102.413 44.3627 105.511C53.1671 108.609 45.0312 108.152 45.0312 108.152C45.0312 108.152 34.1399 105.413 29.2976 99.7065Z" fill="white"/>
<path opacity="0.3" fill-rule="evenodd" clip-rule="evenodd" d="M31.4984 108.217C29.8842 104.581 55.6614 111.984 68.3787 115.391C81.1124 118.799 75.3244 127.75 65.0037 128.141C54.6831 128.532 39.2429 125.679 31.4984 108.217Z" fill="#E9B6CE"/>
<path opacity="0.3" fill-rule="evenodd" clip-rule="evenodd" d="M99.4224 104.174C97.6615 102.756 85.0909 110.712 78.4224 111.69C71.7377 112.685 77.3137 116.794 75.9931 122.076C74.6724 127.342 96.3735 120.772 99.4224 104.174Z" fill="#EFC5B1"/>
<path d="M84.4549 108.527C83.5255 108.201 87.5038 106.179 88.5147 106.13C89.5255 106.065 89.5255 107.158 88.8734 107.5C86.4603 108.772 84.4549 108.527 84.4549 108.527Z" fill="white"/>
<path opacity="0.8" fill-rule="evenodd" clip-rule="evenodd" d="M93.5038 116.728C87.5527 123.641 78.3245 129.543 64.1235 129.543C60.1289 129.543 56.542 129.054 53.3463 128.19C55.8572 128.549 61.0746 130.179 70.9713 128.598C84.4223 126.446 93.2429 116.989 93.5038 116.728Z" fill="#E48A7C"/>
<path opacity="0.8" fill-rule="evenodd" clip-rule="evenodd" d="M32.803 111.853C32.803 111.853 42.2432 124.033 52.5312 126.788C62.8192 129.543 70.9714 127.505 70.9714 127.505C70.9714 127.505 60.2757 129.625 52.5312 127.962C44.7866 126.315 36.6182 118.457 32.803 111.853Z" fill="#F2CFA6"/>
<path d="M88.7267 114.935C87.8788 113.598 84.4875 115.016 84.781 118.033C85.0745 121.049 89.656 116.402 88.7267 114.935Z" fill="white"/>
<path d="M80.1995 78.038C76.694 78.1684 83.3788 80.4184 87.5527 81.4293C91.7266 82.4401 84.7647 77.8749 80.1995 78.038Z" fill="white"/>
<path opacity="0.3" d="M34.0909 110.794C34.0909 105.935 56.2159 114.136 65.4767 119.027C74.7376 123.919 60.8952 127.734 49.3355 123.837C37.7757 119.973 34.0909 110.794 34.0909 110.794Z" fill="#E2855A"/>
<path fill-rule="evenodd" clip-rule="evenodd" d="M34.2865 100.016C30.455 93.7228 41.5745 84.4131 65.656 84.4131C90.194 84.4131 99.1777 95.6142 95.6559 101.011C95.6559 101.011 89.0201 108.984 65.656 108.984C42.2919 108.984 34.2865 100.016 34.2865 100.016Z" fill="url(#paint3_linear_925_3597)"/>
<path fill-rule="evenodd" clip-rule="evenodd" d="M46.1073 93.2498C45.178 91.2607 46.3519 90.2009 49.7432 89.0759C53.1508 87.9509 72.3735 87.5596 73.955 87.7553C75.5366 87.9509 75.0148 92.1901 74.754 92.3205C74.4931 92.4509 69.2594 96.0216 58.2866 95.3205C47.3301 94.6194 46.1073 93.2498 46.1073 93.2498Z" fill="#98611F"/>
<path opacity="0.5" d="M45.9933 91.2772C46.2053 93.8207 54.9281 90.4946 65.1509 90.4946C74.1834 90.4946 74.7541 91.5381 74.9171 91.8968C75.0802 92.2555 74.7867 93.6087 69.8791 94.6196C64.9715 95.6468 50.9824 95.6305 47.1183 95.0924C43.2542 94.5707 45.9933 91.2772 45.9933 91.2772Z" fill="#A06D81"/>
<path fill-rule="evenodd" clip-rule="evenodd" d="M45.7974 97.0328C46.792 94.1959 53.0528 91.6524 60.7159 91.5546C68.3789 91.4568 71.5093 96.6904 71.5093 96.6904C71.5093 96.6904 70.7756 99.7393 60.7159 100.75C50.6561 101.761 45.7974 97.0328 45.7974 97.0328Z" fill="url(#paint4_linear_925_3597)"/>
<path opacity="0.5" d="M46.205 97.3914C46.205 97.3914 54.4061 98.5001 61.6941 96.7066C68.9821 94.8968 71.2321 97.2283 71.2321 97.2283C71.2321 97.2283 67.2213 100.995 60.7322 101.516C54.2104 102.005 46.205 97.3914 46.205 97.3914Z" fill="#BA3958"/>
<path fill-rule="evenodd" clip-rule="evenodd" d="M84.7646 89.712C82.5962 89.712 71.1179 96.9511 65.6397 99.5761C60.1614 102.201 67.4006 104.174 74.2321 104.745C81.0799 105.315 90.8298 96.8207 92.2646 94.8478C93.7157 92.8587 89.2809 89.6957 84.7646 89.712Z" fill="url(#paint5_linear_925_3597)"/>
<path fill-rule="evenodd" clip-rule="evenodd" d="M34.9552 100.603C34.3193 99.2502 39.1943 97.9296 43.7106 98.4513C48.2106 98.973 57.2921 102.968 58.7106 104.076C60.6345 105.576 56.9334 108.266 55.2867 108.315C52.0584 107.973 44.0204 107.305 34.9552 100.603Z" fill="url(#paint6_linear_925_3597)"/>
<path opacity="0.5" d="M65.3464 99.7392C64.2703 100.457 71.3138 101.386 76.6616 102.038C82.0094 102.69 89.917 95.9077 91.0746 94.799C92.2322 93.6903 92.0854 92.761 92.0854 92.761C92.0854 92.761 92.5257 93.9186 92.9333 94.7175C93.3409 95.5164 85.5637 102.674 79.6942 104.761C73.8246 106.848 64.9714 104.272 63.7322 103.31C61.8573 101.875 65.3464 99.7392 65.3464 99.7392Z" fill="#BA3958"/>
<path opacity="0.5" d="M77.5092 104.467C76.0582 104.761 79.1071 102.511 83.3788 100.277C87.6505 98.0271 91.3027 94.6684 91.8407 94.2608C92.3788 93.8531 92.2483 95.614 89.1016 97.9618C85.9549 100.277 80.8516 103.782 77.5092 104.467Z" fill="#BA3958"/>
<path opacity="0.3" d="M47.3625 96.6903C46.4658 97.8153 56.7701 97.8968 60.8951 96.8696C65.0364 95.8424 64.0418 91.799 60.7157 91.5544C57.3733 91.3098 50.7864 92.3696 47.3625 96.6903Z" fill="#EFC5B1"/>
<path opacity="0.5" d="M50.1669 107.598C50.1669 107.598 55.1886 106.098 57.2103 105.103C59.2158 104.109 59.7701 104.5 58.9386 106.032C58.0908 107.565 55.8897 108.331 55.3027 108.315C54.6832 108.299 51.1125 107.826 50.1669 107.598Z" fill="#BA3958"/>
<path opacity="0.5" fill-rule="evenodd" clip-rule="evenodd" d="M68.4604 100.88C65.6397 99.5761 78.5854 92.1576 82.6614 91.1957C86.7375 90.2337 88.8571 93.4293 89.9658 94.7989C91.0745 96.1685 83.6234 100.652 79.0093 101.533C74.4115 102.413 68.4604 100.88 68.4604 100.88Z" fill="#EFC5B1"/>
<path opacity="0.3" fill-rule="evenodd" clip-rule="evenodd" d="M47.2973 90.2663C46.8081 90.3967 52.3842 89.0108 61.6777 88.4565C70.9711 87.8858 74.1994 88.4565 74.1994 88.4565C74.1994 88.4565 69.732 87.5923 61.3842 88.2445C53.0364 88.8967 49.0092 89.3206 48.6342 89.4836C48.2592 89.6304 47.2973 90.2663 47.2973 90.2663Z" fill="#EFC5B1"/>
<path opacity="0.3" fill-rule="evenodd" clip-rule="evenodd" d="M46.3681 91.6848C46.3681 91.6848 55.8083 89.4185 63.9115 89.2065C71.9984 89.0109 74.8517 90.1359 74.9495 90.4946C75.0473 90.8532 70.7104 88.8804 62.0202 89.7119C53.33 90.5435 47.9333 92.2391 47.0855 92.1739C46.2376 92.1087 46.3681 91.6848 46.3681 91.6848Z" fill="#EFC5B1"/>
<path opacity="0.3" fill-rule="evenodd" clip-rule="evenodd" d="M57.928 88.9129C54.9443 89.6139 60.5693 88.9944 65.9171 88.5379C71.2649 88.0813 74.0529 88.9129 74.0529 88.9129C74.0529 88.9129 72.0312 87.9183 65.9986 88.2444C59.966 88.5705 57.928 88.9129 57.928 88.9129Z" fill="#A06D81"/>
<path opacity="0.5" fill-rule="evenodd" clip-rule="evenodd" d="M40.5637 98.4349C35.3627 98.5001 44.1018 105.511 47.9659 106.636C51.83 107.761 57.4061 104.859 58.2376 104.663C59.0691 104.468 49.417 98.3208 40.5637 98.4349Z" fill="#EFC5B1"/>
<path opacity="0.5" fill-rule="evenodd" clip-rule="evenodd" d="M62.069 100.636C58.4657 100.897 61.7266 97.2446 64.2701 96.3968C66.8135 95.549 70.5309 96.7392 70.5309 96.7392C70.5309 96.7392 65.7863 99.3968 65.1505 99.8044C64.5146 100.212 64.2537 100.766 63.7157 100.995C63.1777 101.223 61.0092 101.174 59.9983 101.092C58.9712 101.027 61.0092 101.076 62.069 100.636Z" fill="#BA3958"/>
<path fill-rule="evenodd" clip-rule="evenodd" d="M57.7484 101.777C56.4604 102.103 61.6777 105.201 63.1777 105.821C64.6777 106.44 66.7321 105.886 67.1234 105.576C67.4984 105.266 67.4495 103.913 67.1234 103.326C66.7973 102.739 62.4277 100.408 60.5201 100.163C58.6125 99.9349 57.7484 101.777 57.7484 101.777Z" fill="#98611F"/>
<path opacity="0.5" d="M67.1071 103.326C66.031 103.114 64.5963 103.897 62.4604 103.815C60.3245 103.733 58.4821 101.989 58.2865 101.793C58.1071 101.598 57.6832 101.663 57.5365 102.005C57.3897 102.348 59.9495 105.136 62.1506 106.424C64.3517 107.712 65.8028 106.733 67.368 106.179C68.9332 105.657 67.1071 103.326 67.1071 103.326Z" fill="#A06D81"/>
<path opacity="0.3" d="M63.178 105.821C63.8465 106.016 62.9986 104.011 62.0856 103.799C61.1562 103.587 60.7323 103.408 59.9334 103.033C59.1182 102.658 58.5639 101.924 58.091 101.81C57.6182 101.712 57.5856 102.201 57.6834 102.331C57.7486 102.462 60.2758 104.679 63.178 105.821Z" fill="#A06D81"/>
<path opacity="0.3" fill-rule="evenodd" clip-rule="evenodd" d="M76.0094 93.4618C73.205 93.8531 76.3517 91.3748 78.3898 88.7172C80.4278 86.0596 68.9659 87.4129 61.4007 87.1683C53.8355 86.9238 65.2648 83.8912 72.5691 84.739C79.8735 85.5868 82.0419 86.4836 82.4496 86.9564C82.8572 87.4129 77.6072 84.6901 71.2159 85.0814C64.8246 85.489 72.3083 86.0433 78.8952 87.2825C85.4821 88.5053 83.0202 89.3694 82.3843 89.9564C81.7485 90.5433 84.5202 89.2553 86.4441 89.2553C88.368 89.2553 84.5691 87.902 84.6017 87.6249C84.6343 87.3477 89.8517 89.0922 91.8245 91.0488C93.7974 93.0053 88.3191 89.0922 84.6017 89.7607C80.8843 90.4292 78.7485 93.0705 76.0094 93.4618Z" fill="#BA3958"/>
<path opacity="0.3" fill-rule="evenodd" clip-rule="evenodd" d="M57.5364 86.3207C57.781 84.7717 46.7593 86.288 39.5854 90.6902C32.4278 95.0924 34.5148 97.2282 40.1072 97.4239C45.6995 97.6195 43.1234 95.5652 44.7865 91.5706C46.4495 87.5761 50.656 86.9076 53.0691 87.0707C55.4821 87.2337 53.7375 88.2446 57.5364 87.9837C61.319 87.7228 57.5364 86.3207 57.5364 86.3207Z" fill="#BA3958"/>
<path fill-rule="evenodd" clip-rule="evenodd" d="M83.7377 103.424C79.2866 105.348 85.9387 105.446 88.792 104.386C91.629 103.342 86.7703 102.12 83.7377 103.424Z" fill="#E79B33"/>
<path fill-rule="evenodd" clip-rule="evenodd" d="M88.9714 100.31C88.0095 100.554 88.8899 101.158 89.9823 100.75C91.091 100.343 89.5421 100.179 88.9714 100.31Z" fill="#E79B33"/>
<path fill-rule="evenodd" clip-rule="evenodd" d="M68.8517 106.685C68.0528 106.881 68.7702 107.402 69.6995 107.06C70.6289 106.701 69.3408 106.554 68.8517 106.685Z" fill="#E79B33"/>
<path fill-rule="evenodd" clip-rule="evenodd" d="M64.9877 85.0653C61.5149 85.7175 62.754 86.8425 66.5366 86.5327C70.3192 86.2392 67.3845 84.6251 64.9877 85.0653Z" fill="#E79B33"/>
<path fill-rule="evenodd" clip-rule="evenodd" d="M92.3626 97.2446C91.6289 97.2446 92.0855 97.8642 92.5583 97.7011C93.0148 97.5381 92.8518 97.2446 92.3626 97.2446Z" fill="#E79B33"/>
<path fill-rule="evenodd" clip-rule="evenodd" d="M67.466 107.239C66.8628 107.239 67.2378 107.761 67.6291 107.631C68.0041 107.484 67.8736 107.239 67.466 107.239Z" fill="#E79B33"/>
<path fill-rule="evenodd" clip-rule="evenodd" d="M39.7812 94.2936C38.4606 94.6686 39.9769 95.2392 41.0856 94.7012C42.1779 94.1631 40.4171 94.1142 39.7812 94.2936Z" fill="#E79B33"/>
<path fill-rule="evenodd" clip-rule="evenodd" d="M75.5691 87.5763C74.2485 87.9513 75.7648 88.5219 76.8735 87.9839C77.9658 87.4458 76.205 87.3969 75.5691 87.5763Z" fill="#E79B33"/>
<path fill-rule="evenodd" clip-rule="evenodd" d="M82.3845 105.413C80.5421 106.098 82.091 106.766 84.6997 106.343C87.3084 105.902 84.3247 104.696 82.3845 105.413Z" fill="#E79B33"/>
<path d="M70.7106 106.13C67.8084 104.957 72.9932 105.886 76.4334 105.478C79.8899 105.071 82.9551 103.277 83.9171 102.674C84.879 102.071 81.9116 104.304 80.7051 104.875C79.4986 105.446 80.0529 105.022 78.0475 105.381C76.0584 105.739 77.2323 106.228 75.8301 106.473C74.4279 106.717 71.3301 106.375 70.7106 106.13Z" fill="white"/>
<path d="M85.2702 101.794C84.9115 102.462 86.33 101.288 86.542 100.897C86.7539 100.506 85.4659 101.435 85.2702 101.794Z" fill="white"/>
<path d="M62.0038 106.359C60.1615 105.739 59.6234 106.293 61.4658 106.913C63.3245 107.516 62.7049 106.587 62.0038 106.359Z" fill="white"/>
<path d="M73.7268 106.897C66.9116 107.272 64.3845 108.967 64.3845 108.967C64.3845 108.967 71.8681 109.489 81.2105 107.516C81.2105 107.533 78.1127 106.652 73.7268 106.897Z" fill="white"/>
<path d="M57.4549 97.4403C55.9876 97.5055 61.5962 94.9457 64.1397 96.2175C64.1397 96.2175 59.6397 97.3425 57.4549 97.4403Z" fill="white"/>
<path d="M76.6616 102.038C75.4877 101.011 80.8355 101.402 80.8355 101.402C80.8355 101.402 78.2105 102.283 76.6616 102.038Z" fill="white"/>
<path d="M45.1289 92.9075C45.1289 92.9075 44.6398 94.6683 47.2811 95.1412C47.2811 95.1249 43.7919 95.6303 45.1289 92.9075Z" fill="white"/>
<path d="M48.4715 98.9077C47.1019 98.8099 49.841 99.6251 51.3899 99.9675C52.9225 100.294 49.4334 98.973 48.4715 98.9077Z" fill="white"/>
<path opacity="0.3" d="M54.1941 92.7771C41.8029 95.6141 64.6615 94.2282 63.618 94.9293C62.5746 95.6304 64.4985 95.5652 65.3463 93.4619C66.1941 91.3587 57.8789 91.9293 54.1941 92.7771Z" fill="#BA3958"/>
<path opacity="0.8" d="M52.1072 107.076C55.0909 105.511 55.8083 106.783 56.7376 107.076C57.667 107.37 56.7702 108.136 55.8898 108.217C55.0094 108.299 51.0637 107.565 51.0637 107.565L52.1072 107.076Z" fill="#AA5059"/>
<path opacity="0.8" d="M64.5963 92.0109C62.6724 91.2609 67.8898 91.4565 70.2702 92.0109C72.6506 92.5652 69.4387 94.1468 69.6506 94.3913C69.8626 94.6359 70.6778 94.8152 71.2158 95.4674C71.7539 96.1033 71.3952 96.5272 71.3952 96.5272C71.3952 96.5272 68.9495 93.2826 64.5963 92.0109Z" fill="#AA5059"/>
<path opacity="0.8" d="M58.0095 101.337C58.4171 100.881 56.3464 101.125 53.9497 100.538C51.553 99.9512 56.0693 100.326 58.2866 100.016C60.4877 99.6903 58.8247 100.489 58.5475 100.766C58.254 101.044 58.0095 101.337 58.0095 101.337Z" fill="#AA5059"/>
<path opacity="0.8" d="M62.1996 100.636C60.5529 99.5107 61.1072 98.5161 62.7703 97.4401C64.4333 96.364 66.2268 98.5325 66.5202 98.777C66.7974 99.0216 64.9876 99.9346 64.5311 100.163C64.0746 100.391 63.7322 101.304 63.7322 101.304L62.1996 100.636Z" fill="#AA5059"/>
<path opacity="0.8" d="M48.6182 94.1958C47.6888 94.6197 48.4388 92.7447 50.9008 92.174C53.3627 91.6034 54.2269 92.2555 54.2269 92.2555C54.2269 92.2555 51.9117 92.6795 48.6182 94.1958Z" fill="#AA5059"/>
<path opacity="0.5" d="M52.1399 101.044C48.4877 100.506 49.5149 107.419 54.7486 105.576C57.6181 104.565 59.591 105.152 58.7268 104.076C57.6671 102.804 53.0203 101.174 52.1399 101.044Z" fill="white"/>
<path d="M37.5963 91.1143C37.5963 91.1143 43.7104 85.7665 59.2158 84.3154C74.7212 82.8643 82.4005 86.598 82.4005 86.598C82.4005 86.598 74.5256 83.2393 59.2484 84.6578C43.9713 86.0763 37.5963 91.1143 37.5963 91.1143Z" fill="white"/>
<path d="M89.1506 89.239C89.1506 89.239 91.9386 90.7553 94.3517 93.1194C96.7647 95.4836 96.3897 98.3042 96.3897 98.3042C96.3897 98.3042 96.4549 93.6738 89.1506 89.239Z" fill="white"/>
<path d="M46.629 92.0762C46.1072 91.6523 47.6398 91.2121 50.1833 91.5708C52.7268 91.9458 47.5257 92.5491 46.629 92.0762Z" fill="white"/>
<path d="M93.993 97.5867C93.3571 98.9726 92.4441 99.1193 91.4658 100.587C90.5039 102.038 93.0799 102.136 94.9549 99.9345C96.8299 97.7335 94.743 97.6519 94.2539 97.1302C93.781 96.6248 93.993 97.5867 93.993 97.5867Z" fill="url(#paint7_linear_925_3597)"/>
<path d="M78.4059 89.8586C77.3298 90.3966 77.4929 90.9836 78.8624 90.1032C80.232 89.2064 78.895 89.614 78.4059 89.8586Z" fill="url(#paint8_linear_925_3597)"/>
<path d="M48.8953 88.1793C47.7214 88.9293 49.2214 88.8478 51.504 88.4402C53.8029 88.0489 50.0529 87.4457 48.8953 88.1793Z" fill="url(#paint9_linear_925_3597)"/>
<path d="M47.118 87.4784C46.2375 88.6849 47.8843 87.8045 49.4984 87.1523C51.0962 86.5164 48.2919 85.8643 47.118 87.4784Z" fill="url(#paint10_linear_925_3597)"/>
<path d="M46.531 103.131C46.0745 103.163 46.1723 104.109 47.2973 103.962C48.4386 103.815 46.9876 103.082 46.531 103.131Z" fill="#8B422A"/>
<path d="M50.8844 97.5544C50.7703 98.4511 51.5529 98.4837 51.7648 97.7337C51.9768 96.9837 50.9333 97.1141 50.8844 97.5544Z" fill="url(#paint11_linear_925_3597)"/>
<path d="M36.6182 97.489C35.4117 97.3749 37.3356 98.6793 37.5964 98.2553C37.8573 97.8477 37.3193 97.5543 36.6182 97.489Z" fill="url(#paint12_linear_925_3597)"/>
<path d="M86.2647 97.44C85.1887 97.8476 86.8354 98.0106 87.0637 97.4889C87.3082 96.9672 86.5093 97.3422 86.2647 97.44Z" fill="url(#paint13_linear_925_3597)"/>
<path d="M94.2864 96.1032C94.0418 96.3152 94.3679 96.7391 94.5473 96.413C94.7429 96.0869 94.531 95.8913 94.2864 96.1032Z" fill="url(#paint14_linear_925_3597)"/>
<path d="M69.8952 99.5599C69.6506 99.7718 69.9767 100.196 70.156 99.8697C70.3517 99.5273 70.1397 99.3316 69.8952 99.5599Z" fill="#8B422A"/>
<path d="M74.0527 94.2608C73.482 95.2717 74.4929 95.1086 75.3896 94.2608C76.2864 93.413 74.3298 93.7717 74.0527 94.2608Z" fill="url(#paint15_linear_925_3597)"/>
<path d="M71.591 85.4405C70.6779 85.8155 71.4605 85.9785 73.629 86.0111C75.7975 86.0437 77.0203 85.8807 77.7866 86.1415C78.5529 86.4024 76.4985 85.3589 73.7594 85.0655C71.0366 84.772 71.591 85.4405 71.591 85.4405Z" fill="url(#paint16_linear_925_3597)"/>
<path d="M27.4061 96.9347L28.7594 102.348C28.7594 102.348 36.4061 116.272 67.5147 115.652C97.5799 115.065 102.765 99.4456 102.765 99.4456L103.792 95.2554C103.792 95.2554 96.9603 111.119 65.6071 111.038C34.2213 110.956 27.4061 96.9347 27.4061 96.9347Z" fill="url(#paint17_linear_925_3597)"/>
<path d="M79.6777 113.924C76.6288 113.679 89.7374 107.158 97.7591 102.658C100.172 101.304 96.8461 106.359 95.5744 107.94C93.3896 110.679 86.2483 114.446 79.6777 113.924Z" fill="#FFFF5B"/>
<path opacity="0.5" d="M45.7975 108.984C42.0149 108.266 46.841 112.098 47.7214 113.174C48.6018 114.25 56.6561 115.359 59.7214 115.505C62.7703 115.652 63.9116 113.125 64.7105 112.244C65.5257 111.348 49.1562 109.619 45.7975 108.984Z" fill="#A82B58"/>
<path opacity="0.5" d="M31.4332 102.266C30.1289 101.581 32.4115 105.348 34.6126 107.696C36.8136 110.043 37.9713 109.13 39.2756 108.674C40.5636 108.234 34.1071 103.668 31.4332 102.266Z" fill="#FFFF5B"/>
<path opacity="0.5" d="M64.743 115.505C64.1397 115.505 67.906 111.527 69.031 111.25C70.156 110.973 68.3788 111.234 71.3625 110.957C73.906 110.696 66.243 115.505 64.743 115.505Z" fill="#A82B58"/>
<path fill-rule="evenodd" clip-rule="evenodd" d="M100.254 51.3152L117.813 43.0164C117.813 43.0164 120.634 50.6142 116.313 56.6468C113.884 60.038 107.134 61 101.542 59.2391C99.4711 58.3261 100.27 55.2609 100.254 51.3152Z" fill="url(#paint18_linear_925_3597)"/>
<path fill-rule="evenodd" clip-rule="evenodd" d="M100.254 51.3152C100.254 51.3152 106.515 58.8478 112.025 58.6195C117.536 58.3913 119.754 50.0761 117.813 43L100.254 51.3152Z" fill="#DD522F"/>
<path fill-rule="evenodd" clip-rule="evenodd" d="M113.069 45.25C112.873 46.4728 115.27 46.2772 116.297 48.25C117.341 50.2228 114.52 57.5761 107.102 54.6087C102.471 52.75 105.227 49.7989 105.227 49.7989C105.227 49.7989 108.781 48.8369 109.824 48.2174C110.77 47.663 113.069 45.25 113.069 45.25Z" fill="url(#paint19_linear_925_3597)"/>
<path opacity="0.8" fill-rule="evenodd" clip-rule="evenodd" d="M104.754 52.9131C104.656 49.4566 108.96 52.3425 112.563 52.3588C116.15 52.3588 113.688 46.1795 112.906 45.9512C112.123 45.7229 111.96 47.1903 109.384 48.2827C106.792 49.3751 105.911 49.5219 104.966 50.1903C103.987 50.8262 104.754 52.9131 104.754 52.9131Z" fill="#C62B58"/>
<path fill-rule="evenodd" clip-rule="evenodd" d="M112.449 45.5435C112.449 45.5435 115.808 44.1577 117.455 44.3859C118.172 44.4837 118.319 45.5435 118.319 45.5435L117.814 43.0164L112.449 45.5435Z" fill="#E48748"/>
<path fill-rule="evenodd" clip-rule="evenodd" d="M113.411 46.8315C113.411 46.8315 115.172 46.6685 115.629 47.7283C115.629 47.7283 113.868 48.3152 113.411 46.8315Z" fill="#E48748"/>
<path fill-rule="evenodd" clip-rule="evenodd" d="M113.102 47.7119C113.102 47.7119 113.33 48.9021 114.732 49.6358C114.732 49.6521 115.27 48.576 113.102 47.7119Z" fill="#E48748"/>
<path fill-rule="evenodd" clip-rule="evenodd" d="M112.547 49.0488C112.547 49.0488 112.694 50.1249 113.509 50.1738C113.525 50.1738 113.819 49.538 112.547 49.0488Z" fill="#E48748"/>
<path fill-rule="evenodd" clip-rule="evenodd" d="M111.161 50.9238C111.161 50.9238 111.308 51.9999 112.123 52.0488C112.14 52.0488 112.433 51.413 111.161 50.9238Z" fill="#E48748"/>
<path fill-rule="evenodd" clip-rule="evenodd" d="M109.286 51.0869C109.286 51.0869 108.292 52.6684 109.319 53.6141C109.319 53.6141 110.411 53.1086 109.286 51.0869Z" fill="#E48748"/>
<path fill-rule="evenodd" clip-rule="evenodd" d="M106.629 51.0054C106.629 51.0054 105.227 51.5923 105.455 52.701C105.471 52.701 106.417 52.8804 106.629 51.0054Z" fill="#E48748"/>
<path fill-rule="evenodd" clip-rule="evenodd" d="M118.123 44.1902C117.65 43.2772 112.156 45.6739 111.667 45.9022C111.178 46.1304 109.351 47.4022 107.754 48.1196C106.156 48.8369 100.254 51.2989 100.254 51.2989L117.813 43L118.123 44.1902Z" fill="#EDBB88"/>
<path fill-rule="evenodd" clip-rule="evenodd" d="M100.726 51.087C100.726 51.087 107.085 59.7445 113.053 58.2609C119.02 56.7772 118.123 44.2065 118.123 44.2065C118.123 44.2065 120.536 53.6957 115.156 57.9185C109.775 62.1576 101.069 53.2228 100.254 51.3152L100.726 51.087Z" fill="#DB2E31"/>
<path fill-rule="evenodd" clip-rule="evenodd" d="M106.629 54.3804C106.629 54.3804 108.879 55.8152 111.928 55.3098C114.96 54.788 115.808 51.9185 115.808 51.9185C115.808 51.9185 114.618 54.3804 111.928 54.9674C109.221 55.5543 106.629 54.3804 106.629 54.3804Z" fill="#DF6946"/>
<path opacity="0.8" fill-rule="evenodd" clip-rule="evenodd" d="M101.167 59.0271C101.151 57.7717 107.998 58.3097 109.368 58.6195C110.721 58.9293 111.732 59.1902 113.411 58.7989C113.411 58.7989 110.526 60.2988 106.629 60.0706C102.732 59.8749 101.167 59.0271 101.167 59.0271Z" fill="#B83058"/>
<path opacity="0.5" fill-rule="evenodd" clip-rule="evenodd" d="M109.188 57.9837C107.297 57.3478 113.167 55.962 115.156 53.8424C117.129 51.7229 117.047 48.087 117.422 47.8424C117.797 47.5979 118.14 52.5707 116.232 55.6522C114.341 58.7337 110.917 58.5544 109.188 57.9837Z" fill="#DE7B83"/>
<path fill-rule="evenodd" clip-rule="evenodd" d="M109.156 54.5923C108.944 55.1141 110.444 55.8478 110.46 54.9021C110.477 53.9565 109.335 54.1195 109.156 54.5923Z" fill="white"/>
<path fill-rule="evenodd" clip-rule="evenodd" d="M38.8682 65.4674C38.8193 65.5816 38.754 65.6794 38.6562 65.7609C36.3573 68.4511 33.4062 70.962 30.0312 71.6305C27.2921 72.1848 24.4552 71.4511 21.8954 68.7283C15.7487 62.2066 18.716 53.7446 18.716 53.7446L36.2758 60.7066C36.2269 60.5109 39.4877 64.0163 38.8682 65.4674Z" fill="url(#paint20_linear_925_3597)"/>
<path fill-rule="evenodd" clip-rule="evenodd" d="M36.2756 60.7229C36.2756 60.7229 32.8517 69.6088 27.1452 70.4566C20.6724 71.4022 17.1344 61.2121 18.7322 53.761L36.2756 60.7229Z" fill="#DD522F"/>
<path fill-rule="evenodd" clip-rule="evenodd" d="M23.738 55.75C24.113 56.9076 21.6836 56.8261 20.8358 58.8967C19.9228 61.1304 24.1293 69.6087 31.2053 64.7989C34.8412 62.3206 31.776 59.663 31.776 59.663C31.776 59.663 28.401 58.9783 27.3086 58.4402C26.3141 57.9511 23.738 55.75 23.738 55.75Z" fill="url(#paint21_linear_925_3597)"/>
<path opacity="0.8" fill-rule="evenodd" clip-rule="evenodd" d="M32.9334 62.7118C32.1834 59.2879 28.9389 62.5651 25.3682 62.9727C21.5041 63.4129 23.265 56.6466 24.015 56.3858C24.7324 56.1249 25.1237 57.5434 27.7487 58.4401C30.3084 59.3205 31.1237 59.4184 32.1019 59.989C33.0802 60.5597 32.9334 62.7118 32.9334 62.7118Z" fill="#C62B58"/>
<path fill-rule="evenodd" clip-rule="evenodd" d="M24.3899 56.011C24.3899 56.011 20.9008 54.8045 19.2215 55.0653C18.4715 55.1795 18.39 56.2392 18.39 56.2392L18.716 53.761L24.3899 56.011Z" fill="#E48748"/>
<path fill-rule="evenodd" clip-rule="evenodd" d="M23.6399 57.2825C23.6399 57.2825 21.8301 57.2173 21.4877 58.3096C21.4877 58.3096 23.3953 58.7825 23.6399 57.2825Z" fill="#E48748"/>
<path fill-rule="evenodd" clip-rule="evenodd" d="M24.0638 58.1467C24.0638 58.1467 24.0149 59.3696 22.678 60.2663C22.678 60.2663 21.9769 59.1739 24.0638 58.1467Z" fill="#E48748"/>
<path fill-rule="evenodd" clip-rule="evenodd" d="M24.8139 59.4512C24.8139 59.4512 24.8302 60.5925 24.0149 60.7066C24.0149 60.7066 23.6073 60.0707 24.8139 59.4512Z" fill="#E48748"/>
<path fill-rule="evenodd" clip-rule="evenodd" d="M26.5259 61.2932C26.5259 61.2932 26.5748 62.4671 25.7596 62.5976C25.7433 62.5976 25.3357 61.9454 26.5259 61.2932Z" fill="#E48748"/>
<path fill-rule="evenodd" clip-rule="evenodd" d="M28.3683 61.2771C28.3683 61.2771 29.64 62.8423 28.8574 63.9836C28.8574 63.9836 27.6835 63.576 28.3683 61.2771Z" fill="#E48748"/>
<path fill-rule="evenodd" clip-rule="evenodd" d="M30.7975 60.9673C30.7975 60.9673 32.1834 61.4238 32.2486 62.5814C32.2486 62.5814 31.4334 62.8749 30.7975 60.9673Z" fill="#E48748"/>
<path fill-rule="evenodd" clip-rule="evenodd" d="M18.504 54.9023C18.9279 54.0056 24.6997 56.1251 25.2051 56.3371C25.6942 56.5327 27.6181 57.6577 29.216 58.2447C30.7812 58.8316 36.292 60.7392 36.292 60.7392L18.7323 53.761L18.504 54.9023Z" fill="#EDBB88"/>
<path fill-rule="evenodd" clip-rule="evenodd" d="M35.8357 60.5433C35.8357 60.5433 32.5422 70.8314 25.9226 70.1792C18.5857 69.4618 18.4879 54.8857 18.4879 54.8857C18.4879 54.8857 16.4009 65.6629 23.4607 70.1792C30.4226 74.6466 36.1454 62.6466 36.2759 60.7227L35.8357 60.5433Z" fill="#DB2E31"/>
<path fill-rule="evenodd" clip-rule="evenodd" d="M31.5964 64.4891C31.5964 64.4891 29.7703 66.4293 26.5747 66.2989C23.1834 66.1522 21.8464 62.875 21.8464 62.875C21.8464 62.875 23.5258 65.5978 26.5258 65.8913C29.379 66.1685 31.5964 64.4891 31.5964 64.4891Z" fill="#DF6946"/>
<path opacity="0.8" fill-rule="evenodd" clip-rule="evenodd" d="M38.8681 65.4672C38.8192 65.5813 38.754 65.6792 38.6562 65.7607C36.3573 68.4509 33.4062 70.9618 30.0312 71.6302C27.5855 71.6954 25.7758 71.0596 25.629 70.9944C27.5692 71.1248 28.5964 70.5705 29.9497 69.902C31.2377 69.2661 38.3627 64.3422 38.8681 65.4672Z" fill="#B83058"/>
<path opacity="0.5" fill-rule="evenodd" clip-rule="evenodd" d="M29.9822 69.0706C31.6941 67.9619 25.3518 67.3097 22.8246 65.0434C20.3137 62.8097 20.0203 58.7825 19.58 58.538C19.1398 58.2934 19.254 63.9347 21.8463 67.4401C24.5529 71.1086 28.3191 70.1466 29.9822 69.0706Z" fill="#DE7B83"/>
<path fill-rule="evenodd" clip-rule="evenodd" d="M29.2485 65.076C29.5746 65.6467 28.2214 66.7228 28.0094 65.6141C27.7811 64.5217 28.9551 64.5543 29.2485 65.076Z" fill="white"/>
<path fill-rule="evenodd" clip-rule="evenodd" d="M121.188 137.32C114.161 140.19 105.21 138.82 101.46 137.353C96.6831 135.478 93.8951 134.239 93.8951 134.239C93.3081 133.636 93.5527 132.511 94.5799 129.625V129.609C95.1342 128.043 95.9331 125.956 96.9277 123.136C101.982 109.016 107.036 104.744 108.243 103.929C109.449 103.114 118.368 111.739 121.792 117.967C126.602 126.674 125.167 128.679 129.455 131.011C129.553 131.06 129.65 131.125 129.716 131.206C130.645 132.217 127.743 134.647 121.188 137.32Z" fill="url(#paint22_linear_925_3597)"/>
<path opacity="0.8" fill-rule="evenodd" clip-rule="evenodd" d="M108.651 104.207C108.634 104.207 108.634 104.207 108.634 104.207C108.634 104.173 108.634 104.19 108.651 104.207Z" fill="#985059"/>
<path opacity="0.6" fill-rule="evenodd" clip-rule="evenodd" d="M121.189 137.32C114.161 140.19 105.21 138.82 101.46 137.353C96.6832 135.478 93.8952 134.239 93.8952 134.239C93.3082 133.635 93.5528 132.51 94.58 129.625C94.5474 129.804 94.0093 132.755 95.1995 133.896C96.4224 135.07 101.46 137.043 104.982 137.059C108.504 137.076 108.406 135.967 112.319 136.065C116.232 136.179 120.227 136.701 119.623 136.195C119.036 135.706 116.395 136.652 117.243 132.331C118.107 128.01 118.156 120.592 115.417 115.244C112.825 110.19 108.993 104.532 108.667 104.174C108.879 104.222 110.77 104.679 111.683 106.277C112.645 107.972 113.02 110.434 114.96 112.88C116.901 115.326 118.238 119.174 118.27 124.717C118.286 130.26 116.167 133.929 118.335 134.924C120.504 135.918 122.102 136.163 123.846 134.597C125.526 133.097 128.216 130.554 129.748 131.19C130.645 132.217 127.743 134.646 121.189 137.32Z" fill="#AF5059"/>
<path opacity="0.8" fill-rule="evenodd" clip-rule="evenodd" d="M125.265 125.5C125.64 126.478 123.879 131.059 122.249 133.195C120.618 135.331 117.667 134.614 117.341 133.44C117.015 132.266 119.346 125.451 118.792 120.462C118.238 115.489 122.575 119.206 123.52 121.358C124.482 123.511 125.265 125.5 125.265 125.5Z" fill="#F4D8C6"/>
<path opacity="0.8" fill-rule="evenodd" clip-rule="evenodd" d="M116.46 120.853C115.71 119.19 110.786 120.771 105.602 121.75C100.417 122.712 98.7376 126.902 98.2973 129.478C97.8571 132.054 104.314 135.054 109.661 135.38C115.009 135.706 116.966 134.239 117.357 130.505C117.748 126.771 116.46 120.853 116.46 120.853Z" fill="#F4D8C6"/>
<path opacity="0.8" fill-rule="evenodd" clip-rule="evenodd" d="M99.9442 132.119C98.0855 130.847 105.194 134.467 110.102 134.385C116.95 134.288 117.194 127.619 117.194 127.619C117.194 127.619 118.026 133.375 114.471 134.989C109.89 137.092 99.9442 132.119 99.9442 132.119Z" fill="#F4D8C6"/>
<path opacity="0.8" fill-rule="evenodd" clip-rule="evenodd" d="M117.634 133.913C117.194 132.625 120.765 131.043 122.884 129.266C125.004 127.489 123.439 133.13 121.433 133.994C119.428 134.842 117.634 133.913 117.634 133.913Z" fill="#F4D8C6"/>
<path opacity="0.6" fill-rule="evenodd" clip-rule="evenodd" d="M109.499 105.397C109.499 105.397 109.596 104.842 110.966 106.342C112.352 107.842 112.645 110.369 112.645 110.369L109.499 105.397Z" fill="#AF5059"/>
<path opacity="0.6" fill-rule="evenodd" clip-rule="evenodd" d="M106.759 138.641C109.401 138.918 111.96 138.853 112.808 138.543C113.656 138.233 112.221 138.56 111.814 137.907C111.406 137.255 113.917 137.011 117.52 137.239C120.471 137.435 117.944 137.63 117.781 138.022C117.618 138.397 123.064 136.538 125.428 134.451C127.792 132.364 129.341 132.674 129.341 132.674C129.341 132.674 124.873 136.326 119.346 137.956C113.819 139.603 106.759 138.641 106.759 138.641Z" fill="#AF5059"/>
<path opacity="0.5" fill-rule="evenodd" clip-rule="evenodd" d="M95.0691 132.967C95.2647 131.646 100.841 133.016 103.678 134.076C106.515 135.136 108.814 135.69 111.145 135.527C113.477 135.364 115.026 135.119 115.922 134.695C116.819 134.255 117.895 135.951 118.661 136.261C119.428 136.554 113.591 135.739 110.705 136.146C107.819 136.554 106.482 137.434 102.536 136.847C98.5908 136.212 95.0691 132.967 95.0691 132.967Z" fill="#FFFFC9"/>
<path opacity="0.5" fill-rule="evenodd" clip-rule="evenodd" d="M118.759 135.054C117.651 134.435 119.998 134.989 121.58 133.913C123.145 132.853 124.45 130.473 124.988 129.168C125.526 127.864 127.466 129.804 128.591 130.505C129.716 131.223 127.613 130.407 126.096 132.266C124.58 134.125 123.406 135.674 121.678 135.706C119.966 135.739 118.759 135.054 118.759 135.054Z" fill="#FFFFC9"/>
<path opacity="0.3" fill-rule="evenodd" clip-rule="evenodd" d="M108.618 105.282C106.971 104.369 102.618 114.184 101.819 118.521C101.02 122.858 109.368 120.82 113.575 120.201C117.781 119.581 116.134 115.929 113.183 111.217C110.216 106.505 108.618 105.282 108.618 105.282Z" fill="#FFFFC9"/>
<path opacity="0.3" fill-rule="evenodd" clip-rule="evenodd" d="M112.841 107.858C112.531 108.266 113.444 110.092 114.667 112.195C115.873 114.299 117.618 116.663 117.912 117.771C118.221 118.88 120.504 117.462 121.792 118.717C123.096 119.972 119.232 113.679 116.509 110.809C113.819 107.94 112.841 107.858 112.841 107.858Z" fill="#FFFFC9"/>
<path opacity="0.8" fill-rule="evenodd" clip-rule="evenodd" d="M94.564 129.625C95.7379 126.429 99.4879 124.896 101.901 118.032C104.314 111.168 106.727 105.25 106.727 105.25C106.727 105.25 102.879 109.212 100.45 114.723C98.0368 120.201 94.564 129.625 94.564 129.625Z" fill="#F4D8C6"/>
<path opacity="0.3" fill-rule="evenodd" clip-rule="evenodd" d="M112.857 135.445C111.471 135.38 113.819 134.059 115.531 131.989C117.243 129.918 116.33 133.538 115.368 134.451C114.732 135.038 112.857 135.445 112.857 135.445Z" fill="#AF5059"/>
<path opacity="0.3" fill-rule="evenodd" clip-rule="evenodd" d="M118.482 134.418C117.602 133.962 119.575 134.125 120.797 133.88C122.02 133.619 119.901 135.152 118.482 134.418Z" fill="#AF5059"/>
<path opacity="0.3" fill-rule="evenodd" clip-rule="evenodd" d="M95.2485 127.798C95.2485 127.798 99.4876 123.168 100.254 121.684C101.02 120.201 101.281 116.174 100.955 115.244C100.629 114.315 98.7703 118.896 97.8572 121.016C96.9279 123.152 95.2485 127.798 95.2485 127.798Z" fill="#AF5059"/>
<path opacity="0.5" fill-rule="evenodd" clip-rule="evenodd" d="M113.428 109.945C113.444 110.516 114.911 112.619 116.02 114.396C117.129 116.174 118.156 117.902 118.384 118.195C118.629 118.489 119.02 116.679 118.27 114.69C117.52 112.717 113.428 109.945 113.428 109.945Z" fill="#FFFFC9"/>
<g opacity="0.5">
<path fill-rule="evenodd" clip-rule="evenodd" d="M102.52 125.744C102.21 126.902 103.629 127.863 104.705 126.152C105.781 124.456 102.83 124.603 102.52 125.744Z" fill="#AD3F59"/>
<path fill-rule="evenodd" clip-rule="evenodd" d="M99.0147 122.255C98.7702 122.777 99.243 122.614 99.4875 122.076C99.7321 121.521 99.1125 122.011 99.0147 122.255Z" fill="#AD3F59"/>
<path fill-rule="evenodd" clip-rule="evenodd" d="M106.808 133.929C106.482 133.635 106.498 133.277 106.694 133.212C107.004 133.097 107.232 133.423 107.281 133.652C107.346 133.896 106.922 134.027 106.808 133.929Z" fill="#AD3F59"/>
<path fill-rule="evenodd" clip-rule="evenodd" d="M113.77 126.331C113.33 126.934 114.063 127.391 114.487 127.309C114.895 127.244 114.129 125.842 113.77 126.331Z" fill="#AD3F59"/>
<path fill-rule="evenodd" clip-rule="evenodd" d="M122.737 124.668C121.123 124.114 120.716 126.315 120.504 127.586C120.292 128.858 122.868 128.287 123.194 126.983C123.618 125.255 122.737 124.668 122.737 124.668Z" fill="#AD3F59"/>
<path fill-rule="evenodd" clip-rule="evenodd" d="M105.618 113.011C105.161 114.886 106.824 115.081 107.314 113.043C107.803 111.005 106.025 111.299 105.618 113.011Z" fill="#AD3F59"/>
<path fill-rule="evenodd" clip-rule="evenodd" d="M107.672 114.56C107.574 113.956 108.292 112.994 108.585 114.429C108.879 115.848 107.786 115.358 107.672 114.56Z" fill="#AD3F59"/>
<path fill-rule="evenodd" clip-rule="evenodd" d="M115.971 111.103C116.183 111.494 115.955 112.277 115.4 111.364C114.846 110.451 115.694 110.581 115.971 111.103Z" fill="#AD3F59"/>
<path fill-rule="evenodd" clip-rule="evenodd" d="M119.15 121.847C119.167 122.092 118.89 122.434 118.808 121.847C118.743 121.277 119.134 121.538 119.15 121.847Z" fill="#AD3F59"/>
<path fill-rule="evenodd" clip-rule="evenodd" d="M108.455 107.451C108.471 107.695 108.194 108.038 108.112 107.451C108.031 106.864 108.438 107.141 108.455 107.451Z" fill="#AD3F59"/>
<path fill-rule="evenodd" clip-rule="evenodd" d="M100.335 131.239C100.156 131.076 100.123 130.636 100.58 131.011C101.02 131.386 100.564 131.467 100.335 131.239Z" fill="#AD3F59"/>
<path fill-rule="evenodd" clip-rule="evenodd" d="M95.6883 128.842C95.3133 130.994 96.8622 129.722 97.759 127.619C98.6557 125.516 96.0633 126.657 95.6883 128.842Z" fill="#AD3F59"/>
<path fill-rule="evenodd" clip-rule="evenodd" d="M100.14 129.413C100.009 128.94 100.531 128.777 100.857 128.94C101.199 129.103 100.221 129.722 100.14 129.413Z" fill="#AD3F59"/>
<path fill-rule="evenodd" clip-rule="evenodd" d="M123.764 126.152C123.373 125.532 123.21 124.994 123.65 124.684C123.993 124.44 124.384 125.663 124.221 126.152C124.074 126.641 123.764 126.152 123.764 126.152Z" fill="#AD3F59"/>
</g>
<path opacity="0.8" fill-rule="evenodd" clip-rule="evenodd" d="M112.058 109.913C111.406 109.049 109.645 105.739 108.602 105.706C107.558 105.674 105.651 108.723 105.096 110.206C104.542 111.706 105.308 110.695 108.047 110.174C110.803 109.652 112.058 109.913 112.058 109.913Z" fill="#F4D8C6"/>
<path fill-rule="evenodd" clip-rule="evenodd" d="M101.738 112.146C99.7322 115.733 105.667 107.663 106.254 107.418C106.841 107.157 104.884 109.619 104.933 110.809C104.982 112 107.868 110.581 110.33 110.597C112.792 110.63 114.602 113.141 114.373 112.994C114.145 112.831 112.971 111.266 112.922 109.929C112.873 108.608 113.607 109.57 114.439 109.554C115.27 109.554 112.091 105.837 110.575 104.956C109.075 104.076 108.879 103.929 108.243 103.929C107.607 103.945 104.232 107.712 101.738 112.146Z" fill="#EEBE9C"/>
<path opacity="0.8" fill-rule="evenodd" clip-rule="evenodd" d="M108.846 136.44C107.183 136.799 105.276 136.032 104.754 135.38C104.232 134.728 106.335 135.331 108.863 135.462C111.39 135.608 108.846 136.44 108.846 136.44Z" fill="#FFFFC9"/>
<path opacity="0.8" fill-rule="evenodd" clip-rule="evenodd" d="M125.248 129.967C124.694 130.098 123.667 131.288 123.569 132.103C123.488 132.918 125.689 131.875 127.433 131.239C129.178 130.603 125.705 129.853 125.248 129.967Z" fill="#FFFFC9"/>
<path fill-rule="evenodd" clip-rule="evenodd" d="M110.411 112.586C108.536 113.239 110.77 115.75 112.808 115.994C114.846 116.239 113.134 111.625 110.411 112.586Z" fill="#FFFFC9"/>
<path fill-rule="evenodd" clip-rule="evenodd" d="M111.634 111.397C110.835 111.69 112.026 112.147 112.629 112.293C113.232 112.44 112.417 111.087 111.634 111.397Z" fill="#FFFFC9"/>
<path fill-rule="evenodd" clip-rule="evenodd" d="M117.406 114.103C116.362 114.071 117.373 116.304 118.172 116.859C118.971 117.429 119.509 114.168 117.406 114.103Z" fill="#FFFFC9"/>
<path fill-rule="evenodd" clip-rule="evenodd" d="M111.276 123.641C111.178 123.918 111.683 124.146 111.846 123.967C112.026 123.771 111.471 123.07 111.276 123.641Z" fill="#FFFFC9"/>
<path fill-rule="evenodd" clip-rule="evenodd" d="M120.015 119.027C119.917 119.304 120.422 119.532 120.585 119.353C120.765 119.157 120.21 118.456 120.015 119.027Z" fill="#FFFFC9"/>
<path fill-rule="evenodd" clip-rule="evenodd" d="M103.922 119.532C103.188 121.081 106.596 120.983 107.558 119.761C108.52 118.538 105.031 117.168 103.922 119.532Z" fill="#FFFFC9"/>
<path fill-rule="evenodd" clip-rule="evenodd" d="M100.025 133.978C97.9709 133.799 99.9438 135.331 101.232 135.429C102.52 135.543 101.639 134.108 100.025 133.978Z" fill="#FFFFC9"/>
<path fill-rule="evenodd" clip-rule="evenodd" d="M101.884 133.864C101.265 133.945 101.95 134.467 102.651 134.304C103.335 134.125 102.683 133.766 101.884 133.864Z" fill="#FFFFC9"/>
<path opacity="0.6" fill-rule="evenodd" clip-rule="evenodd" d="M113.966 112.505C113.966 112.505 115.075 113.467 116.151 115.424C117.227 117.38 117.439 121.472 117.439 121.472C117.439 121.472 116.069 115.799 113.966 112.505Z" fill="#AF5059"/>
<path opacity="0.6" fill-rule="evenodd" clip-rule="evenodd" d="M99.7159 136.668C101.2 137.581 105.162 137.157 108.064 137.304C110.966 137.451 108.325 138.494 106.596 138.461C104.852 138.445 101.232 137.451 99.7159 136.668Z" fill="#AF5059"/>
<path fill-rule="evenodd" clip-rule="evenodd" d="M120.863 135.592C121.074 135.478 118.498 134.337 117.83 133.554C117.161 132.788 117.439 130.962 117.83 130.049C118.205 129.152 118.841 129.184 118.89 126.853C118.939 124.521 118.107 121.945 118.107 121.945C118.107 121.945 118.433 126.119 117.911 128.809C117.39 131.483 117.08 133.13 117.618 134.385C118.172 135.641 120.863 135.592 120.863 135.592Z" fill="#EEC049"/>
</g>
<defs>
<linearGradient id="paint0_linear_925_3597" x1="79.5556" y1="92.8573" x2="95.2138" y2="60.8204" gradientUnits="userSpaceOnUse">
<stop stop-color="#E8A03A"/>
<stop offset="0.2543" stop-color="#EAAB57"/>
<stop offset="0.5085" stop-color="#ECB36B"/>
<stop offset="0.7587" stop-color="#EDB778"/>
<stop offset="1" stop-color="#EDB97C"/>
</linearGradient>
<linearGradient id="paint1_linear_925_3597" x1="26.934" y1="111.696" x2="103.766" y2="111.696" gradientUnits="userSpaceOnUse">
<stop stop-color="#E0752A"/>
<stop offset="0.5447" stop-color="#E59122"/>
<stop offset="0.9944" stop-color="#F0C830"/>
</linearGradient>
<linearGradient id="paint2_linear_925_3597" x1="30.809" y1="93.4543" x2="100.489" y2="93.4543" gradientUnits="userSpaceOnUse">
<stop offset="0.00558659" stop-color="#F1D1C7"/>
<stop offset="0.0676622" stop-color="#E9BCB3"/>
<stop offset="0.1908" stop-color="#DB9992"/>
<stop offset="0.3212" stop-color="#D07B77"/>
<stop offset="0.459" stop-color="#C76562"/>
<stop offset="0.6077" stop-color="#C15453"/>
<stop offset="0.775" stop-color="#BD4B4A"/>
<stop offset="1" stop-color="#BC4847"/>
</linearGradient>
<linearGradient id="paint3_linear_925_3597" x1="64.9614" y1="108.976" x2="64.9614" y2="84.4073" gradientUnits="userSpaceOnUse">
<stop stop-color="#E3841F"/>
<stop offset="0.1151" stop-color="#E27F1E"/>
<stop offset="0.6409" stop-color="#E06B1C"/>
<stop offset="1" stop-color="#DF641B"/>
</linearGradient>
<linearGradient id="paint4_linear_925_3597" x1="58.6533" y1="100.888" x2="58.6533" y2="91.5568" gradientUnits="userSpaceOnUse">
<stop stop-color="#DC3D0E"/>
<stop offset="0.4367" stop-color="#DC4410"/>
<stop offset="1" stop-color="#DD5514"/>
</linearGradient>
<linearGradient id="paint5_linear_925_3597" x1="63.7202" y1="97.2456" x2="92.5522" y2="97.2456" gradientUnits="userSpaceOnUse">
<stop stop-color="#E48720"/>
<stop offset="0.5516" stop-color="#E58E25"/>
<stop offset="1" stop-color="#E6982C"/>
</linearGradient>
<linearGradient id="paint6_linear_925_3597" x1="34.9016" y1="103.327" x2="59.2561" y2="103.327" gradientUnits="userSpaceOnUse">
<stop stop-color="#E38431"/>
<stop offset="0.4632" stop-color="#E48B34"/>
<stop offset="1" stop-color="#E79A3A"/>
</linearGradient>
<linearGradient id="paint7_linear_925_3597" x1="91.2628" y1="99.3115" x2="95.7299" y2="99.3115" gradientUnits="userSpaceOnUse">
<stop stop-color="#732311"/>
<stop offset="1" stop-color="#7A2428"/>
</linearGradient>
<linearGradient id="paint8_linear_925_3597" x1="77.7037" y1="90.0523" x2="79.459" y2="90.0523" gradientUnits="userSpaceOnUse">
<stop stop-color="#732311"/>
<stop offset="1" stop-color="#7A2428"/>
</linearGradient>
<linearGradient id="paint9_linear_925_3597" x1="48.4814" y1="88.2906" x2="52.2344" y2="88.2906" gradientUnits="userSpaceOnUse">
<stop stop-color="#732311"/>
<stop offset="1" stop-color="#7A2428"/>
</linearGradient>
<linearGradient id="paint10_linear_925_3597" x1="46.8743" y1="87.2754" x2="49.9772" y2="87.2754" gradientUnits="userSpaceOnUse">
<stop stop-color="#732311"/>
<stop offset="1" stop-color="#7A2428"/>
</linearGradient>
<linearGradient id="paint11_linear_925_3597" x1="50.8685" y1="97.7322" x2="51.7914" y2="97.7322" gradientUnits="userSpaceOnUse">
<stop stop-color="#732311"/>
<stop offset="1" stop-color="#7A2428"/>
</linearGradient>
<linearGradient id="paint12_linear_925_3597" x1="36.2334" y1="97.9135" x2="37.6654" y2="97.9135" gradientUnits="userSpaceOnUse">
<stop stop-color="#732311"/>
<stop offset="1" stop-color="#7A2428"/>
</linearGradient>
<linearGradient id="paint13_linear_925_3597" x1="85.9057" y1="97.5192" x2="87.117" y2="97.5192" gradientUnits="userSpaceOnUse">
<stop stop-color="#732311"/>
<stop offset="1" stop-color="#7A2428"/>
</linearGradient>
<linearGradient id="paint14_linear_925_3597" x1="94.2037" y1="96.2768" x2="94.63" y2="96.2768" gradientUnits="userSpaceOnUse">
<stop stop-color="#732311"/>
<stop offset="1" stop-color="#7A2428"/>
</linearGradient>
<linearGradient id="paint15_linear_925_3597" x1="73.8938" y1="94.3557" x2="75.6291" y2="94.3557" gradientUnits="userSpaceOnUse">
<stop stop-color="#732311"/>
<stop offset="1" stop-color="#7A2428"/>
</linearGradient>
<linearGradient id="paint16_linear_925_3597" x1="71.2187" y1="85.5902" x2="77.9594" y2="85.5902" gradientUnits="userSpaceOnUse">
<stop stop-color="#732311"/>
<stop offset="1" stop-color="#7A2428"/>
</linearGradient>
<linearGradient id="paint17_linear_925_3597" x1="27.3998" y1="105.469" x2="103.766" y2="105.469" gradientUnits="userSpaceOnUse">
<stop stop-color="#EBB15B"/>
<stop offset="0.0414268" stop-color="#E7AA56"/>
<stop offset="0.1022" stop-color="#DE9647"/>
<stop offset="0.1746" stop-color="#CE762F"/>
<stop offset="0.2039" stop-color="#C66724"/>
<stop offset="0.2386" stop-color="#C05B1F"/>
<stop offset="0.3003" stop-color="#B03D12"/>
<stop offset="0.338" stop-color="#A52709"/>
<stop offset="0.4196" stop-color="#A82E0D"/>
<stop offset="0.5384" stop-color="#B24118"/>
<stop offset="0.6801" stop-color="#C16129"/>
<stop offset="0.8393" stop-color="#D68E42"/>
<stop offset="1" stop-color="#EFC25F"/>
</linearGradient>
<linearGradient id="paint18_linear_925_3597" x1="109.412" y1="60.0884" x2="109.412" y2="43.0051" gradientUnits="userSpaceOnUse">
<stop stop-color="#75012C"/>
<stop offset="1" stop-color="#94270E"/>
</linearGradient>
<linearGradient id="paint19_linear_925_3597" x1="110.461" y1="55.3053" x2="110.461" y2="45.2465" gradientUnits="userSpaceOnUse">
<stop stop-color="#DB3720"/>
<stop offset="1" stop-color="#A6022C"/>
</linearGradient>
<linearGradient id="paint20_linear_925_3597" x1="31.3017" y1="71.297" x2="24.6487" y2="51.7428" gradientUnits="userSpaceOnUse">
<stop stop-color="#75012C"/>
<stop offset="1" stop-color="#94270E"/>
</linearGradient>
<linearGradient id="paint21_linear_925_3597" x1="28.5972" y1="66.1666" x2="27.8707" y2="55.4686" gradientUnits="userSpaceOnUse">
<stop stop-color="#DB3720"/>
<stop offset="1" stop-color="#A6022C"/>
</linearGradient>
<linearGradient id="paint22_linear_925_3597" x1="111.605" y1="139.005" x2="112.267" y2="103.958" gradientUnits="userSpaceOnUse">
<stop stop-color="#E27E24"/>
<stop offset="0.2039" stop-color="#E69239"/>
<stop offset="0.4747" stop-color="#E9A64D"/>
<stop offset="0.7421" stop-color="#EBB25A"/>
<stop offset="1" stop-color="#ECB65E"/>
</linearGradient>
<clipPath id="clip0_925_3597">
<rect width="125" height="168" fill="white"/>
</clipPath>
</defs>
</svg>
