<svg width="24" height="24" viewBox="0 0 24 24" fill="none" xmlns="http://www.w3.org/2000/svg">
<path d="M20.5153 9.72831L13.0153 2.65206C13.0116 2.64886 13.0082 2.64541 13.005 2.64175C12.7289 2.39062 12.369 2.25146 11.9958 2.25146C11.6225 2.25146 11.2627 2.39062 10.9866 2.64175L10.9763 2.65206L3.48469 9.72831C3.33187 9.86883 3.20989 10.0395 3.12646 10.2296C3.04303 10.4197 2.99997 10.6251 3 10.8327V19.4999C3 19.8977 3.15804 20.2792 3.43934 20.5605C3.72064 20.8418 4.10218 20.9999 4.5 20.9999H9C9.39782 20.9999 9.77936 20.8418 10.0607 20.5605C10.342 20.2792 10.5 19.8977 10.5 19.4999V14.9999H13.5V19.4999C13.5 19.8977 13.658 20.2792 13.9393 20.5605C14.2206 20.8418 14.6022 20.9999 15 20.9999H19.5C19.8978 20.9999 20.2794 20.8418 20.5607 20.5605C20.842 20.2792 21 19.8977 21 19.4999V10.8327C21 10.6251 20.957 10.4197 20.8735 10.2296C20.7901 10.0395 20.6681 9.86883 20.5153 9.72831ZM19.5 19.4999H15V14.9999C15 14.602 14.842 14.2205 14.5607 13.9392C14.2794 13.6579 13.8978 13.4999 13.5 13.4999H10.5C10.1022 13.4999 9.72064 13.6579 9.43934 13.9392C9.15804 14.2205 9 14.602 9 14.9999V19.4999H4.5V10.8327L4.51031 10.8233L12 3.74987L19.4906 10.8214L19.5009 10.8308L19.5 19.4999Z" fill="#2F2F2F"/>
</svg>
