<svg width="24" height="24" viewBox="0 0 24 24" fill="none" xmlns="http://www.w3.org/2000/svg">
<path d="M21.6487 19.8751C20.2209 17.4067 18.0206 15.6367 15.4528 14.7976C16.723 14.0415 17.7098 12.8893 18.2618 11.518C18.8137 10.1468 18.9003 8.63224 18.5082 7.20701C18.1161 5.78178 17.2669 4.52467 16.0912 3.62873C14.9155 2.73279 13.4782 2.24756 12 2.24756C10.5218 2.24756 9.08449 2.73279 7.90877 3.62873C6.73305 4.52467 5.88393 5.78178 5.49181 7.20701C5.0997 8.63224 5.18627 10.1468 5.73823 11.518C6.29019 12.8893 7.27703 14.0415 8.54718 14.7976C5.97937 15.6357 3.77906 17.4057 2.35124 19.8751C2.29888 19.9605 2.26415 20.0555 2.2491 20.1545C2.23405 20.2535 2.23898 20.3545 2.26361 20.4516C2.28824 20.5487 2.33206 20.6399 2.39249 20.7197C2.45292 20.7996 2.52873 20.8666 2.61546 20.9167C2.70218 20.9667 2.79806 20.999 2.89744 21.0114C2.99682 21.0238 3.09768 21.0163 3.19408 20.9891C3.29047 20.9619 3.38045 20.9157 3.4587 20.8532C3.53695 20.7907 3.60189 20.7131 3.64968 20.6251C5.41593 17.5726 8.53781 15.7501 12 15.7501C15.4622 15.7501 18.5841 17.5726 20.3503 20.6251C20.3981 20.7131 20.463 20.7907 20.5413 20.8532C20.6195 20.9157 20.7095 20.9619 20.8059 20.9891C20.9023 21.0163 21.0032 21.0238 21.1025 21.0114C21.2019 20.999 21.2978 20.9667 21.3845 20.9167C21.4713 20.8666 21.5471 20.7996 21.6075 20.7197C21.6679 20.6399 21.7118 20.5487 21.7364 20.4516C21.761 20.3545 21.7659 20.2535 21.7509 20.1545C21.7358 20.0555 21.7011 19.9605 21.6487 19.8751ZM6.74999 9.00011C6.74999 7.96176 7.0579 6.94672 7.63478 6.08337C8.21166 5.22001 9.03159 4.5471 9.99091 4.14974C10.9502 3.75238 12.0058 3.64841 13.0242 3.85099C14.0426 4.05356 14.9781 4.55357 15.7123 5.2878C16.4465 6.02202 16.9465 6.95748 17.1491 7.97589C17.3517 8.99429 17.2477 10.0499 16.8504 11.0092C16.453 11.9685 15.7801 12.7884 14.9167 13.3653C14.0534 13.9422 13.0383 14.2501 12 14.2501C10.6081 14.2486 9.27357 13.695 8.28933 12.7108C7.30509 11.7265 6.75148 10.392 6.74999 9.00011Z" fill="#2F2F2F"/>
</svg>
