<svg width="24" height="24" viewBox="0 0 24 24" fill="none" xmlns="http://www.w3.org/2000/svg">
<path d="M20.25 6.75H5.25C5.05109 6.75 4.86032 6.67098 4.71967 6.53033C4.57902 6.38968 4.5 6.19891 4.5 6C4.5 5.80109 4.57902 5.61032 4.71967 5.46967C4.86032 5.32902 5.05109 5.25 5.25 5.25H18C18.1989 5.25 18.3897 5.17098 18.5303 5.03033C18.671 4.88968 18.75 4.69891 18.75 4.5C18.75 4.30109 18.671 4.11032 18.5303 3.96967C18.3897 3.82902 18.1989 3.75 18 3.75H5.25C4.65326 3.75 4.08097 3.98705 3.65901 4.40901C3.23705 4.83097 3 5.40326 3 6V18C3 18.5967 3.23705 19.169 3.65901 19.591C4.08097 20.0129 4.65326 20.25 5.25 20.25H20.25C20.6478 20.25 21.0294 20.092 21.3107 19.8107C21.592 19.5294 21.75 19.1478 21.75 18.75V8.25C21.75 7.85218 21.592 7.47064 21.3107 7.18934C21.0294 6.90804 20.6478 6.75 20.25 6.75ZM20.25 18.75H5.25C5.05109 18.75 4.86032 18.671 4.71967 18.5303C4.57902 18.3897 4.5 18.1989 4.5 18V8.12156C4.74082 8.20693 4.9945 8.25037 5.25 8.25H20.25V18.75ZM15.75 13.125C15.75 12.9025 15.816 12.685 15.9396 12.5C16.0632 12.315 16.2389 12.1708 16.4445 12.0856C16.65 12.0005 16.8762 11.9782 17.0945 12.0216C17.3127 12.065 17.5132 12.1722 17.6705 12.3295C17.8278 12.4868 17.935 12.6873 17.9784 12.9055C18.0218 13.1238 17.9995 13.35 17.9144 13.5555C17.8292 13.7611 17.685 13.9368 17.5 14.0604C17.315 14.184 17.0975 14.25 16.875 14.25C16.5766 14.25 16.2905 14.1315 16.0795 13.9205C15.8685 13.7095 15.75 13.4234 15.75 13.125Z" fill="#2F2F2F"/>
</svg>
