<svg width="24" height="24" viewBox="0 0 24 24" fill="none" xmlns="http://www.w3.org/2000/svg">
<path d="M21.6497 20.6251C21.5839 20.7391 21.4892 20.8338 21.3751 20.8997C21.2611 20.9655 21.1317 21.0001 21 21.0001H3.00002C2.86844 21 2.7392 20.9652 2.62529 20.8993C2.51139 20.8335 2.41682 20.7388 2.35108 20.6248C2.28535 20.5108 2.25076 20.3815 2.25079 20.2499C2.25083 20.1183 2.28548 19.9891 2.35127 19.8751C3.77909 17.4067 5.9794 15.6367 8.54721 14.7976C7.27706 14.0415 6.29022 12.8893 5.73826 11.518C5.1863 10.1468 5.09973 8.63224 5.49184 7.20701C5.88396 5.78178 6.73308 4.52467 7.9088 3.62873C9.08452 2.73279 10.5218 2.24756 12 2.24756C13.4782 2.24756 14.9155 2.73279 16.0913 3.62873C17.267 4.52467 18.1161 5.78178 18.5082 7.20701C18.9003 8.63224 18.8137 10.1468 18.2618 11.518C17.7098 12.8893 16.723 14.0415 15.4528 14.7976C18.0207 15.6367 20.221 17.4067 21.6488 19.8751C21.7147 19.989 21.7496 20.1183 21.7497 20.25C21.7499 20.3816 21.7154 20.511 21.6497 20.6251Z" fill="#111111"/>
</svg>
