<svg width="148" height="119" viewBox="0 0 148 119" fill="none" xmlns="http://www.w3.org/2000/svg">
<rect width="146.646" height="119" fill="#4F4F4F"/>
<g style="mix-blend-mode:color-dodge">
<ellipse cx="48.7742" cy="61.5056" rx="35.6524" ry="35.4326" fill="#F2F2F2"/>
</g>
<ellipse cx="115.702" cy="66.1854" rx="21.526" ry="21.3933" fill="#828282"/>
<rect x="95.1853" y="7.01966" width="41.0339" height="2.00562" fill="#EB5757"/>
<rect x="95.1853" y="15.7107" width="41.0339" height="2.00562" fill="#EB5757"/>
<rect x="95.1853" y="24.4017" width="41.0339" height="2.00562" fill="#EB5757"/>
<ellipse cx="116.375" cy="71.5337" rx="16.1445" ry="16.0449" fill="#4F4F4F"/>
<rect x="109.648" y="62.8427" width="13.4537" height="17.382" fill="#EB5757"/>
<path d="M118.53 68.191H114.83C113.485 69.7955 113.597 73.3165 113.821 74.8764H119.539C120.346 73.2719 119.203 69.7509 118.53 68.191Z" fill="#FBE9B1"/>
<path d="M113.723 82.2303H120.114" stroke="#D8BA62"/>
<path d="M115.405 83.5674H118.096" stroke="#D8BA62"/>
<path d="M113.723 95.2669H120.45" stroke="#D8BA62"/>
<path d="M122.774 76.4367C123.001 68.4748 119.301 66.3265 117.056 67.0771C112.482 65.74 111.563 72.7597 111.675 76.4367V100.141V119H122.774H148V116.883C147.439 116.103 146.318 114.075 146.318 112.204C146.318 110.332 142.282 109.752 140.264 109.697V107.189C139.726 104.248 134.658 104.85 132.192 105.518V104.181C132.192 99.9024 125.913 100.17 122.774 100.838V86.4648V83.7906C122.774 82.9884 122.547 84.3986 122.774 76.4367Z" fill="#FAC597"/>
<path d="M98.5487 108.638C101.778 108.638 107.518 115.546 109.984 119H95.5216L94.1762 116.66L91.8218 112.315C90.4765 107.501 95.7459 107.858 98.5487 108.638Z" fill="#FAC597"/>
<path d="M95.1853 109.306C93.3017 109.306 92.3824 110.866 92.1582 111.646C92.1582 112.448 93.952 114.209 94.8489 114.989C95.6562 114.721 97.876 112.649 98.8851 111.646L95.1853 109.306Z" fill="#FBE9B1"/>
<path d="M115.069 96.9382H119.777" stroke="#D8BA62"/>
<path d="M34.4796 43.9565L30.4435 47.9677L63.0688 81.7289L67.1049 77.7177L34.4796 43.9565Z" fill="#EB5757"/>
<path d="M63.0688 43.9565L67.1049 47.9677L34.4796 81.7289L30.4435 77.7177L63.0688 43.9565Z" fill="#EB5757"/>
</svg>
