<svg width="28" height="61" viewBox="0 0 28 61" fill="none" xmlns="http://www.w3.org/2000/svg">
<path fill-rule="evenodd" clip-rule="evenodd" d="M6 0C2.68629 0 0 2.68629 0 6V14C1.65685 14 3 15.3431 3 17C3 18.6569 1.65685 20 0 20V28C1.65685 28 3 29.3431 3 31C3 32.6569 1.65685 34 0 34V42C1.65685 42 3 43.3431 3 45C3 46.6569 1.65685 48 0 48V55C0 58.3137 2.68629 61 6 61H28V0H6Z" fill="#FFCB74"/>
<mask id="mask0_1264_6927" style="mask-type:alpha" maskUnits="userSpaceOnUse" x="0" y="0" width="28" height="61">
<path fill-rule="evenodd" clip-rule="evenodd" d="M6 0C2.68629 0 0 2.68629 0 6V14C1.65685 14 3 15.3431 3 17C3 18.6569 1.65685 20 0 20V28C1.65685 28 3 29.3431 3 31C3 32.6569 1.65685 34 0 34V42C1.65685 42 3 43.3431 3 45C3 46.6569 1.65685 48 0 48V55C0 58.3137 2.68629 61 6 61H28V0H6Z" fill="#FFCB74"/>
</mask>
<g mask="url(#mask0_1264_6927)">
<path d="M26.7378 20.8921C26.9104 22.0101 25.5344 22.7899 23.8724 23.0465C22.2117 23.303 20.725 22.6047 20.5523 21.4867C20.3797 20.3687 21.5174 18.8069 23.178 18.5504C24.8401 18.2938 26.5651 19.7742 26.7378 20.8921Z" stroke="#D28402" stroke-opacity="0.42" stroke-width="0.5" stroke-miterlimit="10" stroke-linecap="round"/>
<path d="M22.8415 23.2053C22.8415 23.2053 23.0709 23.7641 22.9815 24.1119C22.8907 24.4599 22.7495 25.1998 23.7503 25.2946C24.7526 25.3892 25.3538 24.8789 25.1343 24.1254C24.9149 23.3719 24.7014 22.9954 24.7014 22.9954" stroke="#D28402" stroke-opacity="0.42" stroke-width="0.5" stroke-miterlimit="10" stroke-linecap="round"/>
<path d="M22.6409 22.8181C22.6409 22.8181 24.3363 22.5563 25.5021 22.3763" stroke="#D28402" stroke-opacity="0.42" stroke-width="0.5" stroke-miterlimit="10" stroke-linecap="round"/>
<path d="M1.49668 50.7312C1.49668 50.7312 0.181655 48.6841 1.33055 47.8396C1.33055 47.8396 1.75407 47.6634 1.36798 47.4643C0.981896 47.2654 0.967857 47.3311 0.829802 47.4937C0.691747 47.6563 0.305657 48.8104 0.719822 50.1488C1.01465 51.1021 1.49668 50.7312 1.49668 50.7312Z" stroke="#D28402" stroke-opacity="0.42" stroke-width="0.5" stroke-miterlimit="10" stroke-linecap="round"/>
<path d="M-0.368099 59.6521C1.47575 59.3659 1.18093 58.8166 3.17454 58.7138C5.26174 58.6069 6.60953 56.5203 6.65633 54.2584C6.67739 53.314 6.46914 52.3373 5.99413 51.4631C5.91224 51.3106 5.82801 51.1694 5.74143 51.0422C5.71335 50.9998 5.68526 50.9596 5.65718 50.9198C5.54252 50.7595 5.42787 50.62 5.31088 50.5009C3.85077 49.0006 2.25261 50.4909 1.49682 50.7312C1.03351 50.9163 0.794847 50.8765 0.507037 50.7326C0.240287 50.6416 0.0718044 50.5038 0.0413855 50.474C0.0367057 50.4712 0.0343703 50.47 0.0343703 50.4687C-0.143463 50.3428 -0.428928 50.2274 -0.768215 50.1685C-0.817354 50.16 -0.868832 50.152 -0.92031 50.1462C-2.10665 49.9977 -3.86627 50.508 -4.49103 53.2342C-5.33574 56.8999 -2.11835 59.9247 -0.368099 59.6521Z" stroke="#D28402" stroke-opacity="0.42" stroke-width="0.5" stroke-miterlimit="10" stroke-linecap="round"/>
<path d="M0.497428 49.2752C0.497428 49.2752 -2.07646 50.3207 -3.24408 47.8425C-3.24408 47.8425 -0.878441 46.3873 0.497428 49.2752Z" stroke="#D28402" stroke-opacity="0.42" stroke-width="0.5" stroke-miterlimit="10" stroke-linecap="round"/>
<path d="M5.56567 52.3015C5.56567 52.3015 5.15618 50.6051 4.16172 50.4296C3.16725 50.2541 2.58228 50.8136 2.58228 50.8136" stroke="#D28402" stroke-opacity="0.42" stroke-width="0.5" stroke-miterlimit="10" stroke-linecap="round"/>
<path d="M-4.23131 53.881C-4.23131 53.881 -4.53784 57.4786 -1.37193 58.9118C-1.37193 58.9118 -0.487451 59.2628 0.682506 58.5608" stroke="#D28402" stroke-opacity="0.42" stroke-width="0.5" stroke-miterlimit="10" stroke-linecap="round"/>
<path d="M-0.253967 50.8135C-0.253967 50.8135 -1.36543 50.2615 -2.30139 50.8135" stroke="#D28402" stroke-opacity="0.42" stroke-width="0.5" stroke-miterlimit="10" stroke-linecap="round"/>
<path d="M0.497428 49.2751C0.497428 49.2751 -1.11242 47.8881 -3.24408 47.8425" stroke="#D28402" stroke-opacity="0.42" stroke-width="0.5" stroke-miterlimit="10" stroke-linecap="round"/>
<path d="M14.9067 41.1739C14.6282 41.7079 14.2562 42.0174 13.9029 42.3827C12.9037 43.5854 13.3062 44.563 13.3904 44.9678C13.477 45.3698 13.7134 45.2575 14.0129 45.3397C14.2258 45.3991 14.4504 45.5621 14.3428 45.9798C14.2305 46.4186 13.9263 46.3524 13.9263 46.3524C14.3124 46.1511 14.1766 45.4457 13.8397 45.444C13.4302 45.4412 13.0348 45.404 12.9061 44.6038C12.8686 44.3635 12.8148 44.1308 12.7633 43.9279C12.5995 43.61 12.2954 43.1869 11.7572 42.9286C11.6355 42.8706 11.5045 42.8205 11.3594 42.7812C10.0818 42.4437 8.18413 40.4696 11.1605 38.4453C11.1675 38.4371 11.1792 38.4303 11.1886 38.4233C11.2728 38.3674 11.3571 38.315 11.439 38.2673C11.6963 38.1145 11.942 38.0056 12.176 37.9329C14.4879 37.2042 15.4378 40.1509 14.9067 41.1739Z" stroke="#D28402" stroke-opacity="0.42" stroke-width="0.5" stroke-miterlimit="10" stroke-linecap="round"/>
<path d="M10.9593 38.1084C11.0552 38.2247 11.0903 38.3284 11.1324 38.4304C11.1418 38.4222 11.1535 38.4152 11.1628 38.4084C11.2471 38.3527 11.3571 38.3151 11.439 38.2673C10.5545 37.1685 11.095 34.855 9.55998 33.0545C9.33535 32.7919 9.26983 32.4302 9.36109 32.0979L9.42194 31.8714C9.42194 31.8714 9.80802 30.9198 10.5521 30.8056C11.2985 30.6876 11.3664 29.8488 10.8961 29.7051C10.5825 29.6054 10.4164 29.7545 9.87121 30.1406C9.23475 30.5873 9.39386 29.7681 9.39386 29.765C10.145 27.035 9.209 26.611 8.84398 26.9412C8.53745 27.2215 8.77612 27.4143 8.73167 27.8362C8.64041 28.6706 7.71849 28.253 7.71849 27.266C7.72317 22.9322 6.35665 23.9728 5.97057 25.0534C5.63596 25.9842 7.30899 26.9576 6.76379 27.4228C6.38004 27.7494 5.57511 26.498 5.38324 27.5758C5.12351 29.0296 8.13966 29.9333 8.07181 30.5508C8.00161 31.1669 6.04777 29.5341 5.85122 30.5154C5.64531 31.5473 6.92759 31.8354 8.43918 32.3881C10.4819 33.1343 10.2175 36.3671 10.9593 38.1084ZM10.9593 38.1084C10.9055 38.0755 11.0178 38.1492 10.9593 38.1084Z" stroke="#D28402" stroke-opacity="0.42" stroke-width="0.5" stroke-miterlimit="10" stroke-linecap="round"/>
<path d="M9.10632 34.2294C8.32946 34.4061 8.90041 35.7633 8.32713 35.5798C7.28821 35.248 7.78426 33.0171 6.99102 32.9427C6.20013 32.8683 6.97465 34.0441 6.21885 34.1003C5.46306 34.1567 4.79151 32.3294 3.88362 33.7776C3.30332 34.7016 4.3516 35.654 6.00826 35.9118C7.66258 36.1699 8.59153 36.812 8.18906 37.0876C7.9036 37.283 7.44262 36.5806 7.11504 37.0579C6.78979 37.5355 8.10482 37.2629 9.24904 37.3771C10.5992 37.5121 10.8846 38.5959 10.8846 38.5959L11.3035 38.3339C11.3035 38.3339 10.8776 37.7608 10.2037 37.4461C9.06886 36.7984 8.98463 36.3691 9.10396 36.15C9.75914 34.9415 9.88317 34.0523 9.10632 34.2294Z" stroke="#D28402" stroke-opacity="0.42" stroke-width="0.5" stroke-miterlimit="10" stroke-linecap="round"/>
<path d="M14.4597 40.1407C14.4597 40.1407 13.9145 40.0696 13.491 40.2949" stroke="#D28402" stroke-opacity="0.42" stroke-width="0.5" stroke-miterlimit="10" stroke-linecap="round"/>
<path d="M13.3224 41.5094C13.3224 41.5094 12.7842 41.6249 12.459 41.979" stroke="#D28402" stroke-opacity="0.42" stroke-width="0.5" stroke-miterlimit="10" stroke-linecap="round"/>
<path d="M10.4186 40.4097C10.4186 40.4097 10.8725 39.8712 11.275 39.7751" stroke="#D28402" stroke-opacity="0.42" stroke-width="0.5" stroke-miterlimit="10" stroke-linecap="round"/>
<path d="M12.178 39.7705C12.178 39.7705 12.8917 39.354 13.4111 39.3957" stroke="#D28402" stroke-opacity="0.42" stroke-width="0.5" stroke-miterlimit="10" stroke-linecap="round"/>
<path d="M12.171 38.696C12.171 38.696 12.8823 38.2795 13.4018 38.3212" stroke="#D28402" stroke-opacity="0.42" stroke-width="0.5" stroke-miterlimit="10" stroke-linecap="round"/>
<path d="M10.7342 41.8052C10.7342 41.8052 10.9307 41.4434 11.4292 41.1273" stroke="#D28402" stroke-opacity="0.42" stroke-width="0.5" stroke-miterlimit="10" stroke-linecap="round"/>
<path d="M-0.424724 62.2145C-0.424724 62.2145 -2.74592 63.673 -5.44384 63.0518C-8.82735 62.2724 -11.4878 60.0267 -11.3381 58.5743C-11.2796 57.9971 -10.8701 57.746 -10.4653 57.4912C-10.0558 57.2321 -9.76801 57.1823 -9.40065 57.2212C-7.61061 57.4105 -6.51319 59.701 -4.70444 60.7776C-2.4394 62.1254 -0.553433 61.6771 -0.263284 62.0131C-0.204786 62.0814 -0.25859 62.054 -0.424724 62.2145Z" stroke="#D28402" stroke-opacity="0.42" stroke-width="0.5" stroke-miterlimit="10" stroke-linecap="round"/>
<path d="M19.3455 14.6268C19.3455 14.6268 19.6404 17.3517 17.9018 19.5049C15.7163 22.2065 12.5341 23.6137 11.2939 22.843C10.8002 22.5367 10.7534 22.0577 10.7019 21.5836C10.6481 21.1021 10.73 20.8204 10.9265 20.5082C11.8812 18.9812 14.42 18.9983 16.1796 17.8433C18.3838 16.3984 18.8073 14.5061 19.2356 14.3938C19.3221 14.3709 19.2753 14.406 19.3455 14.6268Z" stroke="#D28402" stroke-opacity="0.42" stroke-width="0.5" stroke-miterlimit="10" stroke-linecap="round"/>
<path d="M10.9548 22.5191C10.9548 22.5191 10.426 22.1382 9.78248 22.4738C9.13901 22.8093 7.39578 22.858 7.28113 22.4459L7.42621 22.2634C7.42621 22.2634 8.18433 22.5648 9.14837 22.2781C10.1124 21.9917 10.447 22.0802 10.688 21.2942" stroke="#D28402" stroke-opacity="0.42" stroke-width="0.5" stroke-miterlimit="10" stroke-linecap="round"/>
<path d="M11.1162 21.4551C11.1162 21.4551 11.2753 20.4438 12.2558 20.0315" stroke="#D28402" stroke-opacity="0.42" stroke-width="0.5" stroke-miterlimit="10" stroke-linecap="round"/>
<path d="M13.9824 21.8936C13.9824 21.8936 17.2489 20.411 18.3838 17.8624" stroke="#D28402" stroke-opacity="0.42" stroke-width="0.5" stroke-miterlimit="10" stroke-linecap="round"/>
<path d="M18.6273 17.1995C18.6273 17.1995 19.0274 16.1956 19.0555 15.174" stroke="#D28402" stroke-opacity="0.42" stroke-width="0.5" stroke-miterlimit="10" stroke-linecap="round"/>
<path d="M-3.21824 30.3938C-3.21824 30.3938 -7.91678 30.3517 -8.15545 35.6235C-8.39413 40.8951 -0.8713 40.2242 0.471811 41.4222C0.974892 41.8715 1.46393 41.9541 1.88277 41.8537C2.57773 41.6862 3.07612 41.009 3.10654 40.6704C3.15334 40.1283 3.29842 39.1195 1.81258 37.0361C0.326731 34.9524 0.567742 30.8192 -3.21824 30.3938Z" stroke="#D28402" stroke-opacity="0.42" stroke-width="0.5" stroke-miterlimit="10" stroke-linecap="round"/>
<path d="M1.88318 41.8536C1.88318 41.8536 3.01101 42.9078 3.52345 43.8663C3.52345 43.8663 2.91508 45.0804 3.93762 45.3677C4.96016 45.6556 4.96016 44.4414 4.96016 44.4414C4.96016 44.4414 6.20031 44.8532 6.30093 44.026C6.44601 42.8598 5.10289 43.0674 5.10289 43.0674L3.13503 40.895C3.13503 40.895 3.06484 41.4065 1.88318 41.8536Z" stroke="#D28402" stroke-opacity="0.42" stroke-width="0.5" stroke-miterlimit="10" stroke-linecap="round"/>
<path d="M-3.77771 39.1736C-3.77771 39.1736 -2.72473 39.665 -0.904278 39.9844C0.918515 40.304 1.01445 41.0537 1.01445 41.0537" stroke="#D28402" stroke-opacity="0.42" stroke-width="0.5" stroke-miterlimit="10" stroke-linecap="round"/>
<path d="M15.7208 0.765721C15.7208 0.765721 16.4532 2.57588 15.0258 4.03739C13.6008 5.4989 10.9286 8.02998 13.8161 10.92C16.7036 13.8105 21.2126 12.6625 22.42 10.4328C24.1562 7.2281 22.537 4.52269 18.1543 3.19525C18.1543 3.19525 16.521 2.2511 16.8533 0.686869C16.8533 0.686869 16.2917 0.88693 16.2777 1.52175C16.2613 2.15633 15.7208 0.765721 15.7208 0.765721Z" stroke="#D28402" stroke-opacity="0.42" stroke-width="0.5" stroke-miterlimit="10" stroke-linecap="round"/>
<path d="M16.2776 1.52213C16.2776 1.52213 16.7971 2.54912 16.0741 3.98068C15.3534 5.41224 13.9588 6.91634 14.1132 8.72532C14.2677 10.5341 14.9673 11.9462 17.1855 12.5918" stroke="#D28402" stroke-opacity="0.42" stroke-width="0.5" stroke-miterlimit="10" stroke-linecap="round"/>
<path d="M20.8993 11.8979C21.9944 11.0329 22.928 9.17032 21.2924 6.73072C19.6568 4.29113 17.703 4.11259 17.0385 2.95901C16.3763 1.80567 16.8536 0.687194 16.8536 0.687194C16.8536 0.687194 17.4526 -2.51475 18.1499 -3.26375C18.1499 -3.26375 16.9261 -3.32365 16.6009 -0.900908C16.6009 -0.900908 16.877 -5.44689 15.0753 -6.39666L15.8849 1.15307" stroke="#D28402" stroke-opacity="0.42" stroke-width="0.5" stroke-miterlimit="10" stroke-linecap="round"/>
<path d="M19.8161 12.3645C19.8161 12.3645 20.7052 9.80534 19.1422 7.23144C17.5767 4.65753 16.222 2.15804 16.4536 1.07091" stroke="#D28402" stroke-opacity="0.42" stroke-width="0.5" stroke-miterlimit="10" stroke-linecap="round"/>
<path d="M18.4467 12.5457C18.4467 12.5457 16.5818 10.9047 16.5841 8.21424C16.5864 5.52405 16.9164 4.48817 16.6637 3.74641" stroke="#D28402" stroke-opacity="0.42" stroke-width="0.5" stroke-miterlimit="10" stroke-linecap="round"/>
<path d="M17.3926 63.6731C13.2064 64.1284 9.37307 61.3858 8.71172 57.3637C8.04807 53.342 10.797 49.5143 14.9061 48.6018L17.3926 63.6731Z" stroke="#D28402" stroke-opacity="0.42" stroke-width="0.5" stroke-miterlimit="10" stroke-linecap="round"/>
<path d="M17.2683 62.9254C13.8107 62.8907 10.8 60.4964 10.2427 57.1116C9.68304 53.727 11.7654 50.4929 15.0308 49.3499L17.2683 62.9254Z" stroke="#D28402" stroke-opacity="0.42" stroke-width="0.5" stroke-miterlimit="10" stroke-linecap="round"/>
<path d="M17.1858 62.4196C14.1147 62.3425 11.4358 60.1069 10.9196 56.9739C10.4015 53.8435 12.2222 50.8658 15.1055 49.8071L17.1858 62.4196Z" stroke="#D28402" stroke-opacity="0.42" stroke-width="0.5" stroke-miterlimit="10" stroke-linecap="round"/>
<path d="M14.1797 52.5309C13.9812 52.5636 13.8083 52.5067 13.7915 52.404C13.7747 52.3009 13.9204 52.1913 14.119 52.1587C14.3152 52.1264 14.4904 52.1829 14.5072 52.2859C14.524 52.3887 14.3783 52.498 14.1797 52.5309Z" stroke="#D28402" stroke-opacity="0.42" stroke-width="0.5" stroke-miterlimit="10" stroke-linecap="round"/>
<path d="M12.5117 57.2433C12.3131 57.2759 12.1402 57.2188 12.1234 57.116C12.1067 57.0133 12.2523 56.9036 12.4509 56.8708C12.6472 56.8387 12.8224 56.8952 12.8391 56.9981C12.8559 57.101 12.7102 57.2103 12.5117 57.2433Z" stroke="#D28402" stroke-opacity="0.42" stroke-width="0.5" stroke-miterlimit="10" stroke-linecap="round"/>
<path d="M15.9544 61.0631C15.7558 61.0957 15.5829 61.0389 15.5662 60.9361C15.5493 60.8331 15.695 60.7235 15.8936 60.6909C16.0899 60.6586 16.2651 60.7151 16.2819 60.8181C16.2987 60.9209 16.1506 61.0307 15.9544 61.0631Z" stroke="#D28402" stroke-opacity="0.42" stroke-width="0.5" stroke-miterlimit="10" stroke-linecap="round"/>
<path d="M14.8714 56.8409C14.7009 56.9438 14.5179 56.9555 14.4653 56.8659C14.4105 56.7769 14.5059 56.6208 14.6787 56.5172C14.8492 56.4142 15.0322 56.4025 15.087 56.4917C15.1396 56.5811 15.0441 56.7373 14.8714 56.8409Z" stroke="#D28402" stroke-opacity="0.42" stroke-width="0.5" stroke-miterlimit="10" stroke-linecap="round"/>
<path d="M13.3217 54.567C13.1401 54.4861 13.0244 54.3436 13.0658 54.2484C13.1094 54.1528 13.2924 54.1407 13.474 54.2218C13.6579 54.3025 13.7736 54.4449 13.7299 54.5404C13.6885 54.6356 13.5055 54.6474 13.3217 54.567Z" stroke="#D28402" stroke-opacity="0.42" stroke-width="0.5" stroke-miterlimit="10" stroke-linecap="round"/>
<path d="M14.4026 59.2835C14.2652 59.4292 14.0924 59.4894 14.0168 59.4181C13.9411 59.3465 13.9906 59.1703 14.128 59.0248C14.2654 58.8788 14.4381 58.8187 14.5138 58.8902C14.5895 58.9618 14.54 59.1378 14.4026 59.2835Z" stroke="#D28402" stroke-opacity="0.42" stroke-width="0.5" stroke-miterlimit="10" stroke-linecap="round"/>
<path d="M12.0355 50.0263C12.0355 50.0263 12.7506 50.6306 12.684 50.6872C12.6174 50.7437 11.875 51.4826 11.875 51.4826L10.8956 50.9294" stroke="#D28402" stroke-opacity="0.42" stroke-width="0.5" stroke-miterlimit="10" stroke-linecap="round"/>
<path d="M8.8595 54.2737C8.8595 54.2737 10.3252 54.4799 10.2979 54.6176C10.2705 54.7552 10.1542 55.8291 10.1542 55.8291L8.62667 55.7086" stroke="#D28402" stroke-opacity="0.42" stroke-width="0.5" stroke-miterlimit="10" stroke-linecap="round"/>
<path d="M10.0161 60.4897C10.0161 60.4897 11.0911 59.4645 11.2196 59.6561C11.348 59.8473 11.8598 60.4993 11.8598 60.4993L10.9663 61.5031" stroke="#D28402" stroke-opacity="0.42" stroke-width="0.5" stroke-miterlimit="10" stroke-linecap="round"/>
<path d="M-8.32849 4.03589C-8.32849 4.03589 -4.41381 8.10757 0.525751 7.7594C0.525751 7.7594 -3.80544 3.36995 -8.32849 4.03589Z" stroke="#D28402" stroke-opacity="0.42" stroke-width="0.5" stroke-miterlimit="10" stroke-linecap="round"/>
<path d="M2.87035 14.7071C2.87035 14.7071 1.84078 17.4242 -2.04114 18.0829C-5.9254 18.7413 -8.43378 20.2618 -7.99153 23.3601C-7.55163 26.4579 -3.51059 29.6439 1.35409 25.905C6.21877 22.1663 7.16877 16.542 6.95818 15.6241C6.92542 15.4807 6.87394 15.3407 6.80609 15.2067" stroke="#D28402" stroke-opacity="0.42" stroke-width="0.5" stroke-miterlimit="10" stroke-linecap="round"/>
<path d="M5.51655 13.7032C5.51655 13.7032 4.00264 12.8737 3.03859 13.487C2.07455 14.1 1.90607 14.0699 1.90607 14.0699C1.90607 14.0699 2.24536 14.4286 2.64081 14.4702" stroke="#D28402" stroke-opacity="0.42" stroke-width="0.5" stroke-miterlimit="10" stroke-linecap="round"/>
<path d="M5.59375 13.5501C5.59375 13.5501 6.09217 12.8072 5.72948 12.4564C5.36914 12.1054 6.68416 12.4541 6.60928 12.536C6.5344 12.6176 6.33082 13.8901 5.88624 13.8622C5.88624 13.8622 7.09832 13.7242 7.38847 15.0502C7.67862 16.3765 7.44696 17.4788 8.10916 17.8403" stroke="#D28402" stroke-opacity="0.42" stroke-width="0.5" stroke-miterlimit="10" stroke-linecap="round"/>
<path d="M-6.77258 24.0966C-6.77258 24.0966 -6.43562 26.1169 -3.74004 26.6813C-1.04212 27.2459 1.54115 24.9013 1.54115 24.9013" stroke="#D28402" stroke-opacity="0.42" stroke-width="0.5" stroke-miterlimit="10" stroke-linecap="round"/>
<path d="M2.13098 24.178C2.13098 24.178 4.91081 21.3338 5.58471 19.1191" stroke="#D28402" stroke-opacity="0.42" stroke-width="0.5" stroke-miterlimit="10" stroke-linecap="round"/>
<path d="M5.23396 14.0168C5.23396 14.0168 3.75279 14.9306 4.26991 16.1609C4.26991 16.1609 5.65514 16.0989 6.07633 15.2142C6.07633 15.2142 5.91955 15.6129 6.14184 15.959C6.14184 15.959 6.76661 16.0533 6.75959 15.3328" stroke="#D28402" stroke-opacity="0.42" stroke-width="0.5" stroke-miterlimit="10" stroke-linecap="round"/>
<path d="M2.9754 14.4912C2.9754 14.4912 3.76394 14.7063 4.3302 14.3462" stroke="#D28402" stroke-opacity="0.42" stroke-width="0.5" stroke-miterlimit="10" stroke-linecap="round"/>
<path d="M8.18624 -4.3849C8.18624 -4.3849 10.126 -3.90031 10.1284 -2.11636C10.1307 -0.332173 9.65569 0.365589 10.5121 2.44647C11.7991 5.57634 10.4817 9.14471 5.86036 9.02772C1.23903 8.91072 -0.569731 4.86571 0.918454 1.91999C2.29198 -0.800155 4.07266 -0.326789 5.21688 -2.00895C6.36344 -3.69112 7.0701 -4.60251 8.18624 -4.3849Z" stroke="#D28402" stroke-opacity="0.42" stroke-width="0.5" stroke-miterlimit="10" stroke-linecap="round"/>
<path d="M9.19521 7.12639C9.19521 7.12639 7.99717 8.85208 4.77979 8.35485" stroke="#D28402" stroke-opacity="0.42" stroke-width="0.5" stroke-miterlimit="10" stroke-linecap="round"/>
<path d="M3.14153 7.448C3.14153 7.448 1.29768 6.59978 1.3866 4.05489" stroke="#D28402" stroke-opacity="0.42" stroke-width="0.5" stroke-miterlimit="10" stroke-linecap="round"/>
<path d="M5.17255 -0.800319C5.17255 -0.800319 4.42611 -0.215341 3.53461 0.0771484" stroke="#D28402" stroke-opacity="0.42" stroke-width="0.5" stroke-miterlimit="10" stroke-linecap="round"/>
<path d="M36.3354 27.257C35.472 28.6726 35.7457 31.2278 34.5477 33.7758C33.3497 36.3218 29.3274 37.7326 26.7254 33.5605C26.2434 32.7907 25.9907 32.0793 25.9111 31.4291C25.5601 28.565 28.3657 26.6856 29.9451 26.0395C31.817 25.2744 32.7413 24.5102 32.7413 24.5102C33.7311 23.4855 34.9174 23.6411 35.6919 24.173C36.5577 24.7662 37.0561 26.0728 36.3354 27.257ZM36.9672 25.2538C36.78 24.608 36.3237 24.1494 35.8183 23.815C34.9385 23.2316 33.7872 23.1341 32.519 24.148C32.5096 24.1573 31.5526 24.9536 29.8679 25.6495C28.0732 26.3905 26.2597 27.502 25.7613 29.5826C25.4384 30.9318 25.4852 32.2855 26.4048 33.7596C27.0951 34.8662 27.9187 35.662 28.8547 36.125C28.857 36.125 28.857 36.125 28.857 36.125C29.91 36.6471 31.0987 36.7243 32.2031 36.338C33.3661 35.9311 34.3699 35.0323 34.887 33.9351C35.5398 32.5473 35.7668 31.1808 35.9657 29.976C36.1365 28.9485 36.2839 28.0617 36.656 27.4535C37.0631 26.7841 37.1778 25.9838 36.9672 25.2538Z" stroke="#D28402" stroke-opacity="0.42" stroke-width="0.5" stroke-miterlimit="10"/>
<path d="M31.719 18.4226C29.8751 18.1367 30.17 17.587 28.1763 17.4843C26.0891 17.3776 24.7414 15.2909 24.6946 13.0291C24.6735 12.0847 24.8818 11.108 25.3568 10.2336C25.4387 10.081 25.5229 9.94018 25.6095 9.81266C25.6375 9.7703 25.6656 9.73006 25.6937 9.69051C25.8083 9.53023 25.9254 9.39053 26.04 9.27167C27.5001 7.77085 29.0983 9.26161 29.8541 9.50192C30.3174 9.68677 30.556 9.64723 30.8438 9.50332C31.1106 9.4123 31.2791 9.27424 31.3118 9.24452C31.3142 9.24195 31.3165 9.24055 31.3188 9.23938C31.4943 9.11349 31.7798 8.9979 32.1191 8.93916C32.1682 8.93051 32.2197 8.92255 32.2712 8.91694C33.4575 8.76835 35.2172 9.27869 35.8442 12.0049C36.6866 15.6706 33.4692 18.6952 31.719 18.4226Z" stroke="#D28402" stroke-opacity="0.42" stroke-width="0.5" stroke-miterlimit="10" stroke-linecap="round"/>
<path d="M25.7846 11.0718C25.7846 11.0718 26.1941 9.37534 27.1886 9.19985C28.183 9.02435 28.768 9.5836 28.768 9.5836" stroke="#D28402" stroke-opacity="0.42" stroke-width="0.5" stroke-miterlimit="10" stroke-linecap="round"/>
<path d="M15.6181 35.1359C15.6181 35.1359 14.8132 34.5938 15.08 33.7404C15.576 32.154 17.5041 30.984 17.1555 30.3506C16.9004 29.8885 16.5588 30.1463 16.3809 30.597C16.2031 31.0476 16.0089 31.448 15.073 30.9185C14.3195 30.4938 13.91 29.4858 14.743 28.3071C15.5854 27.1114 17.4409 26.2665 20.2067 27.5563C22.9701 28.846 22.5958 31.6677 22.0599 32.4315C21.5264 33.1952 20.7332 33.6382 19.9727 33.0642C19.2146 32.49 20.0382 32.0349 19.9166 31.6768C19.7972 31.3188 19.128 31.0315 18.9876 31.8856C18.8917 32.4659 18.9736 35.0744 17.6305 35.603C16.6805 35.9767 15.6181 35.1359 15.6181 35.1359Z" stroke="#D28402" stroke-opacity="0.42" stroke-width="0.5" stroke-miterlimit="10" stroke-linecap="round"/>
<path d="M16.3806 30.597C16.3806 30.597 16.8322 30.3296 16.9305 30.6399C17.0311 30.9501 16.8884 31.1511 16.8884 31.1511" stroke="#D28402" stroke-opacity="0.42" stroke-width="0.5" stroke-miterlimit="10" stroke-linecap="round"/>
<path d="M18.9872 31.8856C18.9872 31.8856 19.2025 31.5056 19.5347 31.7382C19.867 31.9708 19.6634 32.4119 19.6634 32.4119" stroke="#D28402" stroke-opacity="0.42" stroke-width="0.5" stroke-miterlimit="10" stroke-linecap="round"/>
<path d="M20.5901 28.077C20.5901 28.077 22.1438 29.0832 22.0128 30.8721" stroke="#D28402" stroke-opacity="0.42" stroke-width="0.5" stroke-miterlimit="10" stroke-linecap="round"/>
<path d="M27.5771 1.89577C26.1989 2.90194 25.78 2.57575 25.78 2.57575C25.78 2.57575 25.7801 2.57575 25.7192 0.834856C25.6818 -0.26467 24.8979 -1.31084 24.327 -1.93092C24.5539 -2.13192 24.7294 -2.38463 24.8394 -2.66776C25.5624 -1.8654 26.0655 -0.821803 26.1076 -0.732652C25.8456 -2.04792 25.869 -3.00938 25.9953 -3.69521C26.0772 -3.73944 26.1544 -3.78647 26.227 -3.84029C26.351 -3.56652 26.5265 -3.32317 26.7394 -3.1217C26.8845 -2.98154 27.0483 -2.86197 27.2261 -2.76603C27.528 -2.5999 27.8649 -2.50162 28.2206 -2.48548C27.1348 -0.29064 27.5771 1.89577 27.5771 1.89577Z" stroke="#D28402" stroke-opacity="0.42" stroke-width="0.5" stroke-miterlimit="10"/>
<path d="M17.705 41.7354C17.705 41.7354 17.595 47.3511 22.1953 49.2231C26.7979 51.095 32.2569 46.5712 31.9059 42.4373C31.5549 38.3036 17.1387 38.5593 17.705 41.7354Z" stroke="#D28402" stroke-opacity="0.42" stroke-width="0.5" stroke-miterlimit="10" stroke-linecap="round"/>
<path d="M17.9649 41.9501C17.9649 41.9501 18.3159 42.9251 21.5333 43.4125C24.7507 43.9 30.4062 44.056 31.3211 42.6813" stroke="#D28402" stroke-opacity="0.42" stroke-width="0.5" stroke-miterlimit="10" stroke-linecap="round"/>
<path d="M30.3359 43.0222C30.3359 42.4299 29.903 41.9498 29.3672 41.9498C29.1706 41.9498 28.9881 42.0158 28.8337 42.1278C28.719 40.9357 27.6099 40 26.2551 40C25.9673 40 25.6912 40.0437 25.4314 40.1216C25.153 39.9267 24.7599 39.8048 24.3246 39.8048C23.6788 39.8048 23.1243 40.0741 22.8996 40.4548C22.7897 40.2319 22.5697 40.0779 22.3123 40.0779C22.0619 40.0779 21.849 40.2241 21.7367 40.4375C21.6244 40.3362 21.4793 40.2728 21.3202 40.2728C20.9669 40.2728 20.6814 40.5718 20.6814 40.9406C20.6814 40.9415 20.6814 40.9424 20.6814 40.9434C19.8156 41.0168 19.1394 41.618 19.1394 42.3489" stroke="#D28402" stroke-opacity="0.42" stroke-width="0.5" stroke-miterlimit="10" stroke-linecap="round"/>
<path d="M20.9182 42.0374C20.9182 42.0374 21.1522 41.2867 22.0882 41.4133C23.0241 41.5401 23.0405 41.8619 23.0405 41.8619" stroke="#D28402" stroke-opacity="0.42" stroke-width="0.5" stroke-miterlimit="10" stroke-linecap="round"/>
<path d="M22.5558 40.9697C22.5558 40.9697 22.6307 40.5457 23.1993 40.6627" stroke="#D28402" stroke-opacity="0.42" stroke-width="0.5" stroke-miterlimit="10" stroke-linecap="round"/>
<path d="M24.3858 41.3989C24.3858 41.3989 24.8234 40.6862 25.8319 40.806C26.8427 40.926 26.6953 41.9497 26.6953 41.9497" stroke="#D28402" stroke-opacity="0.42" stroke-width="0.5" stroke-miterlimit="10" stroke-linecap="round"/>
<path d="M27.1938 42.3446C27.1938 42.3446 27.6313 42.0961 27.9379 42.5493" stroke="#D28402" stroke-opacity="0.42" stroke-width="0.5" stroke-miterlimit="10" stroke-linecap="round"/>
<path d="M28.0966 48.7413C28.2066 48.8731 28.2651 49.0134 28.2651 49.1584C28.2651 49.9449 26.5289 50.582 24.3855 50.582C22.2422 50.582 20.5036 49.9449 20.5036 49.1584C20.5036 48.9621 20.6136 48.7749 20.8101 48.6046" stroke="#D28402" stroke-opacity="0.42" stroke-width="0.5" stroke-miterlimit="10" stroke-linecap="round"/>
<path d="M20.2037 55.8012L20.962 56.3267C20.962 56.3267 20.7712 59.9037 23.0358 62.6498C25.2982 65.3966 31.8783 64.2629 33.6694 62.3499C33.6694 62.3499 33.5923 61.3966 32.8318 61.581C32.0736 61.7648 26.9823 62.6107 24.9146 59.9942C22.8448 57.3786 21.7585 56.091 21.7585 56.091C21.7585 56.091 21.1242 54.9122 20.7993 55.0927C20.4724 55.2744 20.2037 55.8012 20.2037 55.8012Z" stroke="#D28402" stroke-opacity="0.42" stroke-width="0.5" stroke-miterlimit="10" stroke-linecap="round"/>
<path d="M28.5633 61.7615L29.0232 61.6253C31.9706 60.3212 32.0099 58.9366 31.8893 58.8096C31.771 58.6821 28.0009 59.9603 26.6853 59.2252C25.3696 58.4899 22.0324 55.7888 22.0324 55.7888C22.0324 55.7888 21.2926 54.0149 21.1779 54.1303C21.0632 54.2455 20.799 55.0928 20.799 55.0928" stroke="#D28402" stroke-opacity="0.42" stroke-width="0.5" stroke-miterlimit="10" stroke-linecap="round"/>
<path d="M20.2039 55.8015C20.2039 55.8015 20.148 54.9283 20.2983 54.7188C20.4508 54.5083 21.1784 54.1305 21.1784 54.1305" stroke="#D28402" stroke-opacity="0.42" stroke-width="0.5" stroke-miterlimit="10" stroke-linecap="round"/>
<path d="M21.8934 57.8675C21.8934 57.8675 23.6446 61.575 25.1378 62.0277C26.631 62.4806 29.6171 63.2035 33.2264 61.5963" stroke="#D28402" stroke-opacity="0.42" stroke-width="0.5" stroke-miterlimit="10" stroke-linecap="round"/>
<path d="M27.3311 60.3683C27.3311 60.3683 29.9161 60.2475 31.8893 58.8095" stroke="#D28402" stroke-opacity="0.42" stroke-width="0.5" stroke-miterlimit="10" stroke-linecap="round"/>
</g>
</svg>
