<svg width="28" height="28" viewBox="0 0 28 28" fill="none" xmlns="http://www.w3.org/2000/svg">
<path d="M26.0183 10.3754C25.9307 10.0974 25.762 9.852 25.5339 9.67069C25.3057 9.48938 25.0286 9.38048 24.738 9.35798L18.4366 8.81325C18.3985 8.80951 18.3621 8.79551 18.3313 8.77274C18.3005 8.74998 18.2765 8.7193 18.2617 8.68396L15.7998 2.817C15.6858 2.54936 15.4956 2.32114 15.2529 2.16073C15.0102 2.00032 14.7257 1.91479 14.4348 1.91479C14.1439 1.91479 13.8594 2.00032 13.6167 2.16073C13.374 2.32114 13.1838 2.54936 13.0698 2.817L10.608 8.68396C10.5932 8.7193 10.5692 8.74998 10.5384 8.77274C10.5076 8.79551 10.4712 8.80951 10.4331 8.81325L4.13162 9.35798C3.84107 9.38048 3.5639 9.48938 3.33576 9.67069C3.10761 9.852 2.93893 10.0974 2.8514 10.3754C2.7587 10.6537 2.75061 10.9533 2.82813 11.2363C2.90566 11.5192 3.06534 11.7728 3.28697 11.965L8.06765 16.1353C8.09693 16.1613 8.11867 16.1947 8.1306 16.232C8.14253 16.2693 8.14422 16.3091 8.13548 16.3472L6.69841 22.548C6.63142 22.8335 6.65054 23.1325 6.75333 23.4071C6.85613 23.6817 7.03801 23.9197 7.27599 24.0911C7.51029 24.2639 7.79102 24.3626 8.08195 24.3743C8.37287 24.386 8.66063 24.3103 8.90806 24.1568L14.3246 20.8715C14.3564 20.8518 14.3931 20.8413 14.4306 20.8413C14.468 20.8413 14.5047 20.8518 14.5366 20.8715L19.9531 24.1568C20.2031 24.3098 20.4929 24.3854 20.7858 24.374C21.0787 24.3625 21.3616 24.2646 21.5989 24.0925C21.8362 23.9204 22.0172 23.6818 22.1191 23.407C22.2209 23.1321 22.2391 22.8332 22.1712 22.548L20.7384 16.3451C20.7297 16.307 20.7314 16.2671 20.7433 16.2299C20.7552 16.1926 20.777 16.1592 20.8062 16.1332L25.5869 11.9629C25.8074 11.7704 25.966 11.5169 26.0428 11.2344C26.1195 10.9519 26.111 10.653 26.0183 10.3754ZM24.7465 11.0028L19.9658 15.173C19.7621 15.3503 19.6107 15.5797 19.5277 15.8367C19.4448 16.0937 19.4336 16.3684 19.4953 16.6313L20.9281 22.8342C20.9387 22.8759 20.9364 22.9198 20.9214 22.9601C20.9065 23.0004 20.8796 23.0352 20.8444 23.0599C20.8125 23.0854 20.7733 23.1001 20.7326 23.1018C20.6918 23.1035 20.6515 23.0922 20.6176 23.0694L15.201 19.7841C14.9701 19.6438 14.7051 19.5695 14.4348 19.5695C14.1646 19.5695 13.8995 19.6438 13.6686 19.7841L8.25205 23.0694C8.21816 23.0922 8.17788 23.1035 8.13709 23.1018C8.09631 23.1001 8.05713 23.0854 8.02526 23.0599C7.99005 23.0352 7.96319 23.0004 7.94824 22.9601C7.93328 22.9198 7.93095 22.8759 7.94154 22.8342L9.37436 16.6313C9.43605 16.3684 9.42483 16.0937 9.34191 15.8367C9.259 15.5797 9.10752 15.3503 8.90382 15.173L4.12314 11.0028C4.09045 10.975 4.06696 10.9379 4.0558 10.8964C4.04463 10.855 4.04631 10.8111 4.06061 10.7707C4.07132 10.7304 4.09452 10.6945 4.12689 10.6682C4.15927 10.6419 4.19914 10.6266 4.24078 10.6244L10.5433 10.0797C10.8131 10.0567 11.0715 9.96031 11.2904 9.80096C11.5094 9.64161 11.6805 9.42538 11.7854 9.1757L14.2472 3.30874C14.2644 3.27233 14.2915 3.24154 14.3255 3.21997C14.3594 3.19841 14.3988 3.18695 14.4391 3.18695C14.4793 3.18695 14.5187 3.19841 14.5527 3.21997C14.5866 3.24154 14.6138 3.27233 14.6309 3.30874L17.0843 9.1757C17.1888 9.42478 17.3593 9.64061 17.5774 9.79992C17.7956 9.95923 18.053 10.056 18.3221 10.0797L24.6246 10.6244C24.6663 10.6266 24.7061 10.6419 24.7385 10.6682C24.7709 10.6945 24.7941 10.7304 24.8048 10.7707C24.8196 10.8107 24.8219 10.8543 24.8115 10.8957C24.8011 10.9371 24.7785 10.9745 24.7465 11.0028Z" fill="#D0CFCF"/>
</svg>
