<svg width="28" height="28" viewBox="0 0 28 28" fill="none" xmlns="http://www.w3.org/2000/svg">
<path d="M25.366 10.3754C25.2785 10.0974 25.1098 9.852 24.8817 9.67069C24.6535 9.48938 24.3764 9.38048 24.0858 9.35798L17.7843 8.81325C17.7462 8.80951 17.7099 8.79551 17.6791 8.77274C17.6483 8.74998 17.6242 8.7193 17.6095 8.68396L15.1476 2.817C15.0336 2.54936 14.8434 2.32114 14.6007 2.16073C14.358 2.00032 14.0735 1.91479 13.7826 1.91479C13.4917 1.91479 13.2072 2.00032 12.9645 2.16073C12.7218 2.32114 12.5316 2.54936 12.4176 2.817L9.95573 8.68396C9.94098 8.7193 9.91693 8.74998 9.88614 8.77274C9.85535 8.79551 9.81897 8.80951 9.78086 8.81325L3.4794 9.35798C3.18885 9.38048 2.91168 9.48938 2.68354 9.67069C2.45539 9.852 2.28671 10.0974 2.19918 10.3754C2.10648 10.6537 2.09838 10.9533 2.17591 11.2363C2.25344 11.5192 2.41311 11.7728 2.63475 11.965L7.41543 16.1353C7.4447 16.1613 7.46644 16.1947 7.47838 16.232C7.49031 16.2693 7.492 16.3091 7.48326 16.3472L6.04619 22.548C5.9792 22.8335 5.99831 23.1325 6.10111 23.4071C6.20391 23.6817 6.38579 23.9197 6.62377 24.0911C6.85806 24.2639 7.1388 24.3626 7.42972 24.3743C7.72065 24.386 8.00841 24.3103 8.25584 24.1568L13.6724 20.8715C13.7042 20.8518 13.7409 20.8413 13.7784 20.8413C13.8158 20.8413 13.8525 20.8518 13.8843 20.8715L19.3009 24.1568C19.5509 24.3098 19.8406 24.3854 20.1335 24.374C20.4265 24.3625 20.7094 24.2646 20.9467 24.0925C21.184 23.9204 21.365 23.6818 21.4668 23.407C21.5687 23.1321 21.5869 22.8332 21.519 22.548L20.0862 16.3451C20.0775 16.307 20.0791 16.2672 20.0911 16.2299C20.103 16.1926 20.1247 16.1592 20.154 16.1332L24.9347 11.9629C25.1552 11.7704 25.3138 11.5169 25.3905 11.2344C25.4673 10.9519 25.4588 10.653 25.366 10.3754Z" fill="#FFCB74"/>
</svg>
