<svg width="663" height="534" viewBox="0 0 663 534" fill="none" xmlns="http://www.w3.org/2000/svg">
<g id="FingerprintScannner">
<rect id="Rectangle 6" x="426.404" y="31.5" width="183.821" height="9" fill="#BDBDBD"/>
<rect id="Rectangle 6_2" x="426.404" y="70.5" width="183.821" height="9" fill="#BDBDBD"/>
<rect id="Rectangle 6_3" x="426.404" y="109.5" width="183.821" height="9" fill="#BDBDBD"/>
<rect id="Rectangle 5" width="656.934" height="534" fill="#4F4F4F"/>
<g id="Ellipse" style="mix-blend-mode:color-dodge">
<ellipse cx="219.983" cy="276" rx="174.781" ry="174" fill="#F2F2F2"/>
</g>
<ellipse id="Ellipse 2" cx="518.314" cy="297" rx="96.4306" ry="96" fill="#828282"/>
<ellipse id="Ellipse 3" cx="521.327" cy="321" rx="72.323" ry="72" fill="#4F4F4F"/>
<rect id="Rectangle 7" x="491.194" y="282" width="60.2692" height="78" fill="#BDBDBD"/>
<g id="Vector 3" filter="url(#filter0_d_1_2885)">
<path d="M549.997 343.001C551.013 307.273 534.436 297.633 524.382 301.001C503.891 295.001 499.772 326.501 500.275 343.001V449.372V534H549.997H663.001V524.501C660.49 521.001 655.468 511.901 655.468 503.501C655.468 495.101 637.387 492.501 628.347 492.251V481.001C625.936 467.801 603.234 470.501 592.185 473.501V467.501C592.185 448.301 564.059 449.501 549.997 452.501V388.001V376.001C549.997 372.401 548.981 378.73 549.997 343.001Z" fill="#FAC597"/>
</g>
<path id="Vector 4" d="M530.981 306H514.407C508.381 313.2 508.883 329 509.887 336H535.502C539.118 328.8 533.995 313 530.981 306Z" fill="#FBE9B1"/>
<path id="Vector 5" d="M509.449 369H538.077" stroke="#D8BA62"/>
<path id="Vector 6" d="M516.984 375H529.038" stroke="#D8BA62"/>
<path id="Vector 7" d="M509.449 427.5H539.584" stroke="#D8BA62"/>
<path id="Vector 8" d="M515.476 435H536.57" stroke="#D8BA62"/>
<path id="Vector 9" d="M441.472 487.5C455.937 487.5 481.652 518.5 492.701 534H427.911L421.885 523.5L411.337 504C405.311 482.4 428.916 484 441.472 487.5Z" fill="#FAC597"/>
</g>
<defs>
<filter id="filter0_d_1_2885" x="473.235" y="273.252" width="189.765" height="260.748" filterUnits="userSpaceOnUse" color-interpolation-filters="sRGB">
<feFlood flood-opacity="0" result="BackgroundImageFix"/>
<feColorMatrix in="SourceAlpha" type="matrix" values="0 0 0 0 0 0 0 0 0 0 0 0 0 0 0 0 0 0 127 0" result="hardAlpha"/>
<feOffset dx="-5" dy="-5"/>
<feGaussianBlur stdDeviation="2"/>
<feColorMatrix type="matrix" values="0 0 0 0 0 0 0 0 0 0 0 0 0 0 0 0 0 0 0.25 0"/>
<feBlend mode="normal" in2="BackgroundImageFix" result="effect1_dropShadow_1_2885"/>
<feBlend mode="normal" in="SourceGraphic" in2="effect1_dropShadow_1_2885" result="shape"/>
</filter>
</defs>
</svg>
