<svg width="227" height="228" viewBox="0 0 227 228" fill="none" xmlns="http://www.w3.org/2000/svg">
<path d="M80.8999 168.516C80.8999 155.362 88.6833 95.9752 92.575 67.926L207.458 71.3113C213.809 77.5014 218.51 138.694 220.067 168.516H80.8999Z" fill="#F6C395"/>
<g filter="url(#filter0_d)">
<ellipse cx="151.417" cy="118.221" rx="9.80706" ry="10.6394" fill="#EBAE77"/>
</g>
<ellipse cx="125.499" cy="98.8769" rx="8.40605" ry="8.70493" fill="black"/>
<ellipse cx="175.701" cy="98.8769" rx="8.40605" ry="8.70493" fill="black"/>
<path d="M109.387 143.369L137.407 131.762H142.077V135.147L109.387 143.369Z" fill="#4D2400"/>
<path d="M192.047 143.369L164.026 131.762H159.356V135.147L192.047 143.369Z" fill="#4D2400"/>
<path d="M63.6208 228L79.0319 168.516H221.468L234.077 228H63.6208Z" fill="#56CCF2"/>
<path d="M75.2959 184.959L39.8037 159.328L11.3165 184.959L44.0067 228H64.0878L75.2959 184.959Z" fill="#56CCF2"/>
<path d="M141.801 148.874H160.145" stroke="#8F4D11"/>
<path d="M35.0716 127.085C35.7458 136.331 38.0641 154.24 38.4069 160.341L16.7276 179.263L14.5041 176.396C11.3911 178.231 4.6835 169.898 1.71881 165.502C-1.39412 161.832 0.421756 155.945 1.71881 153.461C-0.0600067 147.956 3.57175 145.816 5.60998 145.434C4.72057 135.801 11.1688 137.215 14.5041 139.126C13.9482 137.788 13.6147 134.425 16.7276 131.672C19.8405 128.92 23.5834 135.495 25.0658 139.126V131.672C24.2776 121.51 30.7069 120.804 35.1465 121.972C35.6115 120.255 36.7393 122.498 36.7393 122.498C36.2542 122.303 35.7168 122.122 35.1465 121.972C34.9415 122.729 34.8653 124.256 35.0716 127.085Z" fill="#F6C395"/>
<path d="M88.5584 50.7987L92.9386 68.3186L208.769 71.8226L214.61 55.3038L227.75 53.8021C233.98 49.7976 232.941 41.7885 231.643 38.2845C247.217 24.669 225.154 15.2584 212.176 12.255C204.778 -9.36961 175.675 3.24472 162.048 12.255C153.871 -6.56643 130.738 0.408161 120.193 6.24813C91.7705 -5.76552 80.447 11.2538 78.3381 21.2652C61.9855 33.6793 69.5778 46.1268 75.418 50.7987C85.9303 55.2037 88.5584 52.6342 88.5584 50.7987Z" fill="#EDEDED"/>
<path d="M120.193 6.74869C115.975 16.9269 112.503 37.4836 132.36 38.2845C122.464 38.6182 106.176 32.7783 120.193 6.74869Z" fill="#E0DADA"/>
<path d="M160.145 46.3274C147.686 39.9201 122.508 43.6577 111.476 46.3274L83.7354 51.8337C128.9 43.0237 153.493 44.492 160.145 46.3274Z" fill="#E0DADA"/>
<path d="M187.355 43.1638C192.262 41.8876 208.62 50.0251 216.186 54.2534L213.599 58.0242C212.167 52.2006 195.506 45.6908 187.355 43.1638Z" fill="#E0DADA"/>
<path d="M212.663 11.7544C214.447 18.7623 216.946 34.0797 212.663 39.2857C216.881 36.9497 222.786 28.173 212.663 11.7544Z" fill="#DDDDDD"/>
<path d="M92.5642 39.3061C80.4365 39.8485 78.343 28.2125 78.8248 22.2663C85.7244 35.7123 90.6201 39.172 92.5642 39.3061C92.6879 39.3006 92.8127 39.2937 92.9386 39.2857C92.8294 39.3081 92.7045 39.3158 92.5642 39.3061Z" fill="#E0DADA"/>
<path d="M93.912 68.8192C128.953 72.3232 200.788 77.8294 207.796 71.8226L93.912 68.8192Z" fill="#E7B98F"/>
<defs>
<filter id="filter0_d" x="139.61" y="106.582" width="23.6141" height="25.2787" filterUnits="userSpaceOnUse" color-interpolation-filters="sRGB">
<feFlood flood-opacity="0" result="BackgroundImageFix"/>
<feColorMatrix in="SourceAlpha" type="matrix" values="0 0 0 0 0 0 0 0 0 0 0 0 0 0 0 0 0 0 127 0"/>
<feOffset dy="1"/>
<feGaussianBlur stdDeviation="1"/>
<feColorMatrix type="matrix" values="0 0 0 0 0 0 0 0 0 0 0 0 0 0 0 0 0 0 0.25 0"/>
<feBlend mode="normal" in2="BackgroundImageFix" result="effect1_dropShadow"/>
<feBlend mode="normal" in="SourceGraphic" in2="effect1_dropShadow" result="shape"/>
</filter>
</defs>
</svg>
