<svg width="171" height="63" viewBox="0 0 171 63" fill="none" xmlns="http://www.w3.org/2000/svg">
<path d="M25.35 50V32C24.0833 31.4 22.6333 30.9 21 30.5C19.4 30.0667 17.7667 29.75 16.1 29.55C15.7 31.0167 15.3333 32.5333 15 34.1C14.6667 35.6333 14.3833 37.1667 14.15 38.7C13.9167 40.2 13.7333 41.6833 13.6 43.15C13.4667 44.5833 13.4 45.95 13.4 47.25C13.4 48.7167 13.5 50.15 13.7 51.55C13.9333 52.95 14.4167 54.3333 15.15 55.7C14.3833 55.7 13.5833 55.6167 12.75 55.45C11.9167 55.2833 11.15 54.9 10.45 54.3C9.75 53.7333 9.16667 52.9 8.7 51.8C8.26667 50.7333 8.05 49.2833 8.05 47.45C8.05 46.2833 8.13333 44.9833 8.3 43.55C8.46667 42.1167 8.71667 40.6167 9.05 39.05C9.38333 37.4833 9.78333 35.8833 10.25 34.25C10.75 32.5833 11.3 30.95 11.9 29.35C10.9333 29.3833 10.0167 29.4667 9.15 29.6C8.31667 29.7333 7.58333 29.9333 6.95 30.2C6.35 30.4333 5.86667 30.7167 5.5 31.05C5.13333 31.3833 4.95 31.75 4.95 32.15C4.95 32.2833 4.96667 32.3833 5 32.45C5.86667 32.7167 6.3 33.2667 6.3 34.1C6.3 34.7 6.08333 35.1167 5.65 35.35C5.21667 35.5833 4.75 35.7 4.25 35.7C3.41667 35.7 2.65 35.4667 1.95 35C1.21667 34.5 0.85 33.65 0.85 32.45C0.85 31.65 1.1 30.9333 1.6 30.3C2.06667 29.6667 2.71667 29.1333 3.55 28.7C4.41667 28.2333 5.41667 27.8833 6.55 27.65C7.71667 27.4167 8.98333 27.3 10.35 27.3C10.7167 27.3 11.1 27.3167 11.5 27.35C11.9 27.35 12.3 27.3667 12.7 27.4C13.5333 25.4 14.4667 23.5 15.5 21.7C16.5333 19.8667 17.65 18.2833 18.85 16.95C20.05 15.5833 21.3167 14.5 22.65 13.7C23.9833 12.9 25.3833 12.5 26.85 12.5C27.35 12.5 27.9667 12.55 28.7 12.65C29.4667 12.75 30.1833 12.9333 30.85 13.2V50H25.35ZM16.6 27.9C18.2667 28.2 19.8667 28.5833 21.4 29.05C22.9333 29.4833 24.25 29.9667 25.35 30.5V14.9C24.5167 14.9667 23.7 15.35 22.9 16.05C22.1 16.7167 21.3167 17.6333 20.55 18.8C19.8167 19.9667 19.1167 21.3333 18.45 22.9C17.7833 24.4333 17.1667 26.1 16.6 27.9ZM40.477 23.15V27C41.1103 26.3333 41.8436 25.8 42.677 25.4C43.5436 24.9667 44.5436 24.75 45.677 24.75C46.8436 24.75 47.927 25 48.927 25.5C49.927 26 50.7936 26.7667 51.527 27.8C52.2936 28.8 52.8936 30.0833 53.327 31.65C53.7603 33.1833 53.977 35.0167 53.977 37.15C53.977 41.3167 53.1936 44.55 51.627 46.85C50.0603 49.15 47.977 50.3 45.377 50.3C44.277 50.3 43.327 50.1 42.527 49.7C41.7603 49.2667 41.077 48.6667 40.477 47.9V61.25L35.427 62.5V23.15H40.477ZM43.927 28C43.1936 28 42.527 28.2167 41.927 28.65C41.3603 29.05 40.877 29.6333 40.477 30.4V45.4C40.9436 46 41.4603 46.4333 42.027 46.7C42.627 46.9667 43.2103 47.1 43.777 47.1C44.6103 47.1 45.3436 46.8333 45.977 46.3C46.6103 45.7667 47.1436 45.05 47.577 44.15C48.0436 43.2167 48.3936 42.1333 48.627 40.9C48.8603 39.6667 48.977 38.35 48.977 36.95C48.977 35.2167 48.8103 33.7833 48.477 32.65C48.177 31.4833 47.777 30.5667 47.277 29.9C46.777 29.2 46.227 28.7167 45.627 28.45C45.027 28.15 44.4603 28 43.927 28ZM61.6195 23.15V27C62.2529 26.3333 62.9862 25.8 63.8195 25.4C64.6862 24.9667 65.6862 24.75 66.8195 24.75C67.9862 24.75 69.0695 25 70.0695 25.5C71.0695 26 71.9362 26.7667 72.6695 27.8C73.4362 28.8 74.0362 30.0833 74.4695 31.65C74.9029 33.1833 75.1195 35.0167 75.1195 37.15C75.1195 41.3167 74.3362 44.55 72.7695 46.85C71.2029 49.15 69.1195 50.3 66.5195 50.3C65.4195 50.3 64.4695 50.1 63.6695 49.7C62.9029 49.2667 62.2195 48.6667 61.6195 47.9V61.25L56.5695 62.5V23.15H61.6195ZM65.0695 28C64.3362 28 63.6695 28.2167 63.0695 28.65C62.5029 29.05 62.0195 29.6333 61.6195 30.4V45.4C62.0862 46 62.6029 46.4333 63.1695 46.7C63.7695 46.9667 64.3529 47.1 64.9195 47.1C65.7529 47.1 66.4862 46.8333 67.1195 46.3C67.7529 45.7667 68.2862 45.05 68.7195 44.15C69.1862 43.2167 69.5362 42.1333 69.7695 40.9C70.0029 39.6667 70.1195 38.35 70.1195 36.95C70.1195 35.2167 69.9529 33.7833 69.6195 32.65C69.3195 31.4833 68.9195 30.5667 68.4195 29.9C67.9195 29.2 67.3695 28.7167 66.7695 28.45C66.1695 28.15 65.6029 28 65.0695 28ZM93.3621 31.25C93.3621 33.5833 92.3954 35.5333 90.4621 37.1C88.5621 38.6667 85.9121 39.6333 82.5121 40C82.6454 41.3333 82.8788 42.4167 83.2121 43.25C83.5788 44.0833 84.0121 44.75 84.5121 45.25C85.0121 45.7167 85.5788 46.05 86.2121 46.25C86.8788 46.4167 87.5621 46.5 88.2621 46.5C89.8621 46.5 91.3621 46.0833 92.7621 45.25C94.1621 44.4167 95.2954 43.0167 96.1621 41.05H97.7621C97.3288 42.2833 96.7288 43.4667 95.9621 44.6C95.1954 45.7 94.2954 46.6833 93.2621 47.55C92.2288 48.3833 91.1121 49.05 89.9121 49.55C88.7121 50.05 87.4788 50.3 86.2121 50.3C85.0454 50.3 83.9121 50.1 82.8121 49.7C81.7454 49.3 80.7954 48.65 79.9621 47.75C79.1288 46.8167 78.4454 45.6167 77.9121 44.15C77.4121 42.6833 77.1621 40.8833 77.1621 38.75C77.1621 37.35 77.3121 35.8333 77.6121 34.2C77.9454 32.5667 78.4788 31.05 79.2121 29.65C79.9788 28.25 80.9621 27.0833 82.1621 26.15C83.3954 25.2167 84.9121 24.75 86.7121 24.75C87.5454 24.75 88.3454 24.85 89.1121 25.05C89.9121 25.2167 90.6288 25.55 91.2621 26.05C91.8954 26.5167 92.3954 27.1667 92.7621 28C93.1621 28.8333 93.3621 29.9167 93.3621 31.25ZM82.4621 38.05C84.8288 37.6833 86.6954 36.85 88.0621 35.55C89.4621 34.25 90.1621 32.65 90.1621 30.75C90.1621 29.4833 89.9454 28.5833 89.5121 28.05C89.0788 27.4833 88.4621 27.2 87.6621 27.2C86.7954 27.2 86.0288 27.5333 85.3621 28.2C84.7288 28.8667 84.1954 29.7333 83.7621 30.8C83.3288 31.8333 82.9954 33 82.7621 34.3C82.5621 35.5667 82.4621 36.8167 82.4621 38.05ZM101.17 17.4V25H105.02V26.75H101.17V42C101.17 42.4 101.187 42.8667 101.22 43.4C101.254 43.9 101.337 44.3833 101.47 44.85C101.637 45.3167 101.87 45.7167 102.17 46.05C102.504 46.35 102.954 46.5 103.52 46.5C104.42 46.5 105.27 46.05 106.07 45.15C106.904 44.25 107.554 42.8833 108.02 41.05H109.87C109.304 43.15 108.687 44.8167 108.02 46.05C107.387 47.25 106.72 48.1667 106.02 48.8C105.32 49.4333 104.62 49.8333 103.92 50C103.254 50.2 102.637 50.3 102.07 50.3C100.87 50.3 99.887 50.0833 99.1203 49.65C98.3536 49.1833 97.7536 48.6 97.3203 47.9C96.887 47.2 96.587 46.4333 96.4203 45.6C96.2536 44.7333 96.1703 43.8833 96.1703 43.05V26.75H94.4703V25H96.1703V18.1L101.17 17.4ZM107.087 17.8C107.087 16.9 107.403 16.1167 108.037 15.45C108.67 14.7833 109.453 14.45 110.387 14.45C111.287 14.45 112.07 14.7833 112.737 15.45C113.403 16.1167 113.737 16.9 113.737 17.8C113.737 18.7333 113.403 19.5167 112.737 20.15C112.07 20.7833 111.287 21.1 110.387 21.1C109.453 21.1 108.67 20.7833 108.037 20.15C107.403 19.5167 107.087 18.7333 107.087 17.8ZM112.987 25V42C112.987 42.4 112.987 42.8667 112.987 43.4C113.02 43.9 113.103 44.3833 113.237 44.85C113.403 45.3167 113.62 45.7167 113.887 46.05C114.187 46.35 114.62 46.5 115.187 46.5C115.453 46.5 115.77 46.4667 116.137 46.4C116.537 46.3333 116.837 46.2667 117.037 46.2C117.07 46.3667 117.087 46.5167 117.087 46.65C117.12 46.7833 117.137 46.9333 117.137 47.1C117.137 47.6667 117.003 48.1667 116.737 48.6C116.503 49 116.187 49.3333 115.787 49.6C115.387 49.8333 114.937 50 114.437 50.1C113.937 50.2333 113.437 50.3 112.937 50.3C111.937 50.3 111.12 50.1 110.487 49.7C109.853 49.2667 109.337 48.7167 108.937 48.05C108.57 47.35 108.32 46.5833 108.187 45.75C108.053 44.9167 107.987 44.0833 107.987 43.25V25H112.987ZM132.987 45.75C132.72 45.6833 132.503 45.5167 132.337 45.25C132.17 44.9833 132.087 44.7167 132.087 44.45C132.087 43.9167 132.287 43.5167 132.687 43.25C133.12 42.95 133.603 42.8 134.137 42.8C134.87 42.8 135.537 43.05 136.137 43.55C136.737 44.05 137.037 44.7833 137.037 45.75C137.037 46.25 136.903 46.75 136.637 47.25C136.37 47.75 135.987 48.2 135.487 48.6C134.987 49 134.387 49.3333 133.687 49.6C132.987 49.8667 132.203 50 131.337 50H118.237L129.037 27.7H124.737C124.003 27.7 123.337 27.75 122.737 27.85C122.17 27.9167 121.887 28.1 121.887 28.4C121.887 28.7333 122.02 29 122.287 29.2C122.587 29.4 122.737 29.6667 122.737 30C122.737 30.3667 122.52 30.7167 122.087 31.05C121.687 31.3833 121.153 31.55 120.487 31.55C119.553 31.55 118.837 31.2 118.337 30.5C117.87 29.7667 117.637 28.9167 117.637 27.95C117.637 27.0833 118.003 26.3833 118.737 25.85C119.503 25.2833 120.853 25 122.787 25H135.187L124.487 46.5C124.687 46.5 125.07 46.5167 125.637 46.55C126.237 46.5833 126.87 46.6167 127.537 46.65C128.203 46.6833 128.853 46.7167 129.487 46.75C130.12 46.7833 130.603 46.8 130.937 46.8C131.537 46.8 132.003 46.7 132.337 46.5C132.703 46.3 132.92 46.05 132.987 45.75ZM153.225 31.25C153.225 33.5833 152.259 35.5333 150.325 37.1C148.425 38.6667 145.775 39.6333 142.375 40C142.509 41.3333 142.742 42.4167 143.075 43.25C143.442 44.0833 143.875 44.75 144.375 45.25C144.875 45.7167 145.442 46.05 146.075 46.25C146.742 46.4167 147.425 46.5 148.125 46.5C149.725 46.5 151.225 46.0833 152.625 45.25C154.025 44.4167 155.159 43.0167 156.025 41.05H157.625C157.192 42.2833 156.592 43.4667 155.825 44.6C155.059 45.7 154.159 46.6833 153.125 47.55C152.092 48.3833 150.975 49.05 149.775 49.55C148.575 50.05 147.342 50.3 146.075 50.3C144.909 50.3 143.775 50.1 142.675 49.7C141.609 49.3 140.659 48.65 139.825 47.75C138.992 46.8167 138.309 45.6167 137.775 44.15C137.275 42.6833 137.025 40.8833 137.025 38.75C137.025 37.35 137.175 35.8333 137.475 34.2C137.809 32.5667 138.342 31.05 139.075 29.65C139.842 28.25 140.825 27.0833 142.025 26.15C143.259 25.2167 144.775 24.75 146.575 24.75C147.409 24.75 148.209 24.85 148.975 25.05C149.775 25.2167 150.492 25.55 151.125 26.05C151.759 26.5167 152.259 27.1667 152.625 28C153.025 28.8333 153.225 29.9167 153.225 31.25ZM142.325 38.05C144.692 37.6833 146.559 36.85 147.925 35.55C149.325 34.25 150.025 32.65 150.025 30.75C150.025 29.4833 149.809 28.5833 149.375 28.05C148.942 27.4833 148.325 27.2 147.525 27.2C146.659 27.2 145.892 27.5333 145.225 28.2C144.592 28.8667 144.059 29.7333 143.625 30.8C143.192 31.8333 142.859 33 142.625 34.3C142.425 35.5667 142.325 36.8167 142.325 38.05ZM160.984 25V29.2C161.384 28.6 161.767 28.0333 162.134 27.5C162.534 26.9667 162.967 26.5 163.434 26.1C163.9 25.7 164.417 25.3833 164.984 25.15C165.55 24.8833 166.184 24.75 166.884 24.75C168.017 24.75 168.85 25.05 169.384 25.65C169.917 26.2167 170.184 26.9167 170.184 27.75C170.184 28.25 170.1 28.6667 169.934 29C169.767 29.3333 169.567 29.6 169.334 29.8C169.1 30 168.85 30.15 168.584 30.25C168.317 30.3167 168.084 30.35 167.884 30.35C167.584 30.35 167.334 30.2833 167.134 30.15C166.967 30.0167 166.784 29.8833 166.584 29.75C166.417 29.5833 166.217 29.4333 165.984 29.3C165.75 29.1667 165.45 29.1 165.084 29.1C164.317 29.1 163.584 29.3667 162.884 29.9C162.184 30.4333 161.55 31 160.984 31.6V50H155.984V25H160.984Z" fill="#FFCB74"/>
</svg>
