<svg width="113" height="21" viewBox="0 0 113 21" fill="none" xmlns="http://www.w3.org/2000/svg">
<path d="M14.229 4.8195V17H12.784V8.0495C12.784 7.9305 12.7868 7.803 12.7925 7.667C12.8038 7.531 12.8152 7.39217 12.8265 7.2505L8.6445 14.8665C8.51417 15.1215 8.31583 15.249 8.0495 15.249H7.8115C7.54517 15.249 7.34683 15.1215 7.2165 14.8665L2.9495 7.2165C2.9835 7.51683 3.0005 7.7945 3.0005 8.0495V17H1.5555V4.8195H2.771C2.91833 4.8195 3.03167 4.83367 3.111 4.862C3.19033 4.89033 3.26683 4.96967 3.3405 5.1L7.548 12.597C7.616 12.733 7.68117 12.8747 7.7435 13.022C7.8115 13.1693 7.87383 13.3195 7.9305 13.4725C7.98717 13.3195 8.04667 13.1693 8.109 13.022C8.17133 12.869 8.23933 12.7245 8.313 12.5885L12.444 5.1C12.512 4.96967 12.5857 4.89033 12.665 4.862C12.75 4.83367 12.8662 4.8195 13.0135 4.8195H14.229ZM21.4041 13.124C20.7071 13.1467 20.1121 13.2033 19.6191 13.294C19.1317 13.379 18.7322 13.4923 18.4206 13.634C18.1146 13.7757 17.8907 13.9428 17.7491 14.1355C17.6131 14.3282 17.5451 14.5435 17.5451 14.7815C17.5451 15.0082 17.5819 15.2037 17.6556 15.368C17.7292 15.5323 17.8284 15.6683 17.9531 15.776C18.0834 15.878 18.2336 15.9545 18.4036 16.0055C18.5792 16.0508 18.7662 16.0735 18.9646 16.0735C19.2309 16.0735 19.4746 16.048 19.6956 15.997C19.9166 15.9403 20.1234 15.861 20.3161 15.759C20.5144 15.657 20.7014 15.5352 20.8771 15.3935C21.0584 15.2518 21.2341 15.0903 21.4041 14.909V13.124ZM16.5166 9.605C16.9926 9.146 17.5054 8.80317 18.0551 8.5765C18.6047 8.34983 19.2139 8.2365 19.8826 8.2365C20.3642 8.2365 20.7921 8.31583 21.1661 8.4745C21.5401 8.63317 21.8546 8.85417 22.1096 9.1375C22.3646 9.42083 22.5572 9.76367 22.6876 10.166C22.8179 10.5683 22.8831 11.0103 22.8831 11.492V17H22.2116C22.0642 17 21.9509 16.9773 21.8716 16.932C21.7922 16.881 21.7299 16.7847 21.6846 16.643L21.5146 15.827C21.2879 16.0367 21.0669 16.2237 20.8516 16.388C20.6362 16.5467 20.4096 16.6827 20.1716 16.796C19.9336 16.9037 19.6786 16.9858 19.4066 17.0425C19.1402 17.1048 18.8427 17.136 18.5141 17.136C18.1797 17.136 17.8652 17.0907 17.5706 17C17.2759 16.9037 17.0181 16.762 16.7971 16.575C16.5817 16.388 16.4089 16.1528 16.2786 15.8695C16.1539 15.5805 16.0916 15.2405 16.0916 14.8495C16.0916 14.5095 16.1851 14.1837 16.3721 13.872C16.5591 13.5547 16.8622 13.2742 17.2816 13.0305C17.7009 12.7868 18.2477 12.5885 18.9221 12.4355C19.5964 12.2768 20.4237 12.1862 21.4041 12.1635V11.492C21.4041 10.8233 21.2596 10.319 20.9706 9.979C20.6816 9.63333 20.2594 9.4605 19.7041 9.4605C19.3301 9.4605 19.0156 9.50867 18.7606 9.605C18.5112 9.69567 18.2931 9.8005 18.1061 9.9195C17.9247 10.0328 17.7661 10.1377 17.6301 10.234C17.4997 10.3247 17.3694 10.37 17.2391 10.37C17.1371 10.37 17.0492 10.3445 16.9756 10.2935C16.9019 10.2368 16.8396 10.1688 16.7886 10.0895L16.5166 9.605ZM30.7978 10.438C30.5144 10.0583 30.2084 9.79483 29.8798 9.6475C29.5511 9.4945 29.1828 9.418 28.7748 9.418C27.9758 9.418 27.3609 9.70417 26.9303 10.2765C26.4996 10.8488 26.2843 11.6648 26.2843 12.7245C26.2843 13.2855 26.3324 13.7672 26.4288 14.1695C26.5251 14.5662 26.6668 14.8948 26.8538 15.1555C27.0408 15.4105 27.2703 15.5975 27.5423 15.7165C27.8143 15.8355 28.1231 15.895 28.4688 15.895C28.9674 15.895 29.4009 15.7817 29.7693 15.555C30.1433 15.3283 30.4861 15.0082 30.7978 14.5945V10.438ZM32.3108 4.4795V17H31.4098C31.1944 17 31.0584 16.8952 31.0018 16.6855L30.8658 15.64C30.4974 16.082 30.0781 16.439 29.6078 16.711C29.1374 16.983 28.5934 17.119 27.9758 17.119C27.4828 17.119 27.0351 17.0255 26.6328 16.8385C26.2304 16.6458 25.8876 16.3653 25.6043 15.997C25.3209 15.6287 25.1028 15.1697 24.9498 14.62C24.7968 14.0703 24.7203 13.4385 24.7203 12.7245C24.7203 12.0898 24.8053 11.5005 24.9753 10.9565C25.1453 10.4068 25.3889 9.93083 25.7063 9.5285C26.0236 9.12617 26.4118 8.81167 26.8708 8.585C27.3354 8.35267 27.8568 8.2365 28.4348 8.2365C28.9618 8.2365 29.4123 8.32717 29.7863 8.5085C30.1659 8.68417 30.5031 8.93067 30.7978 9.248V4.4795H32.3108ZM40.4635 11.7555C40.4635 11.4042 40.4125 11.084 40.3105 10.795C40.2141 10.5003 40.0696 10.2482 39.877 10.0385C39.69 9.82317 39.4605 9.65883 39.1885 9.5455C38.9165 9.4265 38.6076 9.367 38.262 9.367C37.5366 9.367 36.9615 9.5795 36.5365 10.0045C36.1171 10.4238 35.8565 11.0075 35.7545 11.7555H40.4635ZM41.6875 15.793C41.5005 16.0197 41.2766 16.218 41.016 16.388C40.7553 16.5523 40.4748 16.6883 40.1745 16.796C39.8798 16.9037 39.5738 16.983 39.2565 17.034C38.9391 17.0907 38.6246 17.119 38.313 17.119C37.718 17.119 37.1683 17.0198 36.664 16.8215C36.1653 16.6175 35.7318 16.3228 35.3635 15.9375C35.0008 15.5465 34.7175 15.0648 34.5135 14.4925C34.3095 13.9202 34.2075 13.2628 34.2075 12.5205C34.2075 11.9198 34.2981 11.3588 34.4795 10.8375C34.6665 10.3162 34.9328 9.86567 35.2785 9.486C35.6241 9.10067 36.0463 8.80033 36.545 8.585C37.0436 8.364 37.6046 8.2535 38.228 8.2535C38.7436 8.2535 39.2196 8.34133 39.656 8.517C40.098 8.687 40.4776 8.93633 40.795 9.265C41.118 9.588 41.3701 9.99033 41.5515 10.472C41.7328 10.948 41.8235 11.492 41.8235 12.104C41.8235 12.342 41.798 12.5007 41.747 12.58C41.696 12.6593 41.5996 12.699 41.458 12.699H35.7035C35.7205 13.243 35.7941 13.7162 35.9245 14.1185C36.0605 14.5208 36.2475 14.858 36.4855 15.13C36.7235 15.3963 37.0068 15.5975 37.3355 15.7335C37.6641 15.8638 38.0325 15.929 38.4405 15.929C38.8201 15.929 39.146 15.8865 39.418 15.8015C39.6956 15.7108 39.9336 15.6145 40.132 15.5125C40.3303 15.4105 40.4946 15.317 40.625 15.232C40.761 15.1413 40.8771 15.096 40.9735 15.096C41.0981 15.096 41.1945 15.1442 41.2625 15.2405L41.6875 15.793ZM49.553 14.926C49.8307 15.3 50.1338 15.5635 50.4625 15.7165C50.7968 15.8695 51.1623 15.946 51.559 15.946C52.3693 15.946 52.9898 15.6598 53.4205 15.0875C53.8512 14.5152 54.0665 13.6623 54.0665 12.529C54.0665 11.475 53.8738 10.7015 53.4885 10.2085C53.1088 9.70983 52.5648 9.4605 51.8565 9.4605C51.3635 9.4605 50.9328 9.57383 50.5645 9.8005C50.2018 10.0272 49.8647 10.3473 49.553 10.761V14.926ZM49.553 9.6305C49.9157 9.21117 50.3237 8.87683 50.777 8.6275C51.236 8.37817 51.763 8.2535 52.358 8.2535C52.8623 8.2535 53.3157 8.34983 53.718 8.5425C54.126 8.73517 54.4717 9.01567 54.755 9.384C55.0383 9.74667 55.2537 10.1887 55.401 10.71C55.554 11.2313 55.6305 11.8178 55.6305 12.4695C55.6305 13.1665 55.5455 13.8012 55.3755 14.3735C55.2055 14.9458 54.959 15.436 54.636 15.844C54.3187 16.2463 53.9305 16.5608 53.4715 16.7875C53.0125 17.0085 52.4968 17.119 51.9245 17.119C51.3578 17.119 50.879 17.0142 50.488 16.8045C50.1027 16.5892 49.7655 16.286 49.4765 15.895L49.4 16.677C49.3547 16.8923 49.2243 17 49.009 17H48.0315V4.4795H49.553V9.6305ZM64.7574 8.3895L59.9549 19.5415C59.9039 19.6548 59.8387 19.7455 59.7594 19.8135C59.6857 19.8815 59.5695 19.9155 59.4109 19.9155H58.2889L59.8614 16.4985L56.3084 8.3895H57.6174C57.7477 8.3895 57.8497 8.4235 57.9234 8.4915C58.0027 8.55383 58.0565 8.62467 58.0849 8.704L60.3884 14.127C60.479 14.365 60.5555 14.6143 60.6179 14.875C60.6972 14.6087 60.7822 14.3565 60.8729 14.1185L63.1084 8.704C63.1424 8.61333 63.199 8.53967 63.2784 8.483C63.3634 8.42067 63.4569 8.3895 63.5589 8.3895H64.7574Z" fill="#111111"/>
<path d="M77.0165 8.20484L77.1762 9.71847C77.4956 9.12647 77.9282 8.66229 78.4739 8.32593C79.0197 7.98957 79.6519 7.82139 80.3706 7.82139C81.0628 7.82139 81.6418 7.97612 82.1076 8.28557C82.5735 8.59502 82.8596 9.02556 82.9661 9.57719C83.3255 9.03902 83.7647 8.6152 84.2838 8.30575C84.8162 7.98284 85.3752 7.82139 85.9609 7.82139C86.7994 7.82139 87.4583 8.06357 87.9374 8.54793C88.4299 9.01884 88.6828 9.63101 88.6961 10.3845V16.7417H86.48V11.2523C86.4534 10.8486 86.3602 10.5123 86.2005 10.2432C86.0408 9.96064 85.7479 9.80592 85.322 9.77901C84.8428 9.77901 84.4302 9.93374 84.0842 10.2432C83.7381 10.5392 83.4652 10.9294 83.2656 11.4137C83.0792 11.8846 82.9861 12.3824 82.9861 12.9072V16.7417H80.73V11.2523C80.7167 10.8486 80.6235 10.5123 80.4505 10.2432C80.2775 9.96064 79.9713 9.80592 79.5321 9.77901C79.0662 9.77901 78.6603 9.93374 78.3142 10.2432C77.9682 10.5392 77.702 10.9294 77.5156 11.4137C77.3293 11.8846 77.2361 12.3824 77.2361 12.9072V16.7417H75V8.20484H77.0165Z" fill="#111111"/>
<path d="M95.2216 16.9637C94.423 16.9637 93.7109 16.7753 93.0853 16.3986C92.4598 16.0219 91.9673 15.4904 91.6079 14.8042C91.2485 14.1046 91.0689 13.2839 91.0689 12.3421C91.0689 11.3868 91.2619 10.5728 91.6479 9.9001C92.0338 9.22738 92.5596 8.71611 93.2251 8.3663C93.8906 8.00303 94.6493 7.82139 95.5011 7.82139C96.1134 7.82139 96.6924 7.94248 97.2381 8.18466C97.7971 8.41339 98.2364 8.72957 98.5558 9.1332V1H100.772V16.7417H98.5358V15.5913C98.1232 15.995 97.6374 16.3246 97.0784 16.5802C96.5327 16.8359 95.9137 16.9637 95.2216 16.9637ZM95.9404 15.0464C96.5926 15.0464 97.1383 14.885 97.5775 14.5621C98.0301 14.2392 98.3495 13.7884 98.5358 13.2099V11.3935C98.3761 10.8688 98.0567 10.4383 97.5775 10.1019C97.1117 9.76556 96.5659 9.59738 95.9404 9.59738C95.4612 9.59738 95.022 9.71847 94.6227 9.96064C94.2367 10.1894 93.9239 10.5055 93.6843 10.9092C93.4447 11.3128 93.3249 11.777 93.3249 12.3017C93.3249 12.813 93.4447 13.2772 93.6843 13.6942C93.9239 14.1113 94.2367 14.441 94.6227 14.6831C95.022 14.9253 95.4612 15.0464 95.9404 15.0464Z" fill="#111111"/>
<path d="M108.069 21C107.376 21 106.784 20.9193 106.292 20.7578C105.799 20.5964 105.36 20.3878 104.974 20.1322C104.601 19.8766 104.249 19.6007 103.916 19.3047L105.234 17.7508C105.62 18.114 106.025 18.4167 106.451 18.6589C106.891 18.9011 107.416 19.0222 108.029 19.0222C108.854 19.0222 109.513 18.8204 110.005 18.4167C110.498 18.0131 110.751 17.4548 110.764 16.7417V15.3088C110.498 15.7797 110.078 16.1766 109.506 16.4995C108.934 16.8089 108.242 16.9637 107.43 16.9637C106.658 16.9637 105.946 16.7686 105.293 16.3784C104.641 15.9748 104.122 15.4299 103.736 14.7437C103.35 14.0575 103.157 13.2839 103.157 12.4228C103.157 11.5348 103.363 10.7477 103.776 10.0616C104.189 9.36192 104.728 8.81702 105.393 8.42684C106.059 8.02321 106.771 7.82139 107.53 7.82139C108.275 7.82139 108.934 7.95594 109.506 8.22502C110.092 8.48066 110.518 8.80356 110.784 9.19374L110.944 8.20484H113V16.782C113 17.5758 112.787 18.2889 112.361 18.9213C111.949 19.5671 111.37 20.0716 110.624 20.4349C109.879 20.8116 109.027 21 108.069 21ZM105.413 12.3623C105.413 12.8735 105.526 13.3377 105.753 13.7548C105.992 14.1719 106.312 14.5015 106.711 14.7437C107.124 14.9859 107.583 15.107 108.089 15.107C108.754 15.107 109.313 14.9455 109.766 14.6226C110.231 14.2862 110.564 13.849 110.764 13.3108V11.4541C110.591 10.9159 110.258 10.4854 109.766 10.1625C109.286 9.83955 108.727 9.6781 108.089 9.6781C107.33 9.6781 106.691 9.92701 106.172 10.4248C105.666 10.9226 105.413 11.5684 105.413 12.3623Z" fill="#111111"/>
<path d="M69 15C69 14.4536 69.2111 13.9836 69.6333 13.5902C70.0556 13.1967 70.5222 13 71.0333 13C71.5 13 71.9444 13.1967 72.3667 13.5902C72.7889 13.9836 73 14.4536 73 15C73 15.612 72.7889 16.1038 72.3667 16.4754C71.9444 16.8251 71.5 17 71.0333 17C70.5222 17 70.0556 16.8251 69.6333 16.4754C69.2111 16.1038 69 15.612 69 15Z" fill="#111111"/>
</svg>
