<svg width="28" height="28" viewBox="0 0 28 28" fill="none" xmlns="http://www.w3.org/2000/svg">
<path d="M24.6411 18.1486C23.6917 16.5156 23.1875 14.1717 23.1875 11.375C23.1875 8.93832 22.2196 6.60145 20.4966 4.87846C18.7736 3.15547 16.4367 2.1875 14 2.1875C11.5634 2.1875 9.22648 3.15547 7.50349 4.87846C5.7805 6.60145 4.81253 8.93832 4.81253 11.375C4.81253 14.1728 4.3105 16.5156 3.36112 18.1486C3.1674 18.4817 3.06471 18.8598 3.06337 19.2451C3.06202 19.6305 3.16207 20.0093 3.35347 20.3438C3.54365 20.6783 3.81969 20.9561 4.15309 21.1484C4.4865 21.3407 4.86517 21.4405 5.25003 21.4375H9.20722C9.31575 22.6337 9.86764 23.746 10.7545 24.556C11.6413 25.366 12.799 25.8151 14 25.8151C15.2011 25.8151 16.3588 25.366 17.2456 24.556C18.1324 23.746 18.6843 22.6337 18.7928 21.4375H22.75C23.1343 21.4399 23.5123 21.3398 23.8451 21.1476C24.1779 20.9553 24.4534 20.6779 24.6433 20.3438C24.8355 20.0098 24.9365 19.6312 24.9361 19.2459C24.9358 18.8606 24.834 18.4821 24.6411 18.1486ZM14 23.1875C13.4957 23.1876 13.0069 23.0135 12.6163 22.6946C12.2256 22.3757 11.9571 21.9316 11.8563 21.4375H16.1438C16.0429 21.9316 15.7745 22.3757 15.3838 22.6946C14.9932 23.0135 14.5043 23.1876 14 23.1875ZM5.97847 18.8125C6.94644 16.8438 7.43753 14.3434 7.43753 11.375C7.43753 9.63452 8.12893 7.96532 9.35964 6.73461C10.5903 5.5039 12.2595 4.8125 14 4.8125C15.7405 4.8125 17.4097 5.5039 18.6404 6.73461C19.8711 7.96532 20.5625 9.63452 20.5625 11.375C20.5625 14.3423 21.0525 16.8438 22.0205 18.8125H5.97847Z" fill="white"/>
</svg>
