<svg width="219" height="162" viewBox="0 0 219 162" fill="none" xmlns="http://www.w3.org/2000/svg">
    <path d="M58.6867 99.9732L51.2523 91.8915C47.77 94.4291 44.3707 96.8839 40.9989 99.3664C38.7051 101.021 38.3181 100.966 36.6876 98.5665C33.6751 94.1809 30.6627 89.8228 27.6226 85.4648C26.2131 83.4237 26.296 82.8997 28.3412 81.4654C31.2983 79.3967 34.2279 77.328 37.185 75.2594C37.5719 74.9835 37.9589 74.6525 38.4563 74.2388C36.7981 71.3151 35.1952 68.4189 33.5093 65.6055C33.3158 65.3021 32.3485 65.1366 31.934 65.3297C28.3964 66.9019 24.9142 68.5844 21.3766 70.1842C19.1657 71.1772 18.6406 70.9565 17.7285 68.7223C15.5729 63.5092 13.4448 58.2962 11.3167 53.0831C10.5153 51.1248 10.764 50.6007 12.7815 49.856C16.2361 48.532 19.7184 47.2081 23.2007 45.9393C24.2509 45.5807 24.5825 45.1394 24.1956 44.0085C23.2283 40.9745 22.3716 37.9128 21.4319 34.7132C17.2864 35.6786 13.3066 36.5889 9.32688 37.5267C6.48027 38.1886 6.06571 37.968 5.51297 35.127C4.4904 29.9691 3.5231 24.8388 2.52817 19.6808C2.05834 17.2812 2.41762 16.7847 4.84968 16.2882C8.47013 15.5711 12.1459 14.9091 15.7663 14.1368C16.2361 14.0265 16.9547 13.3645 16.9271 13.0335C16.6507 9.58571 16.2361 6.13789 15.8492 2.66252C12.2564 2.66252 8.77414 2.52461 5.31951 2.69011C-0.815917 3.0211 0.0408319 2.60736 0.0408319 -1.9989C0.0408319 -6.71548 0.0408319 -11.4045 0.0408319 -16.1211C0.0408319 -18.438 0.565936 -18.9345 2.91509 -18.8241C6.83955 -18.6311 10.764 -18.4104 14.6885 -18.2173C15.1859 -18.1898 15.6558 -18.2173 16.4296 -18.2173V-29.0572C12.5604 -29.8847 8.52541 -30.7397 4.4904 -31.6224C2.41762 -32.0913 2.11361 -32.5602 2.50053 -34.6013C3.57837 -40.3108 4.62858 -45.9928 5.70643 -51.7024C6.06571 -53.5504 6.78427 -53.9641 8.66359 -53.4952C12.8368 -52.3919 17.01 -51.3162 21.2661 -50.2129C21.4595 -50.5439 21.6254 -50.9025 21.7636 -51.261C22.6756 -54.1572 23.56 -57.0809 24.5273 -59.9495C24.8313 -60.8597 24.5549 -61.2183 23.7534 -61.5493C20.0501 -63.0111 16.3743 -64.5282 12.671 -65.99C10.764 -66.7623 10.4324 -67.3691 11.3167 -69.2448C13.7212 -74.4027 16.1809 -79.533 18.6406 -84.6633C19.442 -86.3458 20.133 -86.5665 21.8188 -85.7666C25.1629 -84.1668 28.507 -82.5395 31.8511 -80.9397C32.4315 -80.6639 33.0395 -80.4156 33.758 -80.1122C35.4439 -83.2014 37.1021 -86.1803 38.6498 -89.2144C38.8156 -89.5178 38.3734 -90.4004 37.9865 -90.7038C34.8082 -93.0208 31.5747 -95.2825 28.3964 -97.5443C26.8211 -98.6752 26.7106 -99.2544 27.8713 -100.771C31.326 -105.378 34.7806 -109.956 38.2629 -114.563C39.2854 -115.942 40.0869 -116.024 41.4411 -114.949C44.5918 -112.494 47.7147 -110.039 50.893 -107.639C51.2247 -107.391 52.1367 -107.281 52.3301 -107.529C54.7069 -110.149 57.0008 -112.825 59.3776 -115.556C56.3928 -118.672 53.5185 -121.651 50.6166 -124.63C48.9584 -126.34 48.9308 -126.947 50.7272 -128.519C54.8727 -132.105 59.0183 -135.691 63.1915 -139.249C64.7944 -140.6 65.3472 -140.573 66.7567 -138.945C69.1611 -136.187 71.5655 -133.429 73.8594 -130.588C74.7161 -129.54 75.2965 -129.595 76.2915 -130.367C78.5024 -132.105 80.7963 -133.788 83.0902 -135.442C83.9469 -136.049 84.0851 -136.518 83.5047 -137.456C81.4043 -140.766 79.3592 -144.131 77.3417 -147.496C76.3191 -149.206 76.4849 -149.785 78.2537 -150.806C83.1178 -153.592 87.9819 -156.35 92.846 -159.108C94.3661 -159.963 95.0294 -159.825 95.969 -158.226C98.0142 -154.75 100.004 -151.247 102.022 -147.744C102.243 -147.386 102.519 -147.055 102.823 -146.641C105.974 -148.158 109.041 -149.703 112.164 -151.109C113.132 -151.551 112.993 -152.075 112.717 -152.819C111.446 -156.35 110.202 -159.88 108.931 -163.411C108.268 -165.259 108.544 -165.921 110.368 -166.555C115.757 -168.403 121.146 -170.224 126.536 -172.099C127.945 -172.596 128.802 -172.072 129.216 -170.748C130.377 -167.079 131.566 -163.383 132.643 -159.66C133.03 -158.363 133.611 -158.032 134.91 -158.363C137.425 -158.998 139.967 -159.632 142.51 -160.046C144.223 -160.322 144.306 -161.232 144.14 -162.584C143.698 -166.417 143.311 -170.251 142.924 -174.113C142.759 -175.878 143.201 -176.402 144.997 -176.54C150.469 -177.009 155.914 -177.45 161.386 -177.892C163.182 -178.03 163.735 -177.533 163.929 -175.685C164.288 -171.879 164.619 -168.1 164.979 -164.294C165.062 -163.797 165.172 -163.328 165.31 -162.859H176.559C177.001 -167.135 177.443 -171.41 177.885 -175.685C178.106 -177.754 178.576 -178.168 180.649 -177.947C186.259 -177.395 191.87 -176.761 197.48 -176.237C198.917 -176.099 199.415 -175.382 199.276 -174.058C198.862 -170.334 198.447 -166.611 198.033 -162.859C197.95 -162.17 197.95 -161.453 197.894 -160.68L208.59 -158.612C209.695 -161.839 210.801 -165.011 211.824 -168.183C213.703 -173.975 213.509 -172.789 218.014 -171.41C222.464 -170.031 226.858 -168.541 231.28 -167.079C233.325 -166.417 233.657 -165.811 232.966 -163.77C231.639 -159.908 230.285 -156.047 228.876 -151.937C230.948 -150.999 233.049 -150.061 235.149 -149.151C236.503 -148.572 238.134 -147.33 239.212 -147.689C240.29 -148.048 240.815 -150.006 241.561 -151.302C242.888 -153.647 244.242 -156.019 245.513 -158.391C246.232 -159.715 247.199 -159.88 248.415 -159.191C253.334 -156.405 258.226 -153.619 263.146 -150.833C264.831 -149.868 264.942 -149.234 263.864 -147.496L257.314 -137.015C260.271 -134.753 263.146 -132.491 266.075 -130.367C266.296 -130.202 267.181 -130.533 267.485 -130.891C270.027 -133.87 272.514 -136.932 275.002 -139.966C276.273 -141.511 277.075 -141.538 278.539 -140.131C282.602 -136.27 286.637 -132.408 290.7 -128.574C292.109 -127.25 292.164 -126.561 290.838 -125.099C288.047 -122.01 285.255 -118.948 282.353 -115.749L290.009 -107.446C292.994 -109.708 295.895 -111.915 298.77 -114.149C302.114 -116.742 302.169 -116.742 304.601 -113.266C307.475 -109.129 310.377 -105.019 313.252 -100.909C314.385 -99.282 314.302 -98.6476 312.671 -97.4891C309.742 -95.3928 306.784 -93.3517 303.855 -91.2555C303.33 -90.8969 302.832 -90.4832 302.224 -90.0419L307.973 -80.4984C309.907 -81.4362 311.842 -82.3464 313.777 -83.2566C315.822 -84.2496 317.867 -85.215 319.912 -86.2079C321.239 -86.8423 322.123 -86.4562 322.703 -85.1598C324.914 -80.1122 327.153 -75.037 329.364 -69.9619C330.165 -68.1139 329.972 -67.5622 328.176 -66.7072C324.583 -64.9971 320.962 -63.3697 317.369 -61.6044C316.927 -61.3838 316.319 -60.6115 316.43 -60.2805C317.397 -56.943 318.503 -53.6607 319.636 -50.2129C323.09 -51.0128 326.407 -51.7851 329.751 -52.5574C330.884 -52.8332 332.017 -53.0815 333.15 -53.3021C334.449 -53.5504 335.333 -53.0539 335.582 -51.7024C336.632 -46.1583 337.683 -40.6418 338.678 -35.0977C339.009 -33.2773 338.595 -32.7808 336.688 -32.3395C332.542 -31.4017 328.369 -30.4915 323.892 -29.4985L324.97 -18.4932C326.6 -18.4104 328.12 -18.2725 329.668 -18.2725C332.597 -18.2173 335.555 -18.1898 338.484 -18.2173C340.059 -18.2173 340.695 -17.4726 340.723 -15.9832C340.806 -10.4667 340.944 -4.92264 340.999 0.593842C341.027 2.30394 340.419 2.88319 338.733 2.88319C334.228 2.91077 329.751 2.88319 324.997 2.88319L324.002 14.0816C327.568 14.7712 331.077 15.4883 334.587 16.1227C339.286 16.9778 339.479 16.702 338.374 21.5289C337.213 26.4109 336.218 31.3482 335.085 36.2303C334.698 37.968 334.09 38.2438 332.349 37.8025C328.176 36.7543 324.002 35.7338 319.636 34.6581L315.877 45.8014C319.415 47.2908 322.759 48.7251 326.13 50.0766C329.889 51.5937 330.027 51.7316 328.314 55.4552C326.269 59.9236 324.168 64.3643 322.068 68.8051C321.156 70.7083 320.686 70.8738 318.696 69.9911C315.214 68.4465 311.759 66.8192 308.249 65.3021C307.835 65.1366 306.923 65.2194 306.757 65.4952C304.988 68.4189 303.33 71.3978 301.561 74.487C304.546 76.6109 307.42 78.652 310.294 80.6931C315.048 84.0581 314.495 83.5341 311.289 87.7266C308.36 91.533 305.347 95.3117 302.363 99.0905C301.036 100.773 300.566 100.856 298.825 99.5594C295.785 97.3253 292.8 95.0635 289.76 92.8293C289.511 92.6363 289.207 92.4708 288.793 92.2225C286.554 94.5946 284.288 96.9391 282.132 99.3939C281.911 99.6422 282.187 100.608 282.519 100.994C285.006 103.835 287.577 106.565 290.064 109.379C291.501 110.979 291.446 111.475 289.871 112.937C285.753 116.716 281.635 120.522 277.544 124.301C275.886 125.818 275.333 125.818 273.924 124.135C271.271 120.936 268.645 117.736 265.909 114.426L256.678 121.267C258.862 124.797 260.962 128.245 263.09 131.665C264.417 133.817 264.334 134.258 262.123 135.582C257.286 138.395 252.478 141.236 247.641 144.022C246.066 144.932 245.347 144.712 244.463 143.057C242.611 139.664 240.787 136.244 238.935 132.851C238.576 132.189 238.3 131.417 237.222 131.914C234.099 133.32 230.976 134.699 227.632 136.189C228.323 138.12 228.959 139.995 229.622 141.843C230.396 143.967 231.114 146.118 231.943 148.242C232.496 149.621 232.026 150.504 230.727 151.001C225.062 153.042 219.368 155.055 213.703 157.069C212.321 157.565 211.492 156.986 211.105 155.579C210.082 151.856 208.949 148.16 207.982 144.408C207.678 143.222 207.181 142.864 206.02 143.14C203.394 143.802 200.769 144.464 198.116 145.043C197.01 145.291 196.678 145.788 196.844 146.863C197.342 150.477 197.812 154.09 198.226 157.703C198.475 159.772 198.06 160.323 195.96 160.517C190.294 161.041 184.601 161.537 178.935 161.978C177.056 162.116 176.531 161.62 176.448 159.772C176.255 156.186 176.089 152.6 175.895 149.015C175.868 148.408 175.785 147.829 175.73 147.167H164.315C164.067 149.98 163.846 152.821 163.597 155.662C163.486 157.041 163.376 158.42 163.293 159.799C163.182 161.427 162.464 162.116 160.833 161.951C156.494 161.482 152.155 160.985 147.816 160.489C146.434 160.323 145.052 160.185 143.698 160.048C141.819 159.882 141.239 159.193 141.515 157.372C142.123 153.511 142.759 149.649 143.394 145.76C143.422 145.429 143.422 145.098 143.394 144.795L132.035 142.367C131.206 145.319 130.432 148.16 129.631 151.028C129.216 152.518 128.774 154.007 128.387 155.496C128 156.986 127.088 157.317 125.762 156.82C120.124 154.807 114.513 152.793 108.876 150.78C107.466 150.283 107.079 149.401 107.66 147.939C109.235 143.995 110.7 140.023 112.303 135.858L102.049 131.252L98.5946 137.54C97.5443 139.416 96.4941 141.319 95.4716 143.195C94.7806 144.464 93.8686 144.767 92.5973 143.995C87.3739 140.878 82.1229 137.789 76.8995 134.644C75.5176 133.817 75.4071 133.072 76.3744 131.61C78.7235 128.052 81.0727 124.521 83.5324 120.825L74.4398 114.068L66.5079 123.446C66.1487 123.859 65.7894 124.301 65.4301 124.715C64.601 125.625 63.7166 125.652 62.8322 124.825C58.355 120.688 53.8778 116.55 49.4006 112.413C48.2951 111.392 48.5715 110.399 49.5388 109.406C52.496 106.4 55.4808 103.283 58.6867 99.9732ZM325.909 -69.3551L320.188 -82.4015C319.553 -82.1533 319.138 -81.9878 318.751 -81.8223C315.462 -80.2225 312.174 -78.6228 308.885 -77.0506C307.061 -76.1955 306.508 -76.361 305.486 -78.0435C303.385 -81.4913 301.312 -84.9667 299.24 -88.4145C297.83 -90.7866 297.913 -91.09 300.179 -92.6898C303.385 -94.9515 306.591 -97.2133 309.99 -99.613L301.45 -111.832C298.051 -109.239 294.818 -106.729 291.556 -104.274C289.926 -103.033 289.428 -103.088 288.047 -104.578C285.255 -107.584 282.491 -110.591 279.728 -113.625C277.959 -115.556 277.959 -115.804 279.728 -117.735C282.381 -120.686 285.062 -123.637 287.825 -126.671L277.075 -136.904C276.577 -136.325 276.135 -135.911 275.776 -135.442C273.482 -132.657 271.188 -129.898 268.922 -127.113C267.595 -125.513 266.959 -125.43 265.329 -126.671C262.344 -128.961 259.359 -131.278 256.347 -133.539C252.865 -136.187 252.865 -136.16 255.214 -139.911C256.982 -142.752 258.696 -145.62 260.492 -148.572L247.807 -155.688C247.392 -154.998 247.116 -154.529 246.84 -154.061C245.154 -150.999 243.468 -147.965 241.81 -144.903C241.119 -143.634 240.207 -143.331 238.935 -143.883C234.679 -145.731 230.396 -147.579 226.14 -149.454C225.006 -149.951 224.675 -150.833 225.172 -152.047C225.697 -153.316 226.14 -154.64 226.582 -155.936C227.521 -158.639 228.461 -161.315 229.428 -164.128L215.61 -168.652C215.416 -168.155 215.251 -167.824 215.112 -167.466C213.924 -163.907 212.708 -160.349 211.52 -156.791C211.133 -155.66 210.552 -154.778 209.115 -155.054C204.997 -155.853 200.852 -156.598 196.734 -157.453C194.136 -158.005 193.942 -158.501 194.302 -161.122C194.854 -165.038 195.214 -168.983 195.684 -173.065C191.013 -173.534 186.48 -174.003 181.976 -174.361C181.644 -174.389 180.981 -173.699 180.953 -173.285C180.511 -169.452 180.151 -165.59 179.82 -161.728C179.654 -159.825 179.129 -159.246 177.25 -159.274C172.828 -159.356 168.378 -159.494 163.929 -159.522C162.547 -159.549 161.883 -160.129 161.745 -161.453C161.441 -164.928 161.11 -168.403 160.778 -171.851C160.695 -172.651 160.529 -173.451 160.391 -174.361L146.296 -173.23C146.766 -168.707 147.18 -164.404 147.623 -160.129C147.816 -158.308 147.374 -157.646 145.688 -157.26C141.404 -156.322 137.121 -155.467 132.864 -154.474C131.234 -154.088 130.543 -154.695 130.101 -156.184C128.885 -160.184 127.586 -164.183 126.232 -168.403L112.275 -163.604C113.74 -159.577 115.066 -155.771 116.503 -152.019C117.084 -150.447 116.724 -149.537 115.204 -148.848C111.142 -146.944 107.107 -144.986 103.099 -143C101.773 -142.366 100.888 -142.697 100.197 -143.91C98.8156 -146.31 97.4614 -148.71 96.0796 -151.109C95.2228 -152.571 94.3661 -154.005 93.4541 -155.55L80.8239 -148.379C81.1003 -147.827 81.2938 -147.441 81.5148 -147.082C83.4771 -143.855 85.4393 -140.656 87.3739 -137.428C88.4518 -135.663 88.3412 -135.167 86.7383 -133.981C83.7534 -131.746 80.7963 -129.512 77.8115 -127.333C74.5227 -124.934 74.8267 -124.161 71.5655 -128.078C69.3545 -130.753 67.0607 -133.346 64.7115 -136.104L53.5185 -126.478C54.2924 -125.651 54.8727 -125.016 55.4808 -124.382C57.747 -122.037 60.0132 -119.665 62.3071 -117.348C63.4402 -116.218 63.606 -115.252 62.4177 -113.956C59.5987 -110.839 56.9179 -107.584 54.1265 -104.44C52.2749 -102.344 51.9985 -102.344 49.8152 -104.054C46.6369 -106.536 43.4586 -109.019 40.1975 -111.584L31.2154 -99.6957C34.6701 -97.2684 37.9589 -94.9239 41.2753 -92.607C43.2928 -91.1727 43.4034 -90.7866 42.2702 -88.6903C40.612 -85.6287 38.9538 -82.567 37.2679 -79.5054C35.1122 -75.5611 35.1399 -75.5887 31.022 -77.6022C27.8161 -79.1744 24.5549 -80.6914 21.2385 -82.2912L14.799 -68.8034C18.9446 -67.1209 22.8138 -65.5487 26.7106 -63.9765C27.8713 -63.5076 28.9215 -62.956 28.4517 -61.4665C27.0699 -56.9154 25.688 -52.3919 24.2509 -47.8684C23.864 -46.6272 23.0072 -46.1859 21.653 -46.6272C19.6908 -47.234 17.7009 -47.7029 15.711 -48.1994C13.4448 -48.7786 11.1509 -49.3578 8.80178 -49.9371L5.95516 -34.8495C6.59081 -34.684 7.06064 -34.5185 7.55811 -34.4358C11.1233 -33.6911 14.7161 -32.9188 18.2813 -32.2292C19.829 -31.9258 20.437 -31.1259 20.3264 -29.5813C20.0777 -25.3336 19.8842 -21.0859 19.6631 -16.8106C19.5802 -15.4315 18.9169 -14.6592 17.4245 -14.7695C16.1532 -14.8523 14.8819 -14.935 13.6106 -14.9626C10.2389 -14.9902 6.89482 -14.9626 3.49546 -14.9626V-0.75769C4.15875 -0.75769 4.68386 -0.75769 5.2366 -0.75769C8.99524 -0.840439 12.7815 -0.923172 16.5402 -0.978348C18.53 -1.00592 19.0551 -0.592194 19.2486 1.31099C19.6355 5.17253 20.0501 9.00647 20.3264 12.868C20.6028 16.7847 20.4646 16.7847 16.5954 17.4467C13.0579 18.0535 9.57561 18.8258 5.92752 19.5429L8.80178 34.134L21.2385 31.2379C23.3665 30.7414 23.864 31.0172 24.4996 33.1135C25.688 37.0853 26.8211 41.0572 27.9543 45.0566C28.5623 47.1529 28.2859 47.5666 26.1855 48.3665C22.4268 49.7732 18.6682 51.2075 14.7437 52.697L20.5475 66.8192C24.4443 64.9711 28.1477 63.261 31.8511 61.4958C34.0068 60.4752 34.5871 60.6407 35.7203 62.6542L41.6899 73.1907C42.7401 75.0387 42.6295 75.4524 40.8331 76.7212C39.2578 77.8245 37.6549 78.9278 36.0795 80.0587C34.2831 81.3275 32.5144 82.6238 30.635 83.9478L39.2578 96.3323C42.8783 93.712 46.2776 91.2296 49.7046 88.7471C51.3628 87.5611 51.9156 87.5887 53.2422 89.023C56.0611 92.0846 58.8525 95.1462 61.6715 98.2079C63.0257 99.6974 63.0257 100.221 61.5885 101.711C59.3776 104.028 57.139 106.317 54.928 108.662C54.2094 109.406 53.5462 110.179 52.8 111.034L63.8548 121.267C64.3799 120.66 64.8497 120.191 65.2643 119.695C67.5858 116.936 69.8797 114.178 72.2012 111.447C73.583 109.82 74.1634 109.737 75.8216 110.979C79.2486 113.516 82.6756 116.026 86.1026 118.591C87.7056 119.777 87.8161 120.357 86.7383 122.039C84.472 125.514 82.2058 128.962 79.829 132.548L93.0948 140.437C95.3057 136.437 97.4062 132.658 99.4513 128.879C100.142 127.583 101.027 127.169 102.436 127.804C106.471 129.624 110.506 131.445 114.596 133.182C116.089 133.817 116.42 134.81 115.84 136.216C115.011 138.313 114.182 140.437 113.38 142.56C112.689 144.381 112.026 146.229 111.335 148.132L125.485 153.18C126.674 148.987 127.807 144.988 128.885 141.016C129.493 138.837 129.907 138.533 132.201 139.002C135.877 139.775 139.58 140.547 143.256 141.347C147.512 142.257 147.484 142.257 146.711 146.587C146.103 149.925 145.605 153.29 145.052 156.793L159.949 158.448C160.28 154.2 160.612 150.146 160.916 146.091C161.082 144.05 161.414 143.691 163.459 143.691C167.632 143.691 171.777 143.746 175.951 143.746C178.797 143.746 179.101 144.105 179.212 147.001C179.35 150.807 179.599 154.586 179.792 158.475C180.373 158.475 180.677 158.503 181.008 158.475C185.209 158.117 189.382 157.731 193.583 157.427C194.799 157.345 194.689 156.627 194.578 155.8C194.108 152.242 193.666 148.684 193.196 145.098C193.003 143.608 193.5 142.753 195.103 142.395C198.889 141.567 202.62 140.574 206.379 139.637C209.751 138.809 209.889 138.864 210.829 142.285C210.967 142.753 211.077 143.25 211.216 143.719C212.128 146.918 213.067 150.146 214.007 153.428L228.24 148.27C228.019 147.525 227.853 146.946 227.66 146.394C226.471 143.084 225.255 139.747 224.011 136.437C223.542 135.223 223.68 134.258 224.979 133.706C229.29 131.803 233.574 129.9 237.885 127.997C239.018 127.5 239.903 127.749 240.511 128.907C241.229 130.286 242.003 131.638 242.749 132.989L246.923 140.602L259.857 133.017C257.701 129.514 255.684 126.232 253.666 122.922C252.312 120.743 252.367 120.357 254.385 118.84C257.701 116.357 261.045 113.875 264.389 111.42C266.13 110.124 266.711 110.179 268.12 111.889C270.69 115.006 273.233 118.122 275.886 121.35C279.286 118.233 282.547 115.171 285.891 112.22C286.858 111.365 286.748 110.813 285.946 109.958C283.376 107.2 280.889 104.386 278.318 101.601C277.296 100.497 277.323 99.5594 278.401 98.4561C281.248 95.5048 284.012 92.4984 286.831 89.5194C288.268 88.0024 288.737 87.9748 290.34 89.1609C293.021 91.1468 295.674 93.1327 298.328 95.1187C298.936 95.56 299.544 96.0013 300.234 96.4978L309.603 84.5546C309.023 84.0857 308.581 83.7547 308.139 83.4237C305.126 81.2723 302.114 79.1209 299.074 76.9695C297.443 75.811 297.305 75.2869 298.3 73.5217C300.317 69.9635 302.363 66.4054 304.38 62.8473C305.568 60.7786 306.094 60.6131 308.222 61.6061C311.483 63.1231 314.799 64.5574 318.033 66.102C319.111 66.6261 319.608 66.4054 320.05 65.3573C321.239 62.6818 322.482 60.0339 323.698 57.3584C324.251 56.1172 324.831 54.9035 325.412 53.6072C321.294 51.8695 317.397 50.2146 313.445 48.5596C312.201 48.0355 311.759 47.2632 312.229 45.9393C313.694 41.664 315.131 37.3612 316.596 33.0583C317.287 31.0724 317.784 30.7966 319.774 31.2655C323.477 32.1757 327.181 33.0859 330.884 34.0513C331.768 34.2719 332.183 34.134 332.349 33.1411C332.68 31.293 333.15 29.4726 333.537 27.6246C334.09 25.0594 334.615 22.4667 335.168 19.8739C334.615 19.736 334.311 19.6257 334.007 19.5705C330.193 18.8534 326.407 18.1638 322.593 17.4467C321.322 17.226 320.382 16.6468 320.492 15.1573C320.852 10.7442 321.266 6.33099 321.57 1.9178C321.681 0.290451 322.538 -0.343964 324.002 -0.371552C325.274 -0.399124 326.545 -0.371552 327.816 -0.371552H337.323V-14.6868C336.715 -14.742 336.356 -14.7971 335.969 -14.7971C332.1 -14.8523 328.203 -14.8799 324.334 -14.935C322.123 -14.9626 321.847 -15.2109 321.626 -17.3347C321.294 -20.8101 320.99 -24.2855 320.603 -27.7333C320.133 -32.1189 320.105 -32.0913 324.417 -33.0015C327.954 -33.7738 331.492 -34.6013 335.14 -35.4287L332.432 -49.6337C327.954 -48.5855 323.726 -47.6202 319.553 -46.5996C318.033 -46.241 317.148 -46.6548 316.651 -48.1718C315.352 -52.3368 314.053 -56.5017 312.643 -60.639C312.091 -62.2388 312.643 -63.149 314.081 -63.7834C316.706 -64.9419 319.304 -66.1831 321.93 -67.3967C323.228 -68.0311 324.5 -68.6931 325.909 -69.3551Z" fill="black" fill-opacity="0.3"/>
    <path d="M170.451 107.117C106.25 106.952 55.3149 54.8484 55.2873 -7.73602C55.2596 -70.6239 106.416 -122.534 170.202 -122.672C233.463 -122.782 285.614 -71.9478 285.614 -7.76362C285.587 56.1999 233.712 106.952 170.451 107.117ZM170.34 104.221C232.109 104.331 281.497 54.6553 282.74 -5.2812C284.067 -69.0793 232.441 -119.169 171.888 -119.831C109.566 -120.52 58.1339 -70.4032 58.1339 -7.81879C58.1339 54.7381 109.097 104.276 170.34 104.221Z" fill="black" fill-opacity="0.3"/>
    <path d="M215.278 123.556C212.404 124.521 212.404 124.521 210.801 122.37C209.502 120.632 208.203 118.867 206.877 117.129L206.517 117.322L208.922 125.432L206.711 126.287C206.296 124.963 205.882 123.804 205.522 122.618C204.721 119.97 203.892 117.35 203.146 114.675C203.007 114.15 203.146 113.047 203.284 113.02C204.251 112.854 205.274 111.723 206.268 113.102C207.65 115.033 209.087 116.909 210.525 118.84C210.663 119.005 210.801 119.143 211.326 119.17L209.032 111.31L211.326 110.537L215.278 123.556Z" fill="black" fill-opacity="0.3"/>
    <path d="M53.5462 38.1886L54.4858 40.3952L41.911 45.1394C40.3633 43.0155 40.3909 42.5466 42.1597 41.0572C44.0114 39.485 45.8631 37.9128 47.5489 36.0096L39.3131 39.0437L38.4563 36.7819L51.0312 32.0377C52.6341 34.6305 52.6065 34.6305 50.5061 36.3958C48.7926 37.8576 47.0791 39.3195 45.5314 41.1124L53.5462 38.1886Z" fill="black" fill-opacity="0.3"/>
    <path d="M67.1712 63.6747C69.2164 65.9089 69.2164 65.9089 67.7516 68.1707C66.5356 70.0187 65.3472 71.8391 64.4075 73.963L71.2615 68.9154L72.6986 70.8462L61.8096 79.0106L59.958 76.5833L65.0432 68.8878L64.7392 68.612L57.8575 73.7147L56.3928 71.8391L67.1712 63.6747Z" fill="black" fill-opacity="0.3"/>
    <path d="M78.2537 89.1333L84.2509 83.2307L86.2132 85.0235L76.1809 94.1257L76.402 94.6222L74.495 92.1398L78.1155 84.2788L72.0353 90.2366L69.9902 88.361L80.1606 79.314L79.6632 78.6796C80.0501 79.0381 80.437 79.4519 80.8792 79.7829C81.653 80.3897 81.7912 80.9689 81.3214 81.9067C80.1606 84.2236 79.1381 86.5957 78.0602 88.9402L78.2537 89.1333Z" fill="black" fill-opacity="0.3"/>
    <path d="M42.6848 47.5942L55.0662 41.7468C55.8677 43.5396 56.6139 45.2221 57.3601 46.9322C57.9128 48.2286 57.4983 49.3871 56.5586 50.2697C54.2924 52.4212 51.4181 53.7727 48.3228 54.1037C47.0238 54.2967 45.7249 53.6624 45.0892 52.5039C44.2325 50.9317 43.5415 49.3043 42.6848 47.5942ZM45.7249 49.1388C46.6645 51.6213 47.4107 52.035 49.6217 51.2075C51.0588 50.6559 52.4683 49.9663 53.7949 49.1664C55.6189 48.0907 55.7019 46.7943 54.1818 45.0842L45.7249 49.1388Z" fill="black" fill-opacity="0.3"/>
    <path d="M195.684 128.659L192.809 115.337L195.324 114.785L196.596 119.832L199.719 119.198L198.751 114.068L201.294 113.516L204.196 126.811L201.625 127.39L200.299 121.763C200.188 121.681 200.078 121.625 199.94 121.598C196.319 122.287 197.093 121.598 197.59 125.018C197.729 125.983 198.005 126.949 198.254 128.08L195.684 128.659Z" fill="black" fill-opacity="0.3"/>
    <path d="M141.239 122.922C141.46 121.874 141.791 119.805 142.427 117.819C143.228 115.281 144.887 114.426 147.595 114.895C149.972 115.309 151.326 116.909 151.133 119.501C150.967 121.543 150.58 123.529 150.027 125.487C149.226 128.383 147.54 129.321 144.666 128.797C142.233 128.355 141.156 126.866 141.239 122.922ZM143.698 124.135C143.892 125.294 143.588 126.645 145.274 126.894C146.959 127.142 147.291 125.763 147.54 124.604C147.954 122.784 148.286 120.936 148.507 119.088C148.618 118.095 148.452 117.047 147.153 116.798C145.909 116.578 145.274 117.322 144.997 118.371C144.527 120.301 144.14 122.232 143.698 124.135Z" fill="black" fill-opacity="0.3"/>
    <path d="M219.368 107.862C219.866 108.248 221.22 108.855 221.773 109.875C222.934 112.192 223.873 114.592 224.592 117.047C225.117 118.702 224.122 120.246 222.491 121.129C220.474 122.205 218.595 122.232 217.434 120.936C215.168 118.398 213.841 115.171 213.675 111.778C213.537 109.572 215.969 107.834 219.368 107.862ZM222.602 117.984C221.358 115.364 220.253 112.882 218.982 110.482C218.788 110.123 217.738 109.93 217.268 110.123C216.798 110.317 216.135 111.227 216.245 111.585C217.13 114.15 218.125 116.688 219.258 119.17C219.396 119.501 220.474 119.722 220.971 119.557C221.524 119.364 221.911 118.674 222.602 117.984Z" fill="black" fill-opacity="0.3"/>
    <path d="M118.604 106.124L120.981 107.255C119.322 110.565 117.858 113.875 116.089 116.992C115.011 118.867 112.938 118.977 110.672 117.709C108.572 116.55 107.825 114.978 108.71 112.909C110.064 109.765 111.584 106.703 113.076 103.504L115.453 104.662C114.099 107.586 112.8 110.399 111.473 113.185C110.976 114.233 110.451 115.281 111.75 116.081C112.745 116.716 113.767 116.136 114.513 114.537C115.674 112.109 116.807 109.655 117.968 107.2C118.134 106.896 118.355 106.593 118.604 106.124Z" fill="black" fill-opacity="0.3"/>
    <path d="M51.1694 63.7575L49.7322 61.413C54.0989 60.0615 58.2997 58.6823 62.5558 57.5239C62.998 57.4135 63.8824 58.4065 64.297 59.0409C64.5457 59.4546 64.5733 60.3649 64.297 60.6959C61.4227 63.8954 58.4656 67.0398 55.5084 70.1842C53.7396 68.4189 53.6567 68.3086 55.2873 66.6536C56.0888 65.8262 55.6189 65.2469 55.1491 64.6401C54.5964 63.9506 54.5411 62.5439 53.0487 63.0679L51.1694 63.7575ZM61.478 60.0063L56.0888 61.9646L57.5812 64.3091L61.478 60.0063Z" fill="black" fill-opacity="0.3"/>
    <path d="M90.9944 93.6568C89.8889 93.0224 88.8387 92.5259 89.5572 90.9813C89.6954 90.6503 89.2532 89.7677 88.8387 89.5195C88.4241 89.2712 87.4845 89.2988 87.2081 89.6022C86.7659 90.0987 86.3237 90.9813 86.4619 91.5881C86.7106 92.6363 87.4015 93.5741 87.8437 94.567C88.7558 96.6081 88.4518 97.9872 86.7659 99.4491C85.4393 100.58 83.6705 100.635 81.9847 99.587C79.3039 97.8493 78.1155 95.229 80.7687 92.8845L82.5927 94.4015C82.3992 94.7325 82.0676 95.0359 82.0676 95.3393C82.0676 96.0565 82.04 96.9391 82.4269 97.408C82.7862 97.7942 83.9193 98.0148 84.3062 97.739C84.8589 97.3253 85.2459 96.4426 85.3011 95.7255C85.3564 95.1463 84.8037 94.5394 84.5549 93.9326C84.1956 92.9673 83.6705 92.0019 83.56 91.0089C83.3665 89.3816 84.7484 87.6163 86.3237 87.0922C87.9819 86.5406 90.0823 87.5059 91.4089 89.4091C92.4315 90.7331 92.2933 92.0295 90.9944 93.6568Z" fill="black" fill-opacity="0.3"/>
    <path d="M130.46 110.813L137.701 113.02L137.065 115.006L132.395 113.764L131.455 116.771L135.794 118.26L135.241 120.191L130.792 119.06L129.742 122.536L134.578 124.08L133.859 126.094L126.508 123.832L130.46 110.813Z" fill="black" fill-opacity="0.3"/>
    <path d="M183.053 130.397L175.508 130.865L174.735 117.295L182.114 116.798L182.418 118.84L177.664 119.308V122.425C178.576 122.48 179.461 122.453 180.373 122.398C182.335 122.177 182.335 122.122 182.418 124.356L178.023 124.77V128.493L183.053 128.218V130.397Z" fill="black" fill-opacity="0.3"/>
    <path d="M192.118 120.053L189.935 120.274C189.824 120.191 189.742 120.081 189.659 119.97C189.382 118.895 189.272 117.653 187.696 117.819C186.066 118.012 186.287 119.364 186.342 120.384C186.48 122.26 186.757 124.108 187.116 125.956C187.309 127.004 187.669 128.052 189.134 127.831C190.543 127.638 190.405 126.535 190.46 125.57C190.488 125.183 190.46 124.797 190.46 124.301L192.865 123.915C193.942 127.942 191.317 130.783 187.448 129.735C186.37 129.376 185.485 128.604 184.988 127.583C183.772 124.908 183.385 121.956 183.855 119.06C184.242 116.688 186.149 115.53 188.995 115.805C191.013 116.026 192.174 117.488 192.118 120.053Z" fill="black" fill-opacity="0.3"/>
    <path d="M153.095 116.081L160.529 116.936L160.391 118.977L155.582 118.619L155.112 121.763L159.728 122.398L159.479 124.466L154.974 124.08L154.228 129.873L151.602 129.679L153.095 116.081Z" fill="black" fill-opacity="0.3"/>
    <path d="M170.838 119.584V130.728H168.129V119.529L165.31 119.281V117.295H173.795V119.391L170.838 119.584Z" fill="black" fill-opacity="0.3"/>
    <path d="M103.072 113.571L100.778 112.303L106.361 102.373L103.846 100.745L104.923 98.9526L112.413 103.2L111.418 105.021L108.737 103.697L103.072 113.571Z" fill="black" fill-opacity="0.3"/>
    <path d="M123.551 110.648L120.87 109.462L121.561 107.503L129.603 110.565L129.023 112.551L126.121 111.64L122.003 122.205L119.543 121.322L123.551 110.648Z" fill="black" fill-opacity="0.3"/>
    <path d="M95.0017 94.9256L92.6526 93.0776L93.8963 91.4226L100.916 96.3875L99.7 98.0976L97.2403 96.4978L90.5522 105.71L88.3688 104.221L95.0017 94.9256Z" fill="black" fill-opacity="0.3"/>
    <path d="M37.8483 34.5202L37.0468 31.955L50.0915 27.928L50.8654 30.4656L37.8483 34.5202Z" fill="black" fill-opacity="0.3"/>
    <path d="M68.4702 86.5957L66.6738 84.6374L76.7336 75.4524L78.5301 77.4384L68.4702 86.5957Z" fill="black" fill-opacity="0.3"/>
    <path d="M101.828 96.9391L104.067 98.3734L96.7429 109.82L94.5043 108.358L101.828 96.9391Z" fill="black" fill-opacity="0.3"/>
    <path d="M59.6263 51.042L60.8976 53.3865L49.0137 59.9236L47.6318 57.6618L59.6263 51.042Z" fill="black" fill-opacity="0.3"/>
    <path d="M100.142 25.749C99.4236 25.8042 98.7051 25.7766 97.9865 25.7214C97.5167 25.6387 97.0469 25.3353 96.6047 25.1146C96.881 24.7009 97.0469 24.1492 97.4338 23.8734C100.944 21.5565 102.547 18.2742 102.381 14.1644C102.187 9.33747 99.1196 5.91726 93.9515 4.56572C93.0395 4.31748 92.0722 4.2899 91.1878 4.01408C90.718 3.84858 90.3587 3.3521 89.9441 3.02112C90.3587 2.74529 90.7456 2.35912 91.2154 2.24879C95.361 1.25583 97.4338 -1.83339 98.788 -5.44668C100.032 -8.83931 99.3684 -12.1216 96.66 -14.5765C95.057 -16.0383 93.0119 -17.0037 91.1878 -18.2725C90.718 -18.6035 90.3587 -19.1275 89.9718 -19.5689C90.5245 -19.7344 91.1049 -20.0653 91.6576 -20.0378C96.1072 -19.7895 101.248 -23.9269 102.27 -28.5607C103.155 -32.5602 101.579 -35.677 98.9815 -38.4904C98.4287 -39.0972 97.7102 -39.5661 97.1574 -40.1729C96.8534 -40.5315 96.7705 -41.0831 96.577 -41.552C97.0192 -41.6899 97.4614 -41.9106 97.9036 -41.9106C99.7829 -41.9382 101.69 -41.6072 103.514 -41.9106C110.285 -43.0966 113.574 -48.751 111.39 -55.2605C110.893 -56.7499 109.981 -58.129 109.318 -59.5909C109.124 -60.0598 109.152 -60.6114 109.069 -61.1079C109.594 -61.1079 110.147 -61.301 110.589 -61.1355C113.27 -60.1701 115.923 -59.3702 118.825 -59.7288C125.126 -60.5011 127.945 -65.9624 127.116 -71.7271C126.95 -72.8029 126.536 -73.851 126.342 -74.9267C126.259 -75.3956 126.425 -75.9197 126.48 -76.4437C126.978 -76.3058 127.586 -76.3058 127.945 -76.0024C130.211 -74.0441 132.699 -72.6098 135.711 -72.1409C140.299 -71.4237 144.03 -73.4097 145.55 -77.7953C146.324 -80.057 146.49 -82.5394 146.987 -84.9115C147.098 -85.4356 147.484 -85.9045 147.733 -86.401C148.148 -86.0424 148.756 -85.7666 148.977 -85.2977C150.69 -82.043 153.15 -79.6985 156.771 -78.8158C162.491 -77.4091 167.991 -81.2431 169.18 -87.4215C169.18 -87.587 169.207 -87.7525 169.262 -87.918C169.566 -88.4972 169.898 -89.0489 170.23 -89.6281C170.617 -89.0765 171.087 -88.58 171.363 -88.0008C171.888 -86.8975 172.192 -85.7114 172.745 -84.6357C176.503 -77.4091 184.214 -76.3334 189.88 -82.2085C190.709 -83.0911 191.344 -84.1392 192.146 -85.0494C192.533 -85.4908 193.113 -85.7666 193.583 -86.0976C193.749 -85.5735 194.108 -85.0219 194.081 -84.4978C193.915 -81.6016 194.274 -78.8434 195.849 -76.361C198.724 -71.8651 203.892 -70.6239 208.977 -73.2442C210.359 -73.9613 211.547 -74.9543 212.874 -75.7542C213.344 -76.03 213.924 -76.1127 214.449 -76.2782C214.449 -75.699 214.615 -75.0094 214.394 -74.5405C211.575 -68.3897 214.311 -62.0457 220.695 -60.0598C224.039 -59.0117 227.134 -59.7564 230.147 -61.301C230.561 -61.5217 231.197 -61.3286 231.75 -61.301C231.612 -60.8045 231.584 -60.2253 231.28 -59.8667C227.991 -55.8949 227.466 -50.8197 229.981 -46.5996C232.247 -42.7381 236.614 -41.0555 241.727 -42.0209C242.003 -42.0761 242.28 -42.2416 242.528 -42.214C243.053 -42.1588 243.551 -42.0761 244.048 -41.9658C243.827 -41.4693 243.689 -40.89 243.357 -40.4763C241.92 -38.6007 240.013 -37.0009 239.046 -34.9047C235.785 -27.9263 240.925 -20.4515 248.636 -20.5342C249.244 -20.5342 249.852 -20.0929 250.432 -19.8723C249.99 -19.4034 249.603 -18.7965 249.078 -18.4931C246.619 -17.1692 244.269 -15.7349 242.666 -13.3353C240.925 -10.7149 240.732 -7.92909 241.893 -5.11568C243.302 -1.72305 245.596 0.86969 249.216 2.13847C249.631 2.27639 249.907 2.82803 250.239 3.1866C249.797 3.43484 249.382 3.87617 248.94 3.93133C244.767 4.53815 241.34 6.35857 239.212 10.1098C236.697 14.6057 237.941 19.8464 242.307 23.6803C242.556 23.901 242.915 24.0389 243.081 24.3147C243.33 24.8112 243.523 25.3077 243.717 25.8042C243.219 25.8869 242.694 26.1351 242.224 26.0248C238.327 25.0594 234.707 25.4732 231.639 28.2314C228.157 31.4034 227.466 36.8647 229.898 41.3882C230.34 42.2157 230.948 42.9604 231.391 43.7879C231.584 44.1464 231.473 44.6705 231.529 45.1118C231.087 45.1118 230.617 45.1946 230.175 45.1118C227.825 44.5326 225.532 43.4569 223.182 43.3465C217.71 43.0983 213.786 46.8495 213.509 52.3384C213.399 54.4622 213.813 56.6137 213.924 58.7651C213.952 59.234 213.703 59.7305 213.592 60.227C213.122 60.0339 212.542 59.9787 212.21 59.6753C209.999 57.6618 207.595 56.1172 204.61 55.8138C199.497 55.2621 195.628 57.9376 194.191 63.0955C193.721 64.7781 193.694 66.5985 193.39 68.3086C193.307 68.8327 192.92 69.3016 192.671 69.798C192.257 69.4671 191.731 69.2464 191.483 68.8327C189.299 65.4125 186.453 62.9025 182.28 62.4336C177.581 61.9095 174.127 63.9782 172.192 68.3362C171.75 69.3567 171.529 70.46 171.114 71.453C170.921 71.8943 170.479 72.2529 170.147 72.639C169.815 72.2529 169.318 71.9219 169.152 71.4806C168.323 68.6396 166.582 66.1572 164.205 64.3643C159.645 60.9717 154.449 61.4682 150.663 65.7159C149.806 66.6537 149.17 67.7845 148.341 68.7499C148.037 69.1085 147.512 69.274 147.098 69.5222C146.904 69.0533 146.517 68.5569 146.6 68.1155C147.015 65.5228 146.407 62.8473 144.942 60.6683C141.432 55.3449 134.854 54.3795 129.161 58.2686C128.332 58.8479 127.309 59.1788 126.37 59.6477C126.48 58.6548 126.536 57.6618 126.701 56.6689C127.392 52.5315 127.005 48.6424 123.551 45.7462C119.903 42.6846 115.757 42.7121 111.501 44.3119C110.893 44.5326 110.313 44.9463 109.705 45.1394C109.318 45.2497 108.82 45.0567 108.378 45.0291C108.489 44.5878 108.461 44.0361 108.737 43.7603C110.727 41.7744 111.639 39.3195 111.86 36.6165C112.385 30.3553 108.765 26.2731 102.381 25.8042C101.607 25.749 100.833 25.8042 100.059 25.8042L100.142 25.749ZM128.664 56.4758C133.003 53.9106 137.065 53.2486 141.294 55.207C145.439 57.1377 147.678 60.6131 148.562 65.3021C151.906 61.7716 155.472 59.565 160.253 60.6131C164.785 61.6061 167.715 64.6126 170.119 68.6396C172.164 64.1437 175.011 60.9717 179.903 60.5304C184.684 60.1167 188.415 62.2957 191.731 65.909C192.561 61.0269 194.274 56.8895 198.779 54.876C203.284 52.8625 207.623 54.0761 211.796 56.9171C211.381 52.0074 211.658 47.5391 215.389 44.2292C219.092 40.9469 223.514 40.9193 228.102 42.1053C225.172 30.1622 227.825 25.8593 239.599 23.5148C236.78 19.8464 235.232 15.9021 236.78 11.3234C238.272 6.85506 241.589 4.23474 246.066 2.60738C242.28 -0.288773 239.709 -3.62624 239.488 -8.20492C239.239 -13.0318 242.141 -16.1762 246.011 -18.9345C241.202 -20.286 238.079 -23.0167 236.807 -27.5678C235.536 -32.1188 236.89 -36.1459 239.93 -39.7316C228.212 -42.0485 225.172 -46.7375 227.825 -58.4324C223.321 -57.3567 219.175 -57.936 215.637 -60.9424C212.1 -63.9489 210.912 -67.9484 211.768 -72.8029C207.54 -70.4308 203.422 -69.1344 199.028 -71.3134C194.689 -73.4648 192.892 -77.2712 192.229 -82.0705C188.83 -78.5952 185.181 -76.2782 180.317 -76.8299C175.37 -77.4091 172.689 -80.8293 170.423 -85.1873C168.489 -80.4156 165.31 -77.547 160.502 -76.9402C155.637 -76.3058 151.851 -78.54 148.618 -82.4015C147.733 -77.547 146.351 -73.3269 141.708 -71.2307C137.176 -69.162 133.003 -70.6514 128.774 -72.9959C129.382 -68.0035 128.774 -63.6455 124.877 -60.4735C121.091 -57.3843 116.642 -57.605 111.888 -58.7083C114.127 -54.102 114.762 -49.7716 112.137 -45.5515C109.511 -41.3314 105.255 -39.9522 100.197 -39.8419C103.486 -36.1735 105.2 -32.2568 103.79 -27.6229C102.436 -23.127 99.2302 -20.3136 94.6701 -18.5483C98.5393 -15.928 101.248 -12.8388 100.999 -8.01184C100.75 -3.40558 98.2076 -0.123283 94.6701 2.85561C99.2578 4.40022 102.574 6.99297 103.818 11.5165C105.062 16.04 103.624 20.0946 100.502 23.7355C105.2 24.1768 109.484 25.0318 112.081 29.1968C114.624 33.3066 113.905 37.6094 112.275 42.0778C117.001 40.7538 121.146 41.2779 124.739 44.3119C128.277 47.3736 129.244 51.4834 128.664 56.4758Z" fill="black" fill-opacity="0.3"/>
    <path d="M243.496 67.619C240.069 63.7023 239.184 63.592 234.486 65.8813C231.639 67.2605 228.627 68.4465 225.393 67.2881C221.11 65.7434 218.65 62.5439 217.931 58.1307C217.351 54.5174 219.23 51.8419 222.049 49.8284C224.26 48.2562 226.582 48.3941 228.461 49.9663C229.649 50.8765 230.147 52.3936 229.788 53.8278C229.456 55.3173 228.461 56.1999 227.052 56.6688C226.748 56.7792 226.388 56.8067 226.084 56.9171C223.929 57.6618 223.182 59.8132 224.398 61.7164C226.305 64.7781 229.981 65.8538 233.961 64.4746C235.204 64.0333 236.393 63.4541 237.637 62.9576C240.069 62.0198 242.639 63.1231 243.468 65.5228C243.661 66.1572 243.496 66.9019 243.496 67.619Z" fill="black" fill-opacity="0.3"/>
    <path d="M217.904 85.2718C217.766 84.8029 217.627 84.334 217.517 83.8651C217.075 82.017 215.914 80.9689 214.007 80.9689C212.404 80.9689 210.801 81.1344 209.226 81.4102C201.487 82.8169 195.075 76.142 196.817 68.4741C197.701 64.6401 201.791 61.6337 205.716 62.0198C207.789 62.2129 208.977 63.5368 209.668 65.3573C210.303 67.0122 209.695 68.5017 208.314 69.4119C207.457 69.9635 206.268 70.2394 205.218 70.2945C202.261 70.4324 200.935 72.3632 202.095 75.0939C203.339 77.9349 205.522 79.5346 208.618 79.645C210.221 79.6725 211.824 79.5622 213.399 79.3415C216.107 79.0106 218.401 80.3897 218.899 82.9272C219.037 83.6996 218.705 84.5546 218.595 85.3821L217.904 85.2718Z" fill="black" fill-opacity="0.3"/>
    <path d="M121.257 85.1338C120.041 83.6444 120.179 82.4032 120.87 81.162C121.754 79.5898 123.053 78.7071 124.905 78.7623C127.061 78.8175 129.216 79.0933 131.344 78.9554C134.412 78.7623 137.397 75.7282 137.563 72.9976C137.673 71.1772 136.651 69.9359 134.854 69.6877C134.467 69.6601 134.081 69.6325 133.694 69.6601C131.317 69.605 129.41 68.0328 129.299 66.0468C129.189 63.923 131.262 61.6061 133.473 61.3854C138.613 60.8338 143.118 65.6607 142.648 71.122C142.04 77.8245 136.9 81.7964 130.211 80.7758C128.802 80.5276 127.365 80.3897 125.928 80.3621C123.385 80.3897 122.362 81.2999 121.782 83.7547C121.644 84.196 121.45 84.6649 121.257 85.1338Z" fill="black" fill-opacity="0.3"/>
    <path d="M67.8345 15.4332C67.6687 14.0816 68.4978 13.0059 69.9626 12.6198C71.9524 12.0957 73.6383 12.8404 75.0478 14.5781C76.5955 16.4813 78.1155 18.55 80.0501 19.9843C82.2334 21.584 84.8866 21.3082 87.291 20.0118C88.6452 19.2671 89.0321 17.6122 88.3136 16.0676C88.1477 15.6538 87.899 15.2952 87.5674 14.9918C85.9091 13.7231 85.5775 11.351 86.8488 9.69602C87.0699 9.4202 87.3186 9.17197 87.595 8.95131C89.6678 7.35153 92.929 8.0135 94.449 10.358C97.3509 14.7988 95.9414 20.4807 91.2707 23.0735C85.4946 26.3006 80.6581 25.1422 76.706 19.5981C75.9322 18.5224 75.2689 17.3639 74.4674 16.3158C72.671 14.0265 71.3721 13.7506 68.7189 15.047C68.4425 15.2125 68.1385 15.2953 67.8345 15.4332Z" fill="black" fill-opacity="0.3"/>
    <path d="M65.0984 -14.2731C66.5356 -16.8934 70.3771 -16.7555 71.9248 -14.1076C72.4499 -13.2249 72.7263 -12.1768 73.0303 -11.1838C74.4674 -6.54999 77.0377 -4.23308 80.9068 -4.12275C84.1404 -4.01242 85.6604 -6.30176 84.3062 -9.28065C83.2283 -11.6527 83.7811 -13.6938 85.8539 -14.742C87.7608 -15.7349 90.414 -14.8799 91.6576 -12.9491C93.9239 -9.28065 92.4868 -3.84692 88.6176 -1.50242C82.3163 2.30395 75.3518 -0.316381 72.7539 -7.4878C72.2841 -8.78417 72.0353 -10.1633 71.5102 -11.4321C70.3771 -14.1903 69.0782 -14.8523 66.1763 -14.3282C65.817 -14.2455 65.4577 -14.2455 65.0984 -14.2731Z" fill="black" fill-opacity="0.3"/>
    <path d="M148.562 94.6498C146.296 93.3258 146.6 89.6849 149.115 88.4162C150.359 87.7818 151.851 87.5887 153.233 87.3129C156.605 86.6509 159.562 85.4373 160.612 81.7964C160.888 80.8034 160.999 79.7553 160.888 78.7072C160.695 76.6661 158.788 75.8662 156.218 76.6385C153.371 77.4659 150.69 75.5076 150.939 72.7494C151.188 70.4049 153.067 68.5568 155.416 68.3362C164.426 67.5915 166.969 76.0317 164.896 81.7688C163.403 85.9338 160.032 87.5611 156.024 88.3058C154.725 88.5541 153.371 88.6368 152.1 88.9678C149.364 89.6574 148.507 90.9262 148.701 93.7671C148.701 94.043 148.645 94.3464 148.562 94.6498Z" fill="black" fill-opacity="0.3"/>
    <path d="M96.0519 66.4606C95.2228 65.2745 95.665 64.2816 96.3283 63.3713C97.4062 61.9371 98.8156 61.1096 100.64 61.4681C101.607 61.6612 102.464 62.268 103.431 62.4887C105.338 62.9852 107.273 63.5368 109.207 63.7023C111.335 63.8954 113.021 62.6818 114.403 61.1647C116.365 58.9857 115.536 56.3378 112.745 55.4552C109.898 54.5726 108.654 52.6142 109.566 50.38C110.589 47.8149 113.491 46.7392 116.061 47.9252C121.561 50.4904 122.998 56.724 119.295 61.9095C116.365 66.0192 112.303 67.3432 107.494 65.6607C106.084 65.1642 104.758 64.5022 103.376 63.923C100.115 62.5163 98.6498 62.9576 96.7152 65.8538C96.4941 66.102 96.273 66.2951 96.0519 66.4606Z" fill="black" fill-opacity="0.3"/>
    <path d="M190.239 95.5324C190.018 94.6773 189.907 94.4015 189.88 94.0981C189.769 90.5676 188.608 89.354 185.043 88.9678C183.302 88.7747 181.561 88.4437 179.847 87.9472C172.385 85.7407 171.169 76.2523 175.508 71.2323C177.498 68.943 181.754 68.0052 184.546 69.0257C186.397 69.7705 187.586 71.5633 187.558 73.5492C187.531 75.3697 186.591 76.6385 184.656 77.0798C183.855 77.2729 182.915 77.1074 182.086 76.8867C179.046 76.0592 177.001 77.8797 177.581 80.9689C178.272 84.6098 180.925 86.9543 185.071 87.6163C186.232 87.7542 187.365 87.9748 188.498 88.2507C190.736 88.9126 192.035 91.2296 191.427 93.4913C191.317 94.0705 190.819 94.5946 190.239 95.5324Z" fill="black" fill-opacity="0.3"/>
    <path d="M78.3919 43.4017C78.0049 41.7192 78.6959 40.7814 79.7737 40.1194C81.2108 39.2092 82.7585 38.823 84.3062 39.816C85.6604 40.671 86.8488 41.7743 88.1477 42.6846C91.3813 44.9463 95.0294 45.0842 97.7102 43.0431C99.9211 41.3606 99.8935 39.0713 97.5996 37.4439C97.4614 37.3612 97.3232 37.2784 97.1851 37.1681C95.0846 35.7614 94.4214 33.7755 95.4716 31.9826C96.6047 29.9967 99.3407 29.1692 101.414 30.1897C106.83 32.7825 107.494 40.4228 102.657 44.7256C97.7654 49.0837 92.4868 48.7803 87.1528 43.843C86.5724 43.2638 85.9368 42.7397 85.2459 42.2432C82.8414 40.5883 81.2938 40.7814 79.2762 42.8776C78.9722 43.0156 78.6682 43.2086 78.3919 43.4017Z" fill="black" fill-opacity="0.3"/>
    <path d="M104.592 -7.87394C104.315 -43.3725 133.721 -73.6303 170.506 -73.5752C206.241 -73.5476 235.978 -44.9723 236.393 -8.64626C236.835 29.1416 206.158 58.1307 170.175 57.9928C133.169 57.8273 104.205 27.3488 104.592 -7.87394ZM234.596 -7.87394C234.735 -42.4347 206.794 -71.1203 171.86 -71.8375C135.048 -72.5822 106.25 -42.876 106.25 -7.81879C106.278 26.8247 134.108 56.2551 170.506 56.2275C207.181 56.2275 234.845 26.3282 234.596 -7.87394Z" fill="black" fill-opacity="0.3"/>
    <path d="M170.092 37.7473C144.942 37.6922 123.855 17.1433 124.297 -8.86691C124.684 -34.1324 145.522 -54.2675 170.838 -53.8813C170.948 -53.8813 171.059 -53.8813 171.197 -53.8813C196.54 -53.3849 216.66 -32.505 216.19 -7.21196C216.19 -6.90856 216.163 -6.57756 216.163 -6.27415C215.195 18.0535 195.076 37.7749 170.092 37.7473ZM215.582 -8.03943C215.582 -32.7257 195.38 -53.0263 171.087 -53.3297C145.605 -53.6607 124.822 -33.0291 124.877 -8.06701C124.933 16.8399 145.08 37.0302 170.036 37.1957C194.633 37.3612 215.637 17.2812 215.582 -8.03943Z" fill="black" fill-opacity="0.3"/>
    <path d="M117.443 -17.1692C118.825 -16.1762 118.935 -15.1005 118.383 -13.7766C117.94 -12.8664 117.692 -11.901 117.581 -10.908C117.471 -8.97724 117.581 -7.04647 117.664 -5.1157C117.692 -4.59164 117.885 -4.06758 118.189 -3.62627C119.101 -2.27473 118.963 -1.08868 117.554 0.0697803C117.554 -0.537031 117.692 -1.17143 117.526 -1.72307C117.36 -2.21956 116.89 -2.60571 116.531 -3.04703C116.227 -2.60571 115.785 -2.19198 115.647 -1.72307C115.481 -1.17143 115.619 -0.537035 115.619 0.152525C114.265 -0.730112 114.016 -1.94373 114.624 -3.24011C115.066 -4.20549 115.37 -5.22604 115.481 -6.27417C115.619 -7.81878 115.619 -9.36339 115.481 -10.908C115.37 -11.901 115.094 -12.8939 114.652 -13.8042C114.016 -15.1557 114.265 -16.2038 115.508 -17.5829C115.564 -16.5624 115.481 -15.8728 115.647 -15.2384C115.757 -14.7971 116.199 -14.4661 116.503 -14.08C116.835 -14.4385 117.305 -14.7695 117.415 -15.2109C117.581 -15.8453 117.443 -16.5348 117.443 -17.1692Z" fill="black" fill-opacity="0.3"/>
    <path d="M182.805 48.6423L181.119 42.7121C182.28 41.6916 182.777 42.2708 183.247 43.2914C183.634 44.1188 184.186 44.8636 184.905 45.4428C184.905 44.5602 184.933 43.6499 184.905 42.7673C184.85 41.7467 184.988 40.9744 186.48 41.2503L188 47.2356L187.337 47.4287L186.093 43.7051H185.762V47.9804L185.237 48.1183L183.136 44.8084L182.832 44.8911L183.523 48.4493L182.805 48.6423Z" fill="black" fill-opacity="0.3"/>
    <path d="M138.254 37.7473C140.161 37.6646 140.548 34.6581 143.118 35.8717L139.304 41.2503L138.724 40.8917L140.603 37.6921L140.354 37.4439L137.259 39.9539L136.817 39.5953L138.198 35.5683L137.922 35.4304L135.435 38.5472L134.882 38.1335C136.015 36.5061 137.121 34.8512 138.281 33.2514C138.392 33.1135 139 33.1135 139.138 33.2514C139.359 33.5272 139.58 34.0237 139.497 34.3547C139.193 35.458 138.724 36.5337 138.254 37.7473Z" fill="black" fill-opacity="0.3"/>
    <path d="M129.355 27.5418L126.315 30.107L125.845 29.6105L130.432 25.1421L131.483 26.273L129.41 29.6657L129.686 29.9967C130.432 29.6105 131.179 29.2243 131.897 28.8106C132.671 28.3417 133.445 27.7625 134.053 29.3071L129.52 33.5272L129.023 33.1135C129.41 32.6446 129.769 32.1481 130.211 31.7068C130.709 31.1827 131.262 30.7414 131.566 29.9139L127.835 31.8447L127.337 31.4861L129.576 27.7901L129.355 27.5418Z" fill="black" fill-opacity="0.3"/>
    <path d="M224.675 12.3164L221.082 11.1303L220.888 11.4337L224.067 13.9161L223.901 14.4402L219.368 13.9437L219.258 14.1644L223.127 15.9297L223.044 16.371C222.63 16.3434 222.215 16.4261 221.856 16.2882C220.557 15.7917 219.286 15.2953 218.042 14.6884C217.655 14.4954 217.434 13.9989 217.13 13.6403C217.655 13.4197 218.18 12.9783 218.678 12.9783C219.7 13.0059 220.695 13.2817 221.883 13.1438L218.429 10.5235L219.064 9.17197L224.896 11.682L224.675 12.3164Z" fill="black" fill-opacity="0.3"/>
    <path d="M153.122 47.6494C150.994 46.353 152.57 44.2843 151.492 42.7673L149.944 46.4082L149.309 46.1875L151.243 40.2021C152.763 40.1746 152.514 41.2227 152.542 42.0226C152.57 42.8225 152.542 43.6223 152.542 44.4222L153.067 44.5601L154.477 41.1399L155.112 41.3606L153.122 47.6494Z" fill="black" fill-opacity="0.3"/>
    <path d="M163.459 45.2773L162.878 49.525H162.298C162.243 48.8906 162.187 48.2562 162.215 47.6218C162.298 46.4082 162.408 45.1946 162.602 44.0085C162.657 43.6775 163.044 43.4017 163.293 43.0983C163.597 43.3741 164.039 43.5948 164.15 43.9258C164.509 45.0015 164.758 46.1324 165.366 47.2357L166.112 43.4017L166.526 43.3465C166.637 43.4844 166.692 43.6224 166.748 43.7603C166.582 45.7462 166.416 47.7046 166.195 49.9939C163.873 49.1113 164.73 46.7667 163.459 45.2773Z" fill="black" fill-opacity="0.3"/>
    <path d="M158.456 49.1664C157.627 46.4082 156.356 45.9117 154.421 48.3389L154.2 47.7045C155.223 45.8841 156.135 43.9809 157.351 42.2984C157.848 41.6088 158.733 42.0777 158.76 43.0431C158.816 44.9187 158.788 46.7667 158.788 48.6423L158.456 49.1664Z" fill="black" fill-opacity="0.3"/>
    <path d="M121.865 24.9767C124.186 24.094 126.066 23.3493 127.945 22.6873C128.304 22.6322 128.636 22.7701 128.857 23.0459C128.995 23.3769 128.968 23.7355 128.774 24.0113C127.613 25.5283 126.37 27.0454 124.905 28.8658C124.905 27.5694 125.237 26.4661 124.794 25.8593C124.408 25.3077 123.247 25.3352 121.865 24.9767Z" fill="black" fill-opacity="0.3"/>
    <path d="M204.721 30.438L210.221 34.2444C208.811 34.5753 207.181 36.0096 206.738 37.0578C204.914 35.1822 203.698 31.3758 204.721 30.438Z" fill="black" fill-opacity="0.3"/>
    <path d="M189.189 47.0426C188.94 44.7808 188.691 42.8777 188.553 40.9745C188.526 40.6435 188.83 40.0918 189.106 40.0091C189.382 39.9263 189.935 40.1746 190.156 40.4504C191.289 41.9123 192.367 43.4569 193.777 45.3876C192.505 45.0015 191.538 44.3671 190.902 44.6153C190.267 44.8636 189.907 45.9393 189.189 47.0426Z" fill="black" fill-opacity="0.3"/>
    <path d="M133.5 37.1681L133.749 35.3201C133.141 33.5824 131.676 34.7132 130.377 34.7132C132.478 32.2308 135.794 30.6311 136.872 31.5137L134.025 37.306L133.5 37.1681Z" fill="black" fill-opacity="0.3"/>
    <path d="M119.543 20.5911L124.988 17.1984C125.485 18.0259 126.038 18.6603 126.287 19.4326C126.453 19.9015 126.342 20.7841 126.011 21.0048C124.518 22.0529 122.915 22.8804 121.202 23.4872C121.45 23.1562 121.616 22.7425 121.92 22.5218C122.611 22.0253 123.468 21.5289 122.749 20.5911C122.556 20.3428 121.561 20.6738 120.953 20.7841C120.566 20.8669 120.151 21.0048 119.765 21.1427L119.543 20.5911ZM123.136 19.5153C123.634 20.5635 124.131 21.2254 125.098 20.5083C126.066 19.7912 125.568 19.1292 124.85 18.4121L123.136 19.5153Z" fill="black" fill-opacity="0.3"/>
    <path d="M211.243 33.6376L205.909 28.6451C207.291 27.9832 208.701 26.742 209.53 27.0454C210.856 27.5418 212.128 28.9485 212.708 30.2725C213.012 30.9621 211.851 32.3412 211.243 33.6376ZM207.485 28.783C208.341 29.6105 209.198 30.5207 210.165 31.2931C210.525 31.5965 211.16 31.5689 211.658 31.6792C211.685 31.1 211.906 30.3828 211.658 29.9415C211.326 29.3071 210.69 28.7555 210.082 28.2866C209.17 27.5694 208.258 27.4867 207.485 28.783Z" fill="black" fill-opacity="0.3"/>
    <path d="M214.504 29.3347L209.585 25.3352L209.999 24.7836L212.238 26.1627L213.371 24.7008L211.409 22.9632C212.459 22.577 215.002 24.2595 216.881 26.411L216.688 26.8523L214.2 25.4456C212.708 26.5489 212.708 26.6592 214.062 27.7901C214.421 28.1211 214.753 28.5072 215.085 28.8934L214.504 29.3347Z" fill="black" fill-opacity="0.3"/>
    <path d="M175.287 43.1258L175.868 45.6359L177.913 42.7949L178.576 42.9052C176.227 45.4428 177.885 47.2632 179.516 49.1112L178.908 49.4974L176.393 46.7391L175.84 49.7732L175.398 49.6353C174.652 46.4082 174.514 44.0361 175.287 43.1258Z" fill="black" fill-opacity="0.3"/>
    <path d="M123.164 13.6955L121.036 14.8539L121.727 16.4813L124.352 15.7366L124.573 16.371L118.853 19.1844L118.466 18.6327L121.257 16.6744C120.594 16.2055 120.041 15.5435 119.543 15.5711C118.853 15.5987 118.162 16.1503 117.498 16.4813L117.194 16.1779C117.415 15.8745 117.609 15.378 117.913 15.2677C119.654 14.6333 121.091 13.199 123.026 13.1438L123.164 13.6955Z" fill="black" fill-opacity="0.3"/>
    <path d="M167.162 50.2421C167.853 47.87 168.378 45.9393 168.986 44.0361C169.18 43.7327 169.484 43.5396 169.843 43.512C170.092 43.5396 170.451 43.9258 170.534 44.2016C171.087 46.1048 171.501 48.0631 171.722 50.0491C171.114 49.4974 170.561 48.7803 169.843 48.4217C168.406 47.7321 168.599 49.7456 167.162 50.2421ZM170.534 47.6494L169.705 44.4498L168.82 47.4839L170.534 47.6494Z" fill="black" fill-opacity="0.3"/>
    <path d="M120.815 12.2888C120.925 12.0129 121.119 11.7371 121.091 11.4889C121.008 10.9924 120.898 10.4683 120.759 9.99944C120.262 10.3028 119.792 10.6338 119.378 11.02C119.212 11.2131 119.295 11.6544 119.322 11.9854C119.433 13.199 118.77 14.0816 117.692 13.9989C116.973 13.9437 116.089 13.1714 115.702 12.5094C115.122 11.4889 115.674 10.6614 117.056 10.4132C116.835 10.7442 116.642 11.1027 116.503 11.4613C116.393 11.8475 116.282 12.3715 116.476 12.6473C116.752 12.9507 117.167 13.1162 117.581 13.0611C117.913 12.9783 118.217 12.5094 118.327 12.1233C118.493 11.4889 118.3 10.689 118.631 10.2201C119.018 9.66844 119.93 9.00646 120.373 9.14437C121.063 9.36503 121.754 10.1373 122.058 10.8269C122.252 11.2682 121.699 12.013 121.478 12.6198L120.815 12.2888Z" fill="black" fill-opacity="0.3"/>
    <path d="M222.464 17.7777C221.275 18.412 220.17 18.6327 219.783 19.2947C219.479 19.8187 220.087 20.8669 220.28 21.6668L219.728 22.0253C218.401 20.591 217.047 19.1568 215.776 17.6673C215.582 17.3639 215.527 17.0053 215.61 16.6744C215.776 16.3985 216.052 16.233 216.384 16.233C218.318 16.6743 220.253 17.1984 222.464 17.7777ZM216.936 17.2536L216.771 17.5846L218.733 19.3498L219.507 17.9156L216.936 17.2536Z" fill="black" fill-opacity="0.3"/>
    <path d="M201.819 38.2714C202.123 38.4093 202.455 38.492 202.814 38.5472C203.256 38.5472 203.809 38.5196 204.085 38.2714C204.306 38.0783 204.362 37.3612 204.196 37.1405C203.864 36.8095 203.422 36.6164 202.952 36.6164C202.482 36.6164 201.902 37.0854 201.543 36.9474C200.824 36.644 199.691 36.0648 199.663 35.5683C199.636 34.8512 200.299 33.9134 200.935 33.3893C201.266 33.1135 202.151 33.472 202.786 33.5548L202.676 34.2444C202.316 34.2168 201.902 34.0513 201.598 34.1616C201.156 34.3271 200.824 34.6857 200.409 34.9339C200.769 35.2925 201.045 35.8441 201.46 35.9545C201.957 36.0924 202.537 35.8166 203.063 35.7062C204.196 35.4856 205.08 36.0096 205.108 37.0578C205.052 37.9404 204.61 38.7403 203.919 39.2919C203.228 39.7884 202.206 39.7057 201.819 38.2714Z" fill="black" fill-opacity="0.3"/>
    <path d="M145.66 37.306C146.296 38.9609 144.859 40.4228 144.997 42.1881C146.572 41.4158 146.876 39.2643 148.562 38.7954L148.977 39.2092C147.678 40.7262 146.407 42.2708 145.025 43.7327C144.804 43.9533 144.113 43.7603 143.532 43.7603L145.052 37.2784L145.66 37.306Z" fill="black" fill-opacity="0.3"/>
    <path d="M191.759 39.0437C193.804 37.4991 194.854 37.3612 195.711 38.492C196.623 39.7057 196.319 40.5056 194.412 41.9123L195.269 44.3947L194.633 44.6429L191.759 39.0437ZM193.915 41.1675C195.075 40.6711 195.573 40.0091 194.91 39.1816C194.606 38.7955 193.749 38.8506 193.169 38.7127L192.947 39.2368L193.915 41.1675Z" fill="black" fill-opacity="0.3"/>
    <path d="M219.009 23.7079L212.57 21.722V21.391H215.527L214.228 18.7431L214.615 18.55L219.009 23.7079Z" fill="black" fill-opacity="0.3"/>
    <path d="M180.179 42.5742L181.312 48.9182C179.765 47.87 179.101 43.2914 180.179 42.5742Z" fill="black" fill-opacity="0.3"/>
    <path d="M196.098 36.644C198.171 38.6299 199.525 41.4985 198.889 42.5191C197.95 40.4504 196.347 38.8782 196.098 36.644Z" fill="black" fill-opacity="0.3"/>
    <path d="M147.07 45.2221L149.695 38.9333C150.331 40.6159 148.645 44.6705 147.07 45.2221Z" fill="black" fill-opacity="0.3"/>
    <path d="M202.897 17.0054C204.859 18.7982 203.615 19.8188 202.537 20.8945C201.46 21.9702 200.465 23.0459 199.359 24.0665C198.53 24.8388 197.812 26.1627 196.374 24.8939C196.07 25.2801 195.435 25.8041 195.518 26.0248C195.988 27.1005 195.352 27.5694 194.606 28.0107C193.251 28.8658 191.897 29.7208 190.488 30.5207C189.465 31.1 188.553 31.8723 187.309 30.5759C186.674 29.9139 185.596 30.4932 185.651 31.5965C185.707 32.7273 185.099 33.0307 184.242 33.2514C182.805 33.6376 181.368 34.0513 179.93 34.465C178.742 34.796 177.692 35.2097 176.863 33.6376C176.338 32.617 175.453 33.1962 175.204 34.0789C174.9 35.2373 174.21 35.4856 173.132 35.458C171.473 35.4304 169.815 35.5683 168.157 35.5683C167.134 35.5683 166.14 35.5132 166.084 34.0513C166.057 33.6376 165.421 32.9756 165.062 32.9756C164.509 33.0583 164.039 33.4169 163.763 33.9134C163.376 35.0167 162.685 35.0167 161.8 34.7684C159.783 34.2168 157.738 33.6927 155.748 33.0307C155.333 32.8928 155.085 32.2033 154.836 31.7344C154.587 31.2655 154.587 30.5483 154.228 30.3552C153.896 30.1898 153.122 30.4104 152.818 30.7138C152.072 31.5137 151.409 31.3206 150.635 30.8517C149.53 30.1897 148.424 29.6105 147.319 28.9485C146.268 28.3142 145.274 27.7625 145.55 26.1627C145.771 24.9215 144.583 24.9215 143.809 25.1973C142.759 25.6111 142.123 25.2249 141.46 24.5629C140.244 23.3493 139.055 22.1081 137.812 20.9221C137.176 20.3153 136.955 19.736 137.48 18.881C137.729 18.4948 137.784 17.6673 137.535 17.4191C137.204 17.0881 136.485 17.1433 135.96 16.9778C135.352 16.7847 134.55 16.6744 134.246 16.2331C133.307 14.9367 132.616 13.4748 131.759 12.1233C131.151 11.1303 130.764 10.2753 131.814 9.19956C132.588 8.42725 132.008 7.32396 130.792 7.26879C129.659 7.18604 129.272 6.60682 129.023 5.66901C128.636 4.23473 128.221 2.80045 127.835 1.33858C127.531 0.152534 127.144 -0.923168 128.774 -1.66789C129.603 -2.05405 129.41 -3.15735 128.387 -3.35043C127.005 -3.65384 126.784 -4.45372 126.84 -5.63976C126.895 -6.85339 126.84 -8.06701 126.84 -9.30822C126.84 -10.6598 126.536 -12.0113 128.498 -12.5629C129.437 -12.8112 129.327 -14.0248 128.525 -14.5765C127.503 -15.2936 127.448 -16.0659 127.779 -17.1416C128.277 -18.769 128.719 -20.4515 129.106 -22.1064C129.327 -23.0994 129.824 -23.4856 130.847 -23.4028C131.234 -23.3752 131.925 -23.6786 132.008 -23.9545C132.118 -24.3958 131.98 -25.1405 131.676 -25.3887C130.709 -26.1335 130.985 -26.8782 131.455 -27.6781C132.339 -29.1951 133.168 -30.7673 134.191 -32.2292C134.467 -32.6429 135.241 -32.7808 135.794 -32.9463C136.43 -33.0842 137.093 -33.167 137.729 -33.2221C137.563 -33.8841 137.397 -34.5461 137.204 -35.1805C137.148 -35.3736 136.955 -35.5391 136.651 -36.0356C138.53 -37.8284 140.409 -39.6764 142.399 -41.4417C142.676 -41.6899 143.449 -41.4141 143.975 -41.3314C144.389 -41.2762 144.914 -40.9728 145.163 -41.1107C145.412 -41.2486 145.578 -41.9382 145.467 -42.2416C144.914 -43.5104 145.633 -44.062 146.572 -44.5861C148.065 -45.4411 149.53 -46.3238 151.022 -47.1788C151.879 -47.6753 152.625 -47.8408 153.316 -46.8203C153.509 -46.5169 154.173 -46.1859 154.394 -46.3238C154.753 -46.5169 155.14 -47.0685 155.112 -47.4271C155.029 -48.8889 155.886 -49.3578 157.075 -49.6337C158.456 -49.9647 159.838 -50.3784 161.248 -50.737C162.326 -51.0128 163.265 -51.1783 163.818 -49.7992C163.956 -49.4682 164.73 -49.2751 165.227 -49.2751C165.449 -49.2751 165.863 -49.8819 165.863 -50.2405C165.918 -51.3438 166.526 -51.6196 167.494 -51.592C169.373 -51.5644 171.28 -51.6748 173.132 -51.5368C173.74 -51.4817 174.458 -50.9576 174.818 -50.4336C175.536 -49.3578 176.255 -49.2751 177.167 -50.1577C177.554 -50.5439 178.3 -50.8749 178.77 -50.7645C180.759 -50.3232 182.749 -49.7716 184.684 -49.1096C185.181 -48.8614 185.541 -48.42 185.707 -47.896C186.011 -46.6272 186.536 -46.3514 187.807 -46.7651C188.526 -47.0133 189.327 -46.9858 190.046 -46.7375C191.4 -46.1307 192.643 -45.2756 193.915 -44.5033C194.854 -43.9241 195.766 -43.4 195.462 -41.9382C195.269 -41.0004 196.015 -40.8901 196.9 -41.0004C197.59 -41.0831 198.53 -40.9176 199.055 -40.4763C200.52 -39.2075 201.819 -37.7732 203.146 -36.3665C203.726 -35.7321 204.444 -35.1253 203.919 -34.0496C203.836 -33.8841 204.362 -33.3601 204.693 -33.0842C205.246 -32.6429 206.047 -32.4222 206.407 -31.8706C207.429 -30.3536 208.286 -28.7538 209.17 -27.154C209.557 -26.4369 210.082 -25.6921 209.115 -24.975C209.06 -24.9198 209.474 -24.12 209.778 -23.7338C210.193 -23.2373 210.939 -22.9615 211.133 -22.4098C211.768 -20.5342 212.293 -18.6035 212.736 -16.6727C212.929 -15.8177 213.565 -14.6868 212.072 -14.1351C212.045 -14.1351 212.266 -12.7836 212.459 -12.756C213.62 -12.5905 213.482 -11.7906 213.509 -11.0183C213.537 -9.69437 213.565 -8.37042 213.565 -7.01888C213.565 -5.83284 213.841 -4.53646 212.21 -4.01239C212.045 -3.95723 212.017 -2.68845 212.183 -2.6057C213.509 -2.02647 213.205 -1.06109 212.957 -0.0957108C212.487 1.77989 212.045 3.65551 211.492 5.50353C211.243 6.38617 211.077 7.37913 209.751 7.4343C209.613 7.4343 209.474 8.37209 209.419 8.89616C209.364 9.42022 209.613 10.1098 209.391 10.5511C208.507 12.344 207.485 14.0541 206.545 15.8193C206.075 16.702 205.55 17.226 204.444 16.8951C204.113 16.702 203.726 16.895 202.897 17.0054ZM129.935 -22.7408C129.437 -20.9756 128.94 -19.1276 128.415 -17.2795C128.166 -16.3969 128.111 -15.6797 129.023 -14.9626C130.046 -14.1627 129.907 -12.425 128.802 -12.0665C127.531 -11.6251 127.448 -10.7701 127.448 -9.77712C127.448 -8.398 127.475 -7.01888 127.503 -5.63976C127.531 -4.83987 127.669 -4.26064 128.636 -3.92965C129.935 -3.51591 130.377 -2.02647 129.437 -1.5024C127.586 -0.481857 128.332 0.842094 128.636 2.16605C128.857 3.1866 129.244 4.17956 129.493 5.20011C129.686 6.02758 129.99 6.49649 130.958 6.6344C132.45 6.85506 133.279 8.31692 132.422 9.2823C131.344 10.5235 131.98 11.351 132.533 12.344C133.141 13.3921 133.804 14.4126 134.385 15.4883C134.799 16.2606 135.214 16.5916 136.209 16.3434C137.618 16.0124 138.779 17.2536 138.198 18.4672C137.535 19.8464 138.143 20.6187 139 21.4737C139.857 22.3288 140.658 23.2942 141.625 24.0113C142.261 24.425 143.007 24.6181 143.781 24.5629C145.191 24.425 146.296 24.9215 146.158 26.1351C145.992 27.5418 146.711 28.1211 147.733 28.6727C148.673 29.1692 149.557 29.6933 150.469 30.2449C151.298 30.7414 151.989 30.8242 152.818 30.0518C153.813 29.1416 155.389 29.7484 155.361 31.0448C155.333 32.4239 156.08 32.7273 157.075 33.0031C158.677 33.4169 160.28 33.8582 161.911 34.1892C162.298 34.2719 162.823 33.9134 163.21 33.6651C163.818 33.279 164.509 32.3412 164.896 32.4515C165.587 32.6722 166.029 33.5548 166.637 34.1064C166.996 34.4374 167.411 34.9615 167.798 34.9891C169.511 35.0718 171.225 34.9615 172.938 34.9615C173.85 34.9615 174.431 34.6857 174.79 33.7203C175.204 32.617 176.642 32.2584 177.167 33.1411C178.023 34.5478 178.991 34.2168 180.124 33.8582C181.257 33.4996 182.473 33.1962 183.634 32.8928C184.546 32.6446 185.154 32.3412 185.154 31.1551C185.154 30.0243 186.729 29.3071 187.503 30.0794C188.498 31.0172 189.244 30.6862 190.128 30.1622C191.455 29.3623 192.754 28.5348 194.081 27.7349C194.744 27.3488 195.158 26.9902 194.827 26.0248C194.467 24.9491 195.297 24.0665 196.264 24.4802C197.729 25.1422 198.42 24.3147 199.221 23.5148C200.658 22.0529 202.04 20.5635 203.422 19.1292C202.427 17.226 202.648 15.9572 203.809 16.2055C205.743 16.6468 206.047 15.2677 206.711 14.2196C207.374 13.1714 207.816 12.0405 208.424 10.9924C208.894 10.1925 209.115 9.47539 208.645 8.53759C208.452 8.15144 208.866 7.04814 209.198 6.96539C210.497 6.66198 210.773 5.69661 211.05 4.67606C211.492 3.02111 211.989 1.36617 212.321 -0.288773C212.432 -0.84042 212.293 -1.64032 211.934 -2.05405C210.773 -3.32284 210.746 -3.79174 212.072 -4.75712C213.04 -5.47426 213.261 -11.3769 212.349 -12.1492C210.69 -13.5283 210.69 -13.9421 212.487 -15.3488C211.906 -17.5002 211.354 -19.7619 210.635 -21.9409C210.469 -22.465 209.668 -22.7408 209.309 -23.2373C208.922 -23.789 208.258 -24.8095 208.452 -25.0026C209.309 -25.968 208.756 -26.7403 208.341 -27.5126C207.567 -28.9193 206.821 -30.326 205.937 -31.6775C205.66 -32.0913 204.97 -32.2292 204.555 -32.5878C204.058 -32.9739 203.615 -33.4704 203.284 -34.022C202.924 -34.684 202.98 -35.6218 202.537 -36.1459C201.404 -37.4974 200.161 -38.7938 198.834 -39.9522C198.364 -40.366 197.508 -40.5315 196.844 -40.4487C195.601 -40.3108 194.716 -40.697 194.854 -41.9382C194.993 -43.1794 194.385 -43.6483 193.555 -44.1448C192.422 -44.8343 191.317 -45.6066 190.101 -46.1031C189.382 -46.3514 188.581 -46.3789 187.835 -46.1859C186.646 -45.8549 185.43 -46.0204 185.264 -47.1788C185.071 -48.5028 184.352 -48.7234 183.385 -48.9993C182.058 -49.3578 180.759 -49.8819 179.405 -50.1026C178.687 -50.1577 177.996 -49.9371 177.415 -49.5233C176.255 -48.6407 175.204 -48.8062 174.375 -50.075C174.099 -50.5163 173.519 -50.9852 173.049 -51.0128C170.921 -51.1231 168.765 -51.068 166.637 -51.068L166.858 -50.5715C166.305 -49.9095 165.67 -48.6407 165.2 -48.6959C164.205 -48.8062 163.321 -49.6337 162.022 -50.3508C161.082 -50.1301 159.617 -49.8267 158.18 -49.4406C156.853 -49.082 155.582 -48.8062 155.499 -46.903C155.444 -45.6618 154.062 -45.1653 153.344 -46.0204C152.321 -47.2616 151.437 -46.903 150.386 -46.241C149.336 -45.5791 148.203 -44.9171 147.098 -44.3103C146.213 -43.8138 145.66 -43.3449 146.047 -42.1037C146.462 -40.7797 145.384 -40.0626 144.057 -40.6142C143.671 -40.7797 143.311 -41.0004 142.841 -41.2486L137.342 -36.0907C137.839 -35.1805 138.171 -34.7392 138.337 -34.2151C138.724 -33.0015 137.729 -31.7051 136.595 -32.1464C134.91 -32.8084 134.412 -31.7327 133.804 -30.7397C133.113 -29.6089 132.478 -28.4504 131.87 -27.2644C131.676 -26.9058 131.648 -26.4645 131.787 -26.0783C133.307 -23.6235 132.92 -22.8236 129.935 -22.7408Z" fill="black" fill-opacity="0.3"/>
    <path d="M196.236 -32.7533C192.92 -29.1951 189.465 -25.7473 186.315 -22.0237C184.159 -19.4586 181.948 -17.0865 178.714 -15.6798L179.792 -14.411C179.93 -14.411 180.069 -14.4386 180.207 -14.5213C185.043 -19.5413 191.98 -20.9204 197.673 -24.4234C198.945 -25.1957 200.327 -25.7473 201.764 -26.0783C198.198 -23.7614 194.633 -21.4445 191.068 -19.1C189.603 -18.1346 188.249 -16.9486 186.757 -16.0383C185.651 -15.3488 184.408 -14.8523 183.219 -14.3282C182.362 -13.9697 181.478 -13.6662 180.456 -13.3077L181.064 -11.8458C181.202 -11.8182 181.368 -11.8182 181.506 -11.8458C185.955 -14.9902 191.4 -14.6316 196.347 -16.0107C199.497 -16.8658 202.731 -17.445 205.964 -17.8036C201.625 -16.3417 197.286 -14.8799 192.947 -13.418C190.46 -12.563 187.973 -11.6803 185.43 -10.8804C184.712 -10.6598 183.882 -10.7149 183.109 -10.7701C181.699 -10.8528 181.091 -10.4115 181.672 -8.83932C182.086 -8.86691 182.473 -8.92207 182.86 -9.0324C186.646 -10.4943 190.488 -9.3634 194.302 -9.22548C198.945 -9.05999 203.588 -8.89449 208.231 -8.48075C202.924 -8.12218 197.618 -7.76362 192.312 -7.40505C191.427 -7.34989 190.543 -7.12923 189.686 -7.12923C187.779 -7.12923 185.872 -7.18439 183.965 -7.26714C183.164 -7.34989 182.39 -7.46021 181.616 -7.62571L181.423 -5.88802C181.533 -5.77769 181.644 -5.72251 181.782 -5.66735C186.923 -6.16383 191.262 -3.37801 195.96 -2.08164C199.525 -1.08867 203.035 0.124947 206.49 1.53165C201.404 0.511097 196.319 -0.619778 191.206 -1.50241C187.779 -2.08165 184.297 -2.41264 181.285 -4.72956L180.538 -3.12978C180.594 -2.99187 180.677 -2.88153 180.787 -2.7712C187.365 -1.22659 191.953 3.7934 197.673 6.85504C199.359 7.76526 200.935 8.89615 202.372 10.1925L189.355 3.73824C189.244 3.68307 189.161 3.62791 189.051 3.57275C185.762 2.24879 182.445 1.00758 180.069 -2.13681L178.853 -0.592201C178.908 -0.454288 178.963 -0.316368 179.074 -0.206039C182.501 1.39374 184.684 4.31746 187.033 7.0757C190.046 10.6062 193.279 13.9437 196.209 17.6398C195.103 16.702 194.025 15.7642 192.92 14.8264C189.106 11.6268 185.264 8.45482 181.506 5.2001C180.732 4.53812 180.207 3.57274 179.599 2.71769C179.074 2.00055 178.604 1.25582 178.023 0.428352L176.642 1.33857C176.614 1.47648 176.642 1.61439 176.697 1.7523C181.948 7.02054 183.578 14.3574 187.42 20.4532C188.056 21.5013 188.553 22.6598 188.83 23.8458C187.199 21.4185 185.624 18.9913 183.965 16.5916C181.92 13.6403 179.765 10.7717 177.747 7.79285C177.167 6.9378 176.89 5.88966 176.531 4.92427C176.199 4.04164 175.951 3.159 175.591 2.11087L174.016 2.63494C173.961 2.77285 173.933 2.91077 173.933 3.04868C177.554 8.97889 177.25 15.9848 179.157 22.3839C179.626 23.9561 179.875 25.6111 179.903 27.2384C178.687 23.6527 177.498 20.0394 176.227 16.4537C175.398 14.1092 174.375 11.8475 173.602 9.47537C173.215 8.34449 173.104 7.13088 172.938 5.91725C172.828 5.0622 172.828 4.17956 172.772 3.24176H170.893C170.921 3.68307 170.838 4.06923 170.948 4.40022C172.081 7.51703 171.722 10.6614 171.28 13.861C170.921 16.4261 171.004 19.0465 170.865 21.6392C170.727 24.4526 170.589 27.266 170.257 30.0794C169.953 24.9491 169.677 19.8188 169.345 14.716C169.235 13.2266 168.931 11.7647 168.848 10.2753C168.793 9.08922 168.848 7.8756 168.986 6.68956C169.097 5.61384 169.373 4.53813 169.622 3.29692L167.936 3.15901C167.853 3.24176 167.798 3.3245 167.77 3.40725C167.853 9.83394 164.371 15.2952 162.851 21.2806C162.27 23.4596 161.496 25.5835 160.502 27.6246C161.303 23.7355 162.16 19.8739 162.906 15.9848C163.403 13.3921 163.652 10.7442 164.205 8.15142C164.454 6.99296 165.145 5.94483 165.67 4.84153C165.974 4.20714 166.305 3.57275 166.665 2.82802L165.2 2.08329C165.062 2.13846 164.951 2.24879 164.841 2.35912C163.321 8.8134 158.291 13.2817 155.251 18.8534C154.2 20.7014 152.984 22.4115 151.602 24.0113C153.426 20.3428 155.278 16.702 157.075 13.0335C158.097 10.9097 158.954 8.67549 160.004 6.55164C160.557 5.50351 161.414 4.59328 162.16 3.6279C162.713 2.93834 163.293 2.27638 163.956 1.50407L162.713 0.483521C162.574 0.538685 162.436 0.593853 162.326 0.676598C159.424 6.35857 153.648 9.22713 149.502 13.6679C148.037 15.2125 146.351 16.564 144.555 17.7225C146.876 15.0746 149.226 12.4819 151.492 9.80636C153.316 7.65493 154.974 5.39318 156.826 3.24176C157.489 2.46945 158.429 1.9178 159.286 1.31099C160.032 0.759342 160.833 0.262859 161.718 -0.343952L160.806 -1.72307C160.667 -1.75065 160.529 -1.75065 160.391 -1.72307C155.416 3.46242 148.286 4.97944 142.455 8.6479C141.487 9.28229 140.382 9.66844 139.249 9.83393C142.648 7.57218 146.047 5.33802 149.419 3.04868C150.939 2.02813 152.293 0.786919 153.841 -0.178463C154.974 -0.895607 156.301 -1.3645 157.544 -1.91615C158.291 -2.24714 159.064 -2.49539 160.004 -2.85396L159.424 -4.45374C159.258 -4.48132 159.092 -4.50889 158.954 -4.48131C153.62 -1.11626 147.263 -1.47483 141.46 0.152527C139.332 0.759338 137.121 1.11792 134.882 1.22825C137.48 0.345612 140.078 -0.509453 142.676 -1.41967C146.047 -2.60571 149.419 -3.90209 152.818 -5.06055C153.841 -5.39154 154.974 -5.39153 156.08 -5.52944C156.964 -5.61218 157.848 -5.66735 158.816 -5.72252V-7.62571C157.296 -7.3223 155.914 -7.01889 154.532 -6.74307C153.952 -6.60516 153.344 -6.52241 152.736 -6.52241C145.937 -6.96373 139.138 -7.40504 132.339 -7.87394C132.174 -7.87394 132.008 -7.9567 131.897 -8.09461C137.48 -8.4256 143.063 -8.64626 148.645 -9.14274C152.017 -9.44614 155.333 -9.88746 158.788 -8.53592L159.009 -10.6873C158.429 -10.7977 157.876 -10.8528 157.296 -10.8528C153.233 -10.577 149.917 -12.9491 146.241 -14.0524C142.427 -15.2109 138.668 -16.5624 134.965 -18.107C135.711 -17.9967 136.457 -17.9139 137.176 -17.7484C141.321 -16.8106 145.439 -15.6798 149.64 -14.9626C152.984 -14.411 156.273 -13.9145 159.203 -11.6527L160.032 -13.3628C159.949 -13.5008 159.838 -13.6111 159.728 -13.7214C153.758 -15.0454 149.806 -19.7895 144.748 -22.6305C142.731 -23.789 140.852 -25.1957 139.166 -26.7679C140.769 -25.968 142.372 -25.1405 143.975 -24.3406C147.982 -22.3547 152.045 -20.4239 156.024 -18.3828C156.992 -17.8864 157.765 -17.0313 158.622 -16.3417C159.286 -15.7901 159.921 -15.1833 160.695 -14.4937L161.911 -15.9004C161.883 -16.0383 161.828 -16.1762 161.745 -16.2866C156.135 -19.3482 153.509 -25.2233 149.198 -29.5261C147.789 -30.9604 146.545 -32.5602 145.522 -34.2703C145.882 -33.9945 146.241 -33.7462 146.572 -33.4428C150.884 -29.5537 155.278 -25.7197 159.451 -21.7203C160.806 -20.4239 161.662 -18.6035 162.851 -16.8934L164.205 -17.8036C164.177 -17.9415 164.122 -18.0794 164.067 -18.1898C160.059 -21.6927 159.092 -26.9334 156.66 -31.3466C155.168 -34.1048 153.896 -36.9734 152.901 -39.9523C155.251 -36.2286 157.544 -32.4774 159.921 -28.7814C160.888 -27.292 162.049 -25.9404 162.934 -24.4234C163.542 -23.4028 163.901 -22.2168 164.343 -21.1135C164.647 -20.286 164.896 -19.4585 165.2 -18.4932L166.72 -18.9897C166.775 -19.1276 166.803 -19.2379 166.775 -19.3758C163.348 -24.8371 163.929 -31.2914 162.27 -37.194C161.69 -39.4558 161.303 -41.7727 161.192 -44.0896C162.326 -40.5315 163.403 -36.9734 164.592 -33.4428C165.449 -30.8776 166.444 -28.3677 167.273 -25.7749C167.604 -24.6165 167.798 -23.4304 167.881 -22.2168C167.936 -21.3341 167.936 -20.4515 167.908 -19.5689C168.986 -19.3206 170.009 -19.3482 169.539 -20.5618C167.936 -24.9198 169.511 -29.1951 169.511 -33.5256C169.511 -36.6148 169.788 -39.704 169.953 -42.7932C169.953 -43.4276 170.147 -44.062 170.506 -44.6137C170.672 -41.6624 170.783 -38.7111 171.004 -35.7597C171.252 -32.3947 171.722 -29.0572 171.86 -25.6922C171.916 -24.0648 171.418 -22.4374 171.142 -20.8101C171.087 -20.4239 171.031 -20.0654 170.948 -19.4861L172.745 -19.3482C173.187 -27.485 177.415 -34.353 179.322 -41.9106C179.488 -42.6277 179.82 -43.2897 180.29 -43.869C179.765 -41.3865 179.184 -38.9041 178.714 -36.4217C177.941 -32.4774 177.388 -28.478 176.448 -24.5613C176.006 -22.6857 174.873 -20.948 173.961 -18.9621L175.426 -18.2449C175.564 -18.3001 175.702 -18.3828 175.812 -18.4932C177.471 -24.975 182.611 -29.3606 185.762 -34.9598C186.729 -36.6148 187.89 -38.1594 189.216 -39.5661C187.42 -36.1183 185.596 -32.6705 183.827 -29.1951C182.722 -27.0437 181.81 -24.7819 180.677 -22.6305C180.151 -21.6375 179.35 -20.7549 178.631 -19.8723C178.023 -19.1 177.333 -18.4104 176.614 -17.6105L177.996 -16.4796C178.106 -16.5072 178.245 -16.5348 178.327 -16.6176C181.257 -22.1065 186.978 -24.6992 191.151 -28.8917C192.643 -30.4087 194.357 -31.6775 195.988 -33.0567L196.236 -32.7533ZM180.87 -8.06702C180.87 -14.1903 176.282 -18.769 170.175 -18.769C164.343 -18.8241 159.562 -14.1627 159.507 -8.31527C159.507 -8.20494 159.507 -8.0946 159.507 -8.01185C159.507 -2.1368 164.26 2.63494 170.147 2.63494C170.202 2.63494 170.257 2.63494 170.313 2.63494C176.255 2.57978 180.87 -2.10923 180.87 -8.06702Z" fill="black" fill-opacity="0.3"/>
</svg>
